%TF.GenerationSoftware,KiCad,Pcbnew,5.1.7-a382d34a8~87~ubuntu16.04.1*%
%TF.CreationDate,2020-11-12T14:08:06+07:00*%
%TF.ProjectId,sama5d27_som1_ek-sharp_ls0xx_lcd-adapter,73616d61-3564-4323-975f-736f6d315f65,rev?*%
%TF.SameCoordinates,Original*%
%TF.FileFunction,Copper,L1,Top*%
%TF.FilePolarity,Positive*%
%FSLAX46Y46*%
G04 Gerber Fmt 4.6, Leading zero omitted, Abs format (unit mm)*
G04 Created by KiCad (PCBNEW 5.1.7-a382d34a8~87~ubuntu16.04.1) date 2020-11-12 14:08:06*
%MOMM*%
%LPD*%
G01*
G04 APERTURE LIST*
%TA.AperFunction,Profile*%
%ADD10C,0.250000*%
%TD*%
%TA.AperFunction,NonConductor*%
%ADD11C,0.300000*%
%TD*%
%TA.AperFunction,SMDPad,CuDef*%
%ADD12R,0.863600X1.498600*%
%TD*%
%TA.AperFunction,SMDPad,CuDef*%
%ADD13R,0.304800X0.660400*%
%TD*%
%TA.AperFunction,ComponentPad*%
%ADD14C,3.800000*%
%TD*%
%TA.AperFunction,SMDPad,CuDef*%
%ADD15R,0.254000X0.812800*%
%TD*%
%TA.AperFunction,SMDPad,CuDef*%
%ADD16R,1.524000X1.701800*%
%TD*%
%TA.AperFunction,ViaPad*%
%ADD17C,1.000000*%
%TD*%
%TA.AperFunction,Conductor*%
%ADD18C,0.250000*%
%TD*%
%TA.AperFunction,Conductor*%
%ADD19C,0.350000*%
%TD*%
%TA.AperFunction,Conductor*%
%ADD20C,0.254000*%
%TD*%
%TA.AperFunction,Conductor*%
%ADD21C,0.150000*%
%TD*%
G04 APERTURE END LIST*
D10*
X120300000Y-52100000D02*
X175300000Y-52100000D01*
D11*
X124942857Y-74492857D02*
X124871428Y-74707142D01*
X124871428Y-75064285D01*
X124942857Y-75207142D01*
X125014285Y-75278571D01*
X125157142Y-75350000D01*
X125300000Y-75350000D01*
X125442857Y-75278571D01*
X125514285Y-75207142D01*
X125585714Y-75064285D01*
X125657142Y-74778571D01*
X125728571Y-74635714D01*
X125800000Y-74564285D01*
X125942857Y-74492857D01*
X126085714Y-74492857D01*
X126228571Y-74564285D01*
X126300000Y-74635714D01*
X126371428Y-74778571D01*
X126371428Y-75135714D01*
X126300000Y-75350000D01*
X124871428Y-75992857D02*
X126371428Y-75992857D01*
X124871428Y-76635714D02*
X125657142Y-76635714D01*
X125800000Y-76564285D01*
X125871428Y-76421428D01*
X125871428Y-76207142D01*
X125800000Y-76064285D01*
X125728571Y-75992857D01*
X124871428Y-77992857D02*
X125657142Y-77992857D01*
X125800000Y-77921428D01*
X125871428Y-77778571D01*
X125871428Y-77492857D01*
X125800000Y-77350000D01*
X124942857Y-77992857D02*
X124871428Y-77850000D01*
X124871428Y-77492857D01*
X124942857Y-77350000D01*
X125085714Y-77278571D01*
X125228571Y-77278571D01*
X125371428Y-77350000D01*
X125442857Y-77492857D01*
X125442857Y-77850000D01*
X125514285Y-77992857D01*
X124871428Y-78707142D02*
X125871428Y-78707142D01*
X125585714Y-78707142D02*
X125728571Y-78778571D01*
X125800000Y-78850000D01*
X125871428Y-78992857D01*
X125871428Y-79135714D01*
X125871428Y-79635714D02*
X124371428Y-79635714D01*
X125800000Y-79635714D02*
X125871428Y-79778571D01*
X125871428Y-80064285D01*
X125800000Y-80207142D01*
X125728571Y-80278571D01*
X125585714Y-80350000D01*
X125157142Y-80350000D01*
X125014285Y-80278571D01*
X124942857Y-80207142D01*
X124871428Y-80064285D01*
X124871428Y-79778571D01*
X124942857Y-79635714D01*
X124871428Y-82135714D02*
X125871428Y-82135714D01*
X125728571Y-82135714D02*
X125800000Y-82207142D01*
X125871428Y-82350000D01*
X125871428Y-82564285D01*
X125800000Y-82707142D01*
X125657142Y-82778571D01*
X124871428Y-82778571D01*
X125657142Y-82778571D02*
X125800000Y-82850000D01*
X125871428Y-82992857D01*
X125871428Y-83207142D01*
X125800000Y-83350000D01*
X125657142Y-83421428D01*
X124871428Y-83421428D01*
X124942857Y-84707142D02*
X124871428Y-84564285D01*
X124871428Y-84278571D01*
X124942857Y-84135714D01*
X125085714Y-84064285D01*
X125657142Y-84064285D01*
X125800000Y-84135714D01*
X125871428Y-84278571D01*
X125871428Y-84564285D01*
X125800000Y-84707142D01*
X125657142Y-84778571D01*
X125514285Y-84778571D01*
X125371428Y-84064285D01*
X124871428Y-85421428D02*
X125871428Y-85421428D01*
X125728571Y-85421428D02*
X125800000Y-85492857D01*
X125871428Y-85635714D01*
X125871428Y-85850000D01*
X125800000Y-85992857D01*
X125657142Y-86064285D01*
X124871428Y-86064285D01*
X125657142Y-86064285D02*
X125800000Y-86135714D01*
X125871428Y-86278571D01*
X125871428Y-86492857D01*
X125800000Y-86635714D01*
X125657142Y-86707142D01*
X124871428Y-86707142D01*
X124871428Y-87635714D02*
X124942857Y-87492857D01*
X125014285Y-87421428D01*
X125157142Y-87350000D01*
X125585714Y-87350000D01*
X125728571Y-87421428D01*
X125800000Y-87492857D01*
X125871428Y-87635714D01*
X125871428Y-87850000D01*
X125800000Y-87992857D01*
X125728571Y-88064285D01*
X125585714Y-88135714D01*
X125157142Y-88135714D01*
X125014285Y-88064285D01*
X124942857Y-87992857D01*
X124871428Y-87850000D01*
X124871428Y-87635714D01*
X124871428Y-88778571D02*
X125871428Y-88778571D01*
X125585714Y-88778571D02*
X125728571Y-88850000D01*
X125800000Y-88921428D01*
X125871428Y-89064285D01*
X125871428Y-89207142D01*
X125871428Y-89564285D02*
X124871428Y-89921428D01*
X125871428Y-90278571D02*
X124871428Y-89921428D01*
X124514285Y-89778571D01*
X124442857Y-89707142D01*
X124371428Y-89564285D01*
X124871428Y-92707142D02*
X124871428Y-91992857D01*
X126371428Y-91992857D01*
X125014285Y-94064285D02*
X124942857Y-93992857D01*
X124871428Y-93778571D01*
X124871428Y-93635714D01*
X124942857Y-93421428D01*
X125085714Y-93278571D01*
X125228571Y-93207142D01*
X125514285Y-93135714D01*
X125728571Y-93135714D01*
X126014285Y-93207142D01*
X126157142Y-93278571D01*
X126300000Y-93421428D01*
X126371428Y-93635714D01*
X126371428Y-93778571D01*
X126300000Y-93992857D01*
X126228571Y-94064285D01*
X124871428Y-94707142D02*
X126371428Y-94707142D01*
X126371428Y-95064285D01*
X126300000Y-95278571D01*
X126157142Y-95421428D01*
X126014285Y-95492857D01*
X125728571Y-95564285D01*
X125514285Y-95564285D01*
X125228571Y-95492857D01*
X125085714Y-95421428D01*
X124942857Y-95278571D01*
X124871428Y-95064285D01*
X124871428Y-94707142D01*
X125657142Y-97849999D02*
X125585714Y-98064285D01*
X125514285Y-98135714D01*
X125371428Y-98207142D01*
X125157142Y-98207142D01*
X125014285Y-98135714D01*
X124942857Y-98064285D01*
X124871428Y-97921428D01*
X124871428Y-97349999D01*
X126371428Y-97349999D01*
X126371428Y-97849999D01*
X126300000Y-97992857D01*
X126228571Y-98064285D01*
X126085714Y-98135714D01*
X125942857Y-98135714D01*
X125800000Y-98064285D01*
X125728571Y-97992857D01*
X125657142Y-97849999D01*
X125657142Y-97349999D01*
X124871428Y-98849999D02*
X125871428Y-98849999D01*
X125585714Y-98849999D02*
X125728571Y-98921428D01*
X125800000Y-98992857D01*
X125871428Y-99135714D01*
X125871428Y-99278571D01*
X124942857Y-100349999D02*
X124871428Y-100207142D01*
X124871428Y-99921428D01*
X124942857Y-99778571D01*
X125085714Y-99707142D01*
X125657142Y-99707142D01*
X125800000Y-99778571D01*
X125871428Y-99921428D01*
X125871428Y-100207142D01*
X125800000Y-100349999D01*
X125657142Y-100421428D01*
X125514285Y-100421428D01*
X125371428Y-99707142D01*
X124871428Y-101707142D02*
X125657142Y-101707142D01*
X125800000Y-101635714D01*
X125871428Y-101492857D01*
X125871428Y-101207142D01*
X125800000Y-101064285D01*
X124942857Y-101707142D02*
X124871428Y-101564285D01*
X124871428Y-101207142D01*
X124942857Y-101064285D01*
X125085714Y-100992857D01*
X125228571Y-100992857D01*
X125371428Y-101064285D01*
X125442857Y-101207142D01*
X125442857Y-101564285D01*
X125514285Y-101707142D01*
X124871428Y-102421428D02*
X126371428Y-102421428D01*
X125442857Y-102564285D02*
X124871428Y-102992857D01*
X125871428Y-102992857D02*
X125300000Y-102421428D01*
X124871428Y-103849999D02*
X124942857Y-103707142D01*
X125014285Y-103635714D01*
X125157142Y-103564285D01*
X125585714Y-103564285D01*
X125728571Y-103635714D01*
X125800000Y-103707142D01*
X125871428Y-103849999D01*
X125871428Y-104064285D01*
X125800000Y-104207142D01*
X125728571Y-104278571D01*
X125585714Y-104350000D01*
X125157142Y-104350000D01*
X125014285Y-104278571D01*
X124942857Y-104207142D01*
X124871428Y-104064285D01*
X124871428Y-103849999D01*
X125871428Y-105635714D02*
X124871428Y-105635714D01*
X125871428Y-104992857D02*
X125085714Y-104992857D01*
X124942857Y-105064285D01*
X124871428Y-105207142D01*
X124871428Y-105421428D01*
X124942857Y-105564285D01*
X125014285Y-105635714D01*
X125871428Y-106135714D02*
X125871428Y-106707142D01*
X126371428Y-106350000D02*
X125085714Y-106350000D01*
X124942857Y-106421428D01*
X124871428Y-106564285D01*
X124871428Y-106707142D01*
X124871428Y-109207142D02*
X125585714Y-108707142D01*
X124871428Y-108350000D02*
X126371428Y-108350000D01*
X126371428Y-108921428D01*
X126300000Y-109064285D01*
X126228571Y-109135714D01*
X126085714Y-109207142D01*
X125871428Y-109207142D01*
X125728571Y-109135714D01*
X125657142Y-109064285D01*
X125585714Y-108921428D01*
X125585714Y-108350000D01*
X124942857Y-110421428D02*
X124871428Y-110278571D01*
X124871428Y-109992857D01*
X124942857Y-109850000D01*
X125085714Y-109778571D01*
X125657142Y-109778571D01*
X125800000Y-109850000D01*
X125871428Y-109992857D01*
X125871428Y-110278571D01*
X125800000Y-110421428D01*
X125657142Y-110492857D01*
X125514285Y-110492857D01*
X125371428Y-109778571D01*
X125871428Y-110992857D02*
X124871428Y-111350000D01*
X125871428Y-111707142D01*
X125014285Y-112278571D02*
X124942857Y-112350000D01*
X124871428Y-112278571D01*
X124942857Y-112207142D01*
X125014285Y-112278571D01*
X124871428Y-112278571D01*
X125300000Y-114064285D02*
X125300000Y-114778571D01*
X124871428Y-113921428D02*
X126371428Y-114421428D01*
X124871428Y-114921428D01*
X124871428Y-116207142D02*
X124871428Y-115350000D01*
X124871428Y-115778571D02*
X126371428Y-115778571D01*
X126157142Y-115635714D01*
X126014285Y-115492857D01*
X125942857Y-115350000D01*
D10*
X120300000Y-137100000D02*
X120300000Y-52100000D01*
X175300000Y-137100000D02*
X120300000Y-137100000D01*
X175300000Y-52100000D02*
X175300000Y-137100000D01*
D12*
%TO.P,J2,12*%
%TO.N,GND*%
X143083701Y-133090000D03*
%TO.P,J2,11*%
X149916301Y-133090000D03*
D13*
%TO.P,J2,10*%
X148750002Y-130550000D03*
%TO.P,J2,9*%
X148250000Y-130550000D03*
%TO.P,J2,8*%
%TO.N,/EXTMODE*%
X147750001Y-130550000D03*
%TO.P,J2,7*%
%TO.N,+5V*%
X147250002Y-130550000D03*
%TO.P,J2,6*%
X146750001Y-130550000D03*
%TO.P,J2,5*%
%TO.N,/LCD_DISP_DISP*%
X146250001Y-130550000D03*
%TO.P,J2,4*%
%TO.N,/EXTCOMIN*%
X145750000Y-130550000D03*
%TO.P,J2,3*%
%TO.N,/SPI0_NPCS0_SCS*%
X145250001Y-130550000D03*
%TO.P,J2,2*%
%TO.N,/SPI0_MOSI_SI*%
X144750002Y-130550000D03*
%TO.P,J2,1*%
%TO.N,/SPI0_SPCK_SCK*%
X144250000Y-130550000D03*
%TD*%
D14*
%TO.P,REF\u002A\u002A,1*%
%TO.N,N/C*%
X123800000Y-55600000D03*
%TD*%
%TO.P,REF\u002A\u002A,1*%
%TO.N,N/C*%
X171800000Y-133600000D03*
%TD*%
%TO.P,REF\u002A\u002A,1*%
%TO.N,N/C*%
X123800000Y-133600000D03*
%TD*%
%TO.P,REF\u002A\u002A,1*%
%TO.N,N/C*%
X171800000Y-55600000D03*
%TD*%
%TO.P,C2,2*%
%TO.N,GND*%
%TA.AperFunction,SMDPad,CuDef*%
G36*
G01*
X149100000Y-123375000D02*
X149100000Y-122425000D01*
G75*
G02*
X149350000Y-122175000I250000J0D01*
G01*
X149850000Y-122175000D01*
G75*
G02*
X150100000Y-122425000I0J-250000D01*
G01*
X150100000Y-123375000D01*
G75*
G02*
X149850000Y-123625000I-250000J0D01*
G01*
X149350000Y-123625000D01*
G75*
G02*
X149100000Y-123375000I0J250000D01*
G01*
G37*
%TD.AperFunction*%
%TO.P,C2,1*%
%TO.N,+5V*%
%TA.AperFunction,SMDPad,CuDef*%
G36*
G01*
X147200000Y-123375000D02*
X147200000Y-122425000D01*
G75*
G02*
X147450000Y-122175000I250000J0D01*
G01*
X147950000Y-122175000D01*
G75*
G02*
X148200000Y-122425000I0J-250000D01*
G01*
X148200000Y-123375000D01*
G75*
G02*
X147950000Y-123625000I-250000J0D01*
G01*
X147450000Y-123625000D01*
G75*
G02*
X147200000Y-123375000I0J250000D01*
G01*
G37*
%TD.AperFunction*%
%TD*%
%TO.P,R2,2*%
%TO.N,+5V*%
%TA.AperFunction,SMDPad,CuDef*%
G36*
G01*
X146450000Y-127499998D02*
X146450000Y-128400002D01*
G75*
G02*
X146200002Y-128650000I-249998J0D01*
G01*
X145674998Y-128650000D01*
G75*
G02*
X145425000Y-128400002I0J249998D01*
G01*
X145425000Y-127499998D01*
G75*
G02*
X145674998Y-127250000I249998J0D01*
G01*
X146200002Y-127250000D01*
G75*
G02*
X146450000Y-127499998I0J-249998D01*
G01*
G37*
%TD.AperFunction*%
%TO.P,R2,1*%
%TO.N,/EXTMODE*%
%TA.AperFunction,SMDPad,CuDef*%
G36*
G01*
X148275000Y-127499998D02*
X148275000Y-128400002D01*
G75*
G02*
X148025002Y-128650000I-249998J0D01*
G01*
X147499998Y-128650000D01*
G75*
G02*
X147250000Y-128400002I0J249998D01*
G01*
X147250000Y-127499998D01*
G75*
G02*
X147499998Y-127250000I249998J0D01*
G01*
X148025002Y-127250000D01*
G75*
G02*
X148275000Y-127499998I0J-249998D01*
G01*
G37*
%TD.AperFunction*%
%TD*%
%TO.P,C1,1*%
%TO.N,/LCD_DISP_DISP*%
%TA.AperFunction,SMDPad,CuDef*%
G36*
G01*
X146185000Y-124920000D02*
X146185000Y-125420000D01*
G75*
G02*
X145960000Y-125645000I-225000J0D01*
G01*
X145510000Y-125645000D01*
G75*
G02*
X145285000Y-125420000I0J225000D01*
G01*
X145285000Y-124920000D01*
G75*
G02*
X145510000Y-124695000I225000J0D01*
G01*
X145960000Y-124695000D01*
G75*
G02*
X146185000Y-124920000I0J-225000D01*
G01*
G37*
%TD.AperFunction*%
%TO.P,C1,2*%
%TO.N,GND*%
%TA.AperFunction,SMDPad,CuDef*%
G36*
G01*
X144635000Y-124920000D02*
X144635000Y-125420000D01*
G75*
G02*
X144410000Y-125645000I-225000J0D01*
G01*
X143960000Y-125645000D01*
G75*
G02*
X143735000Y-125420000I0J225000D01*
G01*
X143735000Y-124920000D01*
G75*
G02*
X143960000Y-124695000I225000J0D01*
G01*
X144410000Y-124695000D01*
G75*
G02*
X144635000Y-124920000I0J-225000D01*
G01*
G37*
%TD.AperFunction*%
%TD*%
%TO.P,C3,1*%
%TO.N,+5V*%
%TA.AperFunction,SMDPad,CuDef*%
G36*
G01*
X147200000Y-125425000D02*
X147200000Y-124475000D01*
G75*
G02*
X147450000Y-124225000I250000J0D01*
G01*
X147950000Y-124225000D01*
G75*
G02*
X148200000Y-124475000I0J-250000D01*
G01*
X148200000Y-125425000D01*
G75*
G02*
X147950000Y-125675000I-250000J0D01*
G01*
X147450000Y-125675000D01*
G75*
G02*
X147200000Y-125425000I0J250000D01*
G01*
G37*
%TD.AperFunction*%
%TO.P,C3,2*%
%TO.N,GND*%
%TA.AperFunction,SMDPad,CuDef*%
G36*
G01*
X149100000Y-125425000D02*
X149100000Y-124475000D01*
G75*
G02*
X149350000Y-124225000I250000J0D01*
G01*
X149850000Y-124225000D01*
G75*
G02*
X150100000Y-124475000I0J-250000D01*
G01*
X150100000Y-125425000D01*
G75*
G02*
X149850000Y-125675000I-250000J0D01*
G01*
X149350000Y-125675000D01*
G75*
G02*
X149100000Y-125425000I0J250000D01*
G01*
G37*
%TD.AperFunction*%
%TD*%
%TO.P,R3,2*%
%TO.N,GND*%
%TA.AperFunction,SMDPad,CuDef*%
G36*
G01*
X150787500Y-128400002D02*
X150787500Y-127499998D01*
G75*
G02*
X151037498Y-127250000I249998J0D01*
G01*
X151562502Y-127250000D01*
G75*
G02*
X151812500Y-127499998I0J-249998D01*
G01*
X151812500Y-128400002D01*
G75*
G02*
X151562502Y-128650000I-249998J0D01*
G01*
X151037498Y-128650000D01*
G75*
G02*
X150787500Y-128400002I0J249998D01*
G01*
G37*
%TD.AperFunction*%
%TO.P,R3,1*%
%TO.N,/EXTMODE*%
%TA.AperFunction,SMDPad,CuDef*%
G36*
G01*
X148962500Y-128400002D02*
X148962500Y-127499998D01*
G75*
G02*
X149212498Y-127250000I249998J0D01*
G01*
X149737502Y-127250000D01*
G75*
G02*
X149987500Y-127499998I0J-249998D01*
G01*
X149987500Y-128400002D01*
G75*
G02*
X149737502Y-128650000I-249998J0D01*
G01*
X149212498Y-128650000D01*
G75*
G02*
X148962500Y-128400002I0J249998D01*
G01*
G37*
%TD.AperFunction*%
%TD*%
%TO.P,R4,2*%
%TO.N,/LCD_PWM*%
%TA.AperFunction,SMDPad,CuDef*%
G36*
G01*
X144750000Y-119274998D02*
X144750000Y-120175002D01*
G75*
G02*
X144500002Y-120425000I-249998J0D01*
G01*
X143974998Y-120425000D01*
G75*
G02*
X143725000Y-120175002I0J249998D01*
G01*
X143725000Y-119274998D01*
G75*
G02*
X143974998Y-119025000I249998J0D01*
G01*
X144500002Y-119025000D01*
G75*
G02*
X144750000Y-119274998I0J-249998D01*
G01*
G37*
%TD.AperFunction*%
%TO.P,R4,1*%
%TO.N,/EXTCOMIN*%
%TA.AperFunction,SMDPad,CuDef*%
G36*
G01*
X146575000Y-119274998D02*
X146575000Y-120175002D01*
G75*
G02*
X146325002Y-120425000I-249998J0D01*
G01*
X145799998Y-120425000D01*
G75*
G02*
X145550000Y-120175002I0J249998D01*
G01*
X145550000Y-119274998D01*
G75*
G02*
X145799998Y-119025000I249998J0D01*
G01*
X146325002Y-119025000D01*
G75*
G02*
X146575000Y-119274998I0J-249998D01*
G01*
G37*
%TD.AperFunction*%
%TD*%
%TO.P,R5,1*%
%TO.N,/EXTCOMIN*%
%TA.AperFunction,SMDPad,CuDef*%
G36*
G01*
X147175000Y-120175002D02*
X147175000Y-119274998D01*
G75*
G02*
X147424998Y-119025000I249998J0D01*
G01*
X147950002Y-119025000D01*
G75*
G02*
X148200000Y-119274998I0J-249998D01*
G01*
X148200000Y-120175002D01*
G75*
G02*
X147950002Y-120425000I-249998J0D01*
G01*
X147424998Y-120425000D01*
G75*
G02*
X147175000Y-120175002I0J249998D01*
G01*
G37*
%TD.AperFunction*%
%TO.P,R5,2*%
%TO.N,GND*%
%TA.AperFunction,SMDPad,CuDef*%
G36*
G01*
X149000000Y-120175002D02*
X149000000Y-119274998D01*
G75*
G02*
X149249998Y-119025000I249998J0D01*
G01*
X149775002Y-119025000D01*
G75*
G02*
X150025000Y-119274998I0J-249998D01*
G01*
X150025000Y-120175002D01*
G75*
G02*
X149775002Y-120425000I-249998J0D01*
G01*
X149249998Y-120425000D01*
G75*
G02*
X149000000Y-120175002I0J249998D01*
G01*
G37*
%TD.AperFunction*%
%TD*%
%TO.P,R1,1*%
%TO.N,+5V*%
%TA.AperFunction,SMDPad,CuDef*%
G36*
G01*
X146595000Y-122439998D02*
X146595000Y-123340002D01*
G75*
G02*
X146345002Y-123590000I-249998J0D01*
G01*
X145819998Y-123590000D01*
G75*
G02*
X145570000Y-123340002I0J249998D01*
G01*
X145570000Y-122439998D01*
G75*
G02*
X145819998Y-122190000I249998J0D01*
G01*
X146345002Y-122190000D01*
G75*
G02*
X146595000Y-122439998I0J-249998D01*
G01*
G37*
%TD.AperFunction*%
%TO.P,R1,2*%
%TO.N,/5V*%
%TA.AperFunction,SMDPad,CuDef*%
G36*
G01*
X144770000Y-122439998D02*
X144770000Y-123340002D01*
G75*
G02*
X144520002Y-123590000I-249998J0D01*
G01*
X143994998Y-123590000D01*
G75*
G02*
X143745000Y-123340002I0J249998D01*
G01*
X143745000Y-122439998D01*
G75*
G02*
X143994998Y-122190000I249998J0D01*
G01*
X144520002Y-122190000D01*
G75*
G02*
X144770000Y-122439998I0J-249998D01*
G01*
G37*
%TD.AperFunction*%
%TD*%
D15*
%TO.P,J1,1*%
%TO.N,/PA17*%
X160000000Y-60050000D03*
%TO.P,J1,2*%
%TO.N,GND*%
X159500001Y-60050000D03*
%TO.P,J1,3*%
%TO.N,/LCD_DAT0*%
X158999999Y-60050000D03*
%TO.P,J1,4*%
%TO.N,/LCD_DAT1*%
X158500000Y-60050000D03*
%TO.P,J1,5*%
%TO.N,/LCD_DAT2*%
X158000001Y-60050000D03*
%TO.P,J1,6*%
%TO.N,/LCD_DAT3*%
X157500000Y-60050000D03*
%TO.P,J1,7*%
%TO.N,GND*%
X157000001Y-60050000D03*
%TO.P,J1,8*%
%TO.N,/LCD_DAT4*%
X156499999Y-60050000D03*
%TO.P,J1,9*%
%TO.N,/LCD_DAT5*%
X156000000Y-60050000D03*
%TO.P,J1,10*%
%TO.N,/LCD_DAT6*%
X155500001Y-60050000D03*
%TO.P,J1,11*%
%TO.N,/LCD_DAT7*%
X155000000Y-60050000D03*
%TO.P,J1,12*%
%TO.N,GND*%
X154500001Y-60050000D03*
%TO.P,J1,13*%
%TO.N,/LCD_DAT8*%
X153999999Y-60050000D03*
%TO.P,J1,14*%
%TO.N,/LCD_DAT9*%
X153500000Y-60050000D03*
%TO.P,J1,15*%
%TO.N,/LCD_DAT10*%
X153000001Y-60050000D03*
%TO.P,J1,16*%
%TO.N,/LCD_DAT11*%
X152500000Y-60050000D03*
%TO.P,J1,17*%
%TO.N,GND*%
X152000001Y-60050000D03*
%TO.P,J1,18*%
%TO.N,/LCD_DAT12*%
X151499999Y-60050000D03*
%TO.P,J1,19*%
%TO.N,/LCD_DAT13*%
X151000000Y-60050000D03*
%TO.P,J1,20*%
%TO.N,/LCD_DAT14*%
X150500001Y-60050000D03*
%TO.P,J1,21*%
%TO.N,/LCD_DAT15*%
X150000000Y-60050000D03*
%TO.P,J1,22*%
%TO.N,GND*%
X149500001Y-60050000D03*
%TO.P,J1,23*%
%TO.N,/LCD_DAT16*%
X148999999Y-60050000D03*
%TO.P,J1,24*%
%TO.N,/LCD_DAT17*%
X148500000Y-60050000D03*
%TO.P,J1,25*%
%TO.N,/LCD_DAT18*%
X148000001Y-60050000D03*
%TO.P,J1,26*%
%TO.N,/LCD_DAT19*%
X147499999Y-60050000D03*
%TO.P,J1,27*%
%TO.N,GND*%
X147000001Y-60050000D03*
%TO.P,J1,28*%
%TO.N,/LCD_DAT20*%
X146499999Y-60050000D03*
%TO.P,J1,29*%
%TO.N,/LCD_DAT21*%
X146000000Y-60050000D03*
%TO.P,J1,30*%
%TO.N,/LCD_DAT22*%
X145500001Y-60050000D03*
%TO.P,J1,31*%
%TO.N,/LCD_DAT23*%
X144999999Y-60050000D03*
%TO.P,J1,32*%
%TO.N,GND*%
X144500000Y-60050000D03*
%TO.P,J1,33*%
%TO.N,/LCD_PCK*%
X143999999Y-60050000D03*
%TO.P,J1,34*%
%TO.N,/LCD_VSYNC*%
X143500000Y-60050000D03*
%TO.P,J1,35*%
%TO.N,/LCD_HSYNC*%
X143000001Y-60050000D03*
%TO.P,J1,36*%
%TO.N,/LCD_EN*%
X142499999Y-60050000D03*
%TO.P,J1,37*%
%TO.N,/SPI0_SPCK_SCK*%
X142000000Y-60050000D03*
%TO.P,J1,38*%
%TO.N,/SPI0_MOSI_SI*%
X141499999Y-60050000D03*
%TO.P,J1,39*%
%TO.N,/SPI0_MISO*%
X141000000Y-60050000D03*
%TO.P,J1,40*%
%TO.N,/SPI0_NPCS0_SCS*%
X140500001Y-60050000D03*
%TO.P,J1,41*%
%TO.N,/LCD_DISP_DISP*%
X139999999Y-60050000D03*
%TO.P,J1,42*%
%TO.N,/TWD_LCD*%
X139500000Y-60050000D03*
%TO.P,J1,43*%
%TO.N,/TWCK_LCD*%
X138999999Y-60050000D03*
%TO.P,J1,44*%
%TO.N,/IRQ1*%
X138500000Y-60050000D03*
%TO.P,J1,45*%
%TO.N,/IRQ2*%
X138000001Y-60050000D03*
%TO.P,J1,46*%
%TO.N,/LCD_PWM*%
X137499999Y-60050000D03*
%TO.P,J1,47*%
%TO.N,/NRST*%
X137000000Y-60050000D03*
%TO.P,J1,48*%
%TO.N,/5V*%
X136500001Y-60050000D03*
%TO.P,J1,49*%
X136000000Y-60050000D03*
%TO.P,J1,50*%
%TO.N,GND*%
X135500001Y-60050000D03*
D16*
%TO.P,J1,51*%
X133843499Y-56036800D03*
%TO.P,J1,52*%
X161656499Y-56036800D03*
%TD*%
D17*
%TO.N,GND*%
X151300000Y-119700000D03*
X158300000Y-119700000D03*
X140750000Y-121250000D03*
X146900000Y-121300000D03*
X152250000Y-133100000D03*
X158300000Y-133100000D03*
%TD*%
D18*
%TO.N,/LCD_DISP_DISP*%
X146250000Y-129550000D02*
X146250000Y-130549800D01*
X146050000Y-129350000D02*
X146250000Y-129550000D01*
X145735000Y-125170000D02*
X145735000Y-126065000D01*
X144950000Y-126850000D02*
X144950000Y-129000000D01*
X145735000Y-126065000D02*
X144950000Y-126850000D01*
X144950000Y-129000000D02*
X145300000Y-129350000D01*
X145300000Y-129350000D02*
X146050000Y-129350000D01*
X140000000Y-61851100D02*
X140000000Y-60051100D01*
X145735000Y-124565000D02*
X145150000Y-123980000D01*
X145150000Y-69150000D02*
X140000000Y-64000000D01*
X145735000Y-125170000D02*
X145735000Y-124565000D01*
X145150000Y-123980000D02*
X145150000Y-69150000D01*
X140000000Y-64000000D02*
X140000000Y-61851100D01*
%TO.N,GND*%
X159500002Y-60074998D02*
X159500002Y-61851100D01*
X157000002Y-61851100D02*
X157000002Y-60075002D01*
X157000002Y-60075002D02*
X157000006Y-60074998D01*
X154500002Y-61851100D02*
X154500002Y-60075002D01*
X152000002Y-61851100D02*
X152000002Y-60075002D01*
X149500002Y-61851100D02*
X149500002Y-60075002D01*
X147000002Y-61851100D02*
X147000002Y-60075002D01*
X147000000Y-60075000D02*
X147000002Y-60075002D01*
X133843500Y-57837900D02*
X133843500Y-58418500D01*
X144100000Y-124950000D02*
X144050000Y-125000000D01*
X151300000Y-124950000D02*
X151300000Y-127950000D01*
X151300000Y-124950000D02*
X151300000Y-123600000D01*
X151250000Y-122200000D02*
X151300000Y-122250000D01*
X157000000Y-62101102D02*
X157000002Y-62101100D01*
X159500000Y-63550000D02*
X157000000Y-63550000D01*
X157000000Y-63550000D02*
X157000000Y-62101102D01*
X159500002Y-62101100D02*
X159500002Y-63549998D01*
X159500002Y-63549998D02*
X159500000Y-63550000D01*
X154500002Y-62101100D02*
X154500002Y-63449998D01*
X154500002Y-63449998D02*
X154500000Y-63450000D01*
X154500000Y-63450000D02*
X152000000Y-63450000D01*
X152000000Y-62101102D02*
X152000002Y-62101100D01*
X152000000Y-63450000D02*
X152000000Y-62101102D01*
X149500002Y-62101100D02*
X149500002Y-63649998D01*
X149500002Y-63649998D02*
X149500000Y-63650000D01*
X149500000Y-63650000D02*
X147000000Y-63650000D01*
X147000000Y-62101102D02*
X147000002Y-62101100D01*
X147000000Y-63650000D02*
X147000000Y-62101102D01*
X144500001Y-62101100D02*
X144500000Y-62757501D01*
X144500000Y-62757501D02*
X144500000Y-63600000D01*
X144550000Y-63650000D02*
X144500000Y-63600000D01*
X147000000Y-63650000D02*
X144550000Y-63650000D01*
X149410000Y-124940000D02*
X149400000Y-124950000D01*
X151300000Y-124950000D02*
X149600000Y-124950000D01*
X149600000Y-122900000D02*
X151300000Y-122900000D01*
X151300000Y-122250000D02*
X151300000Y-122900000D01*
X151300000Y-122900000D02*
X151300000Y-123600000D01*
X151300000Y-127950000D02*
X151300000Y-129100000D01*
X151300000Y-129100000D02*
X149150000Y-129100000D01*
X148750001Y-129499999D02*
X148750001Y-130549800D01*
X149150000Y-129100000D02*
X148750001Y-129499999D01*
X148750001Y-130549800D02*
X148249999Y-130549800D01*
X157000002Y-59394700D02*
X157000000Y-59394698D01*
X157000002Y-60051100D02*
X157000002Y-59394700D01*
X157000000Y-59394698D02*
X157000000Y-58900000D01*
X157000000Y-58900000D02*
X159500000Y-58900000D01*
X159500002Y-58900002D02*
X159500002Y-60051100D01*
X159500000Y-58900000D02*
X159500002Y-58900002D01*
X154500002Y-60051100D02*
X154500002Y-58749998D01*
X156849998Y-58749998D02*
X157000000Y-58900000D01*
X154500002Y-58749998D02*
X156849998Y-58749998D01*
X152000002Y-60051100D02*
X152000002Y-58949998D01*
X152200002Y-58749998D02*
X154500002Y-58749998D01*
X152000002Y-58949998D02*
X152200002Y-58749998D01*
X147000002Y-60051100D02*
X147000002Y-58999998D01*
X147000002Y-58999998D02*
X147100000Y-58900000D01*
X147100000Y-58900000D02*
X149500000Y-58900000D01*
X149500000Y-60051098D02*
X149500002Y-60051100D01*
X149500000Y-58900000D02*
X149500000Y-60051098D01*
X135500002Y-58709998D02*
X135500002Y-61851100D01*
X135670000Y-58540000D02*
X135500002Y-58709998D01*
X144500001Y-61851100D02*
X144500000Y-58595999D01*
X144444001Y-58540000D02*
X135670000Y-58540000D01*
X144500000Y-58595999D02*
X144444001Y-58540000D01*
%TO.N,+5V*%
X145937500Y-127950000D02*
X145937500Y-127712500D01*
X145937500Y-127950000D02*
X145937500Y-127812500D01*
X145937500Y-127950000D02*
X145937500Y-127762500D01*
X145950000Y-127937500D02*
X145937500Y-127950000D01*
X145937500Y-127950000D02*
X145937500Y-128237500D01*
X145937500Y-126862500D02*
X145937500Y-127950000D01*
X146600000Y-126200000D02*
X145937500Y-126862500D01*
X146092500Y-122900000D02*
X146082500Y-122890000D01*
X147690000Y-122890000D02*
X147700000Y-122900000D01*
D19*
X146082500Y-122890000D02*
X147690000Y-122890000D01*
D18*
X146600000Y-126200000D02*
X147350000Y-126200000D01*
X147700000Y-125850000D02*
X147700000Y-124950000D01*
X147350000Y-126200000D02*
X147700000Y-125850000D01*
X146082500Y-122890000D02*
X146082500Y-123332500D01*
D19*
X147700000Y-124950000D02*
X146800000Y-124950000D01*
X146800000Y-124950000D02*
X146800000Y-124650000D01*
X146082500Y-123932500D02*
X146082500Y-122890000D01*
X146800000Y-124650000D02*
X146082500Y-123932500D01*
D18*
X146840000Y-127010000D02*
X146840000Y-128640000D01*
X147150000Y-126700000D02*
X146840000Y-127010000D01*
X148400000Y-122900000D02*
X148650000Y-123150000D01*
X146840000Y-128640000D02*
X147250001Y-129050001D01*
X147700000Y-122900000D02*
X148400000Y-122900000D01*
X148650000Y-125850000D02*
X147800000Y-126700000D01*
X147800000Y-126700000D02*
X147150000Y-126700000D01*
X148650000Y-123150000D02*
X148650000Y-125850000D01*
X145937500Y-128487500D02*
X145937500Y-127950000D01*
X146750000Y-130549800D02*
X146749999Y-129299999D01*
X146749999Y-129299999D02*
X145937500Y-128487500D01*
X147250001Y-130549800D02*
X147250001Y-129050001D01*
%TO.N,/EXTMODE*%
X147762500Y-127950000D02*
X149437500Y-127950000D01*
X147750000Y-127962500D02*
X147762500Y-127950000D01*
X147750000Y-130549800D02*
X147750000Y-127962500D01*
%TO.N,/EXTCOMIN*%
X147687500Y-119725000D02*
X146062500Y-119725000D01*
X147687500Y-118812500D02*
X147687500Y-119725000D01*
X147900000Y-118600000D02*
X147687500Y-118812500D01*
X152800000Y-118600000D02*
X147900000Y-118600000D01*
X153400000Y-119200000D02*
X152800000Y-118600000D01*
X145749999Y-131027177D02*
X146172822Y-131450000D01*
X145749999Y-130549800D02*
X145749999Y-131027177D01*
X152950000Y-131450000D02*
X153400000Y-131000000D01*
X153400000Y-131000000D02*
X153400000Y-119200000D01*
X146172822Y-131450000D02*
X152950000Y-131450000D01*
%TO.N,/SPI0_SPCK_SCK*%
X148150000Y-134350000D02*
X148150000Y-133150000D01*
X148600011Y-134800011D02*
X148150000Y-134350000D01*
X148150000Y-133150000D02*
X148079616Y-133079616D01*
X147150000Y-116600000D02*
X154100044Y-116600000D01*
X146800000Y-116250000D02*
X147150000Y-116600000D01*
X148079616Y-133079616D02*
X145870384Y-133079616D01*
X146800000Y-68150000D02*
X146800000Y-116250000D01*
X155050022Y-117550022D02*
X155300000Y-117800000D01*
X142000001Y-63350001D02*
X146800000Y-68150000D01*
X142000001Y-61851100D02*
X142000001Y-63350001D01*
X154686400Y-134800011D02*
X148600011Y-134800011D01*
X154100044Y-116600000D02*
X155050022Y-117549978D01*
X155300000Y-134186411D02*
X154686400Y-134800011D01*
X155050022Y-117549978D02*
X155050022Y-117550022D01*
X144249999Y-131459232D02*
X144249999Y-130350000D01*
X145870384Y-133079616D02*
X144249999Y-131459232D01*
X155300000Y-117800000D02*
X155300000Y-134186411D01*
X142000001Y-61851100D02*
X142000001Y-60051100D01*
%TO.N,/SPI0_MOSI_SI*%
X154700000Y-134000000D02*
X154350000Y-134350000D01*
X154700000Y-118150000D02*
X154700000Y-134000000D01*
X146918205Y-117218205D02*
X153768205Y-117218205D01*
X153768205Y-117218205D02*
X154700000Y-118150000D01*
X146250000Y-116550000D02*
X146918205Y-117218205D01*
X144750001Y-131322823D02*
X144750001Y-130549800D01*
X146250000Y-68500000D02*
X146250000Y-116550000D01*
X141500000Y-63750000D02*
X146250000Y-68500000D01*
X141500000Y-61851100D02*
X141500000Y-63750000D01*
X145913589Y-132486411D02*
X148386411Y-132486411D01*
X145913589Y-132486411D02*
X144750001Y-131322823D01*
X148386411Y-132486411D02*
X148600000Y-132700000D01*
X148600000Y-134050000D02*
X148900000Y-134350000D01*
X148600000Y-132700000D02*
X148600000Y-134050000D01*
X154350000Y-134350000D02*
X148900000Y-134350000D01*
X141500000Y-61851100D02*
X141500000Y-60051100D01*
%TO.N,/SPI0_NPCS0_SCS*%
X140500002Y-61851100D02*
X140500002Y-62349998D01*
X140500002Y-62349998D02*
X140500002Y-62824998D01*
X145700000Y-68900000D02*
X140500002Y-63700002D01*
X146600020Y-117850020D02*
X145700000Y-116950000D01*
X145700000Y-116950000D02*
X145700000Y-68900000D01*
X153300020Y-117850020D02*
X146600020Y-117850020D01*
X140500002Y-63700002D02*
X140500002Y-62349998D01*
X145250000Y-131186411D02*
X145963600Y-131900011D01*
X153649989Y-131900011D02*
X154100011Y-131449989D01*
X154100011Y-118650011D02*
X153300020Y-117850020D01*
X145250000Y-130350000D02*
X145250000Y-131186411D01*
X145963600Y-131900011D02*
X153649989Y-131900011D01*
X154100011Y-131449989D02*
X154100011Y-118650011D01*
X140500002Y-61851100D02*
X140500002Y-60051100D01*
%TO.N,/LCD_PWM*%
X144237500Y-69437500D02*
X137500000Y-62700000D01*
X144237500Y-119725000D02*
X144237500Y-69437500D01*
X137500000Y-62101100D02*
X137500000Y-62700000D01*
X137500000Y-62101100D02*
X137500000Y-60051100D01*
D19*
%TO.N,/5V*%
X143100000Y-69999996D02*
X136500002Y-63399998D01*
X136500002Y-63399998D02*
X136500002Y-62600002D01*
X144257500Y-122890000D02*
X144257500Y-121757500D01*
X144257500Y-121757500D02*
X143950000Y-121450000D01*
X143450000Y-121450000D02*
X143100000Y-121100000D01*
X143950000Y-121450000D02*
X143450000Y-121450000D01*
X143100000Y-121100000D02*
X143100000Y-69999996D01*
X136500002Y-62600002D02*
X136500002Y-60790002D01*
D18*
X136500002Y-60790002D02*
X136500002Y-60051100D01*
X136500002Y-60051100D02*
X136000001Y-60051100D01*
%TD*%
D20*
%TO.N,GND*%
X174540001Y-136340000D02*
X121060000Y-136340000D01*
X121060000Y-133350324D01*
X121265000Y-133350324D01*
X121265000Y-133849676D01*
X121362418Y-134339432D01*
X121553512Y-134800773D01*
X121830937Y-135215968D01*
X122184032Y-135569063D01*
X122599227Y-135846488D01*
X123060568Y-136037582D01*
X123550324Y-136135000D01*
X124049676Y-136135000D01*
X124539432Y-136037582D01*
X125000773Y-135846488D01*
X125415968Y-135569063D01*
X125769063Y-135215968D01*
X126046488Y-134800773D01*
X126237582Y-134339432D01*
X126335000Y-133849676D01*
X126335000Y-133839300D01*
X142013829Y-133839300D01*
X142026089Y-133963782D01*
X142062399Y-134083480D01*
X142121364Y-134193794D01*
X142200716Y-134290485D01*
X142297407Y-134369837D01*
X142407721Y-134428802D01*
X142527419Y-134465112D01*
X142651901Y-134477372D01*
X142797951Y-134474300D01*
X142956701Y-134315550D01*
X142956701Y-133217000D01*
X143210701Y-133217000D01*
X143210701Y-134315550D01*
X143369451Y-134474300D01*
X143515501Y-134477372D01*
X143639983Y-134465112D01*
X143759681Y-134428802D01*
X143869995Y-134369837D01*
X143966686Y-134290485D01*
X144046038Y-134193794D01*
X144105003Y-134083480D01*
X144141313Y-133963782D01*
X144153573Y-133839300D01*
X144150501Y-133375750D01*
X143991751Y-133217000D01*
X143210701Y-133217000D01*
X142956701Y-133217000D01*
X142175651Y-133217000D01*
X142016901Y-133375750D01*
X142013829Y-133839300D01*
X126335000Y-133839300D01*
X126335000Y-133350324D01*
X126237582Y-132860568D01*
X126046488Y-132399227D01*
X126007382Y-132340700D01*
X142013829Y-132340700D01*
X142016901Y-132804250D01*
X142175651Y-132963000D01*
X142956701Y-132963000D01*
X142956701Y-131864450D01*
X142797951Y-131705700D01*
X142651901Y-131702628D01*
X142527419Y-131714888D01*
X142407721Y-131751198D01*
X142297407Y-131810163D01*
X142200716Y-131889515D01*
X142121364Y-131986206D01*
X142062399Y-132096520D01*
X142026089Y-132216218D01*
X142013829Y-132340700D01*
X126007382Y-132340700D01*
X125769063Y-131984032D01*
X125415968Y-131630937D01*
X125000773Y-131353512D01*
X124539432Y-131162418D01*
X124049676Y-131065000D01*
X123550324Y-131065000D01*
X123060568Y-131162418D01*
X122599227Y-131353512D01*
X122184032Y-131630937D01*
X121830937Y-131984032D01*
X121553512Y-132399227D01*
X121362418Y-132860568D01*
X121265000Y-133350324D01*
X121060000Y-133350324D01*
X121060000Y-125645000D01*
X143096928Y-125645000D01*
X143109188Y-125769482D01*
X143145498Y-125889180D01*
X143204463Y-125999494D01*
X143283815Y-126096185D01*
X143380506Y-126175537D01*
X143490820Y-126234502D01*
X143610518Y-126270812D01*
X143735000Y-126283072D01*
X143899250Y-126280000D01*
X144058000Y-126121250D01*
X144058000Y-125297000D01*
X143258750Y-125297000D01*
X143100000Y-125455750D01*
X143096928Y-125645000D01*
X121060000Y-125645000D01*
X121060000Y-73422143D01*
X123520000Y-73422143D01*
X123520000Y-117277857D01*
X127340000Y-117277857D01*
X127340000Y-73422143D01*
X123520000Y-73422143D01*
X121060000Y-73422143D01*
X121060000Y-59657589D01*
X134735082Y-59657589D01*
X134738001Y-59764250D01*
X134896751Y-59923000D01*
X135234928Y-59923000D01*
X135234928Y-60177000D01*
X134896751Y-60177000D01*
X134738001Y-60335750D01*
X134735082Y-60442411D01*
X134744611Y-60567131D01*
X134778288Y-60687596D01*
X134834819Y-60799177D01*
X134912032Y-60897585D01*
X135006961Y-60979038D01*
X135115956Y-61040406D01*
X135234829Y-61079332D01*
X135341251Y-61091400D01*
X135478525Y-60954126D01*
X135518506Y-60986937D01*
X135595377Y-61028026D01*
X135658751Y-61091400D01*
X135690003Y-61087856D01*
X135690002Y-62560211D01*
X135690002Y-63360210D01*
X135686083Y-63399998D01*
X135690002Y-63439786D01*
X135690002Y-63439788D01*
X135701722Y-63558785D01*
X135748039Y-63711470D01*
X135748040Y-63711471D01*
X135823253Y-63852187D01*
X135854287Y-63890002D01*
X135924474Y-63975526D01*
X135955390Y-64000898D01*
X142290001Y-70335510D01*
X142290000Y-121060212D01*
X142286081Y-121100000D01*
X142290000Y-121139788D01*
X142290000Y-121139790D01*
X142301720Y-121258787D01*
X142348037Y-121411472D01*
X142348038Y-121411473D01*
X142423251Y-121552189D01*
X142424731Y-121553992D01*
X142524472Y-121675528D01*
X142555388Y-121700900D01*
X142849100Y-121994612D01*
X142874472Y-122025528D01*
X142997811Y-122126749D01*
X143138527Y-122201963D01*
X143143212Y-122203384D01*
X143123992Y-122266744D01*
X143106928Y-122439998D01*
X143106928Y-123340002D01*
X143123992Y-123513256D01*
X143174528Y-123679852D01*
X143256595Y-123833387D01*
X143367038Y-123967962D01*
X143501613Y-124078405D01*
X143530041Y-124093600D01*
X143490820Y-124105498D01*
X143380506Y-124164463D01*
X143283815Y-124243815D01*
X143204463Y-124340506D01*
X143145498Y-124450820D01*
X143109188Y-124570518D01*
X143096928Y-124695000D01*
X143100000Y-124884250D01*
X143258750Y-125043000D01*
X144058000Y-125043000D01*
X144058000Y-125023000D01*
X144312000Y-125023000D01*
X144312000Y-125043000D01*
X144332000Y-125043000D01*
X144332000Y-125297000D01*
X144312000Y-125297000D01*
X144312000Y-126121250D01*
X144457974Y-126267224D01*
X144439002Y-126286197D01*
X144409999Y-126309999D01*
X144356633Y-126375026D01*
X144315026Y-126425724D01*
X144275860Y-126498998D01*
X144244454Y-126557754D01*
X144200997Y-126701015D01*
X144190000Y-126812668D01*
X144190000Y-126812678D01*
X144186324Y-126850000D01*
X144190000Y-126887323D01*
X144190001Y-128962668D01*
X144186324Y-129000000D01*
X144200998Y-129148985D01*
X144244454Y-129292246D01*
X144315026Y-129424276D01*
X144376339Y-129498985D01*
X144410000Y-129540001D01*
X144438998Y-129563799D01*
X144462884Y-129587685D01*
X144402400Y-129581728D01*
X144097600Y-129581728D01*
X143973118Y-129593988D01*
X143853420Y-129630298D01*
X143743106Y-129689263D01*
X143646415Y-129768615D01*
X143567063Y-129865306D01*
X143508098Y-129975620D01*
X143471788Y-130095318D01*
X143459528Y-130219800D01*
X143459528Y-130880200D01*
X143471788Y-131004682D01*
X143489999Y-131064717D01*
X143489999Y-131421909D01*
X143486323Y-131459232D01*
X143489999Y-131496555D01*
X143489999Y-131496564D01*
X143500996Y-131608217D01*
X143530070Y-131704063D01*
X143515501Y-131702628D01*
X143369451Y-131705700D01*
X143210701Y-131864450D01*
X143210701Y-132963000D01*
X143991751Y-132963000D01*
X144150501Y-132804250D01*
X144152935Y-132436969D01*
X145306584Y-133590618D01*
X145330383Y-133619617D01*
X145446108Y-133714590D01*
X145578137Y-133785162D01*
X145721398Y-133828619D01*
X145833051Y-133839616D01*
X145833059Y-133839616D01*
X145870384Y-133843292D01*
X145907707Y-133839616D01*
X147390000Y-133839616D01*
X147390000Y-134312677D01*
X147386324Y-134350000D01*
X147390000Y-134387322D01*
X147390000Y-134387332D01*
X147400997Y-134498985D01*
X147428606Y-134590001D01*
X147444454Y-134642246D01*
X147515026Y-134774276D01*
X147536772Y-134800773D01*
X147609999Y-134890001D01*
X147639003Y-134913804D01*
X148036207Y-135311008D01*
X148060010Y-135340012D01*
X148175735Y-135434985D01*
X148307764Y-135505557D01*
X148451025Y-135549014D01*
X148562678Y-135560011D01*
X148562686Y-135560011D01*
X148600011Y-135563687D01*
X148637336Y-135560011D01*
X154649078Y-135560011D01*
X154686400Y-135563687D01*
X154723722Y-135560011D01*
X154723733Y-135560011D01*
X154835386Y-135549014D01*
X154978647Y-135505557D01*
X155110676Y-135434985D01*
X155226401Y-135340012D01*
X155250203Y-135311009D01*
X155811008Y-134750206D01*
X155840001Y-134726412D01*
X155863795Y-134697419D01*
X155863799Y-134697415D01*
X155934973Y-134610688D01*
X155946031Y-134590001D01*
X156005546Y-134478658D01*
X156049003Y-134335397D01*
X156060000Y-134223744D01*
X156060000Y-134223735D01*
X156063676Y-134186412D01*
X156060000Y-134149089D01*
X156060000Y-133350324D01*
X169265000Y-133350324D01*
X169265000Y-133849676D01*
X169362418Y-134339432D01*
X169553512Y-134800773D01*
X169830937Y-135215968D01*
X170184032Y-135569063D01*
X170599227Y-135846488D01*
X171060568Y-136037582D01*
X171550324Y-136135000D01*
X172049676Y-136135000D01*
X172539432Y-136037582D01*
X173000773Y-135846488D01*
X173415968Y-135569063D01*
X173769063Y-135215968D01*
X174046488Y-134800773D01*
X174237582Y-134339432D01*
X174335000Y-133849676D01*
X174335000Y-133350324D01*
X174237582Y-132860568D01*
X174046488Y-132399227D01*
X173769063Y-131984032D01*
X173415968Y-131630937D01*
X173000773Y-131353512D01*
X172539432Y-131162418D01*
X172049676Y-131065000D01*
X171550324Y-131065000D01*
X171060568Y-131162418D01*
X170599227Y-131353512D01*
X170184032Y-131630937D01*
X169830937Y-131984032D01*
X169553512Y-132399227D01*
X169362418Y-132860568D01*
X169265000Y-133350324D01*
X156060000Y-133350324D01*
X156060000Y-117837322D01*
X156063676Y-117799999D01*
X156060000Y-117762676D01*
X156060000Y-117762667D01*
X156049003Y-117651014D01*
X156005546Y-117507753D01*
X155934974Y-117375724D01*
X155840001Y-117259999D01*
X155810998Y-117236197D01*
X155614027Y-117039226D01*
X155590023Y-117009977D01*
X155561026Y-116986180D01*
X154663848Y-116089002D01*
X154640045Y-116059999D01*
X154524320Y-115965026D01*
X154392291Y-115894454D01*
X154249030Y-115850997D01*
X154137377Y-115840000D01*
X154137366Y-115840000D01*
X154100044Y-115836324D01*
X154062722Y-115840000D01*
X147560000Y-115840000D01*
X147560000Y-68187325D01*
X147563676Y-68150000D01*
X147560000Y-68112675D01*
X147560000Y-68112667D01*
X147549003Y-68001014D01*
X147505546Y-67857753D01*
X147434974Y-67725724D01*
X147340001Y-67609999D01*
X147311004Y-67586202D01*
X142760001Y-63035200D01*
X142760001Y-61083343D01*
X142873001Y-61094472D01*
X143127001Y-61094472D01*
X143250001Y-61082358D01*
X143373000Y-61094472D01*
X143627000Y-61094472D01*
X143750000Y-61082358D01*
X143872999Y-61094472D01*
X144126999Y-61094472D01*
X144251481Y-61082212D01*
X144253860Y-61081490D01*
X144341250Y-61091400D01*
X144404626Y-61028024D01*
X144481493Y-60986937D01*
X144499999Y-60971750D01*
X144518505Y-60986937D01*
X144595376Y-61028026D01*
X144658750Y-61091400D01*
X144746138Y-61081490D01*
X144748517Y-61082212D01*
X144872999Y-61094472D01*
X145126999Y-61094472D01*
X145250000Y-61082358D01*
X145373001Y-61094472D01*
X145627001Y-61094472D01*
X145750001Y-61082358D01*
X145873000Y-61094472D01*
X146127000Y-61094472D01*
X146250000Y-61082358D01*
X146372999Y-61094472D01*
X146626999Y-61094472D01*
X146751481Y-61082212D01*
X146753861Y-61081490D01*
X146841251Y-61091400D01*
X146904628Y-61028023D01*
X146981493Y-60986937D01*
X146999999Y-60971750D01*
X147018505Y-60986937D01*
X147095378Y-61028027D01*
X147158751Y-61091400D01*
X147246138Y-61081490D01*
X147248517Y-61082212D01*
X147372999Y-61094472D01*
X147626999Y-61094472D01*
X147750000Y-61082358D01*
X147873001Y-61094472D01*
X148127001Y-61094472D01*
X148250001Y-61082358D01*
X148373000Y-61094472D01*
X148627000Y-61094472D01*
X148750000Y-61082358D01*
X148872999Y-61094472D01*
X149126999Y-61094472D01*
X149251481Y-61082212D01*
X149253861Y-61081490D01*
X149341251Y-61091400D01*
X149404628Y-61028023D01*
X149481493Y-60986937D01*
X149500000Y-60971749D01*
X149518506Y-60986937D01*
X149595377Y-61028026D01*
X149658751Y-61091400D01*
X149746139Y-61081490D01*
X149748518Y-61082212D01*
X149873000Y-61094472D01*
X150127000Y-61094472D01*
X150250001Y-61082358D01*
X150373001Y-61094472D01*
X150627001Y-61094472D01*
X150750001Y-61082358D01*
X150873000Y-61094472D01*
X151127000Y-61094472D01*
X151250000Y-61082358D01*
X151372999Y-61094472D01*
X151626999Y-61094472D01*
X151751481Y-61082212D01*
X151753861Y-61081490D01*
X151841251Y-61091400D01*
X151904628Y-61028023D01*
X151981493Y-60986937D01*
X152000000Y-60971749D01*
X152018506Y-60986937D01*
X152095377Y-61028026D01*
X152158751Y-61091400D01*
X152246139Y-61081490D01*
X152248518Y-61082212D01*
X152373000Y-61094472D01*
X152627000Y-61094472D01*
X152750001Y-61082358D01*
X152873001Y-61094472D01*
X153127001Y-61094472D01*
X153250001Y-61082358D01*
X153373000Y-61094472D01*
X153627000Y-61094472D01*
X153750000Y-61082358D01*
X153872999Y-61094472D01*
X154126999Y-61094472D01*
X154251481Y-61082212D01*
X154253861Y-61081490D01*
X154341251Y-61091400D01*
X154404628Y-61028023D01*
X154481493Y-60986937D01*
X154500000Y-60971749D01*
X154518506Y-60986937D01*
X154595377Y-61028026D01*
X154658751Y-61091400D01*
X154746139Y-61081490D01*
X154748518Y-61082212D01*
X154873000Y-61094472D01*
X155127000Y-61094472D01*
X155250001Y-61082358D01*
X155373001Y-61094472D01*
X155627001Y-61094472D01*
X155750001Y-61082358D01*
X155873000Y-61094472D01*
X156127000Y-61094472D01*
X156250000Y-61082358D01*
X156372999Y-61094472D01*
X156626999Y-61094472D01*
X156751481Y-61082212D01*
X156753861Y-61081490D01*
X156841251Y-61091400D01*
X156904628Y-61028023D01*
X156981493Y-60986937D01*
X157000000Y-60971749D01*
X157018506Y-60986937D01*
X157095377Y-61028026D01*
X157158751Y-61091400D01*
X157246139Y-61081490D01*
X157248518Y-61082212D01*
X157373000Y-61094472D01*
X157627000Y-61094472D01*
X157750001Y-61082358D01*
X157873001Y-61094472D01*
X158127001Y-61094472D01*
X158250001Y-61082358D01*
X158373000Y-61094472D01*
X158627000Y-61094472D01*
X158750000Y-61082358D01*
X158872999Y-61094472D01*
X159126999Y-61094472D01*
X159251481Y-61082212D01*
X159253861Y-61081490D01*
X159341251Y-61091400D01*
X159404628Y-61028023D01*
X159481493Y-60986937D01*
X159500000Y-60971749D01*
X159518506Y-60986937D01*
X159595377Y-61028026D01*
X159658751Y-61091400D01*
X159746139Y-61081490D01*
X159748518Y-61082212D01*
X159873000Y-61094472D01*
X160127000Y-61094472D01*
X160251482Y-61082212D01*
X160371180Y-61045902D01*
X160481494Y-60986937D01*
X160578185Y-60907585D01*
X160657537Y-60810894D01*
X160716502Y-60700580D01*
X160752812Y-60580882D01*
X160765072Y-60456400D01*
X160765072Y-59643600D01*
X160752812Y-59519118D01*
X160716502Y-59399420D01*
X160657537Y-59289106D01*
X160578185Y-59192415D01*
X160481494Y-59113063D01*
X160371180Y-59054098D01*
X160251482Y-59017788D01*
X160127000Y-59005528D01*
X159873000Y-59005528D01*
X159748518Y-59017788D01*
X159746139Y-59018510D01*
X159658751Y-59008600D01*
X159595377Y-59071974D01*
X159518506Y-59113063D01*
X159500000Y-59128251D01*
X159481493Y-59113063D01*
X159404628Y-59071977D01*
X159341251Y-59008600D01*
X159253861Y-59018510D01*
X159251481Y-59017788D01*
X159126999Y-59005528D01*
X158872999Y-59005528D01*
X158750000Y-59017642D01*
X158627000Y-59005528D01*
X158373000Y-59005528D01*
X158250001Y-59017642D01*
X158127001Y-59005528D01*
X157873001Y-59005528D01*
X157750001Y-59017642D01*
X157627000Y-59005528D01*
X157373000Y-59005528D01*
X157248518Y-59017788D01*
X157246139Y-59018510D01*
X157158751Y-59008600D01*
X157095377Y-59071974D01*
X157018506Y-59113063D01*
X157000000Y-59128251D01*
X156981493Y-59113063D01*
X156904628Y-59071977D01*
X156841251Y-59008600D01*
X156753861Y-59018510D01*
X156751481Y-59017788D01*
X156626999Y-59005528D01*
X156372999Y-59005528D01*
X156250000Y-59017642D01*
X156127000Y-59005528D01*
X155873000Y-59005528D01*
X155750001Y-59017642D01*
X155627001Y-59005528D01*
X155373001Y-59005528D01*
X155250001Y-59017642D01*
X155127000Y-59005528D01*
X154873000Y-59005528D01*
X154748518Y-59017788D01*
X154746139Y-59018510D01*
X154658751Y-59008600D01*
X154595377Y-59071974D01*
X154518506Y-59113063D01*
X154500000Y-59128251D01*
X154481493Y-59113063D01*
X154404628Y-59071977D01*
X154341251Y-59008600D01*
X154253861Y-59018510D01*
X154251481Y-59017788D01*
X154126999Y-59005528D01*
X153872999Y-59005528D01*
X153750000Y-59017642D01*
X153627000Y-59005528D01*
X153373000Y-59005528D01*
X153250001Y-59017642D01*
X153127001Y-59005528D01*
X152873001Y-59005528D01*
X152750001Y-59017642D01*
X152627000Y-59005528D01*
X152373000Y-59005528D01*
X152248518Y-59017788D01*
X152246139Y-59018510D01*
X152158751Y-59008600D01*
X152095377Y-59071974D01*
X152018506Y-59113063D01*
X152000000Y-59128251D01*
X151981493Y-59113063D01*
X151904628Y-59071977D01*
X151841251Y-59008600D01*
X151753861Y-59018510D01*
X151751481Y-59017788D01*
X151626999Y-59005528D01*
X151372999Y-59005528D01*
X151250000Y-59017642D01*
X151127000Y-59005528D01*
X150873000Y-59005528D01*
X150750001Y-59017642D01*
X150627001Y-59005528D01*
X150373001Y-59005528D01*
X150250001Y-59017642D01*
X150127000Y-59005528D01*
X149873000Y-59005528D01*
X149748518Y-59017788D01*
X149746139Y-59018510D01*
X149658751Y-59008600D01*
X149595377Y-59071974D01*
X149518506Y-59113063D01*
X149500000Y-59128251D01*
X149481493Y-59113063D01*
X149404628Y-59071977D01*
X149341251Y-59008600D01*
X149253861Y-59018510D01*
X149251481Y-59017788D01*
X149126999Y-59005528D01*
X148872999Y-59005528D01*
X148750000Y-59017642D01*
X148627000Y-59005528D01*
X148373000Y-59005528D01*
X148250001Y-59017642D01*
X148127001Y-59005528D01*
X147873001Y-59005528D01*
X147750000Y-59017642D01*
X147626999Y-59005528D01*
X147372999Y-59005528D01*
X147248517Y-59017788D01*
X147246138Y-59018510D01*
X147158751Y-59008600D01*
X147095378Y-59071973D01*
X147018505Y-59113063D01*
X146999999Y-59128250D01*
X146981493Y-59113063D01*
X146904628Y-59071977D01*
X146841251Y-59008600D01*
X146753861Y-59018510D01*
X146751481Y-59017788D01*
X146626999Y-59005528D01*
X146372999Y-59005528D01*
X146250000Y-59017642D01*
X146127000Y-59005528D01*
X145873000Y-59005528D01*
X145750001Y-59017642D01*
X145627001Y-59005528D01*
X145373001Y-59005528D01*
X145250000Y-59017642D01*
X145126999Y-59005528D01*
X144872999Y-59005528D01*
X144748517Y-59017788D01*
X144746138Y-59018510D01*
X144658750Y-59008600D01*
X144595376Y-59071974D01*
X144518505Y-59113063D01*
X144499999Y-59128250D01*
X144481493Y-59113063D01*
X144404626Y-59071976D01*
X144341250Y-59008600D01*
X144253860Y-59018510D01*
X144251481Y-59017788D01*
X144126999Y-59005528D01*
X143872999Y-59005528D01*
X143750000Y-59017642D01*
X143627000Y-59005528D01*
X143373000Y-59005528D01*
X143250001Y-59017642D01*
X143127001Y-59005528D01*
X142873001Y-59005528D01*
X142750000Y-59017642D01*
X142626999Y-59005528D01*
X142372999Y-59005528D01*
X142250000Y-59017642D01*
X142127000Y-59005528D01*
X141873000Y-59005528D01*
X141750000Y-59017642D01*
X141626999Y-59005528D01*
X141372999Y-59005528D01*
X141250000Y-59017642D01*
X141127000Y-59005528D01*
X140873000Y-59005528D01*
X140750001Y-59017642D01*
X140627001Y-59005528D01*
X140373001Y-59005528D01*
X140250000Y-59017642D01*
X140126999Y-59005528D01*
X139872999Y-59005528D01*
X139750000Y-59017642D01*
X139627000Y-59005528D01*
X139373000Y-59005528D01*
X139250000Y-59017642D01*
X139126999Y-59005528D01*
X138872999Y-59005528D01*
X138750000Y-59017642D01*
X138627000Y-59005528D01*
X138373000Y-59005528D01*
X138250001Y-59017642D01*
X138127001Y-59005528D01*
X137873001Y-59005528D01*
X137750000Y-59017642D01*
X137626999Y-59005528D01*
X137372999Y-59005528D01*
X137250000Y-59017642D01*
X137127000Y-59005528D01*
X136873000Y-59005528D01*
X136750001Y-59017642D01*
X136627001Y-59005528D01*
X136373001Y-59005528D01*
X136250001Y-59017642D01*
X136127000Y-59005528D01*
X135873000Y-59005528D01*
X135748518Y-59017788D01*
X135746139Y-59018510D01*
X135658751Y-59008600D01*
X135595377Y-59071974D01*
X135518506Y-59113063D01*
X135478525Y-59145874D01*
X135341251Y-59008600D01*
X135234829Y-59020668D01*
X135115956Y-59059594D01*
X135006961Y-59120962D01*
X134912032Y-59202415D01*
X134834819Y-59300823D01*
X134778288Y-59412404D01*
X134744611Y-59532869D01*
X134735082Y-59657589D01*
X121060000Y-59657589D01*
X121060000Y-55350324D01*
X121265000Y-55350324D01*
X121265000Y-55849676D01*
X121362418Y-56339432D01*
X121553512Y-56800773D01*
X121830937Y-57215968D01*
X122184032Y-57569063D01*
X122599227Y-57846488D01*
X123060568Y-58037582D01*
X123550324Y-58135000D01*
X124049676Y-58135000D01*
X124539432Y-58037582D01*
X125000773Y-57846488D01*
X125415968Y-57569063D01*
X125769063Y-57215968D01*
X125988405Y-56887700D01*
X132443427Y-56887700D01*
X132455687Y-57012182D01*
X132491997Y-57131880D01*
X132550962Y-57242194D01*
X132630314Y-57338885D01*
X132727005Y-57418237D01*
X132837319Y-57477202D01*
X132957017Y-57513512D01*
X133081499Y-57525772D01*
X133557749Y-57522700D01*
X133716499Y-57363950D01*
X133716499Y-56163800D01*
X133970499Y-56163800D01*
X133970499Y-57363950D01*
X134129249Y-57522700D01*
X134605499Y-57525772D01*
X134729981Y-57513512D01*
X134849679Y-57477202D01*
X134959993Y-57418237D01*
X135056684Y-57338885D01*
X135136036Y-57242194D01*
X135195001Y-57131880D01*
X135231311Y-57012182D01*
X135243571Y-56887700D01*
X160256427Y-56887700D01*
X160268687Y-57012182D01*
X160304997Y-57131880D01*
X160363962Y-57242194D01*
X160443314Y-57338885D01*
X160540005Y-57418237D01*
X160650319Y-57477202D01*
X160770017Y-57513512D01*
X160894499Y-57525772D01*
X161370749Y-57522700D01*
X161529499Y-57363950D01*
X161529499Y-56163800D01*
X161783499Y-56163800D01*
X161783499Y-57363950D01*
X161942249Y-57522700D01*
X162418499Y-57525772D01*
X162542981Y-57513512D01*
X162662679Y-57477202D01*
X162772993Y-57418237D01*
X162869684Y-57338885D01*
X162949036Y-57242194D01*
X163008001Y-57131880D01*
X163044311Y-57012182D01*
X163056571Y-56887700D01*
X163053499Y-56322550D01*
X162894749Y-56163800D01*
X161783499Y-56163800D01*
X161529499Y-56163800D01*
X160418249Y-56163800D01*
X160259499Y-56322550D01*
X160256427Y-56887700D01*
X135243571Y-56887700D01*
X135240499Y-56322550D01*
X135081749Y-56163800D01*
X133970499Y-56163800D01*
X133716499Y-56163800D01*
X132605249Y-56163800D01*
X132446499Y-56322550D01*
X132443427Y-56887700D01*
X125988405Y-56887700D01*
X126046488Y-56800773D01*
X126237582Y-56339432D01*
X126335000Y-55849676D01*
X126335000Y-55350324D01*
X126302295Y-55185900D01*
X132443427Y-55185900D01*
X132446499Y-55751050D01*
X132605249Y-55909800D01*
X133716499Y-55909800D01*
X133716499Y-54709650D01*
X133970499Y-54709650D01*
X133970499Y-55909800D01*
X135081749Y-55909800D01*
X135240499Y-55751050D01*
X135243571Y-55185900D01*
X160256427Y-55185900D01*
X160259499Y-55751050D01*
X160418249Y-55909800D01*
X161529499Y-55909800D01*
X161529499Y-54709650D01*
X161783499Y-54709650D01*
X161783499Y-55909800D01*
X162894749Y-55909800D01*
X163053499Y-55751050D01*
X163055677Y-55350324D01*
X169265000Y-55350324D01*
X169265000Y-55849676D01*
X169362418Y-56339432D01*
X169553512Y-56800773D01*
X169830937Y-57215968D01*
X170184032Y-57569063D01*
X170599227Y-57846488D01*
X171060568Y-58037582D01*
X171550324Y-58135000D01*
X172049676Y-58135000D01*
X172539432Y-58037582D01*
X173000773Y-57846488D01*
X173415968Y-57569063D01*
X173769063Y-57215968D01*
X174046488Y-56800773D01*
X174237582Y-56339432D01*
X174335000Y-55849676D01*
X174335000Y-55350324D01*
X174237582Y-54860568D01*
X174046488Y-54399227D01*
X173769063Y-53984032D01*
X173415968Y-53630937D01*
X173000773Y-53353512D01*
X172539432Y-53162418D01*
X172049676Y-53065000D01*
X171550324Y-53065000D01*
X171060568Y-53162418D01*
X170599227Y-53353512D01*
X170184032Y-53630937D01*
X169830937Y-53984032D01*
X169553512Y-54399227D01*
X169362418Y-54860568D01*
X169265000Y-55350324D01*
X163055677Y-55350324D01*
X163056571Y-55185900D01*
X163044311Y-55061418D01*
X163008001Y-54941720D01*
X162949036Y-54831406D01*
X162869684Y-54734715D01*
X162772993Y-54655363D01*
X162662679Y-54596398D01*
X162542981Y-54560088D01*
X162418499Y-54547828D01*
X161942249Y-54550900D01*
X161783499Y-54709650D01*
X161529499Y-54709650D01*
X161370749Y-54550900D01*
X160894499Y-54547828D01*
X160770017Y-54560088D01*
X160650319Y-54596398D01*
X160540005Y-54655363D01*
X160443314Y-54734715D01*
X160363962Y-54831406D01*
X160304997Y-54941720D01*
X160268687Y-55061418D01*
X160256427Y-55185900D01*
X135243571Y-55185900D01*
X135231311Y-55061418D01*
X135195001Y-54941720D01*
X135136036Y-54831406D01*
X135056684Y-54734715D01*
X134959993Y-54655363D01*
X134849679Y-54596398D01*
X134729981Y-54560088D01*
X134605499Y-54547828D01*
X134129249Y-54550900D01*
X133970499Y-54709650D01*
X133716499Y-54709650D01*
X133557749Y-54550900D01*
X133081499Y-54547828D01*
X132957017Y-54560088D01*
X132837319Y-54596398D01*
X132727005Y-54655363D01*
X132630314Y-54734715D01*
X132550962Y-54831406D01*
X132491997Y-54941720D01*
X132455687Y-55061418D01*
X132443427Y-55185900D01*
X126302295Y-55185900D01*
X126237582Y-54860568D01*
X126046488Y-54399227D01*
X125769063Y-53984032D01*
X125415968Y-53630937D01*
X125000773Y-53353512D01*
X124539432Y-53162418D01*
X124049676Y-53065000D01*
X123550324Y-53065000D01*
X123060568Y-53162418D01*
X122599227Y-53353512D01*
X122184032Y-53630937D01*
X121830937Y-53984032D01*
X121553512Y-54399227D01*
X121362418Y-54860568D01*
X121265000Y-55350324D01*
X121060000Y-55350324D01*
X121060000Y-52860000D01*
X174540000Y-52860000D01*
X174540001Y-136340000D01*
%TA.AperFunction,Conductor*%
D21*
G36*
X174540001Y-136340000D02*
G01*
X121060000Y-136340000D01*
X121060000Y-133350324D01*
X121265000Y-133350324D01*
X121265000Y-133849676D01*
X121362418Y-134339432D01*
X121553512Y-134800773D01*
X121830937Y-135215968D01*
X122184032Y-135569063D01*
X122599227Y-135846488D01*
X123060568Y-136037582D01*
X123550324Y-136135000D01*
X124049676Y-136135000D01*
X124539432Y-136037582D01*
X125000773Y-135846488D01*
X125415968Y-135569063D01*
X125769063Y-135215968D01*
X126046488Y-134800773D01*
X126237582Y-134339432D01*
X126335000Y-133849676D01*
X126335000Y-133839300D01*
X142013829Y-133839300D01*
X142026089Y-133963782D01*
X142062399Y-134083480D01*
X142121364Y-134193794D01*
X142200716Y-134290485D01*
X142297407Y-134369837D01*
X142407721Y-134428802D01*
X142527419Y-134465112D01*
X142651901Y-134477372D01*
X142797951Y-134474300D01*
X142956701Y-134315550D01*
X142956701Y-133217000D01*
X143210701Y-133217000D01*
X143210701Y-134315550D01*
X143369451Y-134474300D01*
X143515501Y-134477372D01*
X143639983Y-134465112D01*
X143759681Y-134428802D01*
X143869995Y-134369837D01*
X143966686Y-134290485D01*
X144046038Y-134193794D01*
X144105003Y-134083480D01*
X144141313Y-133963782D01*
X144153573Y-133839300D01*
X144150501Y-133375750D01*
X143991751Y-133217000D01*
X143210701Y-133217000D01*
X142956701Y-133217000D01*
X142175651Y-133217000D01*
X142016901Y-133375750D01*
X142013829Y-133839300D01*
X126335000Y-133839300D01*
X126335000Y-133350324D01*
X126237582Y-132860568D01*
X126046488Y-132399227D01*
X126007382Y-132340700D01*
X142013829Y-132340700D01*
X142016901Y-132804250D01*
X142175651Y-132963000D01*
X142956701Y-132963000D01*
X142956701Y-131864450D01*
X142797951Y-131705700D01*
X142651901Y-131702628D01*
X142527419Y-131714888D01*
X142407721Y-131751198D01*
X142297407Y-131810163D01*
X142200716Y-131889515D01*
X142121364Y-131986206D01*
X142062399Y-132096520D01*
X142026089Y-132216218D01*
X142013829Y-132340700D01*
X126007382Y-132340700D01*
X125769063Y-131984032D01*
X125415968Y-131630937D01*
X125000773Y-131353512D01*
X124539432Y-131162418D01*
X124049676Y-131065000D01*
X123550324Y-131065000D01*
X123060568Y-131162418D01*
X122599227Y-131353512D01*
X122184032Y-131630937D01*
X121830937Y-131984032D01*
X121553512Y-132399227D01*
X121362418Y-132860568D01*
X121265000Y-133350324D01*
X121060000Y-133350324D01*
X121060000Y-125645000D01*
X143096928Y-125645000D01*
X143109188Y-125769482D01*
X143145498Y-125889180D01*
X143204463Y-125999494D01*
X143283815Y-126096185D01*
X143380506Y-126175537D01*
X143490820Y-126234502D01*
X143610518Y-126270812D01*
X143735000Y-126283072D01*
X143899250Y-126280000D01*
X144058000Y-126121250D01*
X144058000Y-125297000D01*
X143258750Y-125297000D01*
X143100000Y-125455750D01*
X143096928Y-125645000D01*
X121060000Y-125645000D01*
X121060000Y-73422143D01*
X123520000Y-73422143D01*
X123520000Y-117277857D01*
X127340000Y-117277857D01*
X127340000Y-73422143D01*
X123520000Y-73422143D01*
X121060000Y-73422143D01*
X121060000Y-59657589D01*
X134735082Y-59657589D01*
X134738001Y-59764250D01*
X134896751Y-59923000D01*
X135234928Y-59923000D01*
X135234928Y-60177000D01*
X134896751Y-60177000D01*
X134738001Y-60335750D01*
X134735082Y-60442411D01*
X134744611Y-60567131D01*
X134778288Y-60687596D01*
X134834819Y-60799177D01*
X134912032Y-60897585D01*
X135006961Y-60979038D01*
X135115956Y-61040406D01*
X135234829Y-61079332D01*
X135341251Y-61091400D01*
X135478525Y-60954126D01*
X135518506Y-60986937D01*
X135595377Y-61028026D01*
X135658751Y-61091400D01*
X135690003Y-61087856D01*
X135690002Y-62560211D01*
X135690002Y-63360210D01*
X135686083Y-63399998D01*
X135690002Y-63439786D01*
X135690002Y-63439788D01*
X135701722Y-63558785D01*
X135748039Y-63711470D01*
X135748040Y-63711471D01*
X135823253Y-63852187D01*
X135854287Y-63890002D01*
X135924474Y-63975526D01*
X135955390Y-64000898D01*
X142290001Y-70335510D01*
X142290000Y-121060212D01*
X142286081Y-121100000D01*
X142290000Y-121139788D01*
X142290000Y-121139790D01*
X142301720Y-121258787D01*
X142348037Y-121411472D01*
X142348038Y-121411473D01*
X142423251Y-121552189D01*
X142424731Y-121553992D01*
X142524472Y-121675528D01*
X142555388Y-121700900D01*
X142849100Y-121994612D01*
X142874472Y-122025528D01*
X142997811Y-122126749D01*
X143138527Y-122201963D01*
X143143212Y-122203384D01*
X143123992Y-122266744D01*
X143106928Y-122439998D01*
X143106928Y-123340002D01*
X143123992Y-123513256D01*
X143174528Y-123679852D01*
X143256595Y-123833387D01*
X143367038Y-123967962D01*
X143501613Y-124078405D01*
X143530041Y-124093600D01*
X143490820Y-124105498D01*
X143380506Y-124164463D01*
X143283815Y-124243815D01*
X143204463Y-124340506D01*
X143145498Y-124450820D01*
X143109188Y-124570518D01*
X143096928Y-124695000D01*
X143100000Y-124884250D01*
X143258750Y-125043000D01*
X144058000Y-125043000D01*
X144058000Y-125023000D01*
X144312000Y-125023000D01*
X144312000Y-125043000D01*
X144332000Y-125043000D01*
X144332000Y-125297000D01*
X144312000Y-125297000D01*
X144312000Y-126121250D01*
X144457974Y-126267224D01*
X144439002Y-126286197D01*
X144409999Y-126309999D01*
X144356633Y-126375026D01*
X144315026Y-126425724D01*
X144275860Y-126498998D01*
X144244454Y-126557754D01*
X144200997Y-126701015D01*
X144190000Y-126812668D01*
X144190000Y-126812678D01*
X144186324Y-126850000D01*
X144190000Y-126887323D01*
X144190001Y-128962668D01*
X144186324Y-129000000D01*
X144200998Y-129148985D01*
X144244454Y-129292246D01*
X144315026Y-129424276D01*
X144376339Y-129498985D01*
X144410000Y-129540001D01*
X144438998Y-129563799D01*
X144462884Y-129587685D01*
X144402400Y-129581728D01*
X144097600Y-129581728D01*
X143973118Y-129593988D01*
X143853420Y-129630298D01*
X143743106Y-129689263D01*
X143646415Y-129768615D01*
X143567063Y-129865306D01*
X143508098Y-129975620D01*
X143471788Y-130095318D01*
X143459528Y-130219800D01*
X143459528Y-130880200D01*
X143471788Y-131004682D01*
X143489999Y-131064717D01*
X143489999Y-131421909D01*
X143486323Y-131459232D01*
X143489999Y-131496555D01*
X143489999Y-131496564D01*
X143500996Y-131608217D01*
X143530070Y-131704063D01*
X143515501Y-131702628D01*
X143369451Y-131705700D01*
X143210701Y-131864450D01*
X143210701Y-132963000D01*
X143991751Y-132963000D01*
X144150501Y-132804250D01*
X144152935Y-132436969D01*
X145306584Y-133590618D01*
X145330383Y-133619617D01*
X145446108Y-133714590D01*
X145578137Y-133785162D01*
X145721398Y-133828619D01*
X145833051Y-133839616D01*
X145833059Y-133839616D01*
X145870384Y-133843292D01*
X145907707Y-133839616D01*
X147390000Y-133839616D01*
X147390000Y-134312677D01*
X147386324Y-134350000D01*
X147390000Y-134387322D01*
X147390000Y-134387332D01*
X147400997Y-134498985D01*
X147428606Y-134590001D01*
X147444454Y-134642246D01*
X147515026Y-134774276D01*
X147536772Y-134800773D01*
X147609999Y-134890001D01*
X147639003Y-134913804D01*
X148036207Y-135311008D01*
X148060010Y-135340012D01*
X148175735Y-135434985D01*
X148307764Y-135505557D01*
X148451025Y-135549014D01*
X148562678Y-135560011D01*
X148562686Y-135560011D01*
X148600011Y-135563687D01*
X148637336Y-135560011D01*
X154649078Y-135560011D01*
X154686400Y-135563687D01*
X154723722Y-135560011D01*
X154723733Y-135560011D01*
X154835386Y-135549014D01*
X154978647Y-135505557D01*
X155110676Y-135434985D01*
X155226401Y-135340012D01*
X155250203Y-135311009D01*
X155811008Y-134750206D01*
X155840001Y-134726412D01*
X155863795Y-134697419D01*
X155863799Y-134697415D01*
X155934973Y-134610688D01*
X155946031Y-134590001D01*
X156005546Y-134478658D01*
X156049003Y-134335397D01*
X156060000Y-134223744D01*
X156060000Y-134223735D01*
X156063676Y-134186412D01*
X156060000Y-134149089D01*
X156060000Y-133350324D01*
X169265000Y-133350324D01*
X169265000Y-133849676D01*
X169362418Y-134339432D01*
X169553512Y-134800773D01*
X169830937Y-135215968D01*
X170184032Y-135569063D01*
X170599227Y-135846488D01*
X171060568Y-136037582D01*
X171550324Y-136135000D01*
X172049676Y-136135000D01*
X172539432Y-136037582D01*
X173000773Y-135846488D01*
X173415968Y-135569063D01*
X173769063Y-135215968D01*
X174046488Y-134800773D01*
X174237582Y-134339432D01*
X174335000Y-133849676D01*
X174335000Y-133350324D01*
X174237582Y-132860568D01*
X174046488Y-132399227D01*
X173769063Y-131984032D01*
X173415968Y-131630937D01*
X173000773Y-131353512D01*
X172539432Y-131162418D01*
X172049676Y-131065000D01*
X171550324Y-131065000D01*
X171060568Y-131162418D01*
X170599227Y-131353512D01*
X170184032Y-131630937D01*
X169830937Y-131984032D01*
X169553512Y-132399227D01*
X169362418Y-132860568D01*
X169265000Y-133350324D01*
X156060000Y-133350324D01*
X156060000Y-117837322D01*
X156063676Y-117799999D01*
X156060000Y-117762676D01*
X156060000Y-117762667D01*
X156049003Y-117651014D01*
X156005546Y-117507753D01*
X155934974Y-117375724D01*
X155840001Y-117259999D01*
X155810998Y-117236197D01*
X155614027Y-117039226D01*
X155590023Y-117009977D01*
X155561026Y-116986180D01*
X154663848Y-116089002D01*
X154640045Y-116059999D01*
X154524320Y-115965026D01*
X154392291Y-115894454D01*
X154249030Y-115850997D01*
X154137377Y-115840000D01*
X154137366Y-115840000D01*
X154100044Y-115836324D01*
X154062722Y-115840000D01*
X147560000Y-115840000D01*
X147560000Y-68187325D01*
X147563676Y-68150000D01*
X147560000Y-68112675D01*
X147560000Y-68112667D01*
X147549003Y-68001014D01*
X147505546Y-67857753D01*
X147434974Y-67725724D01*
X147340001Y-67609999D01*
X147311004Y-67586202D01*
X142760001Y-63035200D01*
X142760001Y-61083343D01*
X142873001Y-61094472D01*
X143127001Y-61094472D01*
X143250001Y-61082358D01*
X143373000Y-61094472D01*
X143627000Y-61094472D01*
X143750000Y-61082358D01*
X143872999Y-61094472D01*
X144126999Y-61094472D01*
X144251481Y-61082212D01*
X144253860Y-61081490D01*
X144341250Y-61091400D01*
X144404626Y-61028024D01*
X144481493Y-60986937D01*
X144499999Y-60971750D01*
X144518505Y-60986937D01*
X144595376Y-61028026D01*
X144658750Y-61091400D01*
X144746138Y-61081490D01*
X144748517Y-61082212D01*
X144872999Y-61094472D01*
X145126999Y-61094472D01*
X145250000Y-61082358D01*
X145373001Y-61094472D01*
X145627001Y-61094472D01*
X145750001Y-61082358D01*
X145873000Y-61094472D01*
X146127000Y-61094472D01*
X146250000Y-61082358D01*
X146372999Y-61094472D01*
X146626999Y-61094472D01*
X146751481Y-61082212D01*
X146753861Y-61081490D01*
X146841251Y-61091400D01*
X146904628Y-61028023D01*
X146981493Y-60986937D01*
X146999999Y-60971750D01*
X147018505Y-60986937D01*
X147095378Y-61028027D01*
X147158751Y-61091400D01*
X147246138Y-61081490D01*
X147248517Y-61082212D01*
X147372999Y-61094472D01*
X147626999Y-61094472D01*
X147750000Y-61082358D01*
X147873001Y-61094472D01*
X148127001Y-61094472D01*
X148250001Y-61082358D01*
X148373000Y-61094472D01*
X148627000Y-61094472D01*
X148750000Y-61082358D01*
X148872999Y-61094472D01*
X149126999Y-61094472D01*
X149251481Y-61082212D01*
X149253861Y-61081490D01*
X149341251Y-61091400D01*
X149404628Y-61028023D01*
X149481493Y-60986937D01*
X149500000Y-60971749D01*
X149518506Y-60986937D01*
X149595377Y-61028026D01*
X149658751Y-61091400D01*
X149746139Y-61081490D01*
X149748518Y-61082212D01*
X149873000Y-61094472D01*
X150127000Y-61094472D01*
X150250001Y-61082358D01*
X150373001Y-61094472D01*
X150627001Y-61094472D01*
X150750001Y-61082358D01*
X150873000Y-61094472D01*
X151127000Y-61094472D01*
X151250000Y-61082358D01*
X151372999Y-61094472D01*
X151626999Y-61094472D01*
X151751481Y-61082212D01*
X151753861Y-61081490D01*
X151841251Y-61091400D01*
X151904628Y-61028023D01*
X151981493Y-60986937D01*
X152000000Y-60971749D01*
X152018506Y-60986937D01*
X152095377Y-61028026D01*
X152158751Y-61091400D01*
X152246139Y-61081490D01*
X152248518Y-61082212D01*
X152373000Y-61094472D01*
X152627000Y-61094472D01*
X152750001Y-61082358D01*
X152873001Y-61094472D01*
X153127001Y-61094472D01*
X153250001Y-61082358D01*
X153373000Y-61094472D01*
X153627000Y-61094472D01*
X153750000Y-61082358D01*
X153872999Y-61094472D01*
X154126999Y-61094472D01*
X154251481Y-61082212D01*
X154253861Y-61081490D01*
X154341251Y-61091400D01*
X154404628Y-61028023D01*
X154481493Y-60986937D01*
X154500000Y-60971749D01*
X154518506Y-60986937D01*
X154595377Y-61028026D01*
X154658751Y-61091400D01*
X154746139Y-61081490D01*
X154748518Y-61082212D01*
X154873000Y-61094472D01*
X155127000Y-61094472D01*
X155250001Y-61082358D01*
X155373001Y-61094472D01*
X155627001Y-61094472D01*
X155750001Y-61082358D01*
X155873000Y-61094472D01*
X156127000Y-61094472D01*
X156250000Y-61082358D01*
X156372999Y-61094472D01*
X156626999Y-61094472D01*
X156751481Y-61082212D01*
X156753861Y-61081490D01*
X156841251Y-61091400D01*
X156904628Y-61028023D01*
X156981493Y-60986937D01*
X157000000Y-60971749D01*
X157018506Y-60986937D01*
X157095377Y-61028026D01*
X157158751Y-61091400D01*
X157246139Y-61081490D01*
X157248518Y-61082212D01*
X157373000Y-61094472D01*
X157627000Y-61094472D01*
X157750001Y-61082358D01*
X157873001Y-61094472D01*
X158127001Y-61094472D01*
X158250001Y-61082358D01*
X158373000Y-61094472D01*
X158627000Y-61094472D01*
X158750000Y-61082358D01*
X158872999Y-61094472D01*
X159126999Y-61094472D01*
X159251481Y-61082212D01*
X159253861Y-61081490D01*
X159341251Y-61091400D01*
X159404628Y-61028023D01*
X159481493Y-60986937D01*
X159500000Y-60971749D01*
X159518506Y-60986937D01*
X159595377Y-61028026D01*
X159658751Y-61091400D01*
X159746139Y-61081490D01*
X159748518Y-61082212D01*
X159873000Y-61094472D01*
X160127000Y-61094472D01*
X160251482Y-61082212D01*
X160371180Y-61045902D01*
X160481494Y-60986937D01*
X160578185Y-60907585D01*
X160657537Y-60810894D01*
X160716502Y-60700580D01*
X160752812Y-60580882D01*
X160765072Y-60456400D01*
X160765072Y-59643600D01*
X160752812Y-59519118D01*
X160716502Y-59399420D01*
X160657537Y-59289106D01*
X160578185Y-59192415D01*
X160481494Y-59113063D01*
X160371180Y-59054098D01*
X160251482Y-59017788D01*
X160127000Y-59005528D01*
X159873000Y-59005528D01*
X159748518Y-59017788D01*
X159746139Y-59018510D01*
X159658751Y-59008600D01*
X159595377Y-59071974D01*
X159518506Y-59113063D01*
X159500000Y-59128251D01*
X159481493Y-59113063D01*
X159404628Y-59071977D01*
X159341251Y-59008600D01*
X159253861Y-59018510D01*
X159251481Y-59017788D01*
X159126999Y-59005528D01*
X158872999Y-59005528D01*
X158750000Y-59017642D01*
X158627000Y-59005528D01*
X158373000Y-59005528D01*
X158250001Y-59017642D01*
X158127001Y-59005528D01*
X157873001Y-59005528D01*
X157750001Y-59017642D01*
X157627000Y-59005528D01*
X157373000Y-59005528D01*
X157248518Y-59017788D01*
X157246139Y-59018510D01*
X157158751Y-59008600D01*
X157095377Y-59071974D01*
X157018506Y-59113063D01*
X157000000Y-59128251D01*
X156981493Y-59113063D01*
X156904628Y-59071977D01*
X156841251Y-59008600D01*
X156753861Y-59018510D01*
X156751481Y-59017788D01*
X156626999Y-59005528D01*
X156372999Y-59005528D01*
X156250000Y-59017642D01*
X156127000Y-59005528D01*
X155873000Y-59005528D01*
X155750001Y-59017642D01*
X155627001Y-59005528D01*
X155373001Y-59005528D01*
X155250001Y-59017642D01*
X155127000Y-59005528D01*
X154873000Y-59005528D01*
X154748518Y-59017788D01*
X154746139Y-59018510D01*
X154658751Y-59008600D01*
X154595377Y-59071974D01*
X154518506Y-59113063D01*
X154500000Y-59128251D01*
X154481493Y-59113063D01*
X154404628Y-59071977D01*
X154341251Y-59008600D01*
X154253861Y-59018510D01*
X154251481Y-59017788D01*
X154126999Y-59005528D01*
X153872999Y-59005528D01*
X153750000Y-59017642D01*
X153627000Y-59005528D01*
X153373000Y-59005528D01*
X153250001Y-59017642D01*
X153127001Y-59005528D01*
X152873001Y-59005528D01*
X152750001Y-59017642D01*
X152627000Y-59005528D01*
X152373000Y-59005528D01*
X152248518Y-59017788D01*
X152246139Y-59018510D01*
X152158751Y-59008600D01*
X152095377Y-59071974D01*
X152018506Y-59113063D01*
X152000000Y-59128251D01*
X151981493Y-59113063D01*
X151904628Y-59071977D01*
X151841251Y-59008600D01*
X151753861Y-59018510D01*
X151751481Y-59017788D01*
X151626999Y-59005528D01*
X151372999Y-59005528D01*
X151250000Y-59017642D01*
X151127000Y-59005528D01*
X150873000Y-59005528D01*
X150750001Y-59017642D01*
X150627001Y-59005528D01*
X150373001Y-59005528D01*
X150250001Y-59017642D01*
X150127000Y-59005528D01*
X149873000Y-59005528D01*
X149748518Y-59017788D01*
X149746139Y-59018510D01*
X149658751Y-59008600D01*
X149595377Y-59071974D01*
X149518506Y-59113063D01*
X149500000Y-59128251D01*
X149481493Y-59113063D01*
X149404628Y-59071977D01*
X149341251Y-59008600D01*
X149253861Y-59018510D01*
X149251481Y-59017788D01*
X149126999Y-59005528D01*
X148872999Y-59005528D01*
X148750000Y-59017642D01*
X148627000Y-59005528D01*
X148373000Y-59005528D01*
X148250001Y-59017642D01*
X148127001Y-59005528D01*
X147873001Y-59005528D01*
X147750000Y-59017642D01*
X147626999Y-59005528D01*
X147372999Y-59005528D01*
X147248517Y-59017788D01*
X147246138Y-59018510D01*
X147158751Y-59008600D01*
X147095378Y-59071973D01*
X147018505Y-59113063D01*
X146999999Y-59128250D01*
X146981493Y-59113063D01*
X146904628Y-59071977D01*
X146841251Y-59008600D01*
X146753861Y-59018510D01*
X146751481Y-59017788D01*
X146626999Y-59005528D01*
X146372999Y-59005528D01*
X146250000Y-59017642D01*
X146127000Y-59005528D01*
X145873000Y-59005528D01*
X145750001Y-59017642D01*
X145627001Y-59005528D01*
X145373001Y-59005528D01*
X145250000Y-59017642D01*
X145126999Y-59005528D01*
X144872999Y-59005528D01*
X144748517Y-59017788D01*
X144746138Y-59018510D01*
X144658750Y-59008600D01*
X144595376Y-59071974D01*
X144518505Y-59113063D01*
X144499999Y-59128250D01*
X144481493Y-59113063D01*
X144404626Y-59071976D01*
X144341250Y-59008600D01*
X144253860Y-59018510D01*
X144251481Y-59017788D01*
X144126999Y-59005528D01*
X143872999Y-59005528D01*
X143750000Y-59017642D01*
X143627000Y-59005528D01*
X143373000Y-59005528D01*
X143250001Y-59017642D01*
X143127001Y-59005528D01*
X142873001Y-59005528D01*
X142750000Y-59017642D01*
X142626999Y-59005528D01*
X142372999Y-59005528D01*
X142250000Y-59017642D01*
X142127000Y-59005528D01*
X141873000Y-59005528D01*
X141750000Y-59017642D01*
X141626999Y-59005528D01*
X141372999Y-59005528D01*
X141250000Y-59017642D01*
X141127000Y-59005528D01*
X140873000Y-59005528D01*
X140750001Y-59017642D01*
X140627001Y-59005528D01*
X140373001Y-59005528D01*
X140250000Y-59017642D01*
X140126999Y-59005528D01*
X139872999Y-59005528D01*
X139750000Y-59017642D01*
X139627000Y-59005528D01*
X139373000Y-59005528D01*
X139250000Y-59017642D01*
X139126999Y-59005528D01*
X138872999Y-59005528D01*
X138750000Y-59017642D01*
X138627000Y-59005528D01*
X138373000Y-59005528D01*
X138250001Y-59017642D01*
X138127001Y-59005528D01*
X137873001Y-59005528D01*
X137750000Y-59017642D01*
X137626999Y-59005528D01*
X137372999Y-59005528D01*
X137250000Y-59017642D01*
X137127000Y-59005528D01*
X136873000Y-59005528D01*
X136750001Y-59017642D01*
X136627001Y-59005528D01*
X136373001Y-59005528D01*
X136250001Y-59017642D01*
X136127000Y-59005528D01*
X135873000Y-59005528D01*
X135748518Y-59017788D01*
X135746139Y-59018510D01*
X135658751Y-59008600D01*
X135595377Y-59071974D01*
X135518506Y-59113063D01*
X135478525Y-59145874D01*
X135341251Y-59008600D01*
X135234829Y-59020668D01*
X135115956Y-59059594D01*
X135006961Y-59120962D01*
X134912032Y-59202415D01*
X134834819Y-59300823D01*
X134778288Y-59412404D01*
X134744611Y-59532869D01*
X134735082Y-59657589D01*
X121060000Y-59657589D01*
X121060000Y-55350324D01*
X121265000Y-55350324D01*
X121265000Y-55849676D01*
X121362418Y-56339432D01*
X121553512Y-56800773D01*
X121830937Y-57215968D01*
X122184032Y-57569063D01*
X122599227Y-57846488D01*
X123060568Y-58037582D01*
X123550324Y-58135000D01*
X124049676Y-58135000D01*
X124539432Y-58037582D01*
X125000773Y-57846488D01*
X125415968Y-57569063D01*
X125769063Y-57215968D01*
X125988405Y-56887700D01*
X132443427Y-56887700D01*
X132455687Y-57012182D01*
X132491997Y-57131880D01*
X132550962Y-57242194D01*
X132630314Y-57338885D01*
X132727005Y-57418237D01*
X132837319Y-57477202D01*
X132957017Y-57513512D01*
X133081499Y-57525772D01*
X133557749Y-57522700D01*
X133716499Y-57363950D01*
X133716499Y-56163800D01*
X133970499Y-56163800D01*
X133970499Y-57363950D01*
X134129249Y-57522700D01*
X134605499Y-57525772D01*
X134729981Y-57513512D01*
X134849679Y-57477202D01*
X134959993Y-57418237D01*
X135056684Y-57338885D01*
X135136036Y-57242194D01*
X135195001Y-57131880D01*
X135231311Y-57012182D01*
X135243571Y-56887700D01*
X160256427Y-56887700D01*
X160268687Y-57012182D01*
X160304997Y-57131880D01*
X160363962Y-57242194D01*
X160443314Y-57338885D01*
X160540005Y-57418237D01*
X160650319Y-57477202D01*
X160770017Y-57513512D01*
X160894499Y-57525772D01*
X161370749Y-57522700D01*
X161529499Y-57363950D01*
X161529499Y-56163800D01*
X161783499Y-56163800D01*
X161783499Y-57363950D01*
X161942249Y-57522700D01*
X162418499Y-57525772D01*
X162542981Y-57513512D01*
X162662679Y-57477202D01*
X162772993Y-57418237D01*
X162869684Y-57338885D01*
X162949036Y-57242194D01*
X163008001Y-57131880D01*
X163044311Y-57012182D01*
X163056571Y-56887700D01*
X163053499Y-56322550D01*
X162894749Y-56163800D01*
X161783499Y-56163800D01*
X161529499Y-56163800D01*
X160418249Y-56163800D01*
X160259499Y-56322550D01*
X160256427Y-56887700D01*
X135243571Y-56887700D01*
X135240499Y-56322550D01*
X135081749Y-56163800D01*
X133970499Y-56163800D01*
X133716499Y-56163800D01*
X132605249Y-56163800D01*
X132446499Y-56322550D01*
X132443427Y-56887700D01*
X125988405Y-56887700D01*
X126046488Y-56800773D01*
X126237582Y-56339432D01*
X126335000Y-55849676D01*
X126335000Y-55350324D01*
X126302295Y-55185900D01*
X132443427Y-55185900D01*
X132446499Y-55751050D01*
X132605249Y-55909800D01*
X133716499Y-55909800D01*
X133716499Y-54709650D01*
X133970499Y-54709650D01*
X133970499Y-55909800D01*
X135081749Y-55909800D01*
X135240499Y-55751050D01*
X135243571Y-55185900D01*
X160256427Y-55185900D01*
X160259499Y-55751050D01*
X160418249Y-55909800D01*
X161529499Y-55909800D01*
X161529499Y-54709650D01*
X161783499Y-54709650D01*
X161783499Y-55909800D01*
X162894749Y-55909800D01*
X163053499Y-55751050D01*
X163055677Y-55350324D01*
X169265000Y-55350324D01*
X169265000Y-55849676D01*
X169362418Y-56339432D01*
X169553512Y-56800773D01*
X169830937Y-57215968D01*
X170184032Y-57569063D01*
X170599227Y-57846488D01*
X171060568Y-58037582D01*
X171550324Y-58135000D01*
X172049676Y-58135000D01*
X172539432Y-58037582D01*
X173000773Y-57846488D01*
X173415968Y-57569063D01*
X173769063Y-57215968D01*
X174046488Y-56800773D01*
X174237582Y-56339432D01*
X174335000Y-55849676D01*
X174335000Y-55350324D01*
X174237582Y-54860568D01*
X174046488Y-54399227D01*
X173769063Y-53984032D01*
X173415968Y-53630937D01*
X173000773Y-53353512D01*
X172539432Y-53162418D01*
X172049676Y-53065000D01*
X171550324Y-53065000D01*
X171060568Y-53162418D01*
X170599227Y-53353512D01*
X170184032Y-53630937D01*
X169830937Y-53984032D01*
X169553512Y-54399227D01*
X169362418Y-54860568D01*
X169265000Y-55350324D01*
X163055677Y-55350324D01*
X163056571Y-55185900D01*
X163044311Y-55061418D01*
X163008001Y-54941720D01*
X162949036Y-54831406D01*
X162869684Y-54734715D01*
X162772993Y-54655363D01*
X162662679Y-54596398D01*
X162542981Y-54560088D01*
X162418499Y-54547828D01*
X161942249Y-54550900D01*
X161783499Y-54709650D01*
X161529499Y-54709650D01*
X161370749Y-54550900D01*
X160894499Y-54547828D01*
X160770017Y-54560088D01*
X160650319Y-54596398D01*
X160540005Y-54655363D01*
X160443314Y-54734715D01*
X160363962Y-54831406D01*
X160304997Y-54941720D01*
X160268687Y-55061418D01*
X160256427Y-55185900D01*
X135243571Y-55185900D01*
X135231311Y-55061418D01*
X135195001Y-54941720D01*
X135136036Y-54831406D01*
X135056684Y-54734715D01*
X134959993Y-54655363D01*
X134849679Y-54596398D01*
X134729981Y-54560088D01*
X134605499Y-54547828D01*
X134129249Y-54550900D01*
X133970499Y-54709650D01*
X133716499Y-54709650D01*
X133557749Y-54550900D01*
X133081499Y-54547828D01*
X132957017Y-54560088D01*
X132837319Y-54596398D01*
X132727005Y-54655363D01*
X132630314Y-54734715D01*
X132550962Y-54831406D01*
X132491997Y-54941720D01*
X132455687Y-55061418D01*
X132443427Y-55185900D01*
X126302295Y-55185900D01*
X126237582Y-54860568D01*
X126046488Y-54399227D01*
X125769063Y-53984032D01*
X125415968Y-53630937D01*
X125000773Y-53353512D01*
X124539432Y-53162418D01*
X124049676Y-53065000D01*
X123550324Y-53065000D01*
X123060568Y-53162418D01*
X122599227Y-53353512D01*
X122184032Y-53630937D01*
X121830937Y-53984032D01*
X121553512Y-54399227D01*
X121362418Y-54860568D01*
X121265000Y-55350324D01*
X121060000Y-55350324D01*
X121060000Y-52860000D01*
X174540000Y-52860000D01*
X174540001Y-136340000D01*
G37*
%TD.AperFunction*%
D20*
X153940001Y-133590000D02*
X150984521Y-133590000D01*
X150983101Y-133375750D01*
X150824351Y-133217000D01*
X150043301Y-133217000D01*
X150043301Y-133237000D01*
X149789301Y-133237000D01*
X149789301Y-133217000D01*
X149769301Y-133217000D01*
X149769301Y-132963000D01*
X149789301Y-132963000D01*
X149789301Y-132943000D01*
X150043301Y-132943000D01*
X150043301Y-132963000D01*
X150824351Y-132963000D01*
X150983101Y-132804250D01*
X150984057Y-132660011D01*
X153612667Y-132660011D01*
X153649989Y-132663687D01*
X153687311Y-132660011D01*
X153687322Y-132660011D01*
X153798975Y-132649014D01*
X153940001Y-132606235D01*
X153940001Y-133590000D01*
%TA.AperFunction,Conductor*%
D21*
G36*
X153940001Y-133590000D02*
G01*
X150984521Y-133590000D01*
X150983101Y-133375750D01*
X150824351Y-133217000D01*
X150043301Y-133217000D01*
X150043301Y-133237000D01*
X149789301Y-133237000D01*
X149789301Y-133217000D01*
X149769301Y-133217000D01*
X149769301Y-132963000D01*
X149789301Y-132963000D01*
X149789301Y-132943000D01*
X150043301Y-132943000D01*
X150043301Y-132963000D01*
X150824351Y-132963000D01*
X150983101Y-132804250D01*
X150984057Y-132660011D01*
X153612667Y-132660011D01*
X153649989Y-132663687D01*
X153687311Y-132660011D01*
X153687322Y-132660011D01*
X153798975Y-132649014D01*
X153940001Y-132606235D01*
X153940001Y-133590000D01*
G37*
%TD.AperFunction*%
D20*
X152640001Y-119514803D02*
X152640000Y-130685199D01*
X152635199Y-130690000D01*
X149391652Y-130690000D01*
X149378652Y-130677000D01*
X148603002Y-130677000D01*
X148603002Y-130423000D01*
X149378652Y-130423000D01*
X149537402Y-130264250D01*
X149540282Y-130235434D01*
X149531076Y-130110690D01*
X149497710Y-129990138D01*
X149441466Y-129878412D01*
X149364507Y-129779806D01*
X149269789Y-129698108D01*
X149160953Y-129636458D01*
X149042180Y-129597226D01*
X148934152Y-129584800D01*
X148797200Y-129721752D01*
X148769787Y-129698108D01*
X148660951Y-129636458D01*
X148596084Y-129615032D01*
X148565852Y-129584800D01*
X148510000Y-129591224D01*
X148510000Y-129142888D01*
X148518387Y-129138405D01*
X148618750Y-129056039D01*
X148719113Y-129138405D01*
X148872648Y-129220472D01*
X149039244Y-129271008D01*
X149212498Y-129288072D01*
X149737502Y-129288072D01*
X149910756Y-129271008D01*
X150077352Y-129220472D01*
X150230887Y-129138405D01*
X150312137Y-129071724D01*
X150336315Y-129101185D01*
X150433006Y-129180537D01*
X150543320Y-129239502D01*
X150663018Y-129275812D01*
X150787500Y-129288072D01*
X151014250Y-129285000D01*
X151173000Y-129126250D01*
X151173000Y-128077000D01*
X151427000Y-128077000D01*
X151427000Y-129126250D01*
X151585750Y-129285000D01*
X151812500Y-129288072D01*
X151936982Y-129275812D01*
X152056680Y-129239502D01*
X152166994Y-129180537D01*
X152263685Y-129101185D01*
X152343037Y-129004494D01*
X152402002Y-128894180D01*
X152438312Y-128774482D01*
X152450572Y-128650000D01*
X152447500Y-128235750D01*
X152288750Y-128077000D01*
X151427000Y-128077000D01*
X151173000Y-128077000D01*
X151153000Y-128077000D01*
X151153000Y-127823000D01*
X151173000Y-127823000D01*
X151173000Y-126773750D01*
X151427000Y-126773750D01*
X151427000Y-127823000D01*
X152288750Y-127823000D01*
X152447500Y-127664250D01*
X152450572Y-127250000D01*
X152438312Y-127125518D01*
X152402002Y-127005820D01*
X152343037Y-126895506D01*
X152263685Y-126798815D01*
X152166994Y-126719463D01*
X152056680Y-126660498D01*
X151936982Y-126624188D01*
X151812500Y-126611928D01*
X151585750Y-126615000D01*
X151427000Y-126773750D01*
X151173000Y-126773750D01*
X151014250Y-126615000D01*
X150787500Y-126611928D01*
X150663018Y-126624188D01*
X150543320Y-126660498D01*
X150433006Y-126719463D01*
X150336315Y-126798815D01*
X150312137Y-126828276D01*
X150230887Y-126761595D01*
X150077352Y-126679528D01*
X149910756Y-126628992D01*
X149737502Y-126611928D01*
X149212498Y-126611928D01*
X149039244Y-126628992D01*
X148905126Y-126669676D01*
X149161003Y-126413799D01*
X149190001Y-126390001D01*
X149254958Y-126310850D01*
X149314250Y-126310000D01*
X149473000Y-126151250D01*
X149473000Y-125077000D01*
X149727000Y-125077000D01*
X149727000Y-126151250D01*
X149885750Y-126310000D01*
X150100000Y-126313072D01*
X150224482Y-126300812D01*
X150344180Y-126264502D01*
X150454494Y-126205537D01*
X150551185Y-126126185D01*
X150630537Y-126029494D01*
X150689502Y-125919180D01*
X150725812Y-125799482D01*
X150738072Y-125675000D01*
X150735000Y-125235750D01*
X150576250Y-125077000D01*
X149727000Y-125077000D01*
X149473000Y-125077000D01*
X149453000Y-125077000D01*
X149453000Y-124823000D01*
X149473000Y-124823000D01*
X149473000Y-123027000D01*
X149727000Y-123027000D01*
X149727000Y-124823000D01*
X150576250Y-124823000D01*
X150735000Y-124664250D01*
X150738072Y-124225000D01*
X150725812Y-124100518D01*
X150689502Y-123980820D01*
X150659665Y-123925000D01*
X150689502Y-123869180D01*
X150725812Y-123749482D01*
X150738072Y-123625000D01*
X150735000Y-123185750D01*
X150576250Y-123027000D01*
X149727000Y-123027000D01*
X149473000Y-123027000D01*
X149453000Y-123027000D01*
X149453000Y-122773000D01*
X149473000Y-122773000D01*
X149473000Y-121698750D01*
X149727000Y-121698750D01*
X149727000Y-122773000D01*
X150576250Y-122773000D01*
X150735000Y-122614250D01*
X150738072Y-122175000D01*
X150725812Y-122050518D01*
X150689502Y-121930820D01*
X150630537Y-121820506D01*
X150551185Y-121723815D01*
X150454494Y-121644463D01*
X150344180Y-121585498D01*
X150224482Y-121549188D01*
X150100000Y-121536928D01*
X149885750Y-121540000D01*
X149727000Y-121698750D01*
X149473000Y-121698750D01*
X149314250Y-121540000D01*
X149100000Y-121536928D01*
X148975518Y-121549188D01*
X148855820Y-121585498D01*
X148745506Y-121644463D01*
X148648815Y-121723815D01*
X148583342Y-121803594D01*
X148577962Y-121797038D01*
X148443386Y-121686595D01*
X148289850Y-121604528D01*
X148123254Y-121553992D01*
X147950000Y-121536928D01*
X147450000Y-121536928D01*
X147276746Y-121553992D01*
X147110150Y-121604528D01*
X146956614Y-121686595D01*
X146888361Y-121742608D01*
X146838387Y-121701595D01*
X146684852Y-121619528D01*
X146518256Y-121568992D01*
X146345002Y-121551928D01*
X145910000Y-121551928D01*
X145910000Y-121063072D01*
X146325002Y-121063072D01*
X146498256Y-121046008D01*
X146664852Y-120995472D01*
X146818387Y-120913405D01*
X146875000Y-120866944D01*
X146931613Y-120913405D01*
X147085148Y-120995472D01*
X147251744Y-121046008D01*
X147424998Y-121063072D01*
X147950002Y-121063072D01*
X148123256Y-121046008D01*
X148289852Y-120995472D01*
X148443387Y-120913405D01*
X148524637Y-120846724D01*
X148548815Y-120876185D01*
X148645506Y-120955537D01*
X148755820Y-121014502D01*
X148875518Y-121050812D01*
X149000000Y-121063072D01*
X149226750Y-121060000D01*
X149385500Y-120901250D01*
X149385500Y-119852000D01*
X149639500Y-119852000D01*
X149639500Y-120901250D01*
X149798250Y-121060000D01*
X150025000Y-121063072D01*
X150149482Y-121050812D01*
X150269180Y-121014502D01*
X150379494Y-120955537D01*
X150476185Y-120876185D01*
X150555537Y-120779494D01*
X150614502Y-120669180D01*
X150650812Y-120549482D01*
X150663072Y-120425000D01*
X150660000Y-120010750D01*
X150501250Y-119852000D01*
X149639500Y-119852000D01*
X149385500Y-119852000D01*
X149365500Y-119852000D01*
X149365500Y-119598000D01*
X149385500Y-119598000D01*
X149385500Y-119578000D01*
X149639500Y-119578000D01*
X149639500Y-119598000D01*
X150501250Y-119598000D01*
X150660000Y-119439250D01*
X150660588Y-119360000D01*
X152485199Y-119360000D01*
X152640001Y-119514803D01*
%TA.AperFunction,Conductor*%
D21*
G36*
X152640001Y-119514803D02*
G01*
X152640000Y-130685199D01*
X152635199Y-130690000D01*
X149391652Y-130690000D01*
X149378652Y-130677000D01*
X148603002Y-130677000D01*
X148603002Y-130423000D01*
X149378652Y-130423000D01*
X149537402Y-130264250D01*
X149540282Y-130235434D01*
X149531076Y-130110690D01*
X149497710Y-129990138D01*
X149441466Y-129878412D01*
X149364507Y-129779806D01*
X149269789Y-129698108D01*
X149160953Y-129636458D01*
X149042180Y-129597226D01*
X148934152Y-129584800D01*
X148797200Y-129721752D01*
X148769787Y-129698108D01*
X148660951Y-129636458D01*
X148596084Y-129615032D01*
X148565852Y-129584800D01*
X148510000Y-129591224D01*
X148510000Y-129142888D01*
X148518387Y-129138405D01*
X148618750Y-129056039D01*
X148719113Y-129138405D01*
X148872648Y-129220472D01*
X149039244Y-129271008D01*
X149212498Y-129288072D01*
X149737502Y-129288072D01*
X149910756Y-129271008D01*
X150077352Y-129220472D01*
X150230887Y-129138405D01*
X150312137Y-129071724D01*
X150336315Y-129101185D01*
X150433006Y-129180537D01*
X150543320Y-129239502D01*
X150663018Y-129275812D01*
X150787500Y-129288072D01*
X151014250Y-129285000D01*
X151173000Y-129126250D01*
X151173000Y-128077000D01*
X151427000Y-128077000D01*
X151427000Y-129126250D01*
X151585750Y-129285000D01*
X151812500Y-129288072D01*
X151936982Y-129275812D01*
X152056680Y-129239502D01*
X152166994Y-129180537D01*
X152263685Y-129101185D01*
X152343037Y-129004494D01*
X152402002Y-128894180D01*
X152438312Y-128774482D01*
X152450572Y-128650000D01*
X152447500Y-128235750D01*
X152288750Y-128077000D01*
X151427000Y-128077000D01*
X151173000Y-128077000D01*
X151153000Y-128077000D01*
X151153000Y-127823000D01*
X151173000Y-127823000D01*
X151173000Y-126773750D01*
X151427000Y-126773750D01*
X151427000Y-127823000D01*
X152288750Y-127823000D01*
X152447500Y-127664250D01*
X152450572Y-127250000D01*
X152438312Y-127125518D01*
X152402002Y-127005820D01*
X152343037Y-126895506D01*
X152263685Y-126798815D01*
X152166994Y-126719463D01*
X152056680Y-126660498D01*
X151936982Y-126624188D01*
X151812500Y-126611928D01*
X151585750Y-126615000D01*
X151427000Y-126773750D01*
X151173000Y-126773750D01*
X151014250Y-126615000D01*
X150787500Y-126611928D01*
X150663018Y-126624188D01*
X150543320Y-126660498D01*
X150433006Y-126719463D01*
X150336315Y-126798815D01*
X150312137Y-126828276D01*
X150230887Y-126761595D01*
X150077352Y-126679528D01*
X149910756Y-126628992D01*
X149737502Y-126611928D01*
X149212498Y-126611928D01*
X149039244Y-126628992D01*
X148905126Y-126669676D01*
X149161003Y-126413799D01*
X149190001Y-126390001D01*
X149254958Y-126310850D01*
X149314250Y-126310000D01*
X149473000Y-126151250D01*
X149473000Y-125077000D01*
X149727000Y-125077000D01*
X149727000Y-126151250D01*
X149885750Y-126310000D01*
X150100000Y-126313072D01*
X150224482Y-126300812D01*
X150344180Y-126264502D01*
X150454494Y-126205537D01*
X150551185Y-126126185D01*
X150630537Y-126029494D01*
X150689502Y-125919180D01*
X150725812Y-125799482D01*
X150738072Y-125675000D01*
X150735000Y-125235750D01*
X150576250Y-125077000D01*
X149727000Y-125077000D01*
X149473000Y-125077000D01*
X149453000Y-125077000D01*
X149453000Y-124823000D01*
X149473000Y-124823000D01*
X149473000Y-123027000D01*
X149727000Y-123027000D01*
X149727000Y-124823000D01*
X150576250Y-124823000D01*
X150735000Y-124664250D01*
X150738072Y-124225000D01*
X150725812Y-124100518D01*
X150689502Y-123980820D01*
X150659665Y-123925000D01*
X150689502Y-123869180D01*
X150725812Y-123749482D01*
X150738072Y-123625000D01*
X150735000Y-123185750D01*
X150576250Y-123027000D01*
X149727000Y-123027000D01*
X149473000Y-123027000D01*
X149453000Y-123027000D01*
X149453000Y-122773000D01*
X149473000Y-122773000D01*
X149473000Y-121698750D01*
X149727000Y-121698750D01*
X149727000Y-122773000D01*
X150576250Y-122773000D01*
X150735000Y-122614250D01*
X150738072Y-122175000D01*
X150725812Y-122050518D01*
X150689502Y-121930820D01*
X150630537Y-121820506D01*
X150551185Y-121723815D01*
X150454494Y-121644463D01*
X150344180Y-121585498D01*
X150224482Y-121549188D01*
X150100000Y-121536928D01*
X149885750Y-121540000D01*
X149727000Y-121698750D01*
X149473000Y-121698750D01*
X149314250Y-121540000D01*
X149100000Y-121536928D01*
X148975518Y-121549188D01*
X148855820Y-121585498D01*
X148745506Y-121644463D01*
X148648815Y-121723815D01*
X148583342Y-121803594D01*
X148577962Y-121797038D01*
X148443386Y-121686595D01*
X148289850Y-121604528D01*
X148123254Y-121553992D01*
X147950000Y-121536928D01*
X147450000Y-121536928D01*
X147276746Y-121553992D01*
X147110150Y-121604528D01*
X146956614Y-121686595D01*
X146888361Y-121742608D01*
X146838387Y-121701595D01*
X146684852Y-121619528D01*
X146518256Y-121568992D01*
X146345002Y-121551928D01*
X145910000Y-121551928D01*
X145910000Y-121063072D01*
X146325002Y-121063072D01*
X146498256Y-121046008D01*
X146664852Y-120995472D01*
X146818387Y-120913405D01*
X146875000Y-120866944D01*
X146931613Y-120913405D01*
X147085148Y-120995472D01*
X147251744Y-121046008D01*
X147424998Y-121063072D01*
X147950002Y-121063072D01*
X148123256Y-121046008D01*
X148289852Y-120995472D01*
X148443387Y-120913405D01*
X148524637Y-120846724D01*
X148548815Y-120876185D01*
X148645506Y-120955537D01*
X148755820Y-121014502D01*
X148875518Y-121050812D01*
X149000000Y-121063072D01*
X149226750Y-121060000D01*
X149385500Y-120901250D01*
X149385500Y-119852000D01*
X149639500Y-119852000D01*
X149639500Y-120901250D01*
X149798250Y-121060000D01*
X150025000Y-121063072D01*
X150149482Y-121050812D01*
X150269180Y-121014502D01*
X150379494Y-120955537D01*
X150476185Y-120876185D01*
X150555537Y-120779494D01*
X150614502Y-120669180D01*
X150650812Y-120549482D01*
X150663072Y-120425000D01*
X150660000Y-120010750D01*
X150501250Y-119852000D01*
X149639500Y-119852000D01*
X149385500Y-119852000D01*
X149365500Y-119852000D01*
X149365500Y-119598000D01*
X149385500Y-119598000D01*
X149385500Y-119578000D01*
X149639500Y-119578000D01*
X149639500Y-119598000D01*
X150501250Y-119598000D01*
X150660000Y-119439250D01*
X150660588Y-119360000D01*
X152485199Y-119360000D01*
X152640001Y-119514803D01*
G37*
%TD.AperFunction*%
%TD*%
M02*
