%TF.GenerationSoftware,KiCad,Pcbnew,5.1.7-a382d34a8~87~ubuntu16.04.1*%
%TF.CreationDate,2020-11-12T13:34:28+07:00*%
%TF.ProjectId,sama5d27_som1_ek-sharp_ls0xx_lcd-adapter,73616d61-3564-4323-975f-736f6d315f65,rev?*%
%TF.SameCoordinates,Original*%
%TF.FileFunction,Soldermask,Top*%
%TF.FilePolarity,Negative*%
%FSLAX46Y46*%
G04 Gerber Fmt 4.6, Leading zero omitted, Abs format (unit mm)*
G04 Created by KiCad (PCBNEW 5.1.7-a382d34a8~87~ubuntu16.04.1) date 2020-11-12 13:34:28*
%MOMM*%
%LPD*%
G01*
G04 APERTURE LIST*
%TA.AperFunction,Profile*%
%ADD10C,0.250000*%
%TD*%
%ADD11R,0.863600X1.498600*%
%ADD12R,0.304800X0.660400*%
%ADD13C,3.800000*%
%ADD14R,0.254000X0.812800*%
%ADD15R,1.524000X1.701800*%
G04 APERTURE END LIST*
D10*
X160000000Y-19000000D02*
X215000000Y-19000000D01*
X160000000Y-104000000D02*
X160000000Y-19000000D01*
X215000000Y-104000000D02*
X160000000Y-104000000D01*
X215000000Y-19000000D02*
X215000000Y-104000000D01*
D11*
%TO.C,J2*%
X182783701Y-99990000D03*
X189616301Y-99990000D03*
D12*
X188450002Y-97450000D03*
X187950000Y-97450000D03*
X187450001Y-97450000D03*
X186950002Y-97450000D03*
X186450001Y-97450000D03*
X185950001Y-97450000D03*
X185450000Y-97450000D03*
X184950001Y-97450000D03*
X184450002Y-97450000D03*
X183950000Y-97450000D03*
%TD*%
D13*
%TO.C,REF\u002A\u002A*%
X163500000Y-22500000D03*
%TD*%
%TO.C,REF\u002A\u002A*%
X211500000Y-100500000D03*
%TD*%
%TO.C,REF\u002A\u002A*%
X163500000Y-100500000D03*
%TD*%
%TO.C,REF\u002A\u002A*%
X211500000Y-22500000D03*
%TD*%
%TO.C,C2*%
G36*
G01*
X188800000Y-90275000D02*
X188800000Y-89325000D01*
G75*
G02*
X189050000Y-89075000I250000J0D01*
G01*
X189550000Y-89075000D01*
G75*
G02*
X189800000Y-89325000I0J-250000D01*
G01*
X189800000Y-90275000D01*
G75*
G02*
X189550000Y-90525000I-250000J0D01*
G01*
X189050000Y-90525000D01*
G75*
G02*
X188800000Y-90275000I0J250000D01*
G01*
G37*
G36*
G01*
X186900000Y-90275000D02*
X186900000Y-89325000D01*
G75*
G02*
X187150000Y-89075000I250000J0D01*
G01*
X187650000Y-89075000D01*
G75*
G02*
X187900000Y-89325000I0J-250000D01*
G01*
X187900000Y-90275000D01*
G75*
G02*
X187650000Y-90525000I-250000J0D01*
G01*
X187150000Y-90525000D01*
G75*
G02*
X186900000Y-90275000I0J250000D01*
G01*
G37*
%TD*%
%TO.C,R2*%
G36*
G01*
X186150000Y-94399998D02*
X186150000Y-95300002D01*
G75*
G02*
X185900002Y-95550000I-249998J0D01*
G01*
X185374998Y-95550000D01*
G75*
G02*
X185125000Y-95300002I0J249998D01*
G01*
X185125000Y-94399998D01*
G75*
G02*
X185374998Y-94150000I249998J0D01*
G01*
X185900002Y-94150000D01*
G75*
G02*
X186150000Y-94399998I0J-249998D01*
G01*
G37*
G36*
G01*
X187975000Y-94399998D02*
X187975000Y-95300002D01*
G75*
G02*
X187725002Y-95550000I-249998J0D01*
G01*
X187199998Y-95550000D01*
G75*
G02*
X186950000Y-95300002I0J249998D01*
G01*
X186950000Y-94399998D01*
G75*
G02*
X187199998Y-94150000I249998J0D01*
G01*
X187725002Y-94150000D01*
G75*
G02*
X187975000Y-94399998I0J-249998D01*
G01*
G37*
%TD*%
%TO.C,C1*%
G36*
G01*
X185885000Y-91820000D02*
X185885000Y-92320000D01*
G75*
G02*
X185660000Y-92545000I-225000J0D01*
G01*
X185210000Y-92545000D01*
G75*
G02*
X184985000Y-92320000I0J225000D01*
G01*
X184985000Y-91820000D01*
G75*
G02*
X185210000Y-91595000I225000J0D01*
G01*
X185660000Y-91595000D01*
G75*
G02*
X185885000Y-91820000I0J-225000D01*
G01*
G37*
G36*
G01*
X184335000Y-91820000D02*
X184335000Y-92320000D01*
G75*
G02*
X184110000Y-92545000I-225000J0D01*
G01*
X183660000Y-92545000D01*
G75*
G02*
X183435000Y-92320000I0J225000D01*
G01*
X183435000Y-91820000D01*
G75*
G02*
X183660000Y-91595000I225000J0D01*
G01*
X184110000Y-91595000D01*
G75*
G02*
X184335000Y-91820000I0J-225000D01*
G01*
G37*
%TD*%
%TO.C,C3*%
G36*
G01*
X186900000Y-92325000D02*
X186900000Y-91375000D01*
G75*
G02*
X187150000Y-91125000I250000J0D01*
G01*
X187650000Y-91125000D01*
G75*
G02*
X187900000Y-91375000I0J-250000D01*
G01*
X187900000Y-92325000D01*
G75*
G02*
X187650000Y-92575000I-250000J0D01*
G01*
X187150000Y-92575000D01*
G75*
G02*
X186900000Y-92325000I0J250000D01*
G01*
G37*
G36*
G01*
X188800000Y-92325000D02*
X188800000Y-91375000D01*
G75*
G02*
X189050000Y-91125000I250000J0D01*
G01*
X189550000Y-91125000D01*
G75*
G02*
X189800000Y-91375000I0J-250000D01*
G01*
X189800000Y-92325000D01*
G75*
G02*
X189550000Y-92575000I-250000J0D01*
G01*
X189050000Y-92575000D01*
G75*
G02*
X188800000Y-92325000I0J250000D01*
G01*
G37*
%TD*%
%TO.C,R3*%
G36*
G01*
X190487500Y-95300002D02*
X190487500Y-94399998D01*
G75*
G02*
X190737498Y-94150000I249998J0D01*
G01*
X191262502Y-94150000D01*
G75*
G02*
X191512500Y-94399998I0J-249998D01*
G01*
X191512500Y-95300002D01*
G75*
G02*
X191262502Y-95550000I-249998J0D01*
G01*
X190737498Y-95550000D01*
G75*
G02*
X190487500Y-95300002I0J249998D01*
G01*
G37*
G36*
G01*
X188662500Y-95300002D02*
X188662500Y-94399998D01*
G75*
G02*
X188912498Y-94150000I249998J0D01*
G01*
X189437502Y-94150000D01*
G75*
G02*
X189687500Y-94399998I0J-249998D01*
G01*
X189687500Y-95300002D01*
G75*
G02*
X189437502Y-95550000I-249998J0D01*
G01*
X188912498Y-95550000D01*
G75*
G02*
X188662500Y-95300002I0J249998D01*
G01*
G37*
%TD*%
%TO.C,R4*%
G36*
G01*
X184450000Y-86174998D02*
X184450000Y-87075002D01*
G75*
G02*
X184200002Y-87325000I-249998J0D01*
G01*
X183674998Y-87325000D01*
G75*
G02*
X183425000Y-87075002I0J249998D01*
G01*
X183425000Y-86174998D01*
G75*
G02*
X183674998Y-85925000I249998J0D01*
G01*
X184200002Y-85925000D01*
G75*
G02*
X184450000Y-86174998I0J-249998D01*
G01*
G37*
G36*
G01*
X186275000Y-86174998D02*
X186275000Y-87075002D01*
G75*
G02*
X186025002Y-87325000I-249998J0D01*
G01*
X185499998Y-87325000D01*
G75*
G02*
X185250000Y-87075002I0J249998D01*
G01*
X185250000Y-86174998D01*
G75*
G02*
X185499998Y-85925000I249998J0D01*
G01*
X186025002Y-85925000D01*
G75*
G02*
X186275000Y-86174998I0J-249998D01*
G01*
G37*
%TD*%
%TO.C,R5*%
G36*
G01*
X186875000Y-87075002D02*
X186875000Y-86174998D01*
G75*
G02*
X187124998Y-85925000I249998J0D01*
G01*
X187650002Y-85925000D01*
G75*
G02*
X187900000Y-86174998I0J-249998D01*
G01*
X187900000Y-87075002D01*
G75*
G02*
X187650002Y-87325000I-249998J0D01*
G01*
X187124998Y-87325000D01*
G75*
G02*
X186875000Y-87075002I0J249998D01*
G01*
G37*
G36*
G01*
X188700000Y-87075002D02*
X188700000Y-86174998D01*
G75*
G02*
X188949998Y-85925000I249998J0D01*
G01*
X189475002Y-85925000D01*
G75*
G02*
X189725000Y-86174998I0J-249998D01*
G01*
X189725000Y-87075002D01*
G75*
G02*
X189475002Y-87325000I-249998J0D01*
G01*
X188949998Y-87325000D01*
G75*
G02*
X188700000Y-87075002I0J249998D01*
G01*
G37*
%TD*%
%TO.C,R1*%
G36*
G01*
X186295000Y-89339998D02*
X186295000Y-90240002D01*
G75*
G02*
X186045002Y-90490000I-249998J0D01*
G01*
X185519998Y-90490000D01*
G75*
G02*
X185270000Y-90240002I0J249998D01*
G01*
X185270000Y-89339998D01*
G75*
G02*
X185519998Y-89090000I249998J0D01*
G01*
X186045002Y-89090000D01*
G75*
G02*
X186295000Y-89339998I0J-249998D01*
G01*
G37*
G36*
G01*
X184470000Y-89339998D02*
X184470000Y-90240002D01*
G75*
G02*
X184220002Y-90490000I-249998J0D01*
G01*
X183694998Y-90490000D01*
G75*
G02*
X183445000Y-90240002I0J249998D01*
G01*
X183445000Y-89339998D01*
G75*
G02*
X183694998Y-89090000I249998J0D01*
G01*
X184220002Y-89090000D01*
G75*
G02*
X184470000Y-89339998I0J-249998D01*
G01*
G37*
%TD*%
D14*
%TO.C,J1*%
X199700000Y-26950000D03*
X199200001Y-26950000D03*
X198699999Y-26950000D03*
X198200000Y-26950000D03*
X197700001Y-26950000D03*
X197200000Y-26950000D03*
X196700001Y-26950000D03*
X196199999Y-26950000D03*
X195700000Y-26950000D03*
X195200001Y-26950000D03*
X194700000Y-26950000D03*
X194200001Y-26950000D03*
X193699999Y-26950000D03*
X193200000Y-26950000D03*
X192700001Y-26950000D03*
X192200000Y-26950000D03*
X191700001Y-26950000D03*
X191199999Y-26950000D03*
X190700000Y-26950000D03*
X190200001Y-26950000D03*
X189700000Y-26950000D03*
X189200001Y-26950000D03*
X188699999Y-26950000D03*
X188200000Y-26950000D03*
X187700001Y-26950000D03*
X187199999Y-26950000D03*
X186700001Y-26950000D03*
X186199999Y-26950000D03*
X185700000Y-26950000D03*
X185200001Y-26950000D03*
X184699999Y-26950000D03*
X184200000Y-26950000D03*
X183699999Y-26950000D03*
X183200000Y-26950000D03*
X182700001Y-26950000D03*
X182199999Y-26950000D03*
X181700000Y-26950000D03*
X181199999Y-26950000D03*
X180700000Y-26950000D03*
X180200001Y-26950000D03*
X179699999Y-26950000D03*
X179200000Y-26950000D03*
X178699999Y-26950000D03*
X178200000Y-26950000D03*
X177700001Y-26950000D03*
X177199999Y-26950000D03*
X176700000Y-26950000D03*
X176200001Y-26950000D03*
X175700000Y-26950000D03*
X175200001Y-26950000D03*
D15*
X173543499Y-22936800D03*
X201356499Y-22936800D03*
%TD*%
M02*
