%TF.GenerationSoftware,KiCad,Pcbnew,5.1.7-a382d34a8~87~ubuntu16.04.1*%
%TF.CreationDate,2020-11-12T13:34:28+07:00*%
%TF.ProjectId,sama5d27_som1_ek-sharp_ls0xx_lcd-adapter,73616d61-3564-4323-975f-736f6d315f65,rev?*%
%TF.SameCoordinates,Original*%
%TF.FileFunction,Legend,Top*%
%TF.FilePolarity,Positive*%
%FSLAX46Y46*%
G04 Gerber Fmt 4.6, Leading zero omitted, Abs format (unit mm)*
G04 Created by KiCad (PCBNEW 5.1.7-a382d34a8~87~ubuntu16.04.1) date 2020-11-12 13:34:28*
%MOMM*%
%LPD*%
G01*
G04 APERTURE LIST*
%ADD10C,0.150000*%
%TA.AperFunction,Profile*%
%ADD11C,0.250000*%
%TD*%
%ADD12C,0.152400*%
%ADD13C,0.120000*%
G04 APERTURE END LIST*
D10*
X204166666Y-25252380D02*
X204166666Y-25966666D01*
X204119047Y-26109523D01*
X204023809Y-26204761D01*
X203880952Y-26252380D01*
X203785714Y-26252380D01*
X205166666Y-26252380D02*
X204595238Y-26252380D01*
X204880952Y-26252380D02*
X204880952Y-25252380D01*
X204785714Y-25395238D01*
X204690476Y-25490476D01*
X204595238Y-25538095D01*
X178766666Y-99402380D02*
X178766666Y-100116666D01*
X178719047Y-100259523D01*
X178623809Y-100354761D01*
X178480952Y-100402380D01*
X178385714Y-100402380D01*
X179195238Y-99497619D02*
X179242857Y-99450000D01*
X179338095Y-99402380D01*
X179576190Y-99402380D01*
X179671428Y-99450000D01*
X179719047Y-99497619D01*
X179766666Y-99592857D01*
X179766666Y-99688095D01*
X179719047Y-99830952D01*
X179147619Y-100402380D01*
X179766666Y-100402380D01*
D11*
X160000000Y-19000000D02*
X215000000Y-19000000D01*
X160000000Y-104000000D02*
X160000000Y-19000000D01*
X215000000Y-104000000D02*
X160000000Y-104000000D01*
X215000000Y-19000000D02*
X215000000Y-104000000D01*
D12*
%TO.C,J2*%
X189971901Y-97831000D02*
X188931241Y-97831000D01*
X182428101Y-97831000D02*
X182428101Y-98907960D01*
X182428101Y-101285400D02*
X189971901Y-101285400D01*
X189971901Y-101285400D02*
X189971901Y-101072040D01*
X183468761Y-97831000D02*
X182428101Y-97831000D01*
X189971901Y-98907960D02*
X189971901Y-97831000D01*
X182428101Y-101072040D02*
X182428101Y-101285400D01*
D13*
%TO.C,C2*%
X188088748Y-89065000D02*
X188611252Y-89065000D01*
X188088748Y-90535000D02*
X188611252Y-90535000D01*
%TO.C,R2*%
X186777064Y-95585000D02*
X186322936Y-95585000D01*
X186777064Y-94115000D02*
X186322936Y-94115000D01*
%TO.C,C1*%
X184800580Y-91560000D02*
X184519420Y-91560000D01*
X184800580Y-92580000D02*
X184519420Y-92580000D01*
%TO.C,C3*%
X188088748Y-92585000D02*
X188611252Y-92585000D01*
X188088748Y-91115000D02*
X188611252Y-91115000D01*
%TO.C,R3*%
X189860436Y-95585000D02*
X190314564Y-95585000D01*
X189860436Y-94115000D02*
X190314564Y-94115000D01*
%TO.C,R4*%
X185077064Y-85890000D02*
X184622936Y-85890000D01*
X185077064Y-87360000D02*
X184622936Y-87360000D01*
%TO.C,R5*%
X188072936Y-85890000D02*
X188527064Y-85890000D01*
X188072936Y-87360000D02*
X188527064Y-87360000D01*
%TO.C,R1*%
X185097064Y-89055000D02*
X184642936Y-89055000D01*
X185097064Y-90525000D02*
X184642936Y-90525000D01*
D12*
%TO.C,J1*%
X173073599Y-27077000D02*
X174740261Y-27077000D01*
X201826399Y-27077000D02*
X201826399Y-24120440D01*
X200305608Y-21920800D02*
X174594390Y-21920800D01*
X173073599Y-24120440D02*
X173073599Y-27077000D01*
X200159740Y-27077000D02*
X201826399Y-27077000D01*
%TD*%
%TO.C,J2*%
D10*
X185866667Y-96902380D02*
X185866667Y-97616666D01*
X185819048Y-97759523D01*
X185723810Y-97854761D01*
X185580953Y-97902380D01*
X185485715Y-97902380D01*
X186295239Y-96997619D02*
X186342858Y-96950000D01*
X186438096Y-96902380D01*
X186676191Y-96902380D01*
X186771429Y-96950000D01*
X186819048Y-96997619D01*
X186866667Y-97092857D01*
X186866667Y-97188095D01*
X186819048Y-97330952D01*
X186247620Y-97902380D01*
X186866667Y-97902380D01*
X182059523Y-96202380D02*
X181583333Y-96202380D01*
X181535714Y-96678571D01*
X181583333Y-96630952D01*
X181678571Y-96583333D01*
X181916666Y-96583333D01*
X182011904Y-96630952D01*
X182059523Y-96678571D01*
X182107142Y-96773809D01*
X182107142Y-97011904D01*
X182059523Y-97107142D01*
X182011904Y-97154761D01*
X181916666Y-97202380D01*
X181678571Y-97202380D01*
X181583333Y-97154761D01*
X181535714Y-97107142D01*
X183059523Y-97202380D02*
X182488095Y-97202380D01*
X182773809Y-97202380D02*
X182773809Y-96202380D01*
X182678571Y-96345238D01*
X182583333Y-96440476D01*
X182488095Y-96488095D01*
X183916666Y-96535714D02*
X183916666Y-97202380D01*
X183678571Y-96154761D02*
X183440476Y-96869047D01*
X184059523Y-96869047D01*
X184869047Y-96535714D02*
X184869047Y-97202380D01*
X184630952Y-96154761D02*
X184392857Y-96869047D01*
X185011904Y-96869047D01*
X185916666Y-97202380D02*
X185345238Y-97202380D01*
X185630952Y-97202380D02*
X185630952Y-96202380D01*
X185535714Y-96345238D01*
X185440476Y-96440476D01*
X185345238Y-96488095D01*
X186345238Y-96821428D02*
X187107142Y-96821428D01*
X188107142Y-97202380D02*
X187535714Y-97202380D01*
X187821428Y-97202380D02*
X187821428Y-96202380D01*
X187726190Y-96345238D01*
X187630952Y-96440476D01*
X187535714Y-96488095D01*
X188726190Y-96202380D02*
X188821428Y-96202380D01*
X188916666Y-96250000D01*
X188964285Y-96297619D01*
X189011904Y-96392857D01*
X189059523Y-96583333D01*
X189059523Y-96821428D01*
X189011904Y-97011904D01*
X188964285Y-97107142D01*
X188916666Y-97154761D01*
X188821428Y-97202380D01*
X188726190Y-97202380D01*
X188630952Y-97154761D01*
X188583333Y-97107142D01*
X188535714Y-97011904D01*
X188488095Y-96821428D01*
X188488095Y-96583333D01*
X188535714Y-96392857D01*
X188583333Y-96297619D01*
X188630952Y-96250000D01*
X188726190Y-96202380D01*
X189535714Y-97202380D02*
X189726190Y-97202380D01*
X189821428Y-97154761D01*
X189869047Y-97107142D01*
X189964285Y-96964285D01*
X190011904Y-96773809D01*
X190011904Y-96392857D01*
X189964285Y-96297619D01*
X189916666Y-96250000D01*
X189821428Y-96202380D01*
X189630952Y-96202380D01*
X189535714Y-96250000D01*
X189488095Y-96297619D01*
X189440476Y-96392857D01*
X189440476Y-96630952D01*
X189488095Y-96726190D01*
X189535714Y-96773809D01*
X189630952Y-96821428D01*
X189821428Y-96821428D01*
X189916666Y-96773809D01*
X189964285Y-96726190D01*
X190011904Y-96630952D01*
X190345238Y-96202380D02*
X190964285Y-96202380D01*
X190630952Y-96583333D01*
X190773809Y-96583333D01*
X190869047Y-96630952D01*
X190916666Y-96678571D01*
X190964285Y-96773809D01*
X190964285Y-97011904D01*
X190916666Y-97107142D01*
X190869047Y-97154761D01*
X190773809Y-97202380D01*
X190488095Y-97202380D01*
X190392857Y-97154761D01*
X190345238Y-97107142D01*
X186200001Y-98502580D02*
X186200001Y-98740676D01*
X185961905Y-98645438D02*
X186200001Y-98740676D01*
X186438096Y-98645438D01*
X186057143Y-98931152D02*
X186200001Y-98740676D01*
X186342858Y-98931152D01*
%TO.C,REF\u002A\u002A*%
X162416666Y-26202380D02*
X162083333Y-25726190D01*
X161845238Y-26202380D02*
X161845238Y-25202380D01*
X162226190Y-25202380D01*
X162321428Y-25250000D01*
X162369047Y-25297619D01*
X162416666Y-25392857D01*
X162416666Y-25535714D01*
X162369047Y-25630952D01*
X162321428Y-25678571D01*
X162226190Y-25726190D01*
X161845238Y-25726190D01*
X162845238Y-25678571D02*
X163178571Y-25678571D01*
X163321428Y-26202380D02*
X162845238Y-26202380D01*
X162845238Y-25202380D01*
X163321428Y-25202380D01*
X164083333Y-25678571D02*
X163750000Y-25678571D01*
X163750000Y-26202380D02*
X163750000Y-25202380D01*
X164226190Y-25202380D01*
X164750000Y-25202380D02*
X164750000Y-25440476D01*
X164511904Y-25345238D02*
X164750000Y-25440476D01*
X164988095Y-25345238D01*
X164607142Y-25630952D02*
X164750000Y-25440476D01*
X164892857Y-25630952D01*
X165511904Y-25202380D02*
X165511904Y-25440476D01*
X165273809Y-25345238D02*
X165511904Y-25440476D01*
X165750000Y-25345238D01*
X165369047Y-25630952D02*
X165511904Y-25440476D01*
X165654761Y-25630952D01*
X210166666Y-98052380D02*
X209833333Y-97576190D01*
X209595238Y-98052380D02*
X209595238Y-97052380D01*
X209976190Y-97052380D01*
X210071428Y-97100000D01*
X210119047Y-97147619D01*
X210166666Y-97242857D01*
X210166666Y-97385714D01*
X210119047Y-97480952D01*
X210071428Y-97528571D01*
X209976190Y-97576190D01*
X209595238Y-97576190D01*
X210595238Y-97528571D02*
X210928571Y-97528571D01*
X211071428Y-98052380D02*
X210595238Y-98052380D01*
X210595238Y-97052380D01*
X211071428Y-97052380D01*
X211833333Y-97528571D02*
X211500000Y-97528571D01*
X211500000Y-98052380D02*
X211500000Y-97052380D01*
X211976190Y-97052380D01*
X212500000Y-97052380D02*
X212500000Y-97290476D01*
X212261904Y-97195238D02*
X212500000Y-97290476D01*
X212738095Y-97195238D01*
X212357142Y-97480952D02*
X212500000Y-97290476D01*
X212642857Y-97480952D01*
X213261904Y-97052380D02*
X213261904Y-97290476D01*
X213023809Y-97195238D02*
X213261904Y-97290476D01*
X213500000Y-97195238D01*
X213119047Y-97480952D02*
X213261904Y-97290476D01*
X213404761Y-97480952D01*
X162166666Y-98052380D02*
X161833333Y-97576190D01*
X161595238Y-98052380D02*
X161595238Y-97052380D01*
X161976190Y-97052380D01*
X162071428Y-97100000D01*
X162119047Y-97147619D01*
X162166666Y-97242857D01*
X162166666Y-97385714D01*
X162119047Y-97480952D01*
X162071428Y-97528571D01*
X161976190Y-97576190D01*
X161595238Y-97576190D01*
X162595238Y-97528571D02*
X162928571Y-97528571D01*
X163071428Y-98052380D02*
X162595238Y-98052380D01*
X162595238Y-97052380D01*
X163071428Y-97052380D01*
X163833333Y-97528571D02*
X163500000Y-97528571D01*
X163500000Y-98052380D02*
X163500000Y-97052380D01*
X163976190Y-97052380D01*
X164500000Y-97052380D02*
X164500000Y-97290476D01*
X164261904Y-97195238D02*
X164500000Y-97290476D01*
X164738095Y-97195238D01*
X164357142Y-97480952D02*
X164500000Y-97290476D01*
X164642857Y-97480952D01*
X165261904Y-97052380D02*
X165261904Y-97290476D01*
X165023809Y-97195238D02*
X165261904Y-97290476D01*
X165500000Y-97195238D01*
X165119047Y-97480952D02*
X165261904Y-97290476D01*
X165404761Y-97480952D01*
X210166666Y-26702380D02*
X209833333Y-26226190D01*
X209595238Y-26702380D02*
X209595238Y-25702380D01*
X209976190Y-25702380D01*
X210071428Y-25750000D01*
X210119047Y-25797619D01*
X210166666Y-25892857D01*
X210166666Y-26035714D01*
X210119047Y-26130952D01*
X210071428Y-26178571D01*
X209976190Y-26226190D01*
X209595238Y-26226190D01*
X210595238Y-26178571D02*
X210928571Y-26178571D01*
X211071428Y-26702380D02*
X210595238Y-26702380D01*
X210595238Y-25702380D01*
X211071428Y-25702380D01*
X211833333Y-26178571D02*
X211500000Y-26178571D01*
X211500000Y-26702380D02*
X211500000Y-25702380D01*
X211976190Y-25702380D01*
X212500000Y-25702380D02*
X212500000Y-25940476D01*
X212261904Y-25845238D02*
X212500000Y-25940476D01*
X212738095Y-25845238D01*
X212357142Y-26130952D02*
X212500000Y-25940476D01*
X212642857Y-26130952D01*
X213261904Y-25702380D02*
X213261904Y-25940476D01*
X213023809Y-25845238D02*
X213261904Y-25940476D01*
X213500000Y-25845238D01*
X213119047Y-26130952D02*
X213261904Y-25940476D01*
X213404761Y-26130952D01*
%TO.C,C2*%
X191233333Y-90157142D02*
X191185714Y-90204761D01*
X191042857Y-90252380D01*
X190947619Y-90252380D01*
X190804761Y-90204761D01*
X190709523Y-90109523D01*
X190661904Y-90014285D01*
X190614285Y-89823809D01*
X190614285Y-89680952D01*
X190661904Y-89490476D01*
X190709523Y-89395238D01*
X190804761Y-89300000D01*
X190947619Y-89252380D01*
X191042857Y-89252380D01*
X191185714Y-89300000D01*
X191233333Y-89347619D01*
X191614285Y-89347619D02*
X191661904Y-89300000D01*
X191757142Y-89252380D01*
X191995238Y-89252380D01*
X192090476Y-89300000D01*
X192138095Y-89347619D01*
X192185714Y-89442857D01*
X192185714Y-89538095D01*
X192138095Y-89680952D01*
X191566666Y-90252380D01*
X192185714Y-90252380D01*
%TO.C,R2*%
X180373333Y-95332380D02*
X180040000Y-94856190D01*
X179801904Y-95332380D02*
X179801904Y-94332380D01*
X180182857Y-94332380D01*
X180278095Y-94380000D01*
X180325714Y-94427619D01*
X180373333Y-94522857D01*
X180373333Y-94665714D01*
X180325714Y-94760952D01*
X180278095Y-94808571D01*
X180182857Y-94856190D01*
X179801904Y-94856190D01*
X180754285Y-94427619D02*
X180801904Y-94380000D01*
X180897142Y-94332380D01*
X181135238Y-94332380D01*
X181230476Y-94380000D01*
X181278095Y-94427619D01*
X181325714Y-94522857D01*
X181325714Y-94618095D01*
X181278095Y-94760952D01*
X180706666Y-95332380D01*
X181325714Y-95332380D01*
%TO.C,C1*%
X181093333Y-92427142D02*
X181045714Y-92474761D01*
X180902857Y-92522380D01*
X180807619Y-92522380D01*
X180664761Y-92474761D01*
X180569523Y-92379523D01*
X180521904Y-92284285D01*
X180474285Y-92093809D01*
X180474285Y-91950952D01*
X180521904Y-91760476D01*
X180569523Y-91665238D01*
X180664761Y-91570000D01*
X180807619Y-91522380D01*
X180902857Y-91522380D01*
X181045714Y-91570000D01*
X181093333Y-91617619D01*
X182045714Y-92522380D02*
X181474285Y-92522380D01*
X181760000Y-92522380D02*
X181760000Y-91522380D01*
X181664761Y-91665238D01*
X181569523Y-91760476D01*
X181474285Y-91808095D01*
%TO.C,C3*%
X191233333Y-92207142D02*
X191185714Y-92254761D01*
X191042857Y-92302380D01*
X190947619Y-92302380D01*
X190804761Y-92254761D01*
X190709523Y-92159523D01*
X190661904Y-92064285D01*
X190614285Y-91873809D01*
X190614285Y-91730952D01*
X190661904Y-91540476D01*
X190709523Y-91445238D01*
X190804761Y-91350000D01*
X190947619Y-91302380D01*
X191042857Y-91302380D01*
X191185714Y-91350000D01*
X191233333Y-91397619D01*
X191566666Y-91302380D02*
X192185714Y-91302380D01*
X191852380Y-91683333D01*
X191995238Y-91683333D01*
X192090476Y-91730952D01*
X192138095Y-91778571D01*
X192185714Y-91873809D01*
X192185714Y-92111904D01*
X192138095Y-92207142D01*
X192090476Y-92254761D01*
X191995238Y-92302380D01*
X191709523Y-92302380D01*
X191614285Y-92254761D01*
X191566666Y-92207142D01*
%TO.C,R3*%
X182643333Y-95332380D02*
X182310000Y-94856190D01*
X182071904Y-95332380D02*
X182071904Y-94332380D01*
X182452857Y-94332380D01*
X182548095Y-94380000D01*
X182595714Y-94427619D01*
X182643333Y-94522857D01*
X182643333Y-94665714D01*
X182595714Y-94760952D01*
X182548095Y-94808571D01*
X182452857Y-94856190D01*
X182071904Y-94856190D01*
X182976666Y-94332380D02*
X183595714Y-94332380D01*
X183262380Y-94713333D01*
X183405238Y-94713333D01*
X183500476Y-94760952D01*
X183548095Y-94808571D01*
X183595714Y-94903809D01*
X183595714Y-95141904D01*
X183548095Y-95237142D01*
X183500476Y-95284761D01*
X183405238Y-95332380D01*
X183119523Y-95332380D01*
X183024285Y-95284761D01*
X182976666Y-95237142D01*
%TO.C,R4*%
X178753333Y-87102380D02*
X178420000Y-86626190D01*
X178181904Y-87102380D02*
X178181904Y-86102380D01*
X178562857Y-86102380D01*
X178658095Y-86150000D01*
X178705714Y-86197619D01*
X178753333Y-86292857D01*
X178753333Y-86435714D01*
X178705714Y-86530952D01*
X178658095Y-86578571D01*
X178562857Y-86626190D01*
X178181904Y-86626190D01*
X179610476Y-86435714D02*
X179610476Y-87102380D01*
X179372380Y-86054761D02*
X179134285Y-86769047D01*
X179753333Y-86769047D01*
%TO.C,R5*%
X180983333Y-87102380D02*
X180650000Y-86626190D01*
X180411904Y-87102380D02*
X180411904Y-86102380D01*
X180792857Y-86102380D01*
X180888095Y-86150000D01*
X180935714Y-86197619D01*
X180983333Y-86292857D01*
X180983333Y-86435714D01*
X180935714Y-86530952D01*
X180888095Y-86578571D01*
X180792857Y-86626190D01*
X180411904Y-86626190D01*
X181888095Y-86102380D02*
X181411904Y-86102380D01*
X181364285Y-86578571D01*
X181411904Y-86530952D01*
X181507142Y-86483333D01*
X181745238Y-86483333D01*
X181840476Y-86530952D01*
X181888095Y-86578571D01*
X181935714Y-86673809D01*
X181935714Y-86911904D01*
X181888095Y-87007142D01*
X181840476Y-87054761D01*
X181745238Y-87102380D01*
X181507142Y-87102380D01*
X181411904Y-87054761D01*
X181364285Y-87007142D01*
%TO.C,R1*%
X181103333Y-90292380D02*
X180770000Y-89816190D01*
X180531904Y-90292380D02*
X180531904Y-89292380D01*
X180912857Y-89292380D01*
X181008095Y-89340000D01*
X181055714Y-89387619D01*
X181103333Y-89482857D01*
X181103333Y-89625714D01*
X181055714Y-89720952D01*
X181008095Y-89768571D01*
X180912857Y-89816190D01*
X180531904Y-89816190D01*
X182055714Y-90292380D02*
X181484285Y-90292380D01*
X181770000Y-90292380D02*
X181770000Y-89292380D01*
X181674761Y-89435238D01*
X181579523Y-89530476D01*
X181484285Y-89578095D01*
%TO.C,J1*%
X187116665Y-26402380D02*
X187116665Y-27116666D01*
X187069046Y-27259523D01*
X186973808Y-27354761D01*
X186830951Y-27402380D01*
X186735713Y-27402380D01*
X188116665Y-27402380D02*
X187545237Y-27402380D01*
X187830951Y-27402380D02*
X187830951Y-26402380D01*
X187735713Y-26545238D01*
X187640475Y-26640476D01*
X187545237Y-26688095D01*
X183292857Y-28802380D02*
X183959523Y-29802380D01*
X183959523Y-28802380D02*
X183292857Y-29802380D01*
X184673809Y-29278571D02*
X184340476Y-29278571D01*
X184340476Y-29802380D02*
X184340476Y-28802380D01*
X184816666Y-28802380D01*
X185150000Y-28897619D02*
X185197619Y-28850000D01*
X185292857Y-28802380D01*
X185530952Y-28802380D01*
X185626190Y-28850000D01*
X185673809Y-28897619D01*
X185721428Y-28992857D01*
X185721428Y-29088095D01*
X185673809Y-29230952D01*
X185102380Y-29802380D01*
X185721428Y-29802380D01*
X186150000Y-29802380D02*
X186150000Y-28802380D01*
X186483333Y-29516666D01*
X186816666Y-28802380D01*
X186816666Y-29802380D01*
X187292857Y-29421428D02*
X188054761Y-29421428D01*
X189007142Y-28802380D02*
X188530952Y-28802380D01*
X188483333Y-29278571D01*
X188530952Y-29230952D01*
X188626190Y-29183333D01*
X188864285Y-29183333D01*
X188959523Y-29230952D01*
X189007142Y-29278571D01*
X189054761Y-29373809D01*
X189054761Y-29611904D01*
X189007142Y-29707142D01*
X188959523Y-29754761D01*
X188864285Y-29802380D01*
X188626190Y-29802380D01*
X188530952Y-29754761D01*
X188483333Y-29707142D01*
X189673809Y-28802380D02*
X189769047Y-28802380D01*
X189864285Y-28850000D01*
X189911904Y-28897619D01*
X189959523Y-28992857D01*
X190007142Y-29183333D01*
X190007142Y-29421428D01*
X189959523Y-29611904D01*
X189911904Y-29707142D01*
X189864285Y-29754761D01*
X189769047Y-29802380D01*
X189673809Y-29802380D01*
X189578571Y-29754761D01*
X189530952Y-29707142D01*
X189483333Y-29611904D01*
X189435714Y-29421428D01*
X189435714Y-29183333D01*
X189483333Y-28992857D01*
X189530952Y-28897619D01*
X189578571Y-28850000D01*
X189673809Y-28802380D01*
X190959523Y-29802380D02*
X190388095Y-29802380D01*
X190673809Y-29802380D02*
X190673809Y-28802380D01*
X190578571Y-28945238D01*
X190483333Y-29040476D01*
X190388095Y-29088095D01*
X191864285Y-28802380D02*
X191388095Y-28802380D01*
X191340476Y-29278571D01*
X191388095Y-29230952D01*
X191483333Y-29183333D01*
X191721428Y-29183333D01*
X191816666Y-29230952D01*
X191864285Y-29278571D01*
X191911904Y-29373809D01*
X191911904Y-29611904D01*
X191864285Y-29707142D01*
X191816666Y-29754761D01*
X191721428Y-29802380D01*
X191483333Y-29802380D01*
X191388095Y-29754761D01*
X191340476Y-29707142D01*
X192340476Y-29421428D02*
X193102380Y-29421428D01*
X194102380Y-29802380D02*
X193530952Y-29802380D01*
X193816666Y-29802380D02*
X193816666Y-28802380D01*
X193721428Y-28945238D01*
X193626190Y-29040476D01*
X193530952Y-29088095D01*
X194483333Y-29516666D02*
X194959523Y-29516666D01*
X194388095Y-29802380D02*
X194721428Y-28802380D01*
X195054761Y-29802380D01*
X187449999Y-23951280D02*
X187449999Y-24189376D01*
X187211903Y-24094138D02*
X187449999Y-24189376D01*
X187688094Y-24094138D01*
X187307141Y-24379852D02*
X187449999Y-24189376D01*
X187592856Y-24379852D01*
%TD*%
M02*
