%TF.GenerationSoftware,KiCad,Pcbnew,5.1.7-a382d34a8~87~ubuntu16.04.1*%
%TF.CreationDate,2020-11-10T11:44:55+07:00*%
%TF.ProjectId,sama5d27_som1_ek-sharp_ls0xx_lcd-adapter,73616d61-3564-4323-975f-736f6d315f65,rev?*%
%TF.SameCoordinates,Original*%
%TF.FileFunction,Copper,L1,Top*%
%TF.FilePolarity,Positive*%
%FSLAX46Y46*%
G04 Gerber Fmt 4.6, Leading zero omitted, Abs format (unit mm)*
G04 Created by KiCad (PCBNEW 5.1.7-a382d34a8~87~ubuntu16.04.1) date 2020-11-10 11:44:55*
%MOMM*%
%LPD*%
G01*
G04 APERTURE LIST*
%TA.AperFunction,NonConductor*%
%ADD10C,0.300000*%
%TD*%
%TA.AperFunction,Profile*%
%ADD11C,0.250000*%
%TD*%
%TA.AperFunction,ComponentPad*%
%ADD12C,3.800000*%
%TD*%
%TA.AperFunction,SMDPad,CuDef*%
%ADD13R,1.524000X1.701800*%
%TD*%
%TA.AperFunction,SMDPad,CuDef*%
%ADD14R,0.254000X0.812800*%
%TD*%
%TA.AperFunction,SMDPad,CuDef*%
%ADD15R,0.863600X1.498600*%
%TD*%
%TA.AperFunction,SMDPad,CuDef*%
%ADD16R,0.304800X0.660400*%
%TD*%
%TA.AperFunction,ViaPad*%
%ADD17C,1.000000*%
%TD*%
%TA.AperFunction,Conductor*%
%ADD18C,0.250000*%
%TD*%
%TA.AperFunction,Conductor*%
%ADD19C,0.350000*%
%TD*%
%TA.AperFunction,Conductor*%
%ADD20C,0.254000*%
%TD*%
%TA.AperFunction,Conductor*%
%ADD21C,0.150000*%
%TD*%
G04 APERTURE END LIST*
D10*
X164642857Y-41392857D02*
X164571428Y-41607142D01*
X164571428Y-41964285D01*
X164642857Y-42107142D01*
X164714285Y-42178571D01*
X164857142Y-42250000D01*
X165000000Y-42250000D01*
X165142857Y-42178571D01*
X165214285Y-42107142D01*
X165285714Y-41964285D01*
X165357142Y-41678571D01*
X165428571Y-41535714D01*
X165500000Y-41464285D01*
X165642857Y-41392857D01*
X165785714Y-41392857D01*
X165928571Y-41464285D01*
X166000000Y-41535714D01*
X166071428Y-41678571D01*
X166071428Y-42035714D01*
X166000000Y-42250000D01*
X164571428Y-42892857D02*
X166071428Y-42892857D01*
X164571428Y-43535714D02*
X165357142Y-43535714D01*
X165500000Y-43464285D01*
X165571428Y-43321428D01*
X165571428Y-43107142D01*
X165500000Y-42964285D01*
X165428571Y-42892857D01*
X164571428Y-44892857D02*
X165357142Y-44892857D01*
X165500000Y-44821428D01*
X165571428Y-44678571D01*
X165571428Y-44392857D01*
X165500000Y-44250000D01*
X164642857Y-44892857D02*
X164571428Y-44750000D01*
X164571428Y-44392857D01*
X164642857Y-44250000D01*
X164785714Y-44178571D01*
X164928571Y-44178571D01*
X165071428Y-44250000D01*
X165142857Y-44392857D01*
X165142857Y-44750000D01*
X165214285Y-44892857D01*
X164571428Y-45607142D02*
X165571428Y-45607142D01*
X165285714Y-45607142D02*
X165428571Y-45678571D01*
X165500000Y-45750000D01*
X165571428Y-45892857D01*
X165571428Y-46035714D01*
X165571428Y-46535714D02*
X164071428Y-46535714D01*
X165500000Y-46535714D02*
X165571428Y-46678571D01*
X165571428Y-46964285D01*
X165500000Y-47107142D01*
X165428571Y-47178571D01*
X165285714Y-47250000D01*
X164857142Y-47250000D01*
X164714285Y-47178571D01*
X164642857Y-47107142D01*
X164571428Y-46964285D01*
X164571428Y-46678571D01*
X164642857Y-46535714D01*
X164571428Y-49035714D02*
X165571428Y-49035714D01*
X165428571Y-49035714D02*
X165500000Y-49107142D01*
X165571428Y-49250000D01*
X165571428Y-49464285D01*
X165500000Y-49607142D01*
X165357142Y-49678571D01*
X164571428Y-49678571D01*
X165357142Y-49678571D02*
X165500000Y-49750000D01*
X165571428Y-49892857D01*
X165571428Y-50107142D01*
X165500000Y-50250000D01*
X165357142Y-50321428D01*
X164571428Y-50321428D01*
X164642857Y-51607142D02*
X164571428Y-51464285D01*
X164571428Y-51178571D01*
X164642857Y-51035714D01*
X164785714Y-50964285D01*
X165357142Y-50964285D01*
X165500000Y-51035714D01*
X165571428Y-51178571D01*
X165571428Y-51464285D01*
X165500000Y-51607142D01*
X165357142Y-51678571D01*
X165214285Y-51678571D01*
X165071428Y-50964285D01*
X164571428Y-52321428D02*
X165571428Y-52321428D01*
X165428571Y-52321428D02*
X165500000Y-52392857D01*
X165571428Y-52535714D01*
X165571428Y-52750000D01*
X165500000Y-52892857D01*
X165357142Y-52964285D01*
X164571428Y-52964285D01*
X165357142Y-52964285D02*
X165500000Y-53035714D01*
X165571428Y-53178571D01*
X165571428Y-53392857D01*
X165500000Y-53535714D01*
X165357142Y-53607142D01*
X164571428Y-53607142D01*
X164571428Y-54535714D02*
X164642857Y-54392857D01*
X164714285Y-54321428D01*
X164857142Y-54250000D01*
X165285714Y-54250000D01*
X165428571Y-54321428D01*
X165500000Y-54392857D01*
X165571428Y-54535714D01*
X165571428Y-54750000D01*
X165500000Y-54892857D01*
X165428571Y-54964285D01*
X165285714Y-55035714D01*
X164857142Y-55035714D01*
X164714285Y-54964285D01*
X164642857Y-54892857D01*
X164571428Y-54750000D01*
X164571428Y-54535714D01*
X164571428Y-55678571D02*
X165571428Y-55678571D01*
X165285714Y-55678571D02*
X165428571Y-55750000D01*
X165500000Y-55821428D01*
X165571428Y-55964285D01*
X165571428Y-56107142D01*
X165571428Y-56464285D02*
X164571428Y-56821428D01*
X165571428Y-57178571D02*
X164571428Y-56821428D01*
X164214285Y-56678571D01*
X164142857Y-56607142D01*
X164071428Y-56464285D01*
X164571428Y-59607142D02*
X164571428Y-58892857D01*
X166071428Y-58892857D01*
X164714285Y-60964285D02*
X164642857Y-60892857D01*
X164571428Y-60678571D01*
X164571428Y-60535714D01*
X164642857Y-60321428D01*
X164785714Y-60178571D01*
X164928571Y-60107142D01*
X165214285Y-60035714D01*
X165428571Y-60035714D01*
X165714285Y-60107142D01*
X165857142Y-60178571D01*
X166000000Y-60321428D01*
X166071428Y-60535714D01*
X166071428Y-60678571D01*
X166000000Y-60892857D01*
X165928571Y-60964285D01*
X164571428Y-61607142D02*
X166071428Y-61607142D01*
X166071428Y-61964285D01*
X166000000Y-62178571D01*
X165857142Y-62321428D01*
X165714285Y-62392857D01*
X165428571Y-62464285D01*
X165214285Y-62464285D01*
X164928571Y-62392857D01*
X164785714Y-62321428D01*
X164642857Y-62178571D01*
X164571428Y-61964285D01*
X164571428Y-61607142D01*
X165357142Y-64750000D02*
X165285714Y-64964285D01*
X165214285Y-65035714D01*
X165071428Y-65107142D01*
X164857142Y-65107142D01*
X164714285Y-65035714D01*
X164642857Y-64964285D01*
X164571428Y-64821428D01*
X164571428Y-64250000D01*
X166071428Y-64250000D01*
X166071428Y-64750000D01*
X166000000Y-64892857D01*
X165928571Y-64964285D01*
X165785714Y-65035714D01*
X165642857Y-65035714D01*
X165500000Y-64964285D01*
X165428571Y-64892857D01*
X165357142Y-64750000D01*
X165357142Y-64250000D01*
X164571428Y-65750000D02*
X165571428Y-65750000D01*
X165285714Y-65750000D02*
X165428571Y-65821428D01*
X165500000Y-65892857D01*
X165571428Y-66035714D01*
X165571428Y-66178571D01*
X164642857Y-67250000D02*
X164571428Y-67107142D01*
X164571428Y-66821428D01*
X164642857Y-66678571D01*
X164785714Y-66607142D01*
X165357142Y-66607142D01*
X165500000Y-66678571D01*
X165571428Y-66821428D01*
X165571428Y-67107142D01*
X165500000Y-67250000D01*
X165357142Y-67321428D01*
X165214285Y-67321428D01*
X165071428Y-66607142D01*
X164571428Y-68607142D02*
X165357142Y-68607142D01*
X165500000Y-68535714D01*
X165571428Y-68392857D01*
X165571428Y-68107142D01*
X165500000Y-67964285D01*
X164642857Y-68607142D02*
X164571428Y-68464285D01*
X164571428Y-68107142D01*
X164642857Y-67964285D01*
X164785714Y-67892857D01*
X164928571Y-67892857D01*
X165071428Y-67964285D01*
X165142857Y-68107142D01*
X165142857Y-68464285D01*
X165214285Y-68607142D01*
X164571428Y-69321428D02*
X166071428Y-69321428D01*
X165142857Y-69464285D02*
X164571428Y-69892857D01*
X165571428Y-69892857D02*
X165000000Y-69321428D01*
X164571428Y-70750000D02*
X164642857Y-70607142D01*
X164714285Y-70535714D01*
X164857142Y-70464285D01*
X165285714Y-70464285D01*
X165428571Y-70535714D01*
X165500000Y-70607142D01*
X165571428Y-70750000D01*
X165571428Y-70964285D01*
X165500000Y-71107142D01*
X165428571Y-71178571D01*
X165285714Y-71250000D01*
X164857142Y-71250000D01*
X164714285Y-71178571D01*
X164642857Y-71107142D01*
X164571428Y-70964285D01*
X164571428Y-70750000D01*
X165571428Y-72535714D02*
X164571428Y-72535714D01*
X165571428Y-71892857D02*
X164785714Y-71892857D01*
X164642857Y-71964285D01*
X164571428Y-72107142D01*
X164571428Y-72321428D01*
X164642857Y-72464285D01*
X164714285Y-72535714D01*
X165571428Y-73035714D02*
X165571428Y-73607142D01*
X166071428Y-73250000D02*
X164785714Y-73250000D01*
X164642857Y-73321428D01*
X164571428Y-73464285D01*
X164571428Y-73607142D01*
X164571428Y-76107142D02*
X165285714Y-75607142D01*
X164571428Y-75250000D02*
X166071428Y-75250000D01*
X166071428Y-75821428D01*
X166000000Y-75964285D01*
X165928571Y-76035714D01*
X165785714Y-76107142D01*
X165571428Y-76107142D01*
X165428571Y-76035714D01*
X165357142Y-75964285D01*
X165285714Y-75821428D01*
X165285714Y-75250000D01*
X164642857Y-77321428D02*
X164571428Y-77178571D01*
X164571428Y-76892857D01*
X164642857Y-76750000D01*
X164785714Y-76678571D01*
X165357142Y-76678571D01*
X165500000Y-76750000D01*
X165571428Y-76892857D01*
X165571428Y-77178571D01*
X165500000Y-77321428D01*
X165357142Y-77392857D01*
X165214285Y-77392857D01*
X165071428Y-76678571D01*
X165571428Y-77892857D02*
X164571428Y-78250000D01*
X165571428Y-78607142D01*
X164714285Y-79178571D02*
X164642857Y-79250000D01*
X164571428Y-79178571D01*
X164642857Y-79107142D01*
X164714285Y-79178571D01*
X164571428Y-79178571D01*
X165000000Y-80964285D02*
X165000000Y-81678571D01*
X164571428Y-80821428D02*
X166071428Y-81321428D01*
X164571428Y-81821428D01*
X166071428Y-82607142D02*
X166071428Y-82750000D01*
X166000000Y-82892857D01*
X165928571Y-82964285D01*
X165785714Y-83035714D01*
X165500000Y-83107142D01*
X165142857Y-83107142D01*
X164857142Y-83035714D01*
X164714285Y-82964285D01*
X164642857Y-82892857D01*
X164571428Y-82750000D01*
X164571428Y-82607142D01*
X164642857Y-82464285D01*
X164714285Y-82392857D01*
X164857142Y-82321428D01*
X165142857Y-82250000D01*
X165500000Y-82250000D01*
X165785714Y-82321428D01*
X165928571Y-82392857D01*
X166000000Y-82464285D01*
X166071428Y-82607142D01*
D11*
X162400000Y-102650000D02*
X162375000Y-22525000D01*
X212450000Y-102675000D02*
X162400000Y-102650000D01*
X212475000Y-22525000D02*
X212450000Y-102675000D01*
X162375000Y-22525000D02*
X212475000Y-22525000D01*
D12*
%TO.P,REF\u002A\u002A,1*%
%TO.N,N/C*%
X209250000Y-99500000D03*
%TD*%
%TO.P,REF\u002A\u002A,1*%
%TO.N,N/C*%
X165500000Y-99500000D03*
%TD*%
%TO.P,REF\u002A\u002A,1*%
%TO.N,N/C*%
X209250000Y-25500000D03*
%TD*%
%TO.P,REF\u002A\u002A,1*%
%TO.N,N/C*%
X165500000Y-25500000D03*
%TD*%
%TO.P,C2,2*%
%TO.N,GND*%
%TA.AperFunction,SMDPad,CuDef*%
G36*
G01*
X188800000Y-90275000D02*
X188800000Y-89325000D01*
G75*
G02*
X189050000Y-89075000I250000J0D01*
G01*
X189550000Y-89075000D01*
G75*
G02*
X189800000Y-89325000I0J-250000D01*
G01*
X189800000Y-90275000D01*
G75*
G02*
X189550000Y-90525000I-250000J0D01*
G01*
X189050000Y-90525000D01*
G75*
G02*
X188800000Y-90275000I0J250000D01*
G01*
G37*
%TD.AperFunction*%
%TO.P,C2,1*%
%TO.N,+5V*%
%TA.AperFunction,SMDPad,CuDef*%
G36*
G01*
X186900000Y-90275000D02*
X186900000Y-89325000D01*
G75*
G02*
X187150000Y-89075000I250000J0D01*
G01*
X187650000Y-89075000D01*
G75*
G02*
X187900000Y-89325000I0J-250000D01*
G01*
X187900000Y-90275000D01*
G75*
G02*
X187650000Y-90525000I-250000J0D01*
G01*
X187150000Y-90525000D01*
G75*
G02*
X186900000Y-90275000I0J250000D01*
G01*
G37*
%TD.AperFunction*%
%TD*%
%TO.P,R2,2*%
%TO.N,+5V*%
%TA.AperFunction,SMDPad,CuDef*%
G36*
G01*
X186150000Y-94399998D02*
X186150000Y-95300002D01*
G75*
G02*
X185900002Y-95550000I-249998J0D01*
G01*
X185374998Y-95550000D01*
G75*
G02*
X185125000Y-95300002I0J249998D01*
G01*
X185125000Y-94399998D01*
G75*
G02*
X185374998Y-94150000I249998J0D01*
G01*
X185900002Y-94150000D01*
G75*
G02*
X186150000Y-94399998I0J-249998D01*
G01*
G37*
%TD.AperFunction*%
%TO.P,R2,1*%
%TO.N,/EXTMODE*%
%TA.AperFunction,SMDPad,CuDef*%
G36*
G01*
X187975000Y-94399998D02*
X187975000Y-95300002D01*
G75*
G02*
X187725002Y-95550000I-249998J0D01*
G01*
X187199998Y-95550000D01*
G75*
G02*
X186950000Y-95300002I0J249998D01*
G01*
X186950000Y-94399998D01*
G75*
G02*
X187199998Y-94150000I249998J0D01*
G01*
X187725002Y-94150000D01*
G75*
G02*
X187975000Y-94399998I0J-249998D01*
G01*
G37*
%TD.AperFunction*%
%TD*%
%TO.P,C1,1*%
%TO.N,/LCD_DISP_DISP*%
%TA.AperFunction,SMDPad,CuDef*%
G36*
G01*
X185885000Y-91820000D02*
X185885000Y-92320000D01*
G75*
G02*
X185660000Y-92545000I-225000J0D01*
G01*
X185210000Y-92545000D01*
G75*
G02*
X184985000Y-92320000I0J225000D01*
G01*
X184985000Y-91820000D01*
G75*
G02*
X185210000Y-91595000I225000J0D01*
G01*
X185660000Y-91595000D01*
G75*
G02*
X185885000Y-91820000I0J-225000D01*
G01*
G37*
%TD.AperFunction*%
%TO.P,C1,2*%
%TO.N,GND*%
%TA.AperFunction,SMDPad,CuDef*%
G36*
G01*
X184335000Y-91820000D02*
X184335000Y-92320000D01*
G75*
G02*
X184110000Y-92545000I-225000J0D01*
G01*
X183660000Y-92545000D01*
G75*
G02*
X183435000Y-92320000I0J225000D01*
G01*
X183435000Y-91820000D01*
G75*
G02*
X183660000Y-91595000I225000J0D01*
G01*
X184110000Y-91595000D01*
G75*
G02*
X184335000Y-91820000I0J-225000D01*
G01*
G37*
%TD.AperFunction*%
%TD*%
%TO.P,C3,1*%
%TO.N,+5V*%
%TA.AperFunction,SMDPad,CuDef*%
G36*
G01*
X186900000Y-92325000D02*
X186900000Y-91375000D01*
G75*
G02*
X187150000Y-91125000I250000J0D01*
G01*
X187650000Y-91125000D01*
G75*
G02*
X187900000Y-91375000I0J-250000D01*
G01*
X187900000Y-92325000D01*
G75*
G02*
X187650000Y-92575000I-250000J0D01*
G01*
X187150000Y-92575000D01*
G75*
G02*
X186900000Y-92325000I0J250000D01*
G01*
G37*
%TD.AperFunction*%
%TO.P,C3,2*%
%TO.N,GND*%
%TA.AperFunction,SMDPad,CuDef*%
G36*
G01*
X188800000Y-92325000D02*
X188800000Y-91375000D01*
G75*
G02*
X189050000Y-91125000I250000J0D01*
G01*
X189550000Y-91125000D01*
G75*
G02*
X189800000Y-91375000I0J-250000D01*
G01*
X189800000Y-92325000D01*
G75*
G02*
X189550000Y-92575000I-250000J0D01*
G01*
X189050000Y-92575000D01*
G75*
G02*
X188800000Y-92325000I0J250000D01*
G01*
G37*
%TD.AperFunction*%
%TD*%
D13*
%TO.P,J1,52*%
%TO.N,GND*%
X201356500Y-24987900D03*
%TO.P,J1,51*%
X173543500Y-24987900D03*
D14*
%TO.P,J1,50*%
X175200002Y-29001100D03*
%TO.P,J1,49*%
%TO.N,/5V*%
X175700001Y-29001100D03*
%TO.P,J1,48*%
X176200002Y-29001100D03*
%TO.P,J1,47*%
%TO.N,/NRST*%
X176700001Y-29001100D03*
%TO.P,J1,46*%
%TO.N,/LCD_PWM*%
X177200000Y-29001100D03*
%TO.P,J1,45*%
%TO.N,/IRQ2*%
X177700002Y-29001100D03*
%TO.P,J1,44*%
%TO.N,/IRQ1*%
X178200001Y-29001100D03*
%TO.P,J1,43*%
%TO.N,/TWCK_LCD*%
X178700000Y-29001100D03*
%TO.P,J1,42*%
%TO.N,/TWD_LCD*%
X179200001Y-29001100D03*
%TO.P,J1,41*%
%TO.N,/LCD_DISP_DISP*%
X179700000Y-29001100D03*
%TO.P,J1,40*%
%TO.N,/SPI0_NPCS0_SCS*%
X180200002Y-29001100D03*
%TO.P,J1,39*%
%TO.N,/SPI0_MISO*%
X180700001Y-29001100D03*
%TO.P,J1,38*%
%TO.N,/SPI0_MOSI_SI*%
X181200000Y-29001100D03*
%TO.P,J1,37*%
%TO.N,/SPI0_SPCK_SCK*%
X181700001Y-29001100D03*
%TO.P,J1,36*%
%TO.N,/LCD_EN*%
X182200000Y-29001100D03*
%TO.P,J1,35*%
%TO.N,/LCD_HSYNC*%
X182700002Y-29001100D03*
%TO.P,J1,34*%
%TO.N,/LCD_VSYNC*%
X183200001Y-29001100D03*
%TO.P,J1,33*%
%TO.N,/LCD_PCK*%
X183700000Y-29001100D03*
%TO.P,J1,32*%
%TO.N,GND*%
X184200001Y-29001100D03*
%TO.P,J1,31*%
%TO.N,/LCD_DAT23*%
X184700000Y-29001100D03*
%TO.P,J1,30*%
%TO.N,/LCD_DAT22*%
X185200002Y-29001100D03*
%TO.P,J1,29*%
%TO.N,/LCD_DAT21*%
X185700001Y-29001100D03*
%TO.P,J1,28*%
%TO.N,/LCD_DAT20*%
X186200000Y-29001100D03*
%TO.P,J1,27*%
%TO.N,GND*%
X186700002Y-29001100D03*
%TO.P,J1,26*%
%TO.N,/LCD_DAT19*%
X187200000Y-29001100D03*
%TO.P,J1,25*%
%TO.N,/LCD_DAT18*%
X187700002Y-29001100D03*
%TO.P,J1,24*%
%TO.N,/LCD_DAT17*%
X188200001Y-29001100D03*
%TO.P,J1,23*%
%TO.N,/LCD_DAT16*%
X188700000Y-29001100D03*
%TO.P,J1,22*%
%TO.N,GND*%
X189200002Y-29001100D03*
%TO.P,J1,21*%
%TO.N,/LCD_DAT15*%
X189700001Y-29001100D03*
%TO.P,J1,20*%
%TO.N,/LCD_DAT14*%
X190200002Y-29001100D03*
%TO.P,J1,19*%
%TO.N,/LCD_DAT13*%
X190700001Y-29001100D03*
%TO.P,J1,18*%
%TO.N,/LCD_DAT12*%
X191200000Y-29001100D03*
%TO.P,J1,17*%
%TO.N,GND*%
X191700002Y-29001100D03*
%TO.P,J1,16*%
%TO.N,/LCD_DAT11*%
X192200001Y-29001100D03*
%TO.P,J1,15*%
%TO.N,/LCD_DAT10*%
X192700002Y-29001100D03*
%TO.P,J1,14*%
%TO.N,/LCD_DAT9*%
X193200001Y-29001100D03*
%TO.P,J1,13*%
%TO.N,/LCD_DAT8*%
X193700000Y-29001100D03*
%TO.P,J1,12*%
%TO.N,GND*%
X194200002Y-29001100D03*
%TO.P,J1,11*%
%TO.N,/LCD_DAT7*%
X194700001Y-29001100D03*
%TO.P,J1,10*%
%TO.N,/LCD_DAT6*%
X195200002Y-29001100D03*
%TO.P,J1,9*%
%TO.N,/LCD_DAT5*%
X195700001Y-29001100D03*
%TO.P,J1,8*%
%TO.N,/LCD_DAT4*%
X196200000Y-29001100D03*
%TO.P,J1,7*%
%TO.N,GND*%
X196700002Y-29001100D03*
%TO.P,J1,6*%
%TO.N,/LCD_DAT3*%
X197200001Y-29001100D03*
%TO.P,J1,5*%
%TO.N,/LCD_DAT2*%
X197700002Y-29001100D03*
%TO.P,J1,4*%
%TO.N,/LCD_DAT1*%
X198200001Y-29001100D03*
%TO.P,J1,3*%
%TO.N,/LCD_DAT0*%
X198700000Y-29001100D03*
%TO.P,J1,2*%
%TO.N,GND*%
X199200002Y-29001100D03*
%TO.P,J1,1*%
%TO.N,/PA17*%
X199700001Y-29001100D03*
%TD*%
%TO.P,R3,2*%
%TO.N,GND*%
%TA.AperFunction,SMDPad,CuDef*%
G36*
G01*
X190487500Y-95300002D02*
X190487500Y-94399998D01*
G75*
G02*
X190737498Y-94150000I249998J0D01*
G01*
X191262502Y-94150000D01*
G75*
G02*
X191512500Y-94399998I0J-249998D01*
G01*
X191512500Y-95300002D01*
G75*
G02*
X191262502Y-95550000I-249998J0D01*
G01*
X190737498Y-95550000D01*
G75*
G02*
X190487500Y-95300002I0J249998D01*
G01*
G37*
%TD.AperFunction*%
%TO.P,R3,1*%
%TO.N,/EXTMODE*%
%TA.AperFunction,SMDPad,CuDef*%
G36*
G01*
X188662500Y-95300002D02*
X188662500Y-94399998D01*
G75*
G02*
X188912498Y-94150000I249998J0D01*
G01*
X189437502Y-94150000D01*
G75*
G02*
X189687500Y-94399998I0J-249998D01*
G01*
X189687500Y-95300002D01*
G75*
G02*
X189437502Y-95550000I-249998J0D01*
G01*
X188912498Y-95550000D01*
G75*
G02*
X188662500Y-95300002I0J249998D01*
G01*
G37*
%TD.AperFunction*%
%TD*%
%TO.P,R4,2*%
%TO.N,/LCD_PWM*%
%TA.AperFunction,SMDPad,CuDef*%
G36*
G01*
X184450000Y-86174998D02*
X184450000Y-87075002D01*
G75*
G02*
X184200002Y-87325000I-249998J0D01*
G01*
X183674998Y-87325000D01*
G75*
G02*
X183425000Y-87075002I0J249998D01*
G01*
X183425000Y-86174998D01*
G75*
G02*
X183674998Y-85925000I249998J0D01*
G01*
X184200002Y-85925000D01*
G75*
G02*
X184450000Y-86174998I0J-249998D01*
G01*
G37*
%TD.AperFunction*%
%TO.P,R4,1*%
%TO.N,/EXTCOMIN*%
%TA.AperFunction,SMDPad,CuDef*%
G36*
G01*
X186275000Y-86174998D02*
X186275000Y-87075002D01*
G75*
G02*
X186025002Y-87325000I-249998J0D01*
G01*
X185499998Y-87325000D01*
G75*
G02*
X185250000Y-87075002I0J249998D01*
G01*
X185250000Y-86174998D01*
G75*
G02*
X185499998Y-85925000I249998J0D01*
G01*
X186025002Y-85925000D01*
G75*
G02*
X186275000Y-86174998I0J-249998D01*
G01*
G37*
%TD.AperFunction*%
%TD*%
%TO.P,R5,1*%
%TO.N,/EXTCOMIN*%
%TA.AperFunction,SMDPad,CuDef*%
G36*
G01*
X186875000Y-87075002D02*
X186875000Y-86174998D01*
G75*
G02*
X187124998Y-85925000I249998J0D01*
G01*
X187650002Y-85925000D01*
G75*
G02*
X187900000Y-86174998I0J-249998D01*
G01*
X187900000Y-87075002D01*
G75*
G02*
X187650002Y-87325000I-249998J0D01*
G01*
X187124998Y-87325000D01*
G75*
G02*
X186875000Y-87075002I0J249998D01*
G01*
G37*
%TD.AperFunction*%
%TO.P,R5,2*%
%TO.N,GND*%
%TA.AperFunction,SMDPad,CuDef*%
G36*
G01*
X188700000Y-87075002D02*
X188700000Y-86174998D01*
G75*
G02*
X188949998Y-85925000I249998J0D01*
G01*
X189475002Y-85925000D01*
G75*
G02*
X189725000Y-86174998I0J-249998D01*
G01*
X189725000Y-87075002D01*
G75*
G02*
X189475002Y-87325000I-249998J0D01*
G01*
X188949998Y-87325000D01*
G75*
G02*
X188700000Y-87075002I0J249998D01*
G01*
G37*
%TD.AperFunction*%
%TD*%
%TO.P,R1,1*%
%TO.N,+5V*%
%TA.AperFunction,SMDPad,CuDef*%
G36*
G01*
X186295000Y-89339998D02*
X186295000Y-90240002D01*
G75*
G02*
X186045002Y-90490000I-249998J0D01*
G01*
X185519998Y-90490000D01*
G75*
G02*
X185270000Y-90240002I0J249998D01*
G01*
X185270000Y-89339998D01*
G75*
G02*
X185519998Y-89090000I249998J0D01*
G01*
X186045002Y-89090000D01*
G75*
G02*
X186295000Y-89339998I0J-249998D01*
G01*
G37*
%TD.AperFunction*%
%TO.P,R1,2*%
%TO.N,/5V*%
%TA.AperFunction,SMDPad,CuDef*%
G36*
G01*
X184470000Y-89339998D02*
X184470000Y-90240002D01*
G75*
G02*
X184220002Y-90490000I-249998J0D01*
G01*
X183694998Y-90490000D01*
G75*
G02*
X183445000Y-90240002I0J249998D01*
G01*
X183445000Y-89339998D01*
G75*
G02*
X183694998Y-89090000I249998J0D01*
G01*
X184220002Y-89090000D01*
G75*
G02*
X184470000Y-89339998I0J-249998D01*
G01*
G37*
%TD.AperFunction*%
%TD*%
D15*
%TO.P,J2,12*%
%TO.N,GND*%
X182783700Y-99989800D03*
%TO.P,J2,11*%
X189616300Y-99989800D03*
D16*
%TO.P,J2,10*%
X188450001Y-97449800D03*
%TO.P,J2,9*%
X187949999Y-97449800D03*
%TO.P,J2,8*%
%TO.N,/EXTMODE*%
X187450000Y-97449800D03*
%TO.P,J2,7*%
%TO.N,+5V*%
X186950001Y-97449800D03*
%TO.P,J2,6*%
X186450000Y-97449800D03*
%TO.P,J2,5*%
%TO.N,/LCD_DISP_DISP*%
X185950000Y-97449800D03*
%TO.P,J2,4*%
%TO.N,/EXTCOMIN*%
X185449999Y-97449800D03*
%TO.P,J2,3*%
%TO.N,/SPI0_NPCS0_SCS*%
X184950000Y-97449800D03*
%TO.P,J2,2*%
%TO.N,/SPI0_MOSI_SI*%
X184450001Y-97449800D03*
%TO.P,J2,1*%
%TO.N,/SPI0_SPCK_SCK*%
X183949999Y-97449800D03*
%TD*%
D17*
%TO.N,GND*%
X191000000Y-86600000D03*
X198000000Y-86600000D03*
X180450000Y-88150000D03*
X186600000Y-88200000D03*
X191950000Y-100000000D03*
X198000000Y-100000000D03*
%TD*%
D18*
%TO.N,/LCD_DISP_DISP*%
X179700000Y-30900000D02*
X179700000Y-28751100D01*
X184850000Y-36050000D02*
X179700000Y-30900000D01*
X184850000Y-90500000D02*
X184850000Y-90880000D01*
X184850000Y-90500000D02*
X184850000Y-36050000D01*
X185435000Y-91465000D02*
X185435000Y-92070000D01*
X184850000Y-90880000D02*
X185435000Y-91465000D01*
X185950000Y-96450000D02*
X185950000Y-97449800D01*
X185750000Y-96250000D02*
X185950000Y-96450000D01*
X185435000Y-92070000D02*
X185435000Y-92965000D01*
X184650000Y-93750000D02*
X184650000Y-95900000D01*
X185435000Y-92965000D02*
X184650000Y-93750000D01*
X184650000Y-95900000D02*
X185000000Y-96250000D01*
X185000000Y-96250000D02*
X185750000Y-96250000D01*
%TO.N,GND*%
X201356500Y-24737900D02*
X201356500Y-24818500D01*
X199200002Y-26974998D02*
X199200002Y-28751100D01*
X196700002Y-28751100D02*
X196700002Y-26975002D01*
X196700006Y-26974998D02*
X199200002Y-26974998D01*
X196700002Y-26975002D02*
X196700006Y-26974998D01*
X194200002Y-28751100D02*
X194200002Y-26975002D01*
X194200002Y-26975002D02*
X196700002Y-26975002D01*
X191700002Y-28751100D02*
X191700002Y-26975002D01*
X191700002Y-26975002D02*
X194200002Y-26975002D01*
X189200002Y-28751100D02*
X189200002Y-26975002D01*
X189200002Y-26975002D02*
X191700002Y-26975002D01*
X186700002Y-28751100D02*
X186700002Y-26975002D01*
X186700002Y-26975002D02*
X189200002Y-26975002D01*
X186700000Y-26975000D02*
X186700002Y-26975002D01*
X184200001Y-28751100D02*
X184200000Y-26975000D01*
X184200000Y-26975000D02*
X186700000Y-26975000D01*
X184200000Y-26975000D02*
X175200000Y-26975000D01*
X175200000Y-28751098D02*
X175200002Y-28751100D01*
X175200000Y-26975000D02*
X175200000Y-28751098D01*
X173543500Y-24737900D02*
X173543500Y-25318500D01*
X183800000Y-91850000D02*
X183750000Y-91900000D01*
X191000000Y-91850000D02*
X191000000Y-94850000D01*
X191000000Y-91850000D02*
X191000000Y-90500000D01*
X190950000Y-89100000D02*
X191000000Y-89150000D01*
X196700000Y-29001102D02*
X196700002Y-29001100D01*
X199200000Y-30450000D02*
X196700000Y-30450000D01*
X196700000Y-30450000D02*
X196700000Y-29001102D01*
X199200002Y-29001100D02*
X199200002Y-30449998D01*
X199200002Y-30449998D02*
X199200000Y-30450000D01*
X194200002Y-29001100D02*
X194200002Y-30349998D01*
X194200002Y-30349998D02*
X194200000Y-30350000D01*
X194200000Y-30350000D02*
X191700000Y-30350000D01*
X191700000Y-29001102D02*
X191700002Y-29001100D01*
X191700000Y-30350000D02*
X191700000Y-29001102D01*
X189200002Y-29001100D02*
X189200002Y-30549998D01*
X189200002Y-30549998D02*
X189200000Y-30550000D01*
X189200000Y-30550000D02*
X186700000Y-30550000D01*
X186700000Y-29001102D02*
X186700002Y-29001100D01*
X186700000Y-30550000D02*
X186700000Y-29001102D01*
X184200001Y-29001100D02*
X184200000Y-29657501D01*
X184200000Y-29657501D02*
X184200000Y-30500000D01*
X184250000Y-30550000D02*
X184200000Y-30500000D01*
X186700000Y-30550000D02*
X184250000Y-30550000D01*
X189110000Y-91840000D02*
X189100000Y-91850000D01*
X191000000Y-91850000D02*
X189300000Y-91850000D01*
X189300000Y-89800000D02*
X191000000Y-89800000D01*
X191000000Y-89150000D02*
X191000000Y-89800000D01*
X191000000Y-89800000D02*
X191000000Y-90500000D01*
X191000000Y-94850000D02*
X191000000Y-96000000D01*
X191000000Y-96000000D02*
X188850000Y-96000000D01*
X188450001Y-96399999D02*
X188450001Y-97449800D01*
X188850000Y-96000000D02*
X188450001Y-96399999D01*
X188450001Y-97449800D02*
X187949999Y-97449800D01*
%TO.N,+5V*%
X185637500Y-94850000D02*
X185637500Y-94612500D01*
X185637500Y-94850000D02*
X185637500Y-94712500D01*
X185637500Y-94850000D02*
X185637500Y-94662500D01*
X185650000Y-94837500D02*
X185637500Y-94850000D01*
X185637500Y-94850000D02*
X185637500Y-95137500D01*
X185637500Y-93762500D02*
X185637500Y-94850000D01*
X186300000Y-93100000D02*
X185637500Y-93762500D01*
X185792500Y-89800000D02*
X185782500Y-89790000D01*
X187390000Y-89790000D02*
X187400000Y-89800000D01*
D19*
X185782500Y-89790000D02*
X187390000Y-89790000D01*
D18*
X186300000Y-93100000D02*
X187050000Y-93100000D01*
X187400000Y-92750000D02*
X187400000Y-91850000D01*
X187050000Y-93100000D02*
X187400000Y-92750000D01*
X185782500Y-89790000D02*
X185782500Y-90232500D01*
D19*
X187400000Y-91850000D02*
X186500000Y-91850000D01*
X186500000Y-91850000D02*
X186500000Y-91550000D01*
X185782500Y-90832500D02*
X185782500Y-89790000D01*
X186500000Y-91550000D02*
X185782500Y-90832500D01*
D18*
X186540000Y-93910000D02*
X186540000Y-95540000D01*
X186850000Y-93600000D02*
X186540000Y-93910000D01*
X188100000Y-89800000D02*
X188350000Y-90050000D01*
X186540000Y-95540000D02*
X186950001Y-95950001D01*
X187400000Y-89800000D02*
X188100000Y-89800000D01*
X188350000Y-92750000D02*
X187500000Y-93600000D01*
X187500000Y-93600000D02*
X186850000Y-93600000D01*
X188350000Y-90050000D02*
X188350000Y-92750000D01*
X185637500Y-95387500D02*
X185637500Y-94850000D01*
X186450000Y-97449800D02*
X186449999Y-96199999D01*
X186449999Y-96199999D02*
X185637500Y-95387500D01*
X186950001Y-97449800D02*
X186950001Y-95950001D01*
%TO.N,/EXTMODE*%
X187462500Y-94850000D02*
X189137500Y-94850000D01*
X187450000Y-94862500D02*
X187462500Y-94850000D01*
X187450000Y-97449800D02*
X187450000Y-94862500D01*
%TO.N,/EXTCOMIN*%
X187387500Y-86625000D02*
X185762500Y-86625000D01*
X187387500Y-85712500D02*
X187387500Y-86625000D01*
X187600000Y-85500000D02*
X187387500Y-85712500D01*
X192500000Y-85500000D02*
X187600000Y-85500000D01*
X193100000Y-86100000D02*
X192500000Y-85500000D01*
X185449999Y-97927177D02*
X185872822Y-98350000D01*
X185449999Y-97449800D02*
X185449999Y-97927177D01*
X192650000Y-98350000D02*
X193100000Y-97900000D01*
X193100000Y-97900000D02*
X193100000Y-86100000D01*
X185872822Y-98350000D02*
X192650000Y-98350000D01*
%TO.N,/SPI0_SPCK_SCK*%
X187850000Y-101250000D02*
X187850000Y-100050000D01*
X188300011Y-101700011D02*
X187850000Y-101250000D01*
X187850000Y-100050000D02*
X187779616Y-99979616D01*
X186850000Y-83500000D02*
X193800044Y-83500000D01*
X186500000Y-83150000D02*
X186850000Y-83500000D01*
X187779616Y-99979616D02*
X185570384Y-99979616D01*
X186500000Y-35050000D02*
X186500000Y-83150000D01*
X194750022Y-84450022D02*
X195000000Y-84700000D01*
X181700001Y-30250001D02*
X186500000Y-35050000D01*
X181700001Y-28751100D02*
X181700001Y-30250001D01*
X194386400Y-101700011D02*
X188300011Y-101700011D01*
X193800044Y-83500000D02*
X194750022Y-84449978D01*
X195000000Y-101086411D02*
X194386400Y-101700011D01*
X194750022Y-84449978D02*
X194750022Y-84450022D01*
X183949999Y-98359232D02*
X183949999Y-97250000D01*
X185570384Y-99979616D02*
X183949999Y-98359232D01*
X195000000Y-84700000D02*
X195000000Y-101086411D01*
%TO.N,/SPI0_MOSI_SI*%
X194400000Y-100900000D02*
X194050000Y-101250000D01*
X194400000Y-85050000D02*
X194400000Y-100900000D01*
X186618205Y-84118205D02*
X193468205Y-84118205D01*
X193468205Y-84118205D02*
X194400000Y-85050000D01*
X185950000Y-83450000D02*
X186618205Y-84118205D01*
X184450001Y-98222823D02*
X184450001Y-97449800D01*
X185950000Y-35400000D02*
X185950000Y-83450000D01*
X181200000Y-30650000D02*
X185950000Y-35400000D01*
X181200000Y-28751100D02*
X181200000Y-30650000D01*
X185613589Y-99386411D02*
X188086411Y-99386411D01*
X185613589Y-99386411D02*
X184450001Y-98222823D01*
X188086411Y-99386411D02*
X188300000Y-99600000D01*
X188300000Y-100950000D02*
X188600000Y-101250000D01*
X188300000Y-99600000D02*
X188300000Y-100950000D01*
X194050000Y-101250000D02*
X188600000Y-101250000D01*
%TO.N,/SPI0_NPCS0_SCS*%
X180200002Y-28751100D02*
X180200002Y-29249998D01*
X180200002Y-29249998D02*
X180200002Y-29724998D01*
X185400000Y-35800000D02*
X180200002Y-30600002D01*
X186300020Y-84750020D02*
X185400000Y-83850000D01*
X185400000Y-83850000D02*
X185400000Y-35800000D01*
X193000020Y-84750020D02*
X186300020Y-84750020D01*
X180200002Y-30600002D02*
X180200002Y-29249998D01*
X184950000Y-98086411D02*
X185663600Y-98800011D01*
X193349989Y-98800011D02*
X193800011Y-98349989D01*
X193800011Y-85550011D02*
X193000020Y-84750020D01*
X184950000Y-97250000D02*
X184950000Y-98086411D01*
X185663600Y-98800011D02*
X193349989Y-98800011D01*
X193800011Y-98349989D02*
X193800011Y-85550011D01*
%TO.N,/LCD_PWM*%
X183937500Y-36337500D02*
X177200000Y-29600000D01*
X183937500Y-86625000D02*
X183937500Y-36337500D01*
X177200000Y-29001100D02*
X177200000Y-29600000D01*
D19*
%TO.N,/5V*%
X182800000Y-36899996D02*
X176200002Y-30299998D01*
D18*
X176200002Y-29001100D02*
X175700001Y-29001100D01*
D19*
X176200002Y-30299998D02*
X176200002Y-29500002D01*
D18*
X176200002Y-29500002D02*
X176200002Y-29001100D01*
D19*
X183957500Y-89790000D02*
X183957500Y-88657500D01*
X183957500Y-88657500D02*
X183650000Y-88350000D01*
X183150000Y-88350000D02*
X182800000Y-88000000D01*
X183650000Y-88350000D02*
X183150000Y-88350000D01*
X182800000Y-88000000D02*
X182800000Y-36899996D01*
%TD*%
D20*
%TO.N,GND*%
X207634032Y-23530937D02*
X207280937Y-23884032D01*
X207003512Y-24299227D01*
X206812418Y-24760568D01*
X206715000Y-25250324D01*
X206715000Y-25749676D01*
X206812418Y-26239432D01*
X207003512Y-26700773D01*
X207280937Y-27115968D01*
X207634032Y-27469063D01*
X208049227Y-27746488D01*
X208510568Y-27937582D01*
X209000324Y-28035000D01*
X209499676Y-28035000D01*
X209989432Y-27937582D01*
X210450773Y-27746488D01*
X210865968Y-27469063D01*
X211219063Y-27115968D01*
X211496488Y-26700773D01*
X211687582Y-26239432D01*
X211713883Y-26107207D01*
X211691216Y-98778837D01*
X211687582Y-98760568D01*
X211496488Y-98299227D01*
X211219063Y-97884032D01*
X210865968Y-97530937D01*
X210450773Y-97253512D01*
X209989432Y-97062418D01*
X209499676Y-96965000D01*
X209000324Y-96965000D01*
X208510568Y-97062418D01*
X208049227Y-97253512D01*
X207634032Y-97530937D01*
X207280937Y-97884032D01*
X207003512Y-98299227D01*
X206812418Y-98760568D01*
X206715000Y-99250324D01*
X206715000Y-99749676D01*
X206812418Y-100239432D01*
X207003512Y-100700773D01*
X207280937Y-101115968D01*
X207634032Y-101469063D01*
X208049227Y-101746488D01*
X208451229Y-101913003D01*
X195254802Y-101906411D01*
X195511008Y-101650206D01*
X195540001Y-101626412D01*
X195563795Y-101597419D01*
X195563799Y-101597415D01*
X195634973Y-101510688D01*
X195646031Y-101490001D01*
X195705546Y-101378658D01*
X195749003Y-101235397D01*
X195760000Y-101123744D01*
X195760000Y-101123735D01*
X195763676Y-101086412D01*
X195760000Y-101049089D01*
X195760000Y-84737322D01*
X195763676Y-84699999D01*
X195760000Y-84662676D01*
X195760000Y-84662667D01*
X195749003Y-84551014D01*
X195705546Y-84407753D01*
X195634974Y-84275724D01*
X195540001Y-84159999D01*
X195510998Y-84136197D01*
X195314027Y-83939226D01*
X195290023Y-83909977D01*
X195261026Y-83886180D01*
X194363848Y-82989002D01*
X194340045Y-82959999D01*
X194224320Y-82865026D01*
X194092291Y-82794454D01*
X193949030Y-82750997D01*
X193837377Y-82740000D01*
X193837366Y-82740000D01*
X193800044Y-82736324D01*
X193762722Y-82740000D01*
X187260000Y-82740000D01*
X187260000Y-35087325D01*
X187263676Y-35050000D01*
X187260000Y-35012675D01*
X187260000Y-35012667D01*
X187249003Y-34901014D01*
X187205546Y-34757753D01*
X187134974Y-34625724D01*
X187040001Y-34509999D01*
X187011004Y-34486202D01*
X182570086Y-30045285D01*
X182573002Y-30045572D01*
X182827002Y-30045572D01*
X182950002Y-30033458D01*
X183073001Y-30045572D01*
X183327001Y-30045572D01*
X183450001Y-30033458D01*
X183573000Y-30045572D01*
X183827000Y-30045572D01*
X183951482Y-30033312D01*
X183953861Y-30032590D01*
X184041251Y-30042500D01*
X184104627Y-29979124D01*
X184181494Y-29938037D01*
X184200000Y-29922850D01*
X184218506Y-29938037D01*
X184295377Y-29979126D01*
X184358751Y-30042500D01*
X184446139Y-30032590D01*
X184448518Y-30033312D01*
X184573000Y-30045572D01*
X184827000Y-30045572D01*
X184950001Y-30033458D01*
X185073002Y-30045572D01*
X185327002Y-30045572D01*
X185450002Y-30033458D01*
X185573001Y-30045572D01*
X185827001Y-30045572D01*
X185950001Y-30033458D01*
X186073000Y-30045572D01*
X186327000Y-30045572D01*
X186451482Y-30033312D01*
X186453862Y-30032590D01*
X186541252Y-30042500D01*
X186604629Y-29979123D01*
X186681494Y-29938037D01*
X186700000Y-29922850D01*
X186718506Y-29938037D01*
X186795379Y-29979127D01*
X186858752Y-30042500D01*
X186946139Y-30032590D01*
X186948518Y-30033312D01*
X187073000Y-30045572D01*
X187327000Y-30045572D01*
X187450001Y-30033458D01*
X187573002Y-30045572D01*
X187827002Y-30045572D01*
X187950002Y-30033458D01*
X188073001Y-30045572D01*
X188327001Y-30045572D01*
X188450001Y-30033458D01*
X188573000Y-30045572D01*
X188827000Y-30045572D01*
X188951482Y-30033312D01*
X188953862Y-30032590D01*
X189041252Y-30042500D01*
X189104629Y-29979123D01*
X189181494Y-29938037D01*
X189200001Y-29922849D01*
X189218507Y-29938037D01*
X189295378Y-29979126D01*
X189358752Y-30042500D01*
X189446140Y-30032590D01*
X189448519Y-30033312D01*
X189573001Y-30045572D01*
X189827001Y-30045572D01*
X189950002Y-30033458D01*
X190073002Y-30045572D01*
X190327002Y-30045572D01*
X190450002Y-30033458D01*
X190573001Y-30045572D01*
X190827001Y-30045572D01*
X190950001Y-30033458D01*
X191073000Y-30045572D01*
X191327000Y-30045572D01*
X191451482Y-30033312D01*
X191453862Y-30032590D01*
X191541252Y-30042500D01*
X191604629Y-29979123D01*
X191681494Y-29938037D01*
X191700001Y-29922849D01*
X191718507Y-29938037D01*
X191795378Y-29979126D01*
X191858752Y-30042500D01*
X191946140Y-30032590D01*
X191948519Y-30033312D01*
X192073001Y-30045572D01*
X192327001Y-30045572D01*
X192450002Y-30033458D01*
X192573002Y-30045572D01*
X192827002Y-30045572D01*
X192950002Y-30033458D01*
X193073001Y-30045572D01*
X193327001Y-30045572D01*
X193450001Y-30033458D01*
X193573000Y-30045572D01*
X193827000Y-30045572D01*
X193951482Y-30033312D01*
X193953862Y-30032590D01*
X194041252Y-30042500D01*
X194104629Y-29979123D01*
X194181494Y-29938037D01*
X194200001Y-29922849D01*
X194218507Y-29938037D01*
X194295378Y-29979126D01*
X194358752Y-30042500D01*
X194446140Y-30032590D01*
X194448519Y-30033312D01*
X194573001Y-30045572D01*
X194827001Y-30045572D01*
X194950002Y-30033458D01*
X195073002Y-30045572D01*
X195327002Y-30045572D01*
X195450002Y-30033458D01*
X195573001Y-30045572D01*
X195827001Y-30045572D01*
X195950001Y-30033458D01*
X196073000Y-30045572D01*
X196327000Y-30045572D01*
X196451482Y-30033312D01*
X196453862Y-30032590D01*
X196541252Y-30042500D01*
X196604629Y-29979123D01*
X196681494Y-29938037D01*
X196700001Y-29922849D01*
X196718507Y-29938037D01*
X196795378Y-29979126D01*
X196858752Y-30042500D01*
X196946140Y-30032590D01*
X196948519Y-30033312D01*
X197073001Y-30045572D01*
X197327001Y-30045572D01*
X197450002Y-30033458D01*
X197573002Y-30045572D01*
X197827002Y-30045572D01*
X197950002Y-30033458D01*
X198073001Y-30045572D01*
X198327001Y-30045572D01*
X198450001Y-30033458D01*
X198573000Y-30045572D01*
X198827000Y-30045572D01*
X198951482Y-30033312D01*
X198953862Y-30032590D01*
X199041252Y-30042500D01*
X199104629Y-29979123D01*
X199181494Y-29938037D01*
X199200001Y-29922849D01*
X199218507Y-29938037D01*
X199295378Y-29979126D01*
X199358752Y-30042500D01*
X199446140Y-30032590D01*
X199448519Y-30033312D01*
X199573001Y-30045572D01*
X199827001Y-30045572D01*
X199951483Y-30033312D01*
X200071181Y-29997002D01*
X200181495Y-29938037D01*
X200278186Y-29858685D01*
X200357538Y-29761994D01*
X200416503Y-29651680D01*
X200452813Y-29531982D01*
X200465073Y-29407500D01*
X200465073Y-28594700D01*
X200452813Y-28470218D01*
X200416503Y-28350520D01*
X200357538Y-28240206D01*
X200278186Y-28143515D01*
X200181495Y-28064163D01*
X200071181Y-28005198D01*
X199951483Y-27968888D01*
X199827001Y-27956628D01*
X199573001Y-27956628D01*
X199448519Y-27968888D01*
X199446140Y-27969610D01*
X199358752Y-27959700D01*
X199295378Y-28023074D01*
X199218507Y-28064163D01*
X199200001Y-28079351D01*
X199181494Y-28064163D01*
X199104629Y-28023077D01*
X199041252Y-27959700D01*
X198953862Y-27969610D01*
X198951482Y-27968888D01*
X198827000Y-27956628D01*
X198573000Y-27956628D01*
X198450001Y-27968742D01*
X198327001Y-27956628D01*
X198073001Y-27956628D01*
X197950002Y-27968742D01*
X197827002Y-27956628D01*
X197573002Y-27956628D01*
X197450002Y-27968742D01*
X197327001Y-27956628D01*
X197073001Y-27956628D01*
X196948519Y-27968888D01*
X196946140Y-27969610D01*
X196858752Y-27959700D01*
X196795378Y-28023074D01*
X196718507Y-28064163D01*
X196700001Y-28079351D01*
X196681494Y-28064163D01*
X196604629Y-28023077D01*
X196541252Y-27959700D01*
X196453862Y-27969610D01*
X196451482Y-27968888D01*
X196327000Y-27956628D01*
X196073000Y-27956628D01*
X195950001Y-27968742D01*
X195827001Y-27956628D01*
X195573001Y-27956628D01*
X195450002Y-27968742D01*
X195327002Y-27956628D01*
X195073002Y-27956628D01*
X194950002Y-27968742D01*
X194827001Y-27956628D01*
X194573001Y-27956628D01*
X194448519Y-27968888D01*
X194446140Y-27969610D01*
X194358752Y-27959700D01*
X194295378Y-28023074D01*
X194218507Y-28064163D01*
X194200001Y-28079351D01*
X194181494Y-28064163D01*
X194104629Y-28023077D01*
X194041252Y-27959700D01*
X193953862Y-27969610D01*
X193951482Y-27968888D01*
X193827000Y-27956628D01*
X193573000Y-27956628D01*
X193450001Y-27968742D01*
X193327001Y-27956628D01*
X193073001Y-27956628D01*
X192950002Y-27968742D01*
X192827002Y-27956628D01*
X192573002Y-27956628D01*
X192450002Y-27968742D01*
X192327001Y-27956628D01*
X192073001Y-27956628D01*
X191948519Y-27968888D01*
X191946140Y-27969610D01*
X191858752Y-27959700D01*
X191795378Y-28023074D01*
X191718507Y-28064163D01*
X191700001Y-28079351D01*
X191681494Y-28064163D01*
X191604629Y-28023077D01*
X191541252Y-27959700D01*
X191453862Y-27969610D01*
X191451482Y-27968888D01*
X191327000Y-27956628D01*
X191073000Y-27956628D01*
X190950001Y-27968742D01*
X190827001Y-27956628D01*
X190573001Y-27956628D01*
X190450002Y-27968742D01*
X190327002Y-27956628D01*
X190073002Y-27956628D01*
X189950002Y-27968742D01*
X189827001Y-27956628D01*
X189573001Y-27956628D01*
X189448519Y-27968888D01*
X189446140Y-27969610D01*
X189358752Y-27959700D01*
X189295378Y-28023074D01*
X189218507Y-28064163D01*
X189200001Y-28079351D01*
X189181494Y-28064163D01*
X189104629Y-28023077D01*
X189041252Y-27959700D01*
X188953862Y-27969610D01*
X188951482Y-27968888D01*
X188827000Y-27956628D01*
X188573000Y-27956628D01*
X188450001Y-27968742D01*
X188327001Y-27956628D01*
X188073001Y-27956628D01*
X187950002Y-27968742D01*
X187827002Y-27956628D01*
X187573002Y-27956628D01*
X187450001Y-27968742D01*
X187327000Y-27956628D01*
X187073000Y-27956628D01*
X186948518Y-27968888D01*
X186946139Y-27969610D01*
X186858752Y-27959700D01*
X186795379Y-28023073D01*
X186718506Y-28064163D01*
X186700000Y-28079350D01*
X186681494Y-28064163D01*
X186604629Y-28023077D01*
X186541252Y-27959700D01*
X186453862Y-27969610D01*
X186451482Y-27968888D01*
X186327000Y-27956628D01*
X186073000Y-27956628D01*
X185950001Y-27968742D01*
X185827001Y-27956628D01*
X185573001Y-27956628D01*
X185450002Y-27968742D01*
X185327002Y-27956628D01*
X185073002Y-27956628D01*
X184950001Y-27968742D01*
X184827000Y-27956628D01*
X184573000Y-27956628D01*
X184448518Y-27968888D01*
X184446139Y-27969610D01*
X184358751Y-27959700D01*
X184295377Y-28023074D01*
X184218506Y-28064163D01*
X184200000Y-28079350D01*
X184181494Y-28064163D01*
X184104627Y-28023076D01*
X184041251Y-27959700D01*
X183953861Y-27969610D01*
X183951482Y-27968888D01*
X183827000Y-27956628D01*
X183573000Y-27956628D01*
X183450001Y-27968742D01*
X183327001Y-27956628D01*
X183073001Y-27956628D01*
X182950002Y-27968742D01*
X182827002Y-27956628D01*
X182573002Y-27956628D01*
X182450001Y-27968742D01*
X182327000Y-27956628D01*
X182073000Y-27956628D01*
X181950001Y-27968742D01*
X181827001Y-27956628D01*
X181573001Y-27956628D01*
X181450001Y-27968742D01*
X181327000Y-27956628D01*
X181073000Y-27956628D01*
X180950001Y-27968742D01*
X180827001Y-27956628D01*
X180573001Y-27956628D01*
X180450002Y-27968742D01*
X180327002Y-27956628D01*
X180073002Y-27956628D01*
X179950001Y-27968742D01*
X179827000Y-27956628D01*
X179573000Y-27956628D01*
X179450001Y-27968742D01*
X179327001Y-27956628D01*
X179073001Y-27956628D01*
X178950001Y-27968742D01*
X178827000Y-27956628D01*
X178573000Y-27956628D01*
X178450001Y-27968742D01*
X178327001Y-27956628D01*
X178073001Y-27956628D01*
X177950002Y-27968742D01*
X177827002Y-27956628D01*
X177573002Y-27956628D01*
X177450001Y-27968742D01*
X177327000Y-27956628D01*
X177073000Y-27956628D01*
X176950001Y-27968742D01*
X176827001Y-27956628D01*
X176573001Y-27956628D01*
X176450002Y-27968742D01*
X176327002Y-27956628D01*
X176073002Y-27956628D01*
X175950002Y-27968742D01*
X175827001Y-27956628D01*
X175573001Y-27956628D01*
X175448519Y-27968888D01*
X175446140Y-27969610D01*
X175358752Y-27959700D01*
X175295378Y-28023074D01*
X175218507Y-28064163D01*
X175178526Y-28096974D01*
X175041252Y-27959700D01*
X174934830Y-27971768D01*
X174815957Y-28010694D01*
X174706962Y-28072062D01*
X174612033Y-28153515D01*
X174534820Y-28251923D01*
X174478289Y-28363504D01*
X174444612Y-28483969D01*
X174435083Y-28608689D01*
X174438002Y-28715350D01*
X174596752Y-28874100D01*
X174934929Y-28874100D01*
X174934929Y-29128100D01*
X174596752Y-29128100D01*
X174438002Y-29286850D01*
X174435083Y-29393511D01*
X174444612Y-29518231D01*
X174478289Y-29638696D01*
X174534820Y-29750277D01*
X174612033Y-29848685D01*
X174706962Y-29930138D01*
X174815957Y-29991506D01*
X174934830Y-30030432D01*
X175041252Y-30042500D01*
X175178526Y-29905226D01*
X175218507Y-29938037D01*
X175295378Y-29979126D01*
X175358752Y-30042500D01*
X175390002Y-30038956D01*
X175390002Y-30260210D01*
X175386083Y-30299998D01*
X175390002Y-30339786D01*
X175390002Y-30339788D01*
X175401722Y-30458785D01*
X175448039Y-30611470D01*
X175448040Y-30611471D01*
X175523253Y-30752187D01*
X175554287Y-30790002D01*
X175624474Y-30875526D01*
X175655390Y-30900898D01*
X181990001Y-37235510D01*
X181990000Y-87960212D01*
X181986081Y-88000000D01*
X181990000Y-88039788D01*
X181990000Y-88039790D01*
X182001720Y-88158787D01*
X182048037Y-88311472D01*
X182048038Y-88311473D01*
X182123251Y-88452189D01*
X182124731Y-88453992D01*
X182224472Y-88575528D01*
X182255388Y-88600900D01*
X182549100Y-88894612D01*
X182574472Y-88925528D01*
X182697811Y-89026749D01*
X182838527Y-89101963D01*
X182843212Y-89103384D01*
X182823992Y-89166744D01*
X182806928Y-89339998D01*
X182806928Y-90240002D01*
X182823992Y-90413256D01*
X182874528Y-90579852D01*
X182956595Y-90733387D01*
X183067038Y-90867962D01*
X183201613Y-90978405D01*
X183230041Y-90993600D01*
X183190820Y-91005498D01*
X183080506Y-91064463D01*
X182983815Y-91143815D01*
X182904463Y-91240506D01*
X182845498Y-91350820D01*
X182809188Y-91470518D01*
X182796928Y-91595000D01*
X182800000Y-91784250D01*
X182958750Y-91943000D01*
X183758000Y-91943000D01*
X183758000Y-91923000D01*
X184012000Y-91923000D01*
X184012000Y-91943000D01*
X184032000Y-91943000D01*
X184032000Y-92197000D01*
X184012000Y-92197000D01*
X184012000Y-93021250D01*
X184157974Y-93167224D01*
X184139002Y-93186197D01*
X184109999Y-93209999D01*
X184056633Y-93275026D01*
X184015026Y-93325724D01*
X183975860Y-93398998D01*
X183944454Y-93457754D01*
X183900997Y-93601015D01*
X183890000Y-93712668D01*
X183890000Y-93712678D01*
X183886324Y-93750000D01*
X183890000Y-93787323D01*
X183890001Y-95862668D01*
X183886324Y-95900000D01*
X183900998Y-96048985D01*
X183944454Y-96192246D01*
X184015026Y-96324276D01*
X184076339Y-96398985D01*
X184110000Y-96440001D01*
X184138998Y-96463799D01*
X184162662Y-96487463D01*
X184102399Y-96481528D01*
X183797599Y-96481528D01*
X183673117Y-96493788D01*
X183553419Y-96530098D01*
X183443105Y-96589063D01*
X183346414Y-96668415D01*
X183267062Y-96765106D01*
X183208097Y-96875420D01*
X183171787Y-96995118D01*
X183159527Y-97119600D01*
X183159527Y-97780000D01*
X183171787Y-97904482D01*
X183189999Y-97964520D01*
X183189999Y-98321909D01*
X183186323Y-98359232D01*
X183189999Y-98396555D01*
X183189999Y-98396564D01*
X183200996Y-98508217D01*
X183230008Y-98603857D01*
X183215500Y-98602428D01*
X183069450Y-98605500D01*
X182910700Y-98764250D01*
X182910700Y-99862800D01*
X183691750Y-99862800D01*
X183850500Y-99704050D01*
X183852933Y-99336967D01*
X185006584Y-100490618D01*
X185030383Y-100519617D01*
X185146108Y-100614590D01*
X185278137Y-100685162D01*
X185421398Y-100728619D01*
X185533051Y-100739616D01*
X185533059Y-100739616D01*
X185570384Y-100743292D01*
X185607707Y-100739616D01*
X187090000Y-100739616D01*
X187090000Y-101212677D01*
X187086324Y-101250000D01*
X187090000Y-101287322D01*
X187090000Y-101287332D01*
X187100997Y-101398985D01*
X187122255Y-101469063D01*
X187144454Y-101542246D01*
X187215026Y-101674276D01*
X187247362Y-101713677D01*
X187309999Y-101790001D01*
X187339003Y-101813804D01*
X187427701Y-101902502D01*
X166349541Y-101891973D01*
X166700773Y-101746488D01*
X167115968Y-101469063D01*
X167469063Y-101115968D01*
X167720878Y-100739100D01*
X181713828Y-100739100D01*
X181726088Y-100863582D01*
X181762398Y-100983280D01*
X181821363Y-101093594D01*
X181900715Y-101190285D01*
X181997406Y-101269637D01*
X182107720Y-101328602D01*
X182227418Y-101364912D01*
X182351900Y-101377172D01*
X182497950Y-101374100D01*
X182656700Y-101215350D01*
X182656700Y-100116800D01*
X182910700Y-100116800D01*
X182910700Y-101215350D01*
X183069450Y-101374100D01*
X183215500Y-101377172D01*
X183339982Y-101364912D01*
X183459680Y-101328602D01*
X183569994Y-101269637D01*
X183666685Y-101190285D01*
X183746037Y-101093594D01*
X183805002Y-100983280D01*
X183841312Y-100863582D01*
X183853572Y-100739100D01*
X183850500Y-100275550D01*
X183691750Y-100116800D01*
X182910700Y-100116800D01*
X182656700Y-100116800D01*
X181875650Y-100116800D01*
X181716900Y-100275550D01*
X181713828Y-100739100D01*
X167720878Y-100739100D01*
X167746488Y-100700773D01*
X167937582Y-100239432D01*
X168035000Y-99749676D01*
X168035000Y-99250324D01*
X168033046Y-99240500D01*
X181713828Y-99240500D01*
X181716900Y-99704050D01*
X181875650Y-99862800D01*
X182656700Y-99862800D01*
X182656700Y-98764250D01*
X182497950Y-98605500D01*
X182351900Y-98602428D01*
X182227418Y-98614688D01*
X182107720Y-98650998D01*
X181997406Y-98709963D01*
X181900715Y-98789315D01*
X181821363Y-98886006D01*
X181762398Y-98996320D01*
X181726088Y-99116018D01*
X181713828Y-99240500D01*
X168033046Y-99240500D01*
X167937582Y-98760568D01*
X167746488Y-98299227D01*
X167469063Y-97884032D01*
X167115968Y-97530937D01*
X166700773Y-97253512D01*
X166239432Y-97062418D01*
X165749676Y-96965000D01*
X165250324Y-96965000D01*
X164760568Y-97062418D01*
X164299227Y-97253512D01*
X163884032Y-97530937D01*
X163530937Y-97884032D01*
X163253512Y-98299227D01*
X163158713Y-98528091D01*
X163156847Y-92545000D01*
X182796928Y-92545000D01*
X182809188Y-92669482D01*
X182845498Y-92789180D01*
X182904463Y-92899494D01*
X182983815Y-92996185D01*
X183080506Y-93075537D01*
X183190820Y-93134502D01*
X183310518Y-93170812D01*
X183435000Y-93183072D01*
X183599250Y-93180000D01*
X183758000Y-93021250D01*
X183758000Y-92197000D01*
X182958750Y-92197000D01*
X182800000Y-92355750D01*
X182796928Y-92545000D01*
X163156847Y-92545000D01*
X163140553Y-40322143D01*
X163220000Y-40322143D01*
X163220000Y-84177857D01*
X167040000Y-84177857D01*
X167040000Y-40322143D01*
X163220000Y-40322143D01*
X163140553Y-40322143D01*
X163136214Y-26417592D01*
X163253512Y-26700773D01*
X163530937Y-27115968D01*
X163884032Y-27469063D01*
X164299227Y-27746488D01*
X164760568Y-27937582D01*
X165250324Y-28035000D01*
X165749676Y-28035000D01*
X166239432Y-27937582D01*
X166700773Y-27746488D01*
X167115968Y-27469063D01*
X167469063Y-27115968D01*
X167746488Y-26700773D01*
X167937582Y-26239432D01*
X168017272Y-25838800D01*
X172143428Y-25838800D01*
X172155688Y-25963282D01*
X172191998Y-26082980D01*
X172250963Y-26193294D01*
X172330315Y-26289985D01*
X172427006Y-26369337D01*
X172537320Y-26428302D01*
X172657018Y-26464612D01*
X172781500Y-26476872D01*
X173257750Y-26473800D01*
X173416500Y-26315050D01*
X173416500Y-25114900D01*
X173670500Y-25114900D01*
X173670500Y-26315050D01*
X173829250Y-26473800D01*
X174305500Y-26476872D01*
X174429982Y-26464612D01*
X174549680Y-26428302D01*
X174659994Y-26369337D01*
X174756685Y-26289985D01*
X174836037Y-26193294D01*
X174895002Y-26082980D01*
X174931312Y-25963282D01*
X174943572Y-25838800D01*
X199956428Y-25838800D01*
X199968688Y-25963282D01*
X200004998Y-26082980D01*
X200063963Y-26193294D01*
X200143315Y-26289985D01*
X200240006Y-26369337D01*
X200350320Y-26428302D01*
X200470018Y-26464612D01*
X200594500Y-26476872D01*
X201070750Y-26473800D01*
X201229500Y-26315050D01*
X201229500Y-25114900D01*
X201483500Y-25114900D01*
X201483500Y-26315050D01*
X201642250Y-26473800D01*
X202118500Y-26476872D01*
X202242982Y-26464612D01*
X202362680Y-26428302D01*
X202472994Y-26369337D01*
X202569685Y-26289985D01*
X202649037Y-26193294D01*
X202708002Y-26082980D01*
X202744312Y-25963282D01*
X202756572Y-25838800D01*
X202753500Y-25273650D01*
X202594750Y-25114900D01*
X201483500Y-25114900D01*
X201229500Y-25114900D01*
X200118250Y-25114900D01*
X199959500Y-25273650D01*
X199956428Y-25838800D01*
X174943572Y-25838800D01*
X174940500Y-25273650D01*
X174781750Y-25114900D01*
X173670500Y-25114900D01*
X173416500Y-25114900D01*
X172305250Y-25114900D01*
X172146500Y-25273650D01*
X172143428Y-25838800D01*
X168017272Y-25838800D01*
X168035000Y-25749676D01*
X168035000Y-25250324D01*
X167937582Y-24760568D01*
X167746488Y-24299227D01*
X167638092Y-24137000D01*
X172143428Y-24137000D01*
X172146500Y-24702150D01*
X172305250Y-24860900D01*
X173416500Y-24860900D01*
X173416500Y-23660750D01*
X173670500Y-23660750D01*
X173670500Y-24860900D01*
X174781750Y-24860900D01*
X174940500Y-24702150D01*
X174943572Y-24137000D01*
X199956428Y-24137000D01*
X199959500Y-24702150D01*
X200118250Y-24860900D01*
X201229500Y-24860900D01*
X201229500Y-23660750D01*
X201483500Y-23660750D01*
X201483500Y-24860900D01*
X202594750Y-24860900D01*
X202753500Y-24702150D01*
X202756572Y-24137000D01*
X202744312Y-24012518D01*
X202708002Y-23892820D01*
X202649037Y-23782506D01*
X202569685Y-23685815D01*
X202472994Y-23606463D01*
X202362680Y-23547498D01*
X202242982Y-23511188D01*
X202118500Y-23498928D01*
X201642250Y-23502000D01*
X201483500Y-23660750D01*
X201229500Y-23660750D01*
X201070750Y-23502000D01*
X200594500Y-23498928D01*
X200470018Y-23511188D01*
X200350320Y-23547498D01*
X200240006Y-23606463D01*
X200143315Y-23685815D01*
X200063963Y-23782506D01*
X200004998Y-23892820D01*
X199968688Y-24012518D01*
X199956428Y-24137000D01*
X174943572Y-24137000D01*
X174931312Y-24012518D01*
X174895002Y-23892820D01*
X174836037Y-23782506D01*
X174756685Y-23685815D01*
X174659994Y-23606463D01*
X174549680Y-23547498D01*
X174429982Y-23511188D01*
X174305500Y-23498928D01*
X173829250Y-23502000D01*
X173670500Y-23660750D01*
X173416500Y-23660750D01*
X173257750Y-23502000D01*
X172781500Y-23498928D01*
X172657018Y-23511188D01*
X172537320Y-23547498D01*
X172427006Y-23606463D01*
X172330315Y-23685815D01*
X172250963Y-23782506D01*
X172191998Y-23892820D01*
X172155688Y-24012518D01*
X172143428Y-24137000D01*
X167638092Y-24137000D01*
X167469063Y-23884032D01*
X167115968Y-23530937D01*
X166747898Y-23285000D01*
X208002102Y-23285000D01*
X207634032Y-23530937D01*
%TA.AperFunction,Conductor*%
D21*
G36*
X207634032Y-23530937D02*
G01*
X207280937Y-23884032D01*
X207003512Y-24299227D01*
X206812418Y-24760568D01*
X206715000Y-25250324D01*
X206715000Y-25749676D01*
X206812418Y-26239432D01*
X207003512Y-26700773D01*
X207280937Y-27115968D01*
X207634032Y-27469063D01*
X208049227Y-27746488D01*
X208510568Y-27937582D01*
X209000324Y-28035000D01*
X209499676Y-28035000D01*
X209989432Y-27937582D01*
X210450773Y-27746488D01*
X210865968Y-27469063D01*
X211219063Y-27115968D01*
X211496488Y-26700773D01*
X211687582Y-26239432D01*
X211713883Y-26107207D01*
X211691216Y-98778837D01*
X211687582Y-98760568D01*
X211496488Y-98299227D01*
X211219063Y-97884032D01*
X210865968Y-97530937D01*
X210450773Y-97253512D01*
X209989432Y-97062418D01*
X209499676Y-96965000D01*
X209000324Y-96965000D01*
X208510568Y-97062418D01*
X208049227Y-97253512D01*
X207634032Y-97530937D01*
X207280937Y-97884032D01*
X207003512Y-98299227D01*
X206812418Y-98760568D01*
X206715000Y-99250324D01*
X206715000Y-99749676D01*
X206812418Y-100239432D01*
X207003512Y-100700773D01*
X207280937Y-101115968D01*
X207634032Y-101469063D01*
X208049227Y-101746488D01*
X208451229Y-101913003D01*
X195254802Y-101906411D01*
X195511008Y-101650206D01*
X195540001Y-101626412D01*
X195563795Y-101597419D01*
X195563799Y-101597415D01*
X195634973Y-101510688D01*
X195646031Y-101490001D01*
X195705546Y-101378658D01*
X195749003Y-101235397D01*
X195760000Y-101123744D01*
X195760000Y-101123735D01*
X195763676Y-101086412D01*
X195760000Y-101049089D01*
X195760000Y-84737322D01*
X195763676Y-84699999D01*
X195760000Y-84662676D01*
X195760000Y-84662667D01*
X195749003Y-84551014D01*
X195705546Y-84407753D01*
X195634974Y-84275724D01*
X195540001Y-84159999D01*
X195510998Y-84136197D01*
X195314027Y-83939226D01*
X195290023Y-83909977D01*
X195261026Y-83886180D01*
X194363848Y-82989002D01*
X194340045Y-82959999D01*
X194224320Y-82865026D01*
X194092291Y-82794454D01*
X193949030Y-82750997D01*
X193837377Y-82740000D01*
X193837366Y-82740000D01*
X193800044Y-82736324D01*
X193762722Y-82740000D01*
X187260000Y-82740000D01*
X187260000Y-35087325D01*
X187263676Y-35050000D01*
X187260000Y-35012675D01*
X187260000Y-35012667D01*
X187249003Y-34901014D01*
X187205546Y-34757753D01*
X187134974Y-34625724D01*
X187040001Y-34509999D01*
X187011004Y-34486202D01*
X182570086Y-30045285D01*
X182573002Y-30045572D01*
X182827002Y-30045572D01*
X182950002Y-30033458D01*
X183073001Y-30045572D01*
X183327001Y-30045572D01*
X183450001Y-30033458D01*
X183573000Y-30045572D01*
X183827000Y-30045572D01*
X183951482Y-30033312D01*
X183953861Y-30032590D01*
X184041251Y-30042500D01*
X184104627Y-29979124D01*
X184181494Y-29938037D01*
X184200000Y-29922850D01*
X184218506Y-29938037D01*
X184295377Y-29979126D01*
X184358751Y-30042500D01*
X184446139Y-30032590D01*
X184448518Y-30033312D01*
X184573000Y-30045572D01*
X184827000Y-30045572D01*
X184950001Y-30033458D01*
X185073002Y-30045572D01*
X185327002Y-30045572D01*
X185450002Y-30033458D01*
X185573001Y-30045572D01*
X185827001Y-30045572D01*
X185950001Y-30033458D01*
X186073000Y-30045572D01*
X186327000Y-30045572D01*
X186451482Y-30033312D01*
X186453862Y-30032590D01*
X186541252Y-30042500D01*
X186604629Y-29979123D01*
X186681494Y-29938037D01*
X186700000Y-29922850D01*
X186718506Y-29938037D01*
X186795379Y-29979127D01*
X186858752Y-30042500D01*
X186946139Y-30032590D01*
X186948518Y-30033312D01*
X187073000Y-30045572D01*
X187327000Y-30045572D01*
X187450001Y-30033458D01*
X187573002Y-30045572D01*
X187827002Y-30045572D01*
X187950002Y-30033458D01*
X188073001Y-30045572D01*
X188327001Y-30045572D01*
X188450001Y-30033458D01*
X188573000Y-30045572D01*
X188827000Y-30045572D01*
X188951482Y-30033312D01*
X188953862Y-30032590D01*
X189041252Y-30042500D01*
X189104629Y-29979123D01*
X189181494Y-29938037D01*
X189200001Y-29922849D01*
X189218507Y-29938037D01*
X189295378Y-29979126D01*
X189358752Y-30042500D01*
X189446140Y-30032590D01*
X189448519Y-30033312D01*
X189573001Y-30045572D01*
X189827001Y-30045572D01*
X189950002Y-30033458D01*
X190073002Y-30045572D01*
X190327002Y-30045572D01*
X190450002Y-30033458D01*
X190573001Y-30045572D01*
X190827001Y-30045572D01*
X190950001Y-30033458D01*
X191073000Y-30045572D01*
X191327000Y-30045572D01*
X191451482Y-30033312D01*
X191453862Y-30032590D01*
X191541252Y-30042500D01*
X191604629Y-29979123D01*
X191681494Y-29938037D01*
X191700001Y-29922849D01*
X191718507Y-29938037D01*
X191795378Y-29979126D01*
X191858752Y-30042500D01*
X191946140Y-30032590D01*
X191948519Y-30033312D01*
X192073001Y-30045572D01*
X192327001Y-30045572D01*
X192450002Y-30033458D01*
X192573002Y-30045572D01*
X192827002Y-30045572D01*
X192950002Y-30033458D01*
X193073001Y-30045572D01*
X193327001Y-30045572D01*
X193450001Y-30033458D01*
X193573000Y-30045572D01*
X193827000Y-30045572D01*
X193951482Y-30033312D01*
X193953862Y-30032590D01*
X194041252Y-30042500D01*
X194104629Y-29979123D01*
X194181494Y-29938037D01*
X194200001Y-29922849D01*
X194218507Y-29938037D01*
X194295378Y-29979126D01*
X194358752Y-30042500D01*
X194446140Y-30032590D01*
X194448519Y-30033312D01*
X194573001Y-30045572D01*
X194827001Y-30045572D01*
X194950002Y-30033458D01*
X195073002Y-30045572D01*
X195327002Y-30045572D01*
X195450002Y-30033458D01*
X195573001Y-30045572D01*
X195827001Y-30045572D01*
X195950001Y-30033458D01*
X196073000Y-30045572D01*
X196327000Y-30045572D01*
X196451482Y-30033312D01*
X196453862Y-30032590D01*
X196541252Y-30042500D01*
X196604629Y-29979123D01*
X196681494Y-29938037D01*
X196700001Y-29922849D01*
X196718507Y-29938037D01*
X196795378Y-29979126D01*
X196858752Y-30042500D01*
X196946140Y-30032590D01*
X196948519Y-30033312D01*
X197073001Y-30045572D01*
X197327001Y-30045572D01*
X197450002Y-30033458D01*
X197573002Y-30045572D01*
X197827002Y-30045572D01*
X197950002Y-30033458D01*
X198073001Y-30045572D01*
X198327001Y-30045572D01*
X198450001Y-30033458D01*
X198573000Y-30045572D01*
X198827000Y-30045572D01*
X198951482Y-30033312D01*
X198953862Y-30032590D01*
X199041252Y-30042500D01*
X199104629Y-29979123D01*
X199181494Y-29938037D01*
X199200001Y-29922849D01*
X199218507Y-29938037D01*
X199295378Y-29979126D01*
X199358752Y-30042500D01*
X199446140Y-30032590D01*
X199448519Y-30033312D01*
X199573001Y-30045572D01*
X199827001Y-30045572D01*
X199951483Y-30033312D01*
X200071181Y-29997002D01*
X200181495Y-29938037D01*
X200278186Y-29858685D01*
X200357538Y-29761994D01*
X200416503Y-29651680D01*
X200452813Y-29531982D01*
X200465073Y-29407500D01*
X200465073Y-28594700D01*
X200452813Y-28470218D01*
X200416503Y-28350520D01*
X200357538Y-28240206D01*
X200278186Y-28143515D01*
X200181495Y-28064163D01*
X200071181Y-28005198D01*
X199951483Y-27968888D01*
X199827001Y-27956628D01*
X199573001Y-27956628D01*
X199448519Y-27968888D01*
X199446140Y-27969610D01*
X199358752Y-27959700D01*
X199295378Y-28023074D01*
X199218507Y-28064163D01*
X199200001Y-28079351D01*
X199181494Y-28064163D01*
X199104629Y-28023077D01*
X199041252Y-27959700D01*
X198953862Y-27969610D01*
X198951482Y-27968888D01*
X198827000Y-27956628D01*
X198573000Y-27956628D01*
X198450001Y-27968742D01*
X198327001Y-27956628D01*
X198073001Y-27956628D01*
X197950002Y-27968742D01*
X197827002Y-27956628D01*
X197573002Y-27956628D01*
X197450002Y-27968742D01*
X197327001Y-27956628D01*
X197073001Y-27956628D01*
X196948519Y-27968888D01*
X196946140Y-27969610D01*
X196858752Y-27959700D01*
X196795378Y-28023074D01*
X196718507Y-28064163D01*
X196700001Y-28079351D01*
X196681494Y-28064163D01*
X196604629Y-28023077D01*
X196541252Y-27959700D01*
X196453862Y-27969610D01*
X196451482Y-27968888D01*
X196327000Y-27956628D01*
X196073000Y-27956628D01*
X195950001Y-27968742D01*
X195827001Y-27956628D01*
X195573001Y-27956628D01*
X195450002Y-27968742D01*
X195327002Y-27956628D01*
X195073002Y-27956628D01*
X194950002Y-27968742D01*
X194827001Y-27956628D01*
X194573001Y-27956628D01*
X194448519Y-27968888D01*
X194446140Y-27969610D01*
X194358752Y-27959700D01*
X194295378Y-28023074D01*
X194218507Y-28064163D01*
X194200001Y-28079351D01*
X194181494Y-28064163D01*
X194104629Y-28023077D01*
X194041252Y-27959700D01*
X193953862Y-27969610D01*
X193951482Y-27968888D01*
X193827000Y-27956628D01*
X193573000Y-27956628D01*
X193450001Y-27968742D01*
X193327001Y-27956628D01*
X193073001Y-27956628D01*
X192950002Y-27968742D01*
X192827002Y-27956628D01*
X192573002Y-27956628D01*
X192450002Y-27968742D01*
X192327001Y-27956628D01*
X192073001Y-27956628D01*
X191948519Y-27968888D01*
X191946140Y-27969610D01*
X191858752Y-27959700D01*
X191795378Y-28023074D01*
X191718507Y-28064163D01*
X191700001Y-28079351D01*
X191681494Y-28064163D01*
X191604629Y-28023077D01*
X191541252Y-27959700D01*
X191453862Y-27969610D01*
X191451482Y-27968888D01*
X191327000Y-27956628D01*
X191073000Y-27956628D01*
X190950001Y-27968742D01*
X190827001Y-27956628D01*
X190573001Y-27956628D01*
X190450002Y-27968742D01*
X190327002Y-27956628D01*
X190073002Y-27956628D01*
X189950002Y-27968742D01*
X189827001Y-27956628D01*
X189573001Y-27956628D01*
X189448519Y-27968888D01*
X189446140Y-27969610D01*
X189358752Y-27959700D01*
X189295378Y-28023074D01*
X189218507Y-28064163D01*
X189200001Y-28079351D01*
X189181494Y-28064163D01*
X189104629Y-28023077D01*
X189041252Y-27959700D01*
X188953862Y-27969610D01*
X188951482Y-27968888D01*
X188827000Y-27956628D01*
X188573000Y-27956628D01*
X188450001Y-27968742D01*
X188327001Y-27956628D01*
X188073001Y-27956628D01*
X187950002Y-27968742D01*
X187827002Y-27956628D01*
X187573002Y-27956628D01*
X187450001Y-27968742D01*
X187327000Y-27956628D01*
X187073000Y-27956628D01*
X186948518Y-27968888D01*
X186946139Y-27969610D01*
X186858752Y-27959700D01*
X186795379Y-28023073D01*
X186718506Y-28064163D01*
X186700000Y-28079350D01*
X186681494Y-28064163D01*
X186604629Y-28023077D01*
X186541252Y-27959700D01*
X186453862Y-27969610D01*
X186451482Y-27968888D01*
X186327000Y-27956628D01*
X186073000Y-27956628D01*
X185950001Y-27968742D01*
X185827001Y-27956628D01*
X185573001Y-27956628D01*
X185450002Y-27968742D01*
X185327002Y-27956628D01*
X185073002Y-27956628D01*
X184950001Y-27968742D01*
X184827000Y-27956628D01*
X184573000Y-27956628D01*
X184448518Y-27968888D01*
X184446139Y-27969610D01*
X184358751Y-27959700D01*
X184295377Y-28023074D01*
X184218506Y-28064163D01*
X184200000Y-28079350D01*
X184181494Y-28064163D01*
X184104627Y-28023076D01*
X184041251Y-27959700D01*
X183953861Y-27969610D01*
X183951482Y-27968888D01*
X183827000Y-27956628D01*
X183573000Y-27956628D01*
X183450001Y-27968742D01*
X183327001Y-27956628D01*
X183073001Y-27956628D01*
X182950002Y-27968742D01*
X182827002Y-27956628D01*
X182573002Y-27956628D01*
X182450001Y-27968742D01*
X182327000Y-27956628D01*
X182073000Y-27956628D01*
X181950001Y-27968742D01*
X181827001Y-27956628D01*
X181573001Y-27956628D01*
X181450001Y-27968742D01*
X181327000Y-27956628D01*
X181073000Y-27956628D01*
X180950001Y-27968742D01*
X180827001Y-27956628D01*
X180573001Y-27956628D01*
X180450002Y-27968742D01*
X180327002Y-27956628D01*
X180073002Y-27956628D01*
X179950001Y-27968742D01*
X179827000Y-27956628D01*
X179573000Y-27956628D01*
X179450001Y-27968742D01*
X179327001Y-27956628D01*
X179073001Y-27956628D01*
X178950001Y-27968742D01*
X178827000Y-27956628D01*
X178573000Y-27956628D01*
X178450001Y-27968742D01*
X178327001Y-27956628D01*
X178073001Y-27956628D01*
X177950002Y-27968742D01*
X177827002Y-27956628D01*
X177573002Y-27956628D01*
X177450001Y-27968742D01*
X177327000Y-27956628D01*
X177073000Y-27956628D01*
X176950001Y-27968742D01*
X176827001Y-27956628D01*
X176573001Y-27956628D01*
X176450002Y-27968742D01*
X176327002Y-27956628D01*
X176073002Y-27956628D01*
X175950002Y-27968742D01*
X175827001Y-27956628D01*
X175573001Y-27956628D01*
X175448519Y-27968888D01*
X175446140Y-27969610D01*
X175358752Y-27959700D01*
X175295378Y-28023074D01*
X175218507Y-28064163D01*
X175178526Y-28096974D01*
X175041252Y-27959700D01*
X174934830Y-27971768D01*
X174815957Y-28010694D01*
X174706962Y-28072062D01*
X174612033Y-28153515D01*
X174534820Y-28251923D01*
X174478289Y-28363504D01*
X174444612Y-28483969D01*
X174435083Y-28608689D01*
X174438002Y-28715350D01*
X174596752Y-28874100D01*
X174934929Y-28874100D01*
X174934929Y-29128100D01*
X174596752Y-29128100D01*
X174438002Y-29286850D01*
X174435083Y-29393511D01*
X174444612Y-29518231D01*
X174478289Y-29638696D01*
X174534820Y-29750277D01*
X174612033Y-29848685D01*
X174706962Y-29930138D01*
X174815957Y-29991506D01*
X174934830Y-30030432D01*
X175041252Y-30042500D01*
X175178526Y-29905226D01*
X175218507Y-29938037D01*
X175295378Y-29979126D01*
X175358752Y-30042500D01*
X175390002Y-30038956D01*
X175390002Y-30260210D01*
X175386083Y-30299998D01*
X175390002Y-30339786D01*
X175390002Y-30339788D01*
X175401722Y-30458785D01*
X175448039Y-30611470D01*
X175448040Y-30611471D01*
X175523253Y-30752187D01*
X175554287Y-30790002D01*
X175624474Y-30875526D01*
X175655390Y-30900898D01*
X181990001Y-37235510D01*
X181990000Y-87960212D01*
X181986081Y-88000000D01*
X181990000Y-88039788D01*
X181990000Y-88039790D01*
X182001720Y-88158787D01*
X182048037Y-88311472D01*
X182048038Y-88311473D01*
X182123251Y-88452189D01*
X182124731Y-88453992D01*
X182224472Y-88575528D01*
X182255388Y-88600900D01*
X182549100Y-88894612D01*
X182574472Y-88925528D01*
X182697811Y-89026749D01*
X182838527Y-89101963D01*
X182843212Y-89103384D01*
X182823992Y-89166744D01*
X182806928Y-89339998D01*
X182806928Y-90240002D01*
X182823992Y-90413256D01*
X182874528Y-90579852D01*
X182956595Y-90733387D01*
X183067038Y-90867962D01*
X183201613Y-90978405D01*
X183230041Y-90993600D01*
X183190820Y-91005498D01*
X183080506Y-91064463D01*
X182983815Y-91143815D01*
X182904463Y-91240506D01*
X182845498Y-91350820D01*
X182809188Y-91470518D01*
X182796928Y-91595000D01*
X182800000Y-91784250D01*
X182958750Y-91943000D01*
X183758000Y-91943000D01*
X183758000Y-91923000D01*
X184012000Y-91923000D01*
X184012000Y-91943000D01*
X184032000Y-91943000D01*
X184032000Y-92197000D01*
X184012000Y-92197000D01*
X184012000Y-93021250D01*
X184157974Y-93167224D01*
X184139002Y-93186197D01*
X184109999Y-93209999D01*
X184056633Y-93275026D01*
X184015026Y-93325724D01*
X183975860Y-93398998D01*
X183944454Y-93457754D01*
X183900997Y-93601015D01*
X183890000Y-93712668D01*
X183890000Y-93712678D01*
X183886324Y-93750000D01*
X183890000Y-93787323D01*
X183890001Y-95862668D01*
X183886324Y-95900000D01*
X183900998Y-96048985D01*
X183944454Y-96192246D01*
X184015026Y-96324276D01*
X184076339Y-96398985D01*
X184110000Y-96440001D01*
X184138998Y-96463799D01*
X184162662Y-96487463D01*
X184102399Y-96481528D01*
X183797599Y-96481528D01*
X183673117Y-96493788D01*
X183553419Y-96530098D01*
X183443105Y-96589063D01*
X183346414Y-96668415D01*
X183267062Y-96765106D01*
X183208097Y-96875420D01*
X183171787Y-96995118D01*
X183159527Y-97119600D01*
X183159527Y-97780000D01*
X183171787Y-97904482D01*
X183189999Y-97964520D01*
X183189999Y-98321909D01*
X183186323Y-98359232D01*
X183189999Y-98396555D01*
X183189999Y-98396564D01*
X183200996Y-98508217D01*
X183230008Y-98603857D01*
X183215500Y-98602428D01*
X183069450Y-98605500D01*
X182910700Y-98764250D01*
X182910700Y-99862800D01*
X183691750Y-99862800D01*
X183850500Y-99704050D01*
X183852933Y-99336967D01*
X185006584Y-100490618D01*
X185030383Y-100519617D01*
X185146108Y-100614590D01*
X185278137Y-100685162D01*
X185421398Y-100728619D01*
X185533051Y-100739616D01*
X185533059Y-100739616D01*
X185570384Y-100743292D01*
X185607707Y-100739616D01*
X187090000Y-100739616D01*
X187090000Y-101212677D01*
X187086324Y-101250000D01*
X187090000Y-101287322D01*
X187090000Y-101287332D01*
X187100997Y-101398985D01*
X187122255Y-101469063D01*
X187144454Y-101542246D01*
X187215026Y-101674276D01*
X187247362Y-101713677D01*
X187309999Y-101790001D01*
X187339003Y-101813804D01*
X187427701Y-101902502D01*
X166349541Y-101891973D01*
X166700773Y-101746488D01*
X167115968Y-101469063D01*
X167469063Y-101115968D01*
X167720878Y-100739100D01*
X181713828Y-100739100D01*
X181726088Y-100863582D01*
X181762398Y-100983280D01*
X181821363Y-101093594D01*
X181900715Y-101190285D01*
X181997406Y-101269637D01*
X182107720Y-101328602D01*
X182227418Y-101364912D01*
X182351900Y-101377172D01*
X182497950Y-101374100D01*
X182656700Y-101215350D01*
X182656700Y-100116800D01*
X182910700Y-100116800D01*
X182910700Y-101215350D01*
X183069450Y-101374100D01*
X183215500Y-101377172D01*
X183339982Y-101364912D01*
X183459680Y-101328602D01*
X183569994Y-101269637D01*
X183666685Y-101190285D01*
X183746037Y-101093594D01*
X183805002Y-100983280D01*
X183841312Y-100863582D01*
X183853572Y-100739100D01*
X183850500Y-100275550D01*
X183691750Y-100116800D01*
X182910700Y-100116800D01*
X182656700Y-100116800D01*
X181875650Y-100116800D01*
X181716900Y-100275550D01*
X181713828Y-100739100D01*
X167720878Y-100739100D01*
X167746488Y-100700773D01*
X167937582Y-100239432D01*
X168035000Y-99749676D01*
X168035000Y-99250324D01*
X168033046Y-99240500D01*
X181713828Y-99240500D01*
X181716900Y-99704050D01*
X181875650Y-99862800D01*
X182656700Y-99862800D01*
X182656700Y-98764250D01*
X182497950Y-98605500D01*
X182351900Y-98602428D01*
X182227418Y-98614688D01*
X182107720Y-98650998D01*
X181997406Y-98709963D01*
X181900715Y-98789315D01*
X181821363Y-98886006D01*
X181762398Y-98996320D01*
X181726088Y-99116018D01*
X181713828Y-99240500D01*
X168033046Y-99240500D01*
X167937582Y-98760568D01*
X167746488Y-98299227D01*
X167469063Y-97884032D01*
X167115968Y-97530937D01*
X166700773Y-97253512D01*
X166239432Y-97062418D01*
X165749676Y-96965000D01*
X165250324Y-96965000D01*
X164760568Y-97062418D01*
X164299227Y-97253512D01*
X163884032Y-97530937D01*
X163530937Y-97884032D01*
X163253512Y-98299227D01*
X163158713Y-98528091D01*
X163156847Y-92545000D01*
X182796928Y-92545000D01*
X182809188Y-92669482D01*
X182845498Y-92789180D01*
X182904463Y-92899494D01*
X182983815Y-92996185D01*
X183080506Y-93075537D01*
X183190820Y-93134502D01*
X183310518Y-93170812D01*
X183435000Y-93183072D01*
X183599250Y-93180000D01*
X183758000Y-93021250D01*
X183758000Y-92197000D01*
X182958750Y-92197000D01*
X182800000Y-92355750D01*
X182796928Y-92545000D01*
X163156847Y-92545000D01*
X163140553Y-40322143D01*
X163220000Y-40322143D01*
X163220000Y-84177857D01*
X167040000Y-84177857D01*
X167040000Y-40322143D01*
X163220000Y-40322143D01*
X163140553Y-40322143D01*
X163136214Y-26417592D01*
X163253512Y-26700773D01*
X163530937Y-27115968D01*
X163884032Y-27469063D01*
X164299227Y-27746488D01*
X164760568Y-27937582D01*
X165250324Y-28035000D01*
X165749676Y-28035000D01*
X166239432Y-27937582D01*
X166700773Y-27746488D01*
X167115968Y-27469063D01*
X167469063Y-27115968D01*
X167746488Y-26700773D01*
X167937582Y-26239432D01*
X168017272Y-25838800D01*
X172143428Y-25838800D01*
X172155688Y-25963282D01*
X172191998Y-26082980D01*
X172250963Y-26193294D01*
X172330315Y-26289985D01*
X172427006Y-26369337D01*
X172537320Y-26428302D01*
X172657018Y-26464612D01*
X172781500Y-26476872D01*
X173257750Y-26473800D01*
X173416500Y-26315050D01*
X173416500Y-25114900D01*
X173670500Y-25114900D01*
X173670500Y-26315050D01*
X173829250Y-26473800D01*
X174305500Y-26476872D01*
X174429982Y-26464612D01*
X174549680Y-26428302D01*
X174659994Y-26369337D01*
X174756685Y-26289985D01*
X174836037Y-26193294D01*
X174895002Y-26082980D01*
X174931312Y-25963282D01*
X174943572Y-25838800D01*
X199956428Y-25838800D01*
X199968688Y-25963282D01*
X200004998Y-26082980D01*
X200063963Y-26193294D01*
X200143315Y-26289985D01*
X200240006Y-26369337D01*
X200350320Y-26428302D01*
X200470018Y-26464612D01*
X200594500Y-26476872D01*
X201070750Y-26473800D01*
X201229500Y-26315050D01*
X201229500Y-25114900D01*
X201483500Y-25114900D01*
X201483500Y-26315050D01*
X201642250Y-26473800D01*
X202118500Y-26476872D01*
X202242982Y-26464612D01*
X202362680Y-26428302D01*
X202472994Y-26369337D01*
X202569685Y-26289985D01*
X202649037Y-26193294D01*
X202708002Y-26082980D01*
X202744312Y-25963282D01*
X202756572Y-25838800D01*
X202753500Y-25273650D01*
X202594750Y-25114900D01*
X201483500Y-25114900D01*
X201229500Y-25114900D01*
X200118250Y-25114900D01*
X199959500Y-25273650D01*
X199956428Y-25838800D01*
X174943572Y-25838800D01*
X174940500Y-25273650D01*
X174781750Y-25114900D01*
X173670500Y-25114900D01*
X173416500Y-25114900D01*
X172305250Y-25114900D01*
X172146500Y-25273650D01*
X172143428Y-25838800D01*
X168017272Y-25838800D01*
X168035000Y-25749676D01*
X168035000Y-25250324D01*
X167937582Y-24760568D01*
X167746488Y-24299227D01*
X167638092Y-24137000D01*
X172143428Y-24137000D01*
X172146500Y-24702150D01*
X172305250Y-24860900D01*
X173416500Y-24860900D01*
X173416500Y-23660750D01*
X173670500Y-23660750D01*
X173670500Y-24860900D01*
X174781750Y-24860900D01*
X174940500Y-24702150D01*
X174943572Y-24137000D01*
X199956428Y-24137000D01*
X199959500Y-24702150D01*
X200118250Y-24860900D01*
X201229500Y-24860900D01*
X201229500Y-23660750D01*
X201483500Y-23660750D01*
X201483500Y-24860900D01*
X202594750Y-24860900D01*
X202753500Y-24702150D01*
X202756572Y-24137000D01*
X202744312Y-24012518D01*
X202708002Y-23892820D01*
X202649037Y-23782506D01*
X202569685Y-23685815D01*
X202472994Y-23606463D01*
X202362680Y-23547498D01*
X202242982Y-23511188D01*
X202118500Y-23498928D01*
X201642250Y-23502000D01*
X201483500Y-23660750D01*
X201229500Y-23660750D01*
X201070750Y-23502000D01*
X200594500Y-23498928D01*
X200470018Y-23511188D01*
X200350320Y-23547498D01*
X200240006Y-23606463D01*
X200143315Y-23685815D01*
X200063963Y-23782506D01*
X200004998Y-23892820D01*
X199968688Y-24012518D01*
X199956428Y-24137000D01*
X174943572Y-24137000D01*
X174931312Y-24012518D01*
X174895002Y-23892820D01*
X174836037Y-23782506D01*
X174756685Y-23685815D01*
X174659994Y-23606463D01*
X174549680Y-23547498D01*
X174429982Y-23511188D01*
X174305500Y-23498928D01*
X173829250Y-23502000D01*
X173670500Y-23660750D01*
X173416500Y-23660750D01*
X173257750Y-23502000D01*
X172781500Y-23498928D01*
X172657018Y-23511188D01*
X172537320Y-23547498D01*
X172427006Y-23606463D01*
X172330315Y-23685815D01*
X172250963Y-23782506D01*
X172191998Y-23892820D01*
X172155688Y-24012518D01*
X172143428Y-24137000D01*
X167638092Y-24137000D01*
X167469063Y-23884032D01*
X167115968Y-23530937D01*
X166747898Y-23285000D01*
X208002102Y-23285000D01*
X207634032Y-23530937D01*
G37*
%TD.AperFunction*%
D20*
X193640001Y-100490000D02*
X190684521Y-100490000D01*
X190683100Y-100275550D01*
X190524350Y-100116800D01*
X189743300Y-100116800D01*
X189743300Y-100136800D01*
X189489300Y-100136800D01*
X189489300Y-100116800D01*
X189469300Y-100116800D01*
X189469300Y-99862800D01*
X189489300Y-99862800D01*
X189489300Y-99842800D01*
X189743300Y-99842800D01*
X189743300Y-99862800D01*
X190524350Y-99862800D01*
X190683100Y-99704050D01*
X190684055Y-99560011D01*
X193312667Y-99560011D01*
X193349989Y-99563687D01*
X193387311Y-99560011D01*
X193387322Y-99560011D01*
X193498975Y-99549014D01*
X193640001Y-99506235D01*
X193640001Y-100490000D01*
%TA.AperFunction,Conductor*%
D21*
G36*
X193640001Y-100490000D02*
G01*
X190684521Y-100490000D01*
X190683100Y-100275550D01*
X190524350Y-100116800D01*
X189743300Y-100116800D01*
X189743300Y-100136800D01*
X189489300Y-100136800D01*
X189489300Y-100116800D01*
X189469300Y-100116800D01*
X189469300Y-99862800D01*
X189489300Y-99862800D01*
X189489300Y-99842800D01*
X189743300Y-99842800D01*
X189743300Y-99862800D01*
X190524350Y-99862800D01*
X190683100Y-99704050D01*
X190684055Y-99560011D01*
X193312667Y-99560011D01*
X193349989Y-99563687D01*
X193387311Y-99560011D01*
X193387322Y-99560011D01*
X193498975Y-99549014D01*
X193640001Y-99506235D01*
X193640001Y-100490000D01*
G37*
%TD.AperFunction*%
D20*
X192340001Y-86414803D02*
X192340000Y-97585199D01*
X192335199Y-97590000D01*
X189091851Y-97590000D01*
X189078651Y-97576800D01*
X188303001Y-97576800D01*
X188303001Y-97322800D01*
X189078651Y-97322800D01*
X189237401Y-97164050D01*
X189240281Y-97135234D01*
X189231075Y-97010490D01*
X189197709Y-96889938D01*
X189141465Y-96778212D01*
X189064506Y-96679606D01*
X188969788Y-96597908D01*
X188860952Y-96536258D01*
X188742179Y-96497026D01*
X188634151Y-96484600D01*
X188497199Y-96621552D01*
X188469786Y-96597908D01*
X188360950Y-96536258D01*
X188296083Y-96514832D01*
X188265851Y-96484600D01*
X188210000Y-96491024D01*
X188210000Y-96042888D01*
X188218387Y-96038405D01*
X188318750Y-95956039D01*
X188419113Y-96038405D01*
X188572648Y-96120472D01*
X188739244Y-96171008D01*
X188912498Y-96188072D01*
X189437502Y-96188072D01*
X189610756Y-96171008D01*
X189777352Y-96120472D01*
X189930887Y-96038405D01*
X190012137Y-95971724D01*
X190036315Y-96001185D01*
X190133006Y-96080537D01*
X190243320Y-96139502D01*
X190363018Y-96175812D01*
X190487500Y-96188072D01*
X190714250Y-96185000D01*
X190873000Y-96026250D01*
X190873000Y-94977000D01*
X191127000Y-94977000D01*
X191127000Y-96026250D01*
X191285750Y-96185000D01*
X191512500Y-96188072D01*
X191636982Y-96175812D01*
X191756680Y-96139502D01*
X191866994Y-96080537D01*
X191963685Y-96001185D01*
X192043037Y-95904494D01*
X192102002Y-95794180D01*
X192138312Y-95674482D01*
X192150572Y-95550000D01*
X192147500Y-95135750D01*
X191988750Y-94977000D01*
X191127000Y-94977000D01*
X190873000Y-94977000D01*
X190853000Y-94977000D01*
X190853000Y-94723000D01*
X190873000Y-94723000D01*
X190873000Y-93673750D01*
X191127000Y-93673750D01*
X191127000Y-94723000D01*
X191988750Y-94723000D01*
X192147500Y-94564250D01*
X192150572Y-94150000D01*
X192138312Y-94025518D01*
X192102002Y-93905820D01*
X192043037Y-93795506D01*
X191963685Y-93698815D01*
X191866994Y-93619463D01*
X191756680Y-93560498D01*
X191636982Y-93524188D01*
X191512500Y-93511928D01*
X191285750Y-93515000D01*
X191127000Y-93673750D01*
X190873000Y-93673750D01*
X190714250Y-93515000D01*
X190487500Y-93511928D01*
X190363018Y-93524188D01*
X190243320Y-93560498D01*
X190133006Y-93619463D01*
X190036315Y-93698815D01*
X190012137Y-93728276D01*
X189930887Y-93661595D01*
X189777352Y-93579528D01*
X189610756Y-93528992D01*
X189437502Y-93511928D01*
X188912498Y-93511928D01*
X188739244Y-93528992D01*
X188605126Y-93569676D01*
X188861003Y-93313799D01*
X188890001Y-93290001D01*
X188954958Y-93210850D01*
X189014250Y-93210000D01*
X189173000Y-93051250D01*
X189173000Y-91977000D01*
X189427000Y-91977000D01*
X189427000Y-93051250D01*
X189585750Y-93210000D01*
X189800000Y-93213072D01*
X189924482Y-93200812D01*
X190044180Y-93164502D01*
X190154494Y-93105537D01*
X190251185Y-93026185D01*
X190330537Y-92929494D01*
X190389502Y-92819180D01*
X190425812Y-92699482D01*
X190438072Y-92575000D01*
X190435000Y-92135750D01*
X190276250Y-91977000D01*
X189427000Y-91977000D01*
X189173000Y-91977000D01*
X189153000Y-91977000D01*
X189153000Y-91723000D01*
X189173000Y-91723000D01*
X189173000Y-89927000D01*
X189427000Y-89927000D01*
X189427000Y-91723000D01*
X190276250Y-91723000D01*
X190435000Y-91564250D01*
X190438072Y-91125000D01*
X190425812Y-91000518D01*
X190389502Y-90880820D01*
X190359665Y-90825000D01*
X190389502Y-90769180D01*
X190425812Y-90649482D01*
X190438072Y-90525000D01*
X190435000Y-90085750D01*
X190276250Y-89927000D01*
X189427000Y-89927000D01*
X189173000Y-89927000D01*
X189153000Y-89927000D01*
X189153000Y-89673000D01*
X189173000Y-89673000D01*
X189173000Y-88598750D01*
X189427000Y-88598750D01*
X189427000Y-89673000D01*
X190276250Y-89673000D01*
X190435000Y-89514250D01*
X190438072Y-89075000D01*
X190425812Y-88950518D01*
X190389502Y-88830820D01*
X190330537Y-88720506D01*
X190251185Y-88623815D01*
X190154494Y-88544463D01*
X190044180Y-88485498D01*
X189924482Y-88449188D01*
X189800000Y-88436928D01*
X189585750Y-88440000D01*
X189427000Y-88598750D01*
X189173000Y-88598750D01*
X189014250Y-88440000D01*
X188800000Y-88436928D01*
X188675518Y-88449188D01*
X188555820Y-88485498D01*
X188445506Y-88544463D01*
X188348815Y-88623815D01*
X188283342Y-88703594D01*
X188277962Y-88697038D01*
X188143386Y-88586595D01*
X187989850Y-88504528D01*
X187823254Y-88453992D01*
X187650000Y-88436928D01*
X187150000Y-88436928D01*
X186976746Y-88453992D01*
X186810150Y-88504528D01*
X186656614Y-88586595D01*
X186588361Y-88642608D01*
X186538387Y-88601595D01*
X186384852Y-88519528D01*
X186218256Y-88468992D01*
X186045002Y-88451928D01*
X185610000Y-88451928D01*
X185610000Y-87963072D01*
X186025002Y-87963072D01*
X186198256Y-87946008D01*
X186364852Y-87895472D01*
X186518387Y-87813405D01*
X186575000Y-87766944D01*
X186631613Y-87813405D01*
X186785148Y-87895472D01*
X186951744Y-87946008D01*
X187124998Y-87963072D01*
X187650002Y-87963072D01*
X187823256Y-87946008D01*
X187989852Y-87895472D01*
X188143387Y-87813405D01*
X188224637Y-87746724D01*
X188248815Y-87776185D01*
X188345506Y-87855537D01*
X188455820Y-87914502D01*
X188575518Y-87950812D01*
X188700000Y-87963072D01*
X188926750Y-87960000D01*
X189085500Y-87801250D01*
X189085500Y-86752000D01*
X189339500Y-86752000D01*
X189339500Y-87801250D01*
X189498250Y-87960000D01*
X189725000Y-87963072D01*
X189849482Y-87950812D01*
X189969180Y-87914502D01*
X190079494Y-87855537D01*
X190176185Y-87776185D01*
X190255537Y-87679494D01*
X190314502Y-87569180D01*
X190350812Y-87449482D01*
X190363072Y-87325000D01*
X190360000Y-86910750D01*
X190201250Y-86752000D01*
X189339500Y-86752000D01*
X189085500Y-86752000D01*
X189065500Y-86752000D01*
X189065500Y-86498000D01*
X189085500Y-86498000D01*
X189085500Y-86478000D01*
X189339500Y-86478000D01*
X189339500Y-86498000D01*
X190201250Y-86498000D01*
X190360000Y-86339250D01*
X190360588Y-86260000D01*
X192185199Y-86260000D01*
X192340001Y-86414803D01*
%TA.AperFunction,Conductor*%
D21*
G36*
X192340001Y-86414803D02*
G01*
X192340000Y-97585199D01*
X192335199Y-97590000D01*
X189091851Y-97590000D01*
X189078651Y-97576800D01*
X188303001Y-97576800D01*
X188303001Y-97322800D01*
X189078651Y-97322800D01*
X189237401Y-97164050D01*
X189240281Y-97135234D01*
X189231075Y-97010490D01*
X189197709Y-96889938D01*
X189141465Y-96778212D01*
X189064506Y-96679606D01*
X188969788Y-96597908D01*
X188860952Y-96536258D01*
X188742179Y-96497026D01*
X188634151Y-96484600D01*
X188497199Y-96621552D01*
X188469786Y-96597908D01*
X188360950Y-96536258D01*
X188296083Y-96514832D01*
X188265851Y-96484600D01*
X188210000Y-96491024D01*
X188210000Y-96042888D01*
X188218387Y-96038405D01*
X188318750Y-95956039D01*
X188419113Y-96038405D01*
X188572648Y-96120472D01*
X188739244Y-96171008D01*
X188912498Y-96188072D01*
X189437502Y-96188072D01*
X189610756Y-96171008D01*
X189777352Y-96120472D01*
X189930887Y-96038405D01*
X190012137Y-95971724D01*
X190036315Y-96001185D01*
X190133006Y-96080537D01*
X190243320Y-96139502D01*
X190363018Y-96175812D01*
X190487500Y-96188072D01*
X190714250Y-96185000D01*
X190873000Y-96026250D01*
X190873000Y-94977000D01*
X191127000Y-94977000D01*
X191127000Y-96026250D01*
X191285750Y-96185000D01*
X191512500Y-96188072D01*
X191636982Y-96175812D01*
X191756680Y-96139502D01*
X191866994Y-96080537D01*
X191963685Y-96001185D01*
X192043037Y-95904494D01*
X192102002Y-95794180D01*
X192138312Y-95674482D01*
X192150572Y-95550000D01*
X192147500Y-95135750D01*
X191988750Y-94977000D01*
X191127000Y-94977000D01*
X190873000Y-94977000D01*
X190853000Y-94977000D01*
X190853000Y-94723000D01*
X190873000Y-94723000D01*
X190873000Y-93673750D01*
X191127000Y-93673750D01*
X191127000Y-94723000D01*
X191988750Y-94723000D01*
X192147500Y-94564250D01*
X192150572Y-94150000D01*
X192138312Y-94025518D01*
X192102002Y-93905820D01*
X192043037Y-93795506D01*
X191963685Y-93698815D01*
X191866994Y-93619463D01*
X191756680Y-93560498D01*
X191636982Y-93524188D01*
X191512500Y-93511928D01*
X191285750Y-93515000D01*
X191127000Y-93673750D01*
X190873000Y-93673750D01*
X190714250Y-93515000D01*
X190487500Y-93511928D01*
X190363018Y-93524188D01*
X190243320Y-93560498D01*
X190133006Y-93619463D01*
X190036315Y-93698815D01*
X190012137Y-93728276D01*
X189930887Y-93661595D01*
X189777352Y-93579528D01*
X189610756Y-93528992D01*
X189437502Y-93511928D01*
X188912498Y-93511928D01*
X188739244Y-93528992D01*
X188605126Y-93569676D01*
X188861003Y-93313799D01*
X188890001Y-93290001D01*
X188954958Y-93210850D01*
X189014250Y-93210000D01*
X189173000Y-93051250D01*
X189173000Y-91977000D01*
X189427000Y-91977000D01*
X189427000Y-93051250D01*
X189585750Y-93210000D01*
X189800000Y-93213072D01*
X189924482Y-93200812D01*
X190044180Y-93164502D01*
X190154494Y-93105537D01*
X190251185Y-93026185D01*
X190330537Y-92929494D01*
X190389502Y-92819180D01*
X190425812Y-92699482D01*
X190438072Y-92575000D01*
X190435000Y-92135750D01*
X190276250Y-91977000D01*
X189427000Y-91977000D01*
X189173000Y-91977000D01*
X189153000Y-91977000D01*
X189153000Y-91723000D01*
X189173000Y-91723000D01*
X189173000Y-89927000D01*
X189427000Y-89927000D01*
X189427000Y-91723000D01*
X190276250Y-91723000D01*
X190435000Y-91564250D01*
X190438072Y-91125000D01*
X190425812Y-91000518D01*
X190389502Y-90880820D01*
X190359665Y-90825000D01*
X190389502Y-90769180D01*
X190425812Y-90649482D01*
X190438072Y-90525000D01*
X190435000Y-90085750D01*
X190276250Y-89927000D01*
X189427000Y-89927000D01*
X189173000Y-89927000D01*
X189153000Y-89927000D01*
X189153000Y-89673000D01*
X189173000Y-89673000D01*
X189173000Y-88598750D01*
X189427000Y-88598750D01*
X189427000Y-89673000D01*
X190276250Y-89673000D01*
X190435000Y-89514250D01*
X190438072Y-89075000D01*
X190425812Y-88950518D01*
X190389502Y-88830820D01*
X190330537Y-88720506D01*
X190251185Y-88623815D01*
X190154494Y-88544463D01*
X190044180Y-88485498D01*
X189924482Y-88449188D01*
X189800000Y-88436928D01*
X189585750Y-88440000D01*
X189427000Y-88598750D01*
X189173000Y-88598750D01*
X189014250Y-88440000D01*
X188800000Y-88436928D01*
X188675518Y-88449188D01*
X188555820Y-88485498D01*
X188445506Y-88544463D01*
X188348815Y-88623815D01*
X188283342Y-88703594D01*
X188277962Y-88697038D01*
X188143386Y-88586595D01*
X187989850Y-88504528D01*
X187823254Y-88453992D01*
X187650000Y-88436928D01*
X187150000Y-88436928D01*
X186976746Y-88453992D01*
X186810150Y-88504528D01*
X186656614Y-88586595D01*
X186588361Y-88642608D01*
X186538387Y-88601595D01*
X186384852Y-88519528D01*
X186218256Y-88468992D01*
X186045002Y-88451928D01*
X185610000Y-88451928D01*
X185610000Y-87963072D01*
X186025002Y-87963072D01*
X186198256Y-87946008D01*
X186364852Y-87895472D01*
X186518387Y-87813405D01*
X186575000Y-87766944D01*
X186631613Y-87813405D01*
X186785148Y-87895472D01*
X186951744Y-87946008D01*
X187124998Y-87963072D01*
X187650002Y-87963072D01*
X187823256Y-87946008D01*
X187989852Y-87895472D01*
X188143387Y-87813405D01*
X188224637Y-87746724D01*
X188248815Y-87776185D01*
X188345506Y-87855537D01*
X188455820Y-87914502D01*
X188575518Y-87950812D01*
X188700000Y-87963072D01*
X188926750Y-87960000D01*
X189085500Y-87801250D01*
X189085500Y-86752000D01*
X189339500Y-86752000D01*
X189339500Y-87801250D01*
X189498250Y-87960000D01*
X189725000Y-87963072D01*
X189849482Y-87950812D01*
X189969180Y-87914502D01*
X190079494Y-87855537D01*
X190176185Y-87776185D01*
X190255537Y-87679494D01*
X190314502Y-87569180D01*
X190350812Y-87449482D01*
X190363072Y-87325000D01*
X190360000Y-86910750D01*
X190201250Y-86752000D01*
X189339500Y-86752000D01*
X189085500Y-86752000D01*
X189065500Y-86752000D01*
X189065500Y-86498000D01*
X189085500Y-86498000D01*
X189085500Y-86478000D01*
X189339500Y-86478000D01*
X189339500Y-86498000D01*
X190201250Y-86498000D01*
X190360000Y-86339250D01*
X190360588Y-86260000D01*
X192185199Y-86260000D01*
X192340001Y-86414803D01*
G37*
%TD.AperFunction*%
%TD*%
M02*
