%TF.GenerationSoftware,KiCad,Pcbnew,5.1.7-a382d34a8~87~ubuntu16.04.1*%
%TF.CreationDate,2020-11-12T14:08:06+07:00*%
%TF.ProjectId,sama5d27_som1_ek-sharp_ls0xx_lcd-adapter,73616d61-3564-4323-975f-736f6d315f65,rev?*%
%TF.SameCoordinates,Original*%
%TF.FileFunction,Legend,Top*%
%TF.FilePolarity,Positive*%
%FSLAX46Y46*%
G04 Gerber Fmt 4.6, Leading zero omitted, Abs format (unit mm)*
G04 Created by KiCad (PCBNEW 5.1.7-a382d34a8~87~ubuntu16.04.1) date 2020-11-12 14:08:06*
%MOMM*%
%LPD*%
G01*
G04 APERTURE LIST*
%ADD10C,0.150000*%
%TA.AperFunction,Profile*%
%ADD11C,0.250000*%
%TD*%
%ADD12C,0.152400*%
%ADD13C,0.120000*%
G04 APERTURE END LIST*
D10*
X164466666Y-58352380D02*
X164466666Y-59066666D01*
X164419047Y-59209523D01*
X164323809Y-59304761D01*
X164180952Y-59352380D01*
X164085714Y-59352380D01*
X165466666Y-59352380D02*
X164895238Y-59352380D01*
X165180952Y-59352380D02*
X165180952Y-58352380D01*
X165085714Y-58495238D01*
X164990476Y-58590476D01*
X164895238Y-58638095D01*
X139066666Y-132502380D02*
X139066666Y-133216666D01*
X139019047Y-133359523D01*
X138923809Y-133454761D01*
X138780952Y-133502380D01*
X138685714Y-133502380D01*
X139495238Y-132597619D02*
X139542857Y-132550000D01*
X139638095Y-132502380D01*
X139876190Y-132502380D01*
X139971428Y-132550000D01*
X140019047Y-132597619D01*
X140066666Y-132692857D01*
X140066666Y-132788095D01*
X140019047Y-132930952D01*
X139447619Y-133502380D01*
X140066666Y-133502380D01*
D11*
X120300000Y-52100000D02*
X175300000Y-52100000D01*
X120300000Y-137100000D02*
X120300000Y-52100000D01*
X175300000Y-137100000D02*
X120300000Y-137100000D01*
X175300000Y-52100000D02*
X175300000Y-137100000D01*
D12*
%TO.C,J2*%
X142728101Y-134172040D02*
X142728101Y-134385400D01*
X150271901Y-132007960D02*
X150271901Y-130931000D01*
X143768761Y-130931000D02*
X142728101Y-130931000D01*
X150271901Y-134385400D02*
X150271901Y-134172040D01*
X142728101Y-134385400D02*
X150271901Y-134385400D01*
X142728101Y-130931000D02*
X142728101Y-132007960D01*
X150271901Y-130931000D02*
X149231241Y-130931000D01*
D13*
%TO.C,C2*%
X148388748Y-123635000D02*
X148911252Y-123635000D01*
X148388748Y-122165000D02*
X148911252Y-122165000D01*
%TO.C,R2*%
X147077064Y-127215000D02*
X146622936Y-127215000D01*
X147077064Y-128685000D02*
X146622936Y-128685000D01*
%TO.C,C1*%
X145100580Y-125680000D02*
X144819420Y-125680000D01*
X145100580Y-124660000D02*
X144819420Y-124660000D01*
%TO.C,C3*%
X148388748Y-124215000D02*
X148911252Y-124215000D01*
X148388748Y-125685000D02*
X148911252Y-125685000D01*
%TO.C,R3*%
X150160436Y-127215000D02*
X150614564Y-127215000D01*
X150160436Y-128685000D02*
X150614564Y-128685000D01*
%TO.C,R4*%
X145377064Y-120460000D02*
X144922936Y-120460000D01*
X145377064Y-118990000D02*
X144922936Y-118990000D01*
%TO.C,R5*%
X148372936Y-120460000D02*
X148827064Y-120460000D01*
X148372936Y-118990000D02*
X148827064Y-118990000D01*
%TO.C,R1*%
X145397064Y-123625000D02*
X144942936Y-123625000D01*
X145397064Y-122155000D02*
X144942936Y-122155000D01*
D12*
%TO.C,J1*%
X160459740Y-60177000D02*
X162126399Y-60177000D01*
X133373599Y-57220440D02*
X133373599Y-60177000D01*
X160605608Y-55020800D02*
X134894390Y-55020800D01*
X162126399Y-60177000D02*
X162126399Y-57220440D01*
X133373599Y-60177000D02*
X135040261Y-60177000D01*
%TD*%
%TO.C,J2*%
D10*
X146166667Y-130002380D02*
X146166667Y-130716666D01*
X146119048Y-130859523D01*
X146023810Y-130954761D01*
X145880953Y-131002380D01*
X145785715Y-131002380D01*
X146595239Y-130097619D02*
X146642858Y-130050000D01*
X146738096Y-130002380D01*
X146976191Y-130002380D01*
X147071429Y-130050000D01*
X147119048Y-130097619D01*
X147166667Y-130192857D01*
X147166667Y-130288095D01*
X147119048Y-130430952D01*
X146547620Y-131002380D01*
X147166667Y-131002380D01*
X142359523Y-129302380D02*
X141883333Y-129302380D01*
X141835714Y-129778571D01*
X141883333Y-129730952D01*
X141978571Y-129683333D01*
X142216666Y-129683333D01*
X142311904Y-129730952D01*
X142359523Y-129778571D01*
X142407142Y-129873809D01*
X142407142Y-130111904D01*
X142359523Y-130207142D01*
X142311904Y-130254761D01*
X142216666Y-130302380D01*
X141978571Y-130302380D01*
X141883333Y-130254761D01*
X141835714Y-130207142D01*
X143359523Y-130302380D02*
X142788095Y-130302380D01*
X143073809Y-130302380D02*
X143073809Y-129302380D01*
X142978571Y-129445238D01*
X142883333Y-129540476D01*
X142788095Y-129588095D01*
X144216666Y-129635714D02*
X144216666Y-130302380D01*
X143978571Y-129254761D02*
X143740476Y-129969047D01*
X144359523Y-129969047D01*
X145169047Y-129635714D02*
X145169047Y-130302380D01*
X144930952Y-129254761D02*
X144692857Y-129969047D01*
X145311904Y-129969047D01*
X146216666Y-130302380D02*
X145645238Y-130302380D01*
X145930952Y-130302380D02*
X145930952Y-129302380D01*
X145835714Y-129445238D01*
X145740476Y-129540476D01*
X145645238Y-129588095D01*
X146645238Y-129921428D02*
X147407142Y-129921428D01*
X148407142Y-130302380D02*
X147835714Y-130302380D01*
X148121428Y-130302380D02*
X148121428Y-129302380D01*
X148026190Y-129445238D01*
X147930952Y-129540476D01*
X147835714Y-129588095D01*
X149026190Y-129302380D02*
X149121428Y-129302380D01*
X149216666Y-129350000D01*
X149264285Y-129397619D01*
X149311904Y-129492857D01*
X149359523Y-129683333D01*
X149359523Y-129921428D01*
X149311904Y-130111904D01*
X149264285Y-130207142D01*
X149216666Y-130254761D01*
X149121428Y-130302380D01*
X149026190Y-130302380D01*
X148930952Y-130254761D01*
X148883333Y-130207142D01*
X148835714Y-130111904D01*
X148788095Y-129921428D01*
X148788095Y-129683333D01*
X148835714Y-129492857D01*
X148883333Y-129397619D01*
X148930952Y-129350000D01*
X149026190Y-129302380D01*
X149835714Y-130302380D02*
X150026190Y-130302380D01*
X150121428Y-130254761D01*
X150169047Y-130207142D01*
X150264285Y-130064285D01*
X150311904Y-129873809D01*
X150311904Y-129492857D01*
X150264285Y-129397619D01*
X150216666Y-129350000D01*
X150121428Y-129302380D01*
X149930952Y-129302380D01*
X149835714Y-129350000D01*
X149788095Y-129397619D01*
X149740476Y-129492857D01*
X149740476Y-129730952D01*
X149788095Y-129826190D01*
X149835714Y-129873809D01*
X149930952Y-129921428D01*
X150121428Y-129921428D01*
X150216666Y-129873809D01*
X150264285Y-129826190D01*
X150311904Y-129730952D01*
X150645238Y-129302380D02*
X151264285Y-129302380D01*
X150930952Y-129683333D01*
X151073809Y-129683333D01*
X151169047Y-129730952D01*
X151216666Y-129778571D01*
X151264285Y-129873809D01*
X151264285Y-130111904D01*
X151216666Y-130207142D01*
X151169047Y-130254761D01*
X151073809Y-130302380D01*
X150788095Y-130302380D01*
X150692857Y-130254761D01*
X150645238Y-130207142D01*
X146500001Y-131602580D02*
X146500001Y-131840676D01*
X146261905Y-131745438D02*
X146500001Y-131840676D01*
X146738096Y-131745438D01*
X146357143Y-132031152D02*
X146500001Y-131840676D01*
X146642858Y-132031152D01*
%TO.C,REF\u002A\u002A*%
X122716666Y-59302380D02*
X122383333Y-58826190D01*
X122145238Y-59302380D02*
X122145238Y-58302380D01*
X122526190Y-58302380D01*
X122621428Y-58350000D01*
X122669047Y-58397619D01*
X122716666Y-58492857D01*
X122716666Y-58635714D01*
X122669047Y-58730952D01*
X122621428Y-58778571D01*
X122526190Y-58826190D01*
X122145238Y-58826190D01*
X123145238Y-58778571D02*
X123478571Y-58778571D01*
X123621428Y-59302380D02*
X123145238Y-59302380D01*
X123145238Y-58302380D01*
X123621428Y-58302380D01*
X124383333Y-58778571D02*
X124050000Y-58778571D01*
X124050000Y-59302380D02*
X124050000Y-58302380D01*
X124526190Y-58302380D01*
X125050000Y-58302380D02*
X125050000Y-58540476D01*
X124811904Y-58445238D02*
X125050000Y-58540476D01*
X125288095Y-58445238D01*
X124907142Y-58730952D02*
X125050000Y-58540476D01*
X125192857Y-58730952D01*
X125811904Y-58302380D02*
X125811904Y-58540476D01*
X125573809Y-58445238D02*
X125811904Y-58540476D01*
X126050000Y-58445238D01*
X125669047Y-58730952D02*
X125811904Y-58540476D01*
X125954761Y-58730952D01*
X170466666Y-131152380D02*
X170133333Y-130676190D01*
X169895238Y-131152380D02*
X169895238Y-130152380D01*
X170276190Y-130152380D01*
X170371428Y-130200000D01*
X170419047Y-130247619D01*
X170466666Y-130342857D01*
X170466666Y-130485714D01*
X170419047Y-130580952D01*
X170371428Y-130628571D01*
X170276190Y-130676190D01*
X169895238Y-130676190D01*
X170895238Y-130628571D02*
X171228571Y-130628571D01*
X171371428Y-131152380D02*
X170895238Y-131152380D01*
X170895238Y-130152380D01*
X171371428Y-130152380D01*
X172133333Y-130628571D02*
X171800000Y-130628571D01*
X171800000Y-131152380D02*
X171800000Y-130152380D01*
X172276190Y-130152380D01*
X172800000Y-130152380D02*
X172800000Y-130390476D01*
X172561904Y-130295238D02*
X172800000Y-130390476D01*
X173038095Y-130295238D01*
X172657142Y-130580952D02*
X172800000Y-130390476D01*
X172942857Y-130580952D01*
X173561904Y-130152380D02*
X173561904Y-130390476D01*
X173323809Y-130295238D02*
X173561904Y-130390476D01*
X173800000Y-130295238D01*
X173419047Y-130580952D02*
X173561904Y-130390476D01*
X173704761Y-130580952D01*
X122466666Y-131152380D02*
X122133333Y-130676190D01*
X121895238Y-131152380D02*
X121895238Y-130152380D01*
X122276190Y-130152380D01*
X122371428Y-130200000D01*
X122419047Y-130247619D01*
X122466666Y-130342857D01*
X122466666Y-130485714D01*
X122419047Y-130580952D01*
X122371428Y-130628571D01*
X122276190Y-130676190D01*
X121895238Y-130676190D01*
X122895238Y-130628571D02*
X123228571Y-130628571D01*
X123371428Y-131152380D02*
X122895238Y-131152380D01*
X122895238Y-130152380D01*
X123371428Y-130152380D01*
X124133333Y-130628571D02*
X123800000Y-130628571D01*
X123800000Y-131152380D02*
X123800000Y-130152380D01*
X124276190Y-130152380D01*
X124800000Y-130152380D02*
X124800000Y-130390476D01*
X124561904Y-130295238D02*
X124800000Y-130390476D01*
X125038095Y-130295238D01*
X124657142Y-130580952D02*
X124800000Y-130390476D01*
X124942857Y-130580952D01*
X125561904Y-130152380D02*
X125561904Y-130390476D01*
X125323809Y-130295238D02*
X125561904Y-130390476D01*
X125800000Y-130295238D01*
X125419047Y-130580952D02*
X125561904Y-130390476D01*
X125704761Y-130580952D01*
X170466666Y-59802380D02*
X170133333Y-59326190D01*
X169895238Y-59802380D02*
X169895238Y-58802380D01*
X170276190Y-58802380D01*
X170371428Y-58850000D01*
X170419047Y-58897619D01*
X170466666Y-58992857D01*
X170466666Y-59135714D01*
X170419047Y-59230952D01*
X170371428Y-59278571D01*
X170276190Y-59326190D01*
X169895238Y-59326190D01*
X170895238Y-59278571D02*
X171228571Y-59278571D01*
X171371428Y-59802380D02*
X170895238Y-59802380D01*
X170895238Y-58802380D01*
X171371428Y-58802380D01*
X172133333Y-59278571D02*
X171800000Y-59278571D01*
X171800000Y-59802380D02*
X171800000Y-58802380D01*
X172276190Y-58802380D01*
X172800000Y-58802380D02*
X172800000Y-59040476D01*
X172561904Y-58945238D02*
X172800000Y-59040476D01*
X173038095Y-58945238D01*
X172657142Y-59230952D02*
X172800000Y-59040476D01*
X172942857Y-59230952D01*
X173561904Y-58802380D02*
X173561904Y-59040476D01*
X173323809Y-58945238D02*
X173561904Y-59040476D01*
X173800000Y-58945238D01*
X173419047Y-59230952D02*
X173561904Y-59040476D01*
X173704761Y-59230952D01*
%TO.C,C2*%
X151533333Y-123257142D02*
X151485714Y-123304761D01*
X151342857Y-123352380D01*
X151247619Y-123352380D01*
X151104761Y-123304761D01*
X151009523Y-123209523D01*
X150961904Y-123114285D01*
X150914285Y-122923809D01*
X150914285Y-122780952D01*
X150961904Y-122590476D01*
X151009523Y-122495238D01*
X151104761Y-122400000D01*
X151247619Y-122352380D01*
X151342857Y-122352380D01*
X151485714Y-122400000D01*
X151533333Y-122447619D01*
X151914285Y-122447619D02*
X151961904Y-122400000D01*
X152057142Y-122352380D01*
X152295238Y-122352380D01*
X152390476Y-122400000D01*
X152438095Y-122447619D01*
X152485714Y-122542857D01*
X152485714Y-122638095D01*
X152438095Y-122780952D01*
X151866666Y-123352380D01*
X152485714Y-123352380D01*
%TO.C,R2*%
X140673333Y-128432380D02*
X140340000Y-127956190D01*
X140101904Y-128432380D02*
X140101904Y-127432380D01*
X140482857Y-127432380D01*
X140578095Y-127480000D01*
X140625714Y-127527619D01*
X140673333Y-127622857D01*
X140673333Y-127765714D01*
X140625714Y-127860952D01*
X140578095Y-127908571D01*
X140482857Y-127956190D01*
X140101904Y-127956190D01*
X141054285Y-127527619D02*
X141101904Y-127480000D01*
X141197142Y-127432380D01*
X141435238Y-127432380D01*
X141530476Y-127480000D01*
X141578095Y-127527619D01*
X141625714Y-127622857D01*
X141625714Y-127718095D01*
X141578095Y-127860952D01*
X141006666Y-128432380D01*
X141625714Y-128432380D01*
%TO.C,C1*%
X141393333Y-125527142D02*
X141345714Y-125574761D01*
X141202857Y-125622380D01*
X141107619Y-125622380D01*
X140964761Y-125574761D01*
X140869523Y-125479523D01*
X140821904Y-125384285D01*
X140774285Y-125193809D01*
X140774285Y-125050952D01*
X140821904Y-124860476D01*
X140869523Y-124765238D01*
X140964761Y-124670000D01*
X141107619Y-124622380D01*
X141202857Y-124622380D01*
X141345714Y-124670000D01*
X141393333Y-124717619D01*
X142345714Y-125622380D02*
X141774285Y-125622380D01*
X142060000Y-125622380D02*
X142060000Y-124622380D01*
X141964761Y-124765238D01*
X141869523Y-124860476D01*
X141774285Y-124908095D01*
%TO.C,C3*%
X151533333Y-125307142D02*
X151485714Y-125354761D01*
X151342857Y-125402380D01*
X151247619Y-125402380D01*
X151104761Y-125354761D01*
X151009523Y-125259523D01*
X150961904Y-125164285D01*
X150914285Y-124973809D01*
X150914285Y-124830952D01*
X150961904Y-124640476D01*
X151009523Y-124545238D01*
X151104761Y-124450000D01*
X151247619Y-124402380D01*
X151342857Y-124402380D01*
X151485714Y-124450000D01*
X151533333Y-124497619D01*
X151866666Y-124402380D02*
X152485714Y-124402380D01*
X152152380Y-124783333D01*
X152295238Y-124783333D01*
X152390476Y-124830952D01*
X152438095Y-124878571D01*
X152485714Y-124973809D01*
X152485714Y-125211904D01*
X152438095Y-125307142D01*
X152390476Y-125354761D01*
X152295238Y-125402380D01*
X152009523Y-125402380D01*
X151914285Y-125354761D01*
X151866666Y-125307142D01*
%TO.C,R3*%
X142943333Y-128432380D02*
X142610000Y-127956190D01*
X142371904Y-128432380D02*
X142371904Y-127432380D01*
X142752857Y-127432380D01*
X142848095Y-127480000D01*
X142895714Y-127527619D01*
X142943333Y-127622857D01*
X142943333Y-127765714D01*
X142895714Y-127860952D01*
X142848095Y-127908571D01*
X142752857Y-127956190D01*
X142371904Y-127956190D01*
X143276666Y-127432380D02*
X143895714Y-127432380D01*
X143562380Y-127813333D01*
X143705238Y-127813333D01*
X143800476Y-127860952D01*
X143848095Y-127908571D01*
X143895714Y-128003809D01*
X143895714Y-128241904D01*
X143848095Y-128337142D01*
X143800476Y-128384761D01*
X143705238Y-128432380D01*
X143419523Y-128432380D01*
X143324285Y-128384761D01*
X143276666Y-128337142D01*
%TO.C,R4*%
X139053333Y-120202380D02*
X138720000Y-119726190D01*
X138481904Y-120202380D02*
X138481904Y-119202380D01*
X138862857Y-119202380D01*
X138958095Y-119250000D01*
X139005714Y-119297619D01*
X139053333Y-119392857D01*
X139053333Y-119535714D01*
X139005714Y-119630952D01*
X138958095Y-119678571D01*
X138862857Y-119726190D01*
X138481904Y-119726190D01*
X139910476Y-119535714D02*
X139910476Y-120202380D01*
X139672380Y-119154761D02*
X139434285Y-119869047D01*
X140053333Y-119869047D01*
%TO.C,R5*%
X141283333Y-120202380D02*
X140950000Y-119726190D01*
X140711904Y-120202380D02*
X140711904Y-119202380D01*
X141092857Y-119202380D01*
X141188095Y-119250000D01*
X141235714Y-119297619D01*
X141283333Y-119392857D01*
X141283333Y-119535714D01*
X141235714Y-119630952D01*
X141188095Y-119678571D01*
X141092857Y-119726190D01*
X140711904Y-119726190D01*
X142188095Y-119202380D02*
X141711904Y-119202380D01*
X141664285Y-119678571D01*
X141711904Y-119630952D01*
X141807142Y-119583333D01*
X142045238Y-119583333D01*
X142140476Y-119630952D01*
X142188095Y-119678571D01*
X142235714Y-119773809D01*
X142235714Y-120011904D01*
X142188095Y-120107142D01*
X142140476Y-120154761D01*
X142045238Y-120202380D01*
X141807142Y-120202380D01*
X141711904Y-120154761D01*
X141664285Y-120107142D01*
%TO.C,R1*%
X141403333Y-123392380D02*
X141070000Y-122916190D01*
X140831904Y-123392380D02*
X140831904Y-122392380D01*
X141212857Y-122392380D01*
X141308095Y-122440000D01*
X141355714Y-122487619D01*
X141403333Y-122582857D01*
X141403333Y-122725714D01*
X141355714Y-122820952D01*
X141308095Y-122868571D01*
X141212857Y-122916190D01*
X140831904Y-122916190D01*
X142355714Y-123392380D02*
X141784285Y-123392380D01*
X142070000Y-123392380D02*
X142070000Y-122392380D01*
X141974761Y-122535238D01*
X141879523Y-122630476D01*
X141784285Y-122678095D01*
%TO.C,J1*%
X147416665Y-59502380D02*
X147416665Y-60216666D01*
X147369046Y-60359523D01*
X147273808Y-60454761D01*
X147130951Y-60502380D01*
X147035713Y-60502380D01*
X148416665Y-60502380D02*
X147845237Y-60502380D01*
X148130951Y-60502380D02*
X148130951Y-59502380D01*
X148035713Y-59645238D01*
X147940475Y-59740476D01*
X147845237Y-59788095D01*
X143592857Y-61902380D02*
X144259523Y-62902380D01*
X144259523Y-61902380D02*
X143592857Y-62902380D01*
X144973809Y-62378571D02*
X144640476Y-62378571D01*
X144640476Y-62902380D02*
X144640476Y-61902380D01*
X145116666Y-61902380D01*
X145450000Y-61997619D02*
X145497619Y-61950000D01*
X145592857Y-61902380D01*
X145830952Y-61902380D01*
X145926190Y-61950000D01*
X145973809Y-61997619D01*
X146021428Y-62092857D01*
X146021428Y-62188095D01*
X145973809Y-62330952D01*
X145402380Y-62902380D01*
X146021428Y-62902380D01*
X146450000Y-62902380D02*
X146450000Y-61902380D01*
X146783333Y-62616666D01*
X147116666Y-61902380D01*
X147116666Y-62902380D01*
X147592857Y-62521428D02*
X148354761Y-62521428D01*
X149307142Y-61902380D02*
X148830952Y-61902380D01*
X148783333Y-62378571D01*
X148830952Y-62330952D01*
X148926190Y-62283333D01*
X149164285Y-62283333D01*
X149259523Y-62330952D01*
X149307142Y-62378571D01*
X149354761Y-62473809D01*
X149354761Y-62711904D01*
X149307142Y-62807142D01*
X149259523Y-62854761D01*
X149164285Y-62902380D01*
X148926190Y-62902380D01*
X148830952Y-62854761D01*
X148783333Y-62807142D01*
X149973809Y-61902380D02*
X150069047Y-61902380D01*
X150164285Y-61950000D01*
X150211904Y-61997619D01*
X150259523Y-62092857D01*
X150307142Y-62283333D01*
X150307142Y-62521428D01*
X150259523Y-62711904D01*
X150211904Y-62807142D01*
X150164285Y-62854761D01*
X150069047Y-62902380D01*
X149973809Y-62902380D01*
X149878571Y-62854761D01*
X149830952Y-62807142D01*
X149783333Y-62711904D01*
X149735714Y-62521428D01*
X149735714Y-62283333D01*
X149783333Y-62092857D01*
X149830952Y-61997619D01*
X149878571Y-61950000D01*
X149973809Y-61902380D01*
X151259523Y-62902380D02*
X150688095Y-62902380D01*
X150973809Y-62902380D02*
X150973809Y-61902380D01*
X150878571Y-62045238D01*
X150783333Y-62140476D01*
X150688095Y-62188095D01*
X152164285Y-61902380D02*
X151688095Y-61902380D01*
X151640476Y-62378571D01*
X151688095Y-62330952D01*
X151783333Y-62283333D01*
X152021428Y-62283333D01*
X152116666Y-62330952D01*
X152164285Y-62378571D01*
X152211904Y-62473809D01*
X152211904Y-62711904D01*
X152164285Y-62807142D01*
X152116666Y-62854761D01*
X152021428Y-62902380D01*
X151783333Y-62902380D01*
X151688095Y-62854761D01*
X151640476Y-62807142D01*
X152640476Y-62521428D02*
X153402380Y-62521428D01*
X154402380Y-62902380D02*
X153830952Y-62902380D01*
X154116666Y-62902380D02*
X154116666Y-61902380D01*
X154021428Y-62045238D01*
X153926190Y-62140476D01*
X153830952Y-62188095D01*
X154783333Y-62616666D02*
X155259523Y-62616666D01*
X154688095Y-62902380D02*
X155021428Y-61902380D01*
X155354761Y-62902380D01*
X147749999Y-57051280D02*
X147749999Y-57289376D01*
X147511903Y-57194138D02*
X147749999Y-57289376D01*
X147988094Y-57194138D01*
X147607141Y-57479852D02*
X147749999Y-57289376D01*
X147892856Y-57479852D01*
%TD*%
M02*
