%TF.GenerationSoftware,KiCad,Pcbnew,5.1.7-a382d34a8~87~ubuntu16.04.1*%
%TF.CreationDate,2020-11-12T13:34:28+07:00*%
%TF.ProjectId,sama5d27_som1_ek-sharp_ls0xx_lcd-adapter,73616d61-3564-4323-975f-736f6d315f65,rev?*%
%TF.SameCoordinates,Original*%
%TF.FileFunction,Copper,L2,Bot*%
%TF.FilePolarity,Positive*%
%FSLAX46Y46*%
G04 Gerber Fmt 4.6, Leading zero omitted, Abs format (unit mm)*
G04 Created by KiCad (PCBNEW 5.1.7-a382d34a8~87~ubuntu16.04.1) date 2020-11-12 13:34:28*
%MOMM*%
%LPD*%
G01*
G04 APERTURE LIST*
%TA.AperFunction,Profile*%
%ADD10C,0.250000*%
%TD*%
%TA.AperFunction,ComponentPad*%
%ADD11C,3.800000*%
%TD*%
%TA.AperFunction,ViaPad*%
%ADD12C,1.000000*%
%TD*%
%TA.AperFunction,Conductor*%
%ADD13C,0.250000*%
%TD*%
%TA.AperFunction,Conductor*%
%ADD14C,0.254000*%
%TD*%
%TA.AperFunction,Conductor*%
%ADD15C,0.150000*%
%TD*%
G04 APERTURE END LIST*
D10*
X160000000Y-19000000D02*
X215000000Y-19000000D01*
X160000000Y-104000000D02*
X160000000Y-19000000D01*
X215000000Y-104000000D02*
X160000000Y-104000000D01*
X215000000Y-19000000D02*
X215000000Y-104000000D01*
D11*
%TO.P,REF\u002A\u002A,1*%
%TO.N,N/C*%
X163500000Y-22500000D03*
%TD*%
%TO.P,REF\u002A\u002A,1*%
%TO.N,N/C*%
X211500000Y-100500000D03*
%TD*%
%TO.P,REF\u002A\u002A,1*%
%TO.N,N/C*%
X163500000Y-100500000D03*
%TD*%
%TO.P,REF\u002A\u002A,1*%
%TO.N,N/C*%
X211500000Y-22500000D03*
%TD*%
D12*
%TO.N,GND*%
X191000000Y-86600000D03*
X198000000Y-86600000D03*
X180450000Y-88150000D03*
X186600000Y-88200000D03*
X191950000Y-100000000D03*
X198000000Y-100000000D03*
%TD*%
D13*
%TO.N,GND*%
X198000000Y-89100000D02*
X198100000Y-89200000D01*
X190950000Y-89100000D02*
X198000000Y-89100000D01*
%TD*%
D14*
%TO.N,GND*%
X214240001Y-103240000D02*
X160760000Y-103240000D01*
X160760000Y-100250324D01*
X160965000Y-100250324D01*
X160965000Y-100749676D01*
X161062418Y-101239432D01*
X161253512Y-101700773D01*
X161530937Y-102115968D01*
X161884032Y-102469063D01*
X162299227Y-102746488D01*
X162760568Y-102937582D01*
X163250324Y-103035000D01*
X163749676Y-103035000D01*
X164239432Y-102937582D01*
X164700773Y-102746488D01*
X165115968Y-102469063D01*
X165469063Y-102115968D01*
X165746488Y-101700773D01*
X165937582Y-101239432D01*
X166035000Y-100749676D01*
X166035000Y-100250324D01*
X208965000Y-100250324D01*
X208965000Y-100749676D01*
X209062418Y-101239432D01*
X209253512Y-101700773D01*
X209530937Y-102115968D01*
X209884032Y-102469063D01*
X210299227Y-102746488D01*
X210760568Y-102937582D01*
X211250324Y-103035000D01*
X211749676Y-103035000D01*
X212239432Y-102937582D01*
X212700773Y-102746488D01*
X213115968Y-102469063D01*
X213469063Y-102115968D01*
X213746488Y-101700773D01*
X213937582Y-101239432D01*
X214035000Y-100749676D01*
X214035000Y-100250324D01*
X213937582Y-99760568D01*
X213746488Y-99299227D01*
X213469063Y-98884032D01*
X213115968Y-98530937D01*
X212700773Y-98253512D01*
X212239432Y-98062418D01*
X211749676Y-97965000D01*
X211250324Y-97965000D01*
X210760568Y-98062418D01*
X210299227Y-98253512D01*
X209884032Y-98530937D01*
X209530937Y-98884032D01*
X209253512Y-99299227D01*
X209062418Y-99760568D01*
X208965000Y-100250324D01*
X166035000Y-100250324D01*
X165937582Y-99760568D01*
X165746488Y-99299227D01*
X165469063Y-98884032D01*
X165115968Y-98530937D01*
X164700773Y-98253512D01*
X164239432Y-98062418D01*
X163749676Y-97965000D01*
X163250324Y-97965000D01*
X162760568Y-98062418D01*
X162299227Y-98253512D01*
X161884032Y-98530937D01*
X161530937Y-98884032D01*
X161253512Y-99299227D01*
X161062418Y-99760568D01*
X160965000Y-100250324D01*
X160760000Y-100250324D01*
X160760000Y-22250324D01*
X160965000Y-22250324D01*
X160965000Y-22749676D01*
X161062418Y-23239432D01*
X161253512Y-23700773D01*
X161530937Y-24115968D01*
X161884032Y-24469063D01*
X162299227Y-24746488D01*
X162760568Y-24937582D01*
X163250324Y-25035000D01*
X163749676Y-25035000D01*
X164239432Y-24937582D01*
X164700773Y-24746488D01*
X165115968Y-24469063D01*
X165469063Y-24115968D01*
X165746488Y-23700773D01*
X165937582Y-23239432D01*
X166035000Y-22749676D01*
X166035000Y-22250324D01*
X208965000Y-22250324D01*
X208965000Y-22749676D01*
X209062418Y-23239432D01*
X209253512Y-23700773D01*
X209530937Y-24115968D01*
X209884032Y-24469063D01*
X210299227Y-24746488D01*
X210760568Y-24937582D01*
X211250324Y-25035000D01*
X211749676Y-25035000D01*
X212239432Y-24937582D01*
X212700773Y-24746488D01*
X213115968Y-24469063D01*
X213469063Y-24115968D01*
X213746488Y-23700773D01*
X213937582Y-23239432D01*
X214035000Y-22749676D01*
X214035000Y-22250324D01*
X213937582Y-21760568D01*
X213746488Y-21299227D01*
X213469063Y-20884032D01*
X213115968Y-20530937D01*
X212700773Y-20253512D01*
X212239432Y-20062418D01*
X211749676Y-19965000D01*
X211250324Y-19965000D01*
X210760568Y-20062418D01*
X210299227Y-20253512D01*
X209884032Y-20530937D01*
X209530937Y-20884032D01*
X209253512Y-21299227D01*
X209062418Y-21760568D01*
X208965000Y-22250324D01*
X166035000Y-22250324D01*
X165937582Y-21760568D01*
X165746488Y-21299227D01*
X165469063Y-20884032D01*
X165115968Y-20530937D01*
X164700773Y-20253512D01*
X164239432Y-20062418D01*
X163749676Y-19965000D01*
X163250324Y-19965000D01*
X162760568Y-20062418D01*
X162299227Y-20253512D01*
X161884032Y-20530937D01*
X161530937Y-20884032D01*
X161253512Y-21299227D01*
X161062418Y-21760568D01*
X160965000Y-22250324D01*
X160760000Y-22250324D01*
X160760000Y-19760000D01*
X214240000Y-19760000D01*
X214240001Y-103240000D01*
%TA.AperFunction,Conductor*%
D15*
G36*
X214240001Y-103240000D02*
G01*
X160760000Y-103240000D01*
X160760000Y-100250324D01*
X160965000Y-100250324D01*
X160965000Y-100749676D01*
X161062418Y-101239432D01*
X161253512Y-101700773D01*
X161530937Y-102115968D01*
X161884032Y-102469063D01*
X162299227Y-102746488D01*
X162760568Y-102937582D01*
X163250324Y-103035000D01*
X163749676Y-103035000D01*
X164239432Y-102937582D01*
X164700773Y-102746488D01*
X165115968Y-102469063D01*
X165469063Y-102115968D01*
X165746488Y-101700773D01*
X165937582Y-101239432D01*
X166035000Y-100749676D01*
X166035000Y-100250324D01*
X208965000Y-100250324D01*
X208965000Y-100749676D01*
X209062418Y-101239432D01*
X209253512Y-101700773D01*
X209530937Y-102115968D01*
X209884032Y-102469063D01*
X210299227Y-102746488D01*
X210760568Y-102937582D01*
X211250324Y-103035000D01*
X211749676Y-103035000D01*
X212239432Y-102937582D01*
X212700773Y-102746488D01*
X213115968Y-102469063D01*
X213469063Y-102115968D01*
X213746488Y-101700773D01*
X213937582Y-101239432D01*
X214035000Y-100749676D01*
X214035000Y-100250324D01*
X213937582Y-99760568D01*
X213746488Y-99299227D01*
X213469063Y-98884032D01*
X213115968Y-98530937D01*
X212700773Y-98253512D01*
X212239432Y-98062418D01*
X211749676Y-97965000D01*
X211250324Y-97965000D01*
X210760568Y-98062418D01*
X210299227Y-98253512D01*
X209884032Y-98530937D01*
X209530937Y-98884032D01*
X209253512Y-99299227D01*
X209062418Y-99760568D01*
X208965000Y-100250324D01*
X166035000Y-100250324D01*
X165937582Y-99760568D01*
X165746488Y-99299227D01*
X165469063Y-98884032D01*
X165115968Y-98530937D01*
X164700773Y-98253512D01*
X164239432Y-98062418D01*
X163749676Y-97965000D01*
X163250324Y-97965000D01*
X162760568Y-98062418D01*
X162299227Y-98253512D01*
X161884032Y-98530937D01*
X161530937Y-98884032D01*
X161253512Y-99299227D01*
X161062418Y-99760568D01*
X160965000Y-100250324D01*
X160760000Y-100250324D01*
X160760000Y-22250324D01*
X160965000Y-22250324D01*
X160965000Y-22749676D01*
X161062418Y-23239432D01*
X161253512Y-23700773D01*
X161530937Y-24115968D01*
X161884032Y-24469063D01*
X162299227Y-24746488D01*
X162760568Y-24937582D01*
X163250324Y-25035000D01*
X163749676Y-25035000D01*
X164239432Y-24937582D01*
X164700773Y-24746488D01*
X165115968Y-24469063D01*
X165469063Y-24115968D01*
X165746488Y-23700773D01*
X165937582Y-23239432D01*
X166035000Y-22749676D01*
X166035000Y-22250324D01*
X208965000Y-22250324D01*
X208965000Y-22749676D01*
X209062418Y-23239432D01*
X209253512Y-23700773D01*
X209530937Y-24115968D01*
X209884032Y-24469063D01*
X210299227Y-24746488D01*
X210760568Y-24937582D01*
X211250324Y-25035000D01*
X211749676Y-25035000D01*
X212239432Y-24937582D01*
X212700773Y-24746488D01*
X213115968Y-24469063D01*
X213469063Y-24115968D01*
X213746488Y-23700773D01*
X213937582Y-23239432D01*
X214035000Y-22749676D01*
X214035000Y-22250324D01*
X213937582Y-21760568D01*
X213746488Y-21299227D01*
X213469063Y-20884032D01*
X213115968Y-20530937D01*
X212700773Y-20253512D01*
X212239432Y-20062418D01*
X211749676Y-19965000D01*
X211250324Y-19965000D01*
X210760568Y-20062418D01*
X210299227Y-20253512D01*
X209884032Y-20530937D01*
X209530937Y-20884032D01*
X209253512Y-21299227D01*
X209062418Y-21760568D01*
X208965000Y-22250324D01*
X166035000Y-22250324D01*
X165937582Y-21760568D01*
X165746488Y-21299227D01*
X165469063Y-20884032D01*
X165115968Y-20530937D01*
X164700773Y-20253512D01*
X164239432Y-20062418D01*
X163749676Y-19965000D01*
X163250324Y-19965000D01*
X162760568Y-20062418D01*
X162299227Y-20253512D01*
X161884032Y-20530937D01*
X161530937Y-20884032D01*
X161253512Y-21299227D01*
X161062418Y-21760568D01*
X160965000Y-22250324D01*
X160760000Y-22250324D01*
X160760000Y-19760000D01*
X214240000Y-19760000D01*
X214240001Y-103240000D01*
G37*
%TD.AperFunction*%
%TD*%
M02*
