%TF.GenerationSoftware,KiCad,Pcbnew,5.1.7-a382d34a8~87~ubuntu16.04.1*%
%TF.CreationDate,2020-11-10T11:44:55+07:00*%
%TF.ProjectId,sama5d27_som1_ek-sharp_ls0xx_lcd-adapter,73616d61-3564-4323-975f-736f6d315f65,rev?*%
%TF.SameCoordinates,Original*%
%TF.FileFunction,Legend,Top*%
%TF.FilePolarity,Positive*%
%FSLAX46Y46*%
G04 Gerber Fmt 4.6, Leading zero omitted, Abs format (unit mm)*
G04 Created by KiCad (PCBNEW 5.1.7-a382d34a8~87~ubuntu16.04.1) date 2020-11-10 11:44:55*
%MOMM*%
%LPD*%
G01*
G04 APERTURE LIST*
%TA.AperFunction,Profile*%
%ADD10C,0.250000*%
%TD*%
%ADD11C,0.120000*%
%ADD12C,0.152400*%
%ADD13C,0.150000*%
G04 APERTURE END LIST*
D10*
X162400000Y-102650000D02*
X162375000Y-22525000D01*
X212450000Y-102675000D02*
X162400000Y-102650000D01*
X212475000Y-22525000D02*
X212450000Y-102675000D01*
X162375000Y-22525000D02*
X212475000Y-22525000D01*
D11*
%TO.C,C2*%
X188088748Y-89065000D02*
X188611252Y-89065000D01*
X188088748Y-90535000D02*
X188611252Y-90535000D01*
%TO.C,R2*%
X186777064Y-95585000D02*
X186322936Y-95585000D01*
X186777064Y-94115000D02*
X186322936Y-94115000D01*
%TO.C,C1*%
X184800580Y-91560000D02*
X184519420Y-91560000D01*
X184800580Y-92580000D02*
X184519420Y-92580000D01*
%TO.C,C3*%
X188088748Y-92585000D02*
X188611252Y-92585000D01*
X188088748Y-91115000D02*
X188611252Y-91115000D01*
D12*
%TO.C,J1*%
X173073600Y-29128100D02*
X174740262Y-29128100D01*
X201826400Y-29128100D02*
X201826400Y-26171540D01*
X200305609Y-23971900D02*
X174594391Y-23971900D01*
X173073600Y-26171540D02*
X173073600Y-29128100D01*
X200159741Y-29128100D02*
X201826400Y-29128100D01*
D11*
%TO.C,R3*%
X189860436Y-95585000D02*
X190314564Y-95585000D01*
X189860436Y-94115000D02*
X190314564Y-94115000D01*
%TO.C,R4*%
X185077064Y-85890000D02*
X184622936Y-85890000D01*
X185077064Y-87360000D02*
X184622936Y-87360000D01*
%TO.C,R5*%
X188072936Y-85890000D02*
X188527064Y-85890000D01*
X188072936Y-87360000D02*
X188527064Y-87360000D01*
%TO.C,R1*%
X185097064Y-89055000D02*
X184642936Y-89055000D01*
X185097064Y-90525000D02*
X184642936Y-90525000D01*
D12*
%TO.C,J2*%
X189971900Y-97830800D02*
X188931240Y-97830800D01*
X182428100Y-97830800D02*
X182428100Y-98907760D01*
X182428100Y-101285200D02*
X189971900Y-101285200D01*
X189971900Y-101285200D02*
X189971900Y-101071840D01*
X183468760Y-97830800D02*
X182428100Y-97830800D01*
X189971900Y-98907760D02*
X189971900Y-97830800D01*
X182428100Y-101071840D02*
X182428100Y-101285200D01*
%TD*%
%TO.C,REF\u002A\u002A*%
D13*
X207916666Y-97052380D02*
X207583333Y-96576190D01*
X207345238Y-97052380D02*
X207345238Y-96052380D01*
X207726190Y-96052380D01*
X207821428Y-96100000D01*
X207869047Y-96147619D01*
X207916666Y-96242857D01*
X207916666Y-96385714D01*
X207869047Y-96480952D01*
X207821428Y-96528571D01*
X207726190Y-96576190D01*
X207345238Y-96576190D01*
X208345238Y-96528571D02*
X208678571Y-96528571D01*
X208821428Y-97052380D02*
X208345238Y-97052380D01*
X208345238Y-96052380D01*
X208821428Y-96052380D01*
X209583333Y-96528571D02*
X209250000Y-96528571D01*
X209250000Y-97052380D02*
X209250000Y-96052380D01*
X209726190Y-96052380D01*
X210250000Y-96052380D02*
X210250000Y-96290476D01*
X210011904Y-96195238D02*
X210250000Y-96290476D01*
X210488095Y-96195238D01*
X210107142Y-96480952D02*
X210250000Y-96290476D01*
X210392857Y-96480952D01*
X211011904Y-96052380D02*
X211011904Y-96290476D01*
X210773809Y-96195238D02*
X211011904Y-96290476D01*
X211250000Y-96195238D01*
X210869047Y-96480952D02*
X211011904Y-96290476D01*
X211154761Y-96480952D01*
X164166666Y-97052380D02*
X163833333Y-96576190D01*
X163595238Y-97052380D02*
X163595238Y-96052380D01*
X163976190Y-96052380D01*
X164071428Y-96100000D01*
X164119047Y-96147619D01*
X164166666Y-96242857D01*
X164166666Y-96385714D01*
X164119047Y-96480952D01*
X164071428Y-96528571D01*
X163976190Y-96576190D01*
X163595238Y-96576190D01*
X164595238Y-96528571D02*
X164928571Y-96528571D01*
X165071428Y-97052380D02*
X164595238Y-97052380D01*
X164595238Y-96052380D01*
X165071428Y-96052380D01*
X165833333Y-96528571D02*
X165500000Y-96528571D01*
X165500000Y-97052380D02*
X165500000Y-96052380D01*
X165976190Y-96052380D01*
X166500000Y-96052380D02*
X166500000Y-96290476D01*
X166261904Y-96195238D02*
X166500000Y-96290476D01*
X166738095Y-96195238D01*
X166357142Y-96480952D02*
X166500000Y-96290476D01*
X166642857Y-96480952D01*
X167261904Y-96052380D02*
X167261904Y-96290476D01*
X167023809Y-96195238D02*
X167261904Y-96290476D01*
X167500000Y-96195238D01*
X167119047Y-96480952D02*
X167261904Y-96290476D01*
X167404761Y-96480952D01*
X207916666Y-29702380D02*
X207583333Y-29226190D01*
X207345238Y-29702380D02*
X207345238Y-28702380D01*
X207726190Y-28702380D01*
X207821428Y-28750000D01*
X207869047Y-28797619D01*
X207916666Y-28892857D01*
X207916666Y-29035714D01*
X207869047Y-29130952D01*
X207821428Y-29178571D01*
X207726190Y-29226190D01*
X207345238Y-29226190D01*
X208345238Y-29178571D02*
X208678571Y-29178571D01*
X208821428Y-29702380D02*
X208345238Y-29702380D01*
X208345238Y-28702380D01*
X208821428Y-28702380D01*
X209583333Y-29178571D02*
X209250000Y-29178571D01*
X209250000Y-29702380D02*
X209250000Y-28702380D01*
X209726190Y-28702380D01*
X210250000Y-28702380D02*
X210250000Y-28940476D01*
X210011904Y-28845238D02*
X210250000Y-28940476D01*
X210488095Y-28845238D01*
X210107142Y-29130952D02*
X210250000Y-28940476D01*
X210392857Y-29130952D01*
X211011904Y-28702380D02*
X211011904Y-28940476D01*
X210773809Y-28845238D02*
X211011904Y-28940476D01*
X211250000Y-28845238D01*
X210869047Y-29130952D02*
X211011904Y-28940476D01*
X211154761Y-29130952D01*
X164416666Y-29202380D02*
X164083333Y-28726190D01*
X163845238Y-29202380D02*
X163845238Y-28202380D01*
X164226190Y-28202380D01*
X164321428Y-28250000D01*
X164369047Y-28297619D01*
X164416666Y-28392857D01*
X164416666Y-28535714D01*
X164369047Y-28630952D01*
X164321428Y-28678571D01*
X164226190Y-28726190D01*
X163845238Y-28726190D01*
X164845238Y-28678571D02*
X165178571Y-28678571D01*
X165321428Y-29202380D02*
X164845238Y-29202380D01*
X164845238Y-28202380D01*
X165321428Y-28202380D01*
X166083333Y-28678571D02*
X165750000Y-28678571D01*
X165750000Y-29202380D02*
X165750000Y-28202380D01*
X166226190Y-28202380D01*
X166750000Y-28202380D02*
X166750000Y-28440476D01*
X166511904Y-28345238D02*
X166750000Y-28440476D01*
X166988095Y-28345238D01*
X166607142Y-28630952D02*
X166750000Y-28440476D01*
X166892857Y-28630952D01*
X167511904Y-28202380D02*
X167511904Y-28440476D01*
X167273809Y-28345238D02*
X167511904Y-28440476D01*
X167750000Y-28345238D01*
X167369047Y-28630952D02*
X167511904Y-28440476D01*
X167654761Y-28630952D01*
%TO.C,C2*%
X191233333Y-90157142D02*
X191185714Y-90204761D01*
X191042857Y-90252380D01*
X190947619Y-90252380D01*
X190804761Y-90204761D01*
X190709523Y-90109523D01*
X190661904Y-90014285D01*
X190614285Y-89823809D01*
X190614285Y-89680952D01*
X190661904Y-89490476D01*
X190709523Y-89395238D01*
X190804761Y-89300000D01*
X190947619Y-89252380D01*
X191042857Y-89252380D01*
X191185714Y-89300000D01*
X191233333Y-89347619D01*
X191614285Y-89347619D02*
X191661904Y-89300000D01*
X191757142Y-89252380D01*
X191995238Y-89252380D01*
X192090476Y-89300000D01*
X192138095Y-89347619D01*
X192185714Y-89442857D01*
X192185714Y-89538095D01*
X192138095Y-89680952D01*
X191566666Y-90252380D01*
X192185714Y-90252380D01*
%TO.C,R2*%
X180373333Y-95332380D02*
X180040000Y-94856190D01*
X179801904Y-95332380D02*
X179801904Y-94332380D01*
X180182857Y-94332380D01*
X180278095Y-94380000D01*
X180325714Y-94427619D01*
X180373333Y-94522857D01*
X180373333Y-94665714D01*
X180325714Y-94760952D01*
X180278095Y-94808571D01*
X180182857Y-94856190D01*
X179801904Y-94856190D01*
X180754285Y-94427619D02*
X180801904Y-94380000D01*
X180897142Y-94332380D01*
X181135238Y-94332380D01*
X181230476Y-94380000D01*
X181278095Y-94427619D01*
X181325714Y-94522857D01*
X181325714Y-94618095D01*
X181278095Y-94760952D01*
X180706666Y-95332380D01*
X181325714Y-95332380D01*
%TO.C,C1*%
X181093333Y-92427142D02*
X181045714Y-92474761D01*
X180902857Y-92522380D01*
X180807619Y-92522380D01*
X180664761Y-92474761D01*
X180569523Y-92379523D01*
X180521904Y-92284285D01*
X180474285Y-92093809D01*
X180474285Y-91950952D01*
X180521904Y-91760476D01*
X180569523Y-91665238D01*
X180664761Y-91570000D01*
X180807619Y-91522380D01*
X180902857Y-91522380D01*
X181045714Y-91570000D01*
X181093333Y-91617619D01*
X182045714Y-92522380D02*
X181474285Y-92522380D01*
X181760000Y-92522380D02*
X181760000Y-91522380D01*
X181664761Y-91665238D01*
X181569523Y-91760476D01*
X181474285Y-91808095D01*
%TO.C,C3*%
X191233333Y-92207142D02*
X191185714Y-92254761D01*
X191042857Y-92302380D01*
X190947619Y-92302380D01*
X190804761Y-92254761D01*
X190709523Y-92159523D01*
X190661904Y-92064285D01*
X190614285Y-91873809D01*
X190614285Y-91730952D01*
X190661904Y-91540476D01*
X190709523Y-91445238D01*
X190804761Y-91350000D01*
X190947619Y-91302380D01*
X191042857Y-91302380D01*
X191185714Y-91350000D01*
X191233333Y-91397619D01*
X191566666Y-91302380D02*
X192185714Y-91302380D01*
X191852380Y-91683333D01*
X191995238Y-91683333D01*
X192090476Y-91730952D01*
X192138095Y-91778571D01*
X192185714Y-91873809D01*
X192185714Y-92111904D01*
X192138095Y-92207142D01*
X192090476Y-92254761D01*
X191995238Y-92302380D01*
X191709523Y-92302380D01*
X191614285Y-92254761D01*
X191566666Y-92207142D01*
%TO.C,J1*%
X203166666Y-27452380D02*
X203166666Y-28166666D01*
X203119047Y-28309523D01*
X203023809Y-28404761D01*
X202880952Y-28452380D01*
X202785714Y-28452380D01*
X204166666Y-28452380D02*
X203595238Y-28452380D01*
X203880952Y-28452380D02*
X203880952Y-27452380D01*
X203785714Y-27595238D01*
X203690476Y-27690476D01*
X203595238Y-27738095D01*
X184942857Y-30452380D02*
X185609523Y-31452380D01*
X185609523Y-30452380D02*
X184942857Y-31452380D01*
X186323809Y-30928571D02*
X185990476Y-30928571D01*
X185990476Y-31452380D02*
X185990476Y-30452380D01*
X186466666Y-30452380D01*
X186800000Y-30547619D02*
X186847619Y-30500000D01*
X186942857Y-30452380D01*
X187180952Y-30452380D01*
X187276190Y-30500000D01*
X187323809Y-30547619D01*
X187371428Y-30642857D01*
X187371428Y-30738095D01*
X187323809Y-30880952D01*
X186752380Y-31452380D01*
X187371428Y-31452380D01*
X187800000Y-31452380D02*
X187800000Y-30452380D01*
X188133333Y-31166666D01*
X188466666Y-30452380D01*
X188466666Y-31452380D01*
X188942857Y-31071428D02*
X189704761Y-31071428D01*
X190657142Y-30452380D02*
X190180952Y-30452380D01*
X190133333Y-30928571D01*
X190180952Y-30880952D01*
X190276190Y-30833333D01*
X190514285Y-30833333D01*
X190609523Y-30880952D01*
X190657142Y-30928571D01*
X190704761Y-31023809D01*
X190704761Y-31261904D01*
X190657142Y-31357142D01*
X190609523Y-31404761D01*
X190514285Y-31452380D01*
X190276190Y-31452380D01*
X190180952Y-31404761D01*
X190133333Y-31357142D01*
X191323809Y-30452380D02*
X191419047Y-30452380D01*
X191514285Y-30500000D01*
X191561904Y-30547619D01*
X191609523Y-30642857D01*
X191657142Y-30833333D01*
X191657142Y-31071428D01*
X191609523Y-31261904D01*
X191561904Y-31357142D01*
X191514285Y-31404761D01*
X191419047Y-31452380D01*
X191323809Y-31452380D01*
X191228571Y-31404761D01*
X191180952Y-31357142D01*
X191133333Y-31261904D01*
X191085714Y-31071428D01*
X191085714Y-30833333D01*
X191133333Y-30642857D01*
X191180952Y-30547619D01*
X191228571Y-30500000D01*
X191323809Y-30452380D01*
X192609523Y-31452380D02*
X192038095Y-31452380D01*
X192323809Y-31452380D02*
X192323809Y-30452380D01*
X192228571Y-30595238D01*
X192133333Y-30690476D01*
X192038095Y-30738095D01*
X193514285Y-30452380D02*
X193038095Y-30452380D01*
X192990476Y-30928571D01*
X193038095Y-30880952D01*
X193133333Y-30833333D01*
X193371428Y-30833333D01*
X193466666Y-30880952D01*
X193514285Y-30928571D01*
X193561904Y-31023809D01*
X193561904Y-31261904D01*
X193514285Y-31357142D01*
X193466666Y-31404761D01*
X193371428Y-31452380D01*
X193133333Y-31452380D01*
X193038095Y-31404761D01*
X192990476Y-31357142D01*
X193990476Y-31071428D02*
X194752380Y-31071428D01*
X195752380Y-31452380D02*
X195180952Y-31452380D01*
X195466666Y-31452380D02*
X195466666Y-30452380D01*
X195371428Y-30595238D01*
X195276190Y-30690476D01*
X195180952Y-30738095D01*
X196133333Y-31166666D02*
X196609523Y-31166666D01*
X196038095Y-31452380D02*
X196371428Y-30452380D01*
X196704761Y-31452380D01*
X187450000Y-26002380D02*
X187450000Y-26240476D01*
X187211904Y-26145238D02*
X187450000Y-26240476D01*
X187688095Y-26145238D01*
X187307142Y-26430952D02*
X187450000Y-26240476D01*
X187592857Y-26430952D01*
%TO.C,R3*%
X182643333Y-95332380D02*
X182310000Y-94856190D01*
X182071904Y-95332380D02*
X182071904Y-94332380D01*
X182452857Y-94332380D01*
X182548095Y-94380000D01*
X182595714Y-94427619D01*
X182643333Y-94522857D01*
X182643333Y-94665714D01*
X182595714Y-94760952D01*
X182548095Y-94808571D01*
X182452857Y-94856190D01*
X182071904Y-94856190D01*
X182976666Y-94332380D02*
X183595714Y-94332380D01*
X183262380Y-94713333D01*
X183405238Y-94713333D01*
X183500476Y-94760952D01*
X183548095Y-94808571D01*
X183595714Y-94903809D01*
X183595714Y-95141904D01*
X183548095Y-95237142D01*
X183500476Y-95284761D01*
X183405238Y-95332380D01*
X183119523Y-95332380D01*
X183024285Y-95284761D01*
X182976666Y-95237142D01*
%TO.C,R4*%
X178753333Y-87102380D02*
X178420000Y-86626190D01*
X178181904Y-87102380D02*
X178181904Y-86102380D01*
X178562857Y-86102380D01*
X178658095Y-86150000D01*
X178705714Y-86197619D01*
X178753333Y-86292857D01*
X178753333Y-86435714D01*
X178705714Y-86530952D01*
X178658095Y-86578571D01*
X178562857Y-86626190D01*
X178181904Y-86626190D01*
X179610476Y-86435714D02*
X179610476Y-87102380D01*
X179372380Y-86054761D02*
X179134285Y-86769047D01*
X179753333Y-86769047D01*
%TO.C,R5*%
X180983333Y-87102380D02*
X180650000Y-86626190D01*
X180411904Y-87102380D02*
X180411904Y-86102380D01*
X180792857Y-86102380D01*
X180888095Y-86150000D01*
X180935714Y-86197619D01*
X180983333Y-86292857D01*
X180983333Y-86435714D01*
X180935714Y-86530952D01*
X180888095Y-86578571D01*
X180792857Y-86626190D01*
X180411904Y-86626190D01*
X181888095Y-86102380D02*
X181411904Y-86102380D01*
X181364285Y-86578571D01*
X181411904Y-86530952D01*
X181507142Y-86483333D01*
X181745238Y-86483333D01*
X181840476Y-86530952D01*
X181888095Y-86578571D01*
X181935714Y-86673809D01*
X181935714Y-86911904D01*
X181888095Y-87007142D01*
X181840476Y-87054761D01*
X181745238Y-87102380D01*
X181507142Y-87102380D01*
X181411904Y-87054761D01*
X181364285Y-87007142D01*
%TO.C,R1*%
X181103333Y-90292380D02*
X180770000Y-89816190D01*
X180531904Y-90292380D02*
X180531904Y-89292380D01*
X180912857Y-89292380D01*
X181008095Y-89340000D01*
X181055714Y-89387619D01*
X181103333Y-89482857D01*
X181103333Y-89625714D01*
X181055714Y-89720952D01*
X181008095Y-89768571D01*
X180912857Y-89816190D01*
X180531904Y-89816190D01*
X182055714Y-90292380D02*
X181484285Y-90292380D01*
X181770000Y-90292380D02*
X181770000Y-89292380D01*
X181674761Y-89435238D01*
X181579523Y-89530476D01*
X181484285Y-89578095D01*
%TO.C,J2*%
X179466666Y-98552380D02*
X179466666Y-99266666D01*
X179419047Y-99409523D01*
X179323809Y-99504761D01*
X179180952Y-99552380D01*
X179085714Y-99552380D01*
X179895238Y-98647619D02*
X179942857Y-98600000D01*
X180038095Y-98552380D01*
X180276190Y-98552380D01*
X180371428Y-98600000D01*
X180419047Y-98647619D01*
X180466666Y-98742857D01*
X180466666Y-98838095D01*
X180419047Y-98980952D01*
X179847619Y-99552380D01*
X180466666Y-99552380D01*
X182009523Y-95802380D02*
X181533333Y-95802380D01*
X181485714Y-96278571D01*
X181533333Y-96230952D01*
X181628571Y-96183333D01*
X181866666Y-96183333D01*
X181961904Y-96230952D01*
X182009523Y-96278571D01*
X182057142Y-96373809D01*
X182057142Y-96611904D01*
X182009523Y-96707142D01*
X181961904Y-96754761D01*
X181866666Y-96802380D01*
X181628571Y-96802380D01*
X181533333Y-96754761D01*
X181485714Y-96707142D01*
X183009523Y-96802380D02*
X182438095Y-96802380D01*
X182723809Y-96802380D02*
X182723809Y-95802380D01*
X182628571Y-95945238D01*
X182533333Y-96040476D01*
X182438095Y-96088095D01*
X183866666Y-96135714D02*
X183866666Y-96802380D01*
X183628571Y-95754761D02*
X183390476Y-96469047D01*
X184009523Y-96469047D01*
X184819047Y-96135714D02*
X184819047Y-96802380D01*
X184580952Y-95754761D02*
X184342857Y-96469047D01*
X184961904Y-96469047D01*
X185866666Y-96802380D02*
X185295238Y-96802380D01*
X185580952Y-96802380D02*
X185580952Y-95802380D01*
X185485714Y-95945238D01*
X185390476Y-96040476D01*
X185295238Y-96088095D01*
X186295238Y-96421428D02*
X187057142Y-96421428D01*
X188057142Y-96802380D02*
X187485714Y-96802380D01*
X187771428Y-96802380D02*
X187771428Y-95802380D01*
X187676190Y-95945238D01*
X187580952Y-96040476D01*
X187485714Y-96088095D01*
X188676190Y-95802380D02*
X188771428Y-95802380D01*
X188866666Y-95850000D01*
X188914285Y-95897619D01*
X188961904Y-95992857D01*
X189009523Y-96183333D01*
X189009523Y-96421428D01*
X188961904Y-96611904D01*
X188914285Y-96707142D01*
X188866666Y-96754761D01*
X188771428Y-96802380D01*
X188676190Y-96802380D01*
X188580952Y-96754761D01*
X188533333Y-96707142D01*
X188485714Y-96611904D01*
X188438095Y-96421428D01*
X188438095Y-96183333D01*
X188485714Y-95992857D01*
X188533333Y-95897619D01*
X188580952Y-95850000D01*
X188676190Y-95802380D01*
X189485714Y-96802380D02*
X189676190Y-96802380D01*
X189771428Y-96754761D01*
X189819047Y-96707142D01*
X189914285Y-96564285D01*
X189961904Y-96373809D01*
X189961904Y-95992857D01*
X189914285Y-95897619D01*
X189866666Y-95850000D01*
X189771428Y-95802380D01*
X189580952Y-95802380D01*
X189485714Y-95850000D01*
X189438095Y-95897619D01*
X189390476Y-95992857D01*
X189390476Y-96230952D01*
X189438095Y-96326190D01*
X189485714Y-96373809D01*
X189580952Y-96421428D01*
X189771428Y-96421428D01*
X189866666Y-96373809D01*
X189914285Y-96326190D01*
X189961904Y-96230952D01*
X190295238Y-95802380D02*
X190914285Y-95802380D01*
X190580952Y-96183333D01*
X190723809Y-96183333D01*
X190819047Y-96230952D01*
X190866666Y-96278571D01*
X190914285Y-96373809D01*
X190914285Y-96611904D01*
X190866666Y-96707142D01*
X190819047Y-96754761D01*
X190723809Y-96802380D01*
X190438095Y-96802380D01*
X190342857Y-96754761D01*
X190295238Y-96707142D01*
X186200000Y-98502380D02*
X186200000Y-98740476D01*
X185961904Y-98645238D02*
X186200000Y-98740476D01*
X186438095Y-98645238D01*
X186057142Y-98930952D02*
X186200000Y-98740476D01*
X186342857Y-98930952D01*
%TD*%
M02*
