%TF.GenerationSoftware,KiCad,Pcbnew,5.1.7-a382d34a8~87~ubuntu16.04.1*%
%TF.CreationDate,2020-11-12T13:34:28+07:00*%
%TF.ProjectId,sama5d27_som1_ek-sharp_ls0xx_lcd-adapter,73616d61-3564-4323-975f-736f6d315f65,rev?*%
%TF.SameCoordinates,Original*%
%TF.FileFunction,Copper,L1,Top*%
%TF.FilePolarity,Positive*%
%FSLAX46Y46*%
G04 Gerber Fmt 4.6, Leading zero omitted, Abs format (unit mm)*
G04 Created by KiCad (PCBNEW 5.1.7-a382d34a8~87~ubuntu16.04.1) date 2020-11-12 13:34:28*
%MOMM*%
%LPD*%
G01*
G04 APERTURE LIST*
%TA.AperFunction,Profile*%
%ADD10C,0.250000*%
%TD*%
%TA.AperFunction,NonConductor*%
%ADD11C,0.300000*%
%TD*%
%TA.AperFunction,SMDPad,CuDef*%
%ADD12R,0.863600X1.498600*%
%TD*%
%TA.AperFunction,SMDPad,CuDef*%
%ADD13R,0.304800X0.660400*%
%TD*%
%TA.AperFunction,ComponentPad*%
%ADD14C,3.800000*%
%TD*%
%TA.AperFunction,SMDPad,CuDef*%
%ADD15R,0.254000X0.812800*%
%TD*%
%TA.AperFunction,SMDPad,CuDef*%
%ADD16R,1.524000X1.701800*%
%TD*%
%TA.AperFunction,ViaPad*%
%ADD17C,1.000000*%
%TD*%
%TA.AperFunction,Conductor*%
%ADD18C,0.250000*%
%TD*%
%TA.AperFunction,Conductor*%
%ADD19C,0.350000*%
%TD*%
%TA.AperFunction,Conductor*%
%ADD20C,0.254000*%
%TD*%
%TA.AperFunction,Conductor*%
%ADD21C,0.150000*%
%TD*%
G04 APERTURE END LIST*
D10*
X160000000Y-19000000D02*
X215000000Y-19000000D01*
D11*
X164642857Y-41392857D02*
X164571428Y-41607142D01*
X164571428Y-41964285D01*
X164642857Y-42107142D01*
X164714285Y-42178571D01*
X164857142Y-42250000D01*
X165000000Y-42250000D01*
X165142857Y-42178571D01*
X165214285Y-42107142D01*
X165285714Y-41964285D01*
X165357142Y-41678571D01*
X165428571Y-41535714D01*
X165500000Y-41464285D01*
X165642857Y-41392857D01*
X165785714Y-41392857D01*
X165928571Y-41464285D01*
X166000000Y-41535714D01*
X166071428Y-41678571D01*
X166071428Y-42035714D01*
X166000000Y-42250000D01*
X164571428Y-42892857D02*
X166071428Y-42892857D01*
X164571428Y-43535714D02*
X165357142Y-43535714D01*
X165500000Y-43464285D01*
X165571428Y-43321428D01*
X165571428Y-43107142D01*
X165500000Y-42964285D01*
X165428571Y-42892857D01*
X164571428Y-44892857D02*
X165357142Y-44892857D01*
X165500000Y-44821428D01*
X165571428Y-44678571D01*
X165571428Y-44392857D01*
X165500000Y-44250000D01*
X164642857Y-44892857D02*
X164571428Y-44750000D01*
X164571428Y-44392857D01*
X164642857Y-44250000D01*
X164785714Y-44178571D01*
X164928571Y-44178571D01*
X165071428Y-44250000D01*
X165142857Y-44392857D01*
X165142857Y-44750000D01*
X165214285Y-44892857D01*
X164571428Y-45607142D02*
X165571428Y-45607142D01*
X165285714Y-45607142D02*
X165428571Y-45678571D01*
X165500000Y-45750000D01*
X165571428Y-45892857D01*
X165571428Y-46035714D01*
X165571428Y-46535714D02*
X164071428Y-46535714D01*
X165500000Y-46535714D02*
X165571428Y-46678571D01*
X165571428Y-46964285D01*
X165500000Y-47107142D01*
X165428571Y-47178571D01*
X165285714Y-47250000D01*
X164857142Y-47250000D01*
X164714285Y-47178571D01*
X164642857Y-47107142D01*
X164571428Y-46964285D01*
X164571428Y-46678571D01*
X164642857Y-46535714D01*
X164571428Y-49035714D02*
X165571428Y-49035714D01*
X165428571Y-49035714D02*
X165500000Y-49107142D01*
X165571428Y-49250000D01*
X165571428Y-49464285D01*
X165500000Y-49607142D01*
X165357142Y-49678571D01*
X164571428Y-49678571D01*
X165357142Y-49678571D02*
X165500000Y-49750000D01*
X165571428Y-49892857D01*
X165571428Y-50107142D01*
X165500000Y-50250000D01*
X165357142Y-50321428D01*
X164571428Y-50321428D01*
X164642857Y-51607142D02*
X164571428Y-51464285D01*
X164571428Y-51178571D01*
X164642857Y-51035714D01*
X164785714Y-50964285D01*
X165357142Y-50964285D01*
X165500000Y-51035714D01*
X165571428Y-51178571D01*
X165571428Y-51464285D01*
X165500000Y-51607142D01*
X165357142Y-51678571D01*
X165214285Y-51678571D01*
X165071428Y-50964285D01*
X164571428Y-52321428D02*
X165571428Y-52321428D01*
X165428571Y-52321428D02*
X165500000Y-52392857D01*
X165571428Y-52535714D01*
X165571428Y-52750000D01*
X165500000Y-52892857D01*
X165357142Y-52964285D01*
X164571428Y-52964285D01*
X165357142Y-52964285D02*
X165500000Y-53035714D01*
X165571428Y-53178571D01*
X165571428Y-53392857D01*
X165500000Y-53535714D01*
X165357142Y-53607142D01*
X164571428Y-53607142D01*
X164571428Y-54535714D02*
X164642857Y-54392857D01*
X164714285Y-54321428D01*
X164857142Y-54250000D01*
X165285714Y-54250000D01*
X165428571Y-54321428D01*
X165500000Y-54392857D01*
X165571428Y-54535714D01*
X165571428Y-54750000D01*
X165500000Y-54892857D01*
X165428571Y-54964285D01*
X165285714Y-55035714D01*
X164857142Y-55035714D01*
X164714285Y-54964285D01*
X164642857Y-54892857D01*
X164571428Y-54750000D01*
X164571428Y-54535714D01*
X164571428Y-55678571D02*
X165571428Y-55678571D01*
X165285714Y-55678571D02*
X165428571Y-55750000D01*
X165500000Y-55821428D01*
X165571428Y-55964285D01*
X165571428Y-56107142D01*
X165571428Y-56464285D02*
X164571428Y-56821428D01*
X165571428Y-57178571D02*
X164571428Y-56821428D01*
X164214285Y-56678571D01*
X164142857Y-56607142D01*
X164071428Y-56464285D01*
X164571428Y-59607142D02*
X164571428Y-58892857D01*
X166071428Y-58892857D01*
X164714285Y-60964285D02*
X164642857Y-60892857D01*
X164571428Y-60678571D01*
X164571428Y-60535714D01*
X164642857Y-60321428D01*
X164785714Y-60178571D01*
X164928571Y-60107142D01*
X165214285Y-60035714D01*
X165428571Y-60035714D01*
X165714285Y-60107142D01*
X165857142Y-60178571D01*
X166000000Y-60321428D01*
X166071428Y-60535714D01*
X166071428Y-60678571D01*
X166000000Y-60892857D01*
X165928571Y-60964285D01*
X164571428Y-61607142D02*
X166071428Y-61607142D01*
X166071428Y-61964285D01*
X166000000Y-62178571D01*
X165857142Y-62321428D01*
X165714285Y-62392857D01*
X165428571Y-62464285D01*
X165214285Y-62464285D01*
X164928571Y-62392857D01*
X164785714Y-62321428D01*
X164642857Y-62178571D01*
X164571428Y-61964285D01*
X164571428Y-61607142D01*
X165357142Y-64750000D02*
X165285714Y-64964285D01*
X165214285Y-65035714D01*
X165071428Y-65107142D01*
X164857142Y-65107142D01*
X164714285Y-65035714D01*
X164642857Y-64964285D01*
X164571428Y-64821428D01*
X164571428Y-64250000D01*
X166071428Y-64250000D01*
X166071428Y-64750000D01*
X166000000Y-64892857D01*
X165928571Y-64964285D01*
X165785714Y-65035714D01*
X165642857Y-65035714D01*
X165500000Y-64964285D01*
X165428571Y-64892857D01*
X165357142Y-64750000D01*
X165357142Y-64250000D01*
X164571428Y-65750000D02*
X165571428Y-65750000D01*
X165285714Y-65750000D02*
X165428571Y-65821428D01*
X165500000Y-65892857D01*
X165571428Y-66035714D01*
X165571428Y-66178571D01*
X164642857Y-67250000D02*
X164571428Y-67107142D01*
X164571428Y-66821428D01*
X164642857Y-66678571D01*
X164785714Y-66607142D01*
X165357142Y-66607142D01*
X165500000Y-66678571D01*
X165571428Y-66821428D01*
X165571428Y-67107142D01*
X165500000Y-67250000D01*
X165357142Y-67321428D01*
X165214285Y-67321428D01*
X165071428Y-66607142D01*
X164571428Y-68607142D02*
X165357142Y-68607142D01*
X165500000Y-68535714D01*
X165571428Y-68392857D01*
X165571428Y-68107142D01*
X165500000Y-67964285D01*
X164642857Y-68607142D02*
X164571428Y-68464285D01*
X164571428Y-68107142D01*
X164642857Y-67964285D01*
X164785714Y-67892857D01*
X164928571Y-67892857D01*
X165071428Y-67964285D01*
X165142857Y-68107142D01*
X165142857Y-68464285D01*
X165214285Y-68607142D01*
X164571428Y-69321428D02*
X166071428Y-69321428D01*
X165142857Y-69464285D02*
X164571428Y-69892857D01*
X165571428Y-69892857D02*
X165000000Y-69321428D01*
X164571428Y-70750000D02*
X164642857Y-70607142D01*
X164714285Y-70535714D01*
X164857142Y-70464285D01*
X165285714Y-70464285D01*
X165428571Y-70535714D01*
X165500000Y-70607142D01*
X165571428Y-70750000D01*
X165571428Y-70964285D01*
X165500000Y-71107142D01*
X165428571Y-71178571D01*
X165285714Y-71250000D01*
X164857142Y-71250000D01*
X164714285Y-71178571D01*
X164642857Y-71107142D01*
X164571428Y-70964285D01*
X164571428Y-70750000D01*
X165571428Y-72535714D02*
X164571428Y-72535714D01*
X165571428Y-71892857D02*
X164785714Y-71892857D01*
X164642857Y-71964285D01*
X164571428Y-72107142D01*
X164571428Y-72321428D01*
X164642857Y-72464285D01*
X164714285Y-72535714D01*
X165571428Y-73035714D02*
X165571428Y-73607142D01*
X166071428Y-73250000D02*
X164785714Y-73250000D01*
X164642857Y-73321428D01*
X164571428Y-73464285D01*
X164571428Y-73607142D01*
X164571428Y-76107142D02*
X165285714Y-75607142D01*
X164571428Y-75250000D02*
X166071428Y-75250000D01*
X166071428Y-75821428D01*
X166000000Y-75964285D01*
X165928571Y-76035714D01*
X165785714Y-76107142D01*
X165571428Y-76107142D01*
X165428571Y-76035714D01*
X165357142Y-75964285D01*
X165285714Y-75821428D01*
X165285714Y-75250000D01*
X164642857Y-77321428D02*
X164571428Y-77178571D01*
X164571428Y-76892857D01*
X164642857Y-76750000D01*
X164785714Y-76678571D01*
X165357142Y-76678571D01*
X165500000Y-76750000D01*
X165571428Y-76892857D01*
X165571428Y-77178571D01*
X165500000Y-77321428D01*
X165357142Y-77392857D01*
X165214285Y-77392857D01*
X165071428Y-76678571D01*
X165571428Y-77892857D02*
X164571428Y-78250000D01*
X165571428Y-78607142D01*
X164714285Y-79178571D02*
X164642857Y-79250000D01*
X164571428Y-79178571D01*
X164642857Y-79107142D01*
X164714285Y-79178571D01*
X164571428Y-79178571D01*
X165000000Y-80964285D02*
X165000000Y-81678571D01*
X164571428Y-80821428D02*
X166071428Y-81321428D01*
X164571428Y-81821428D01*
X166071428Y-82607142D02*
X166071428Y-82750000D01*
X166000000Y-82892857D01*
X165928571Y-82964285D01*
X165785714Y-83035714D01*
X165500000Y-83107142D01*
X165142857Y-83107142D01*
X164857142Y-83035714D01*
X164714285Y-82964285D01*
X164642857Y-82892857D01*
X164571428Y-82750000D01*
X164571428Y-82607142D01*
X164642857Y-82464285D01*
X164714285Y-82392857D01*
X164857142Y-82321428D01*
X165142857Y-82250000D01*
X165500000Y-82250000D01*
X165785714Y-82321428D01*
X165928571Y-82392857D01*
X166000000Y-82464285D01*
X166071428Y-82607142D01*
D10*
X160000000Y-104000000D02*
X160000000Y-19000000D01*
X215000000Y-104000000D02*
X160000000Y-104000000D01*
X215000000Y-19000000D02*
X215000000Y-104000000D01*
D12*
%TO.P,J2,12*%
%TO.N,GND*%
X182783701Y-99990000D03*
%TO.P,J2,11*%
X189616301Y-99990000D03*
D13*
%TO.P,J2,10*%
X188450002Y-97450000D03*
%TO.P,J2,9*%
X187950000Y-97450000D03*
%TO.P,J2,8*%
%TO.N,/EXTMODE*%
X187450001Y-97450000D03*
%TO.P,J2,7*%
%TO.N,+5V*%
X186950002Y-97450000D03*
%TO.P,J2,6*%
X186450001Y-97450000D03*
%TO.P,J2,5*%
%TO.N,/LCD_DISP_DISP*%
X185950001Y-97450000D03*
%TO.P,J2,4*%
%TO.N,/EXTCOMIN*%
X185450000Y-97450000D03*
%TO.P,J2,3*%
%TO.N,/SPI0_NPCS0_SCS*%
X184950001Y-97450000D03*
%TO.P,J2,2*%
%TO.N,/SPI0_MOSI_SI*%
X184450002Y-97450000D03*
%TO.P,J2,1*%
%TO.N,/SPI0_SPCK_SCK*%
X183950000Y-97450000D03*
%TD*%
D14*
%TO.P,REF\u002A\u002A,1*%
%TO.N,N/C*%
X163500000Y-22500000D03*
%TD*%
%TO.P,REF\u002A\u002A,1*%
%TO.N,N/C*%
X211500000Y-100500000D03*
%TD*%
%TO.P,REF\u002A\u002A,1*%
%TO.N,N/C*%
X163500000Y-100500000D03*
%TD*%
%TO.P,REF\u002A\u002A,1*%
%TO.N,N/C*%
X211500000Y-22500000D03*
%TD*%
%TO.P,C2,2*%
%TO.N,GND*%
%TA.AperFunction,SMDPad,CuDef*%
G36*
G01*
X188800000Y-90275000D02*
X188800000Y-89325000D01*
G75*
G02*
X189050000Y-89075000I250000J0D01*
G01*
X189550000Y-89075000D01*
G75*
G02*
X189800000Y-89325000I0J-250000D01*
G01*
X189800000Y-90275000D01*
G75*
G02*
X189550000Y-90525000I-250000J0D01*
G01*
X189050000Y-90525000D01*
G75*
G02*
X188800000Y-90275000I0J250000D01*
G01*
G37*
%TD.AperFunction*%
%TO.P,C2,1*%
%TO.N,+5V*%
%TA.AperFunction,SMDPad,CuDef*%
G36*
G01*
X186900000Y-90275000D02*
X186900000Y-89325000D01*
G75*
G02*
X187150000Y-89075000I250000J0D01*
G01*
X187650000Y-89075000D01*
G75*
G02*
X187900000Y-89325000I0J-250000D01*
G01*
X187900000Y-90275000D01*
G75*
G02*
X187650000Y-90525000I-250000J0D01*
G01*
X187150000Y-90525000D01*
G75*
G02*
X186900000Y-90275000I0J250000D01*
G01*
G37*
%TD.AperFunction*%
%TD*%
%TO.P,R2,2*%
%TO.N,+5V*%
%TA.AperFunction,SMDPad,CuDef*%
G36*
G01*
X186150000Y-94399998D02*
X186150000Y-95300002D01*
G75*
G02*
X185900002Y-95550000I-249998J0D01*
G01*
X185374998Y-95550000D01*
G75*
G02*
X185125000Y-95300002I0J249998D01*
G01*
X185125000Y-94399998D01*
G75*
G02*
X185374998Y-94150000I249998J0D01*
G01*
X185900002Y-94150000D01*
G75*
G02*
X186150000Y-94399998I0J-249998D01*
G01*
G37*
%TD.AperFunction*%
%TO.P,R2,1*%
%TO.N,/EXTMODE*%
%TA.AperFunction,SMDPad,CuDef*%
G36*
G01*
X187975000Y-94399998D02*
X187975000Y-95300002D01*
G75*
G02*
X187725002Y-95550000I-249998J0D01*
G01*
X187199998Y-95550000D01*
G75*
G02*
X186950000Y-95300002I0J249998D01*
G01*
X186950000Y-94399998D01*
G75*
G02*
X187199998Y-94150000I249998J0D01*
G01*
X187725002Y-94150000D01*
G75*
G02*
X187975000Y-94399998I0J-249998D01*
G01*
G37*
%TD.AperFunction*%
%TD*%
%TO.P,C1,1*%
%TO.N,/LCD_DISP_DISP*%
%TA.AperFunction,SMDPad,CuDef*%
G36*
G01*
X185885000Y-91820000D02*
X185885000Y-92320000D01*
G75*
G02*
X185660000Y-92545000I-225000J0D01*
G01*
X185210000Y-92545000D01*
G75*
G02*
X184985000Y-92320000I0J225000D01*
G01*
X184985000Y-91820000D01*
G75*
G02*
X185210000Y-91595000I225000J0D01*
G01*
X185660000Y-91595000D01*
G75*
G02*
X185885000Y-91820000I0J-225000D01*
G01*
G37*
%TD.AperFunction*%
%TO.P,C1,2*%
%TO.N,GND*%
%TA.AperFunction,SMDPad,CuDef*%
G36*
G01*
X184335000Y-91820000D02*
X184335000Y-92320000D01*
G75*
G02*
X184110000Y-92545000I-225000J0D01*
G01*
X183660000Y-92545000D01*
G75*
G02*
X183435000Y-92320000I0J225000D01*
G01*
X183435000Y-91820000D01*
G75*
G02*
X183660000Y-91595000I225000J0D01*
G01*
X184110000Y-91595000D01*
G75*
G02*
X184335000Y-91820000I0J-225000D01*
G01*
G37*
%TD.AperFunction*%
%TD*%
%TO.P,C3,1*%
%TO.N,+5V*%
%TA.AperFunction,SMDPad,CuDef*%
G36*
G01*
X186900000Y-92325000D02*
X186900000Y-91375000D01*
G75*
G02*
X187150000Y-91125000I250000J0D01*
G01*
X187650000Y-91125000D01*
G75*
G02*
X187900000Y-91375000I0J-250000D01*
G01*
X187900000Y-92325000D01*
G75*
G02*
X187650000Y-92575000I-250000J0D01*
G01*
X187150000Y-92575000D01*
G75*
G02*
X186900000Y-92325000I0J250000D01*
G01*
G37*
%TD.AperFunction*%
%TO.P,C3,2*%
%TO.N,GND*%
%TA.AperFunction,SMDPad,CuDef*%
G36*
G01*
X188800000Y-92325000D02*
X188800000Y-91375000D01*
G75*
G02*
X189050000Y-91125000I250000J0D01*
G01*
X189550000Y-91125000D01*
G75*
G02*
X189800000Y-91375000I0J-250000D01*
G01*
X189800000Y-92325000D01*
G75*
G02*
X189550000Y-92575000I-250000J0D01*
G01*
X189050000Y-92575000D01*
G75*
G02*
X188800000Y-92325000I0J250000D01*
G01*
G37*
%TD.AperFunction*%
%TD*%
%TO.P,R3,2*%
%TO.N,GND*%
%TA.AperFunction,SMDPad,CuDef*%
G36*
G01*
X190487500Y-95300002D02*
X190487500Y-94399998D01*
G75*
G02*
X190737498Y-94150000I249998J0D01*
G01*
X191262502Y-94150000D01*
G75*
G02*
X191512500Y-94399998I0J-249998D01*
G01*
X191512500Y-95300002D01*
G75*
G02*
X191262502Y-95550000I-249998J0D01*
G01*
X190737498Y-95550000D01*
G75*
G02*
X190487500Y-95300002I0J249998D01*
G01*
G37*
%TD.AperFunction*%
%TO.P,R3,1*%
%TO.N,/EXTMODE*%
%TA.AperFunction,SMDPad,CuDef*%
G36*
G01*
X188662500Y-95300002D02*
X188662500Y-94399998D01*
G75*
G02*
X188912498Y-94150000I249998J0D01*
G01*
X189437502Y-94150000D01*
G75*
G02*
X189687500Y-94399998I0J-249998D01*
G01*
X189687500Y-95300002D01*
G75*
G02*
X189437502Y-95550000I-249998J0D01*
G01*
X188912498Y-95550000D01*
G75*
G02*
X188662500Y-95300002I0J249998D01*
G01*
G37*
%TD.AperFunction*%
%TD*%
%TO.P,R4,2*%
%TO.N,/LCD_PWM*%
%TA.AperFunction,SMDPad,CuDef*%
G36*
G01*
X184450000Y-86174998D02*
X184450000Y-87075002D01*
G75*
G02*
X184200002Y-87325000I-249998J0D01*
G01*
X183674998Y-87325000D01*
G75*
G02*
X183425000Y-87075002I0J249998D01*
G01*
X183425000Y-86174998D01*
G75*
G02*
X183674998Y-85925000I249998J0D01*
G01*
X184200002Y-85925000D01*
G75*
G02*
X184450000Y-86174998I0J-249998D01*
G01*
G37*
%TD.AperFunction*%
%TO.P,R4,1*%
%TO.N,/EXTCOMIN*%
%TA.AperFunction,SMDPad,CuDef*%
G36*
G01*
X186275000Y-86174998D02*
X186275000Y-87075002D01*
G75*
G02*
X186025002Y-87325000I-249998J0D01*
G01*
X185499998Y-87325000D01*
G75*
G02*
X185250000Y-87075002I0J249998D01*
G01*
X185250000Y-86174998D01*
G75*
G02*
X185499998Y-85925000I249998J0D01*
G01*
X186025002Y-85925000D01*
G75*
G02*
X186275000Y-86174998I0J-249998D01*
G01*
G37*
%TD.AperFunction*%
%TD*%
%TO.P,R5,1*%
%TO.N,/EXTCOMIN*%
%TA.AperFunction,SMDPad,CuDef*%
G36*
G01*
X186875000Y-87075002D02*
X186875000Y-86174998D01*
G75*
G02*
X187124998Y-85925000I249998J0D01*
G01*
X187650002Y-85925000D01*
G75*
G02*
X187900000Y-86174998I0J-249998D01*
G01*
X187900000Y-87075002D01*
G75*
G02*
X187650002Y-87325000I-249998J0D01*
G01*
X187124998Y-87325000D01*
G75*
G02*
X186875000Y-87075002I0J249998D01*
G01*
G37*
%TD.AperFunction*%
%TO.P,R5,2*%
%TO.N,GND*%
%TA.AperFunction,SMDPad,CuDef*%
G36*
G01*
X188700000Y-87075002D02*
X188700000Y-86174998D01*
G75*
G02*
X188949998Y-85925000I249998J0D01*
G01*
X189475002Y-85925000D01*
G75*
G02*
X189725000Y-86174998I0J-249998D01*
G01*
X189725000Y-87075002D01*
G75*
G02*
X189475002Y-87325000I-249998J0D01*
G01*
X188949998Y-87325000D01*
G75*
G02*
X188700000Y-87075002I0J249998D01*
G01*
G37*
%TD.AperFunction*%
%TD*%
%TO.P,R1,1*%
%TO.N,+5V*%
%TA.AperFunction,SMDPad,CuDef*%
G36*
G01*
X186295000Y-89339998D02*
X186295000Y-90240002D01*
G75*
G02*
X186045002Y-90490000I-249998J0D01*
G01*
X185519998Y-90490000D01*
G75*
G02*
X185270000Y-90240002I0J249998D01*
G01*
X185270000Y-89339998D01*
G75*
G02*
X185519998Y-89090000I249998J0D01*
G01*
X186045002Y-89090000D01*
G75*
G02*
X186295000Y-89339998I0J-249998D01*
G01*
G37*
%TD.AperFunction*%
%TO.P,R1,2*%
%TO.N,/5V*%
%TA.AperFunction,SMDPad,CuDef*%
G36*
G01*
X184470000Y-89339998D02*
X184470000Y-90240002D01*
G75*
G02*
X184220002Y-90490000I-249998J0D01*
G01*
X183694998Y-90490000D01*
G75*
G02*
X183445000Y-90240002I0J249998D01*
G01*
X183445000Y-89339998D01*
G75*
G02*
X183694998Y-89090000I249998J0D01*
G01*
X184220002Y-89090000D01*
G75*
G02*
X184470000Y-89339998I0J-249998D01*
G01*
G37*
%TD.AperFunction*%
%TD*%
D15*
%TO.P,J1,1*%
%TO.N,/PA17*%
X199700000Y-26950000D03*
%TO.P,J1,2*%
%TO.N,GND*%
X199200001Y-26950000D03*
%TO.P,J1,3*%
%TO.N,/LCD_DAT0*%
X198699999Y-26950000D03*
%TO.P,J1,4*%
%TO.N,/LCD_DAT1*%
X198200000Y-26950000D03*
%TO.P,J1,5*%
%TO.N,/LCD_DAT2*%
X197700001Y-26950000D03*
%TO.P,J1,6*%
%TO.N,/LCD_DAT3*%
X197200000Y-26950000D03*
%TO.P,J1,7*%
%TO.N,GND*%
X196700001Y-26950000D03*
%TO.P,J1,8*%
%TO.N,/LCD_DAT4*%
X196199999Y-26950000D03*
%TO.P,J1,9*%
%TO.N,/LCD_DAT5*%
X195700000Y-26950000D03*
%TO.P,J1,10*%
%TO.N,/LCD_DAT6*%
X195200001Y-26950000D03*
%TO.P,J1,11*%
%TO.N,/LCD_DAT7*%
X194700000Y-26950000D03*
%TO.P,J1,12*%
%TO.N,GND*%
X194200001Y-26950000D03*
%TO.P,J1,13*%
%TO.N,/LCD_DAT8*%
X193699999Y-26950000D03*
%TO.P,J1,14*%
%TO.N,/LCD_DAT9*%
X193200000Y-26950000D03*
%TO.P,J1,15*%
%TO.N,/LCD_DAT10*%
X192700001Y-26950000D03*
%TO.P,J1,16*%
%TO.N,/LCD_DAT11*%
X192200000Y-26950000D03*
%TO.P,J1,17*%
%TO.N,GND*%
X191700001Y-26950000D03*
%TO.P,J1,18*%
%TO.N,/LCD_DAT12*%
X191199999Y-26950000D03*
%TO.P,J1,19*%
%TO.N,/LCD_DAT13*%
X190700000Y-26950000D03*
%TO.P,J1,20*%
%TO.N,/LCD_DAT14*%
X190200001Y-26950000D03*
%TO.P,J1,21*%
%TO.N,/LCD_DAT15*%
X189700000Y-26950000D03*
%TO.P,J1,22*%
%TO.N,GND*%
X189200001Y-26950000D03*
%TO.P,J1,23*%
%TO.N,/LCD_DAT16*%
X188699999Y-26950000D03*
%TO.P,J1,24*%
%TO.N,/LCD_DAT17*%
X188200000Y-26950000D03*
%TO.P,J1,25*%
%TO.N,/LCD_DAT18*%
X187700001Y-26950000D03*
%TO.P,J1,26*%
%TO.N,/LCD_DAT19*%
X187199999Y-26950000D03*
%TO.P,J1,27*%
%TO.N,GND*%
X186700001Y-26950000D03*
%TO.P,J1,28*%
%TO.N,/LCD_DAT20*%
X186199999Y-26950000D03*
%TO.P,J1,29*%
%TO.N,/LCD_DAT21*%
X185700000Y-26950000D03*
%TO.P,J1,30*%
%TO.N,/LCD_DAT22*%
X185200001Y-26950000D03*
%TO.P,J1,31*%
%TO.N,/LCD_DAT23*%
X184699999Y-26950000D03*
%TO.P,J1,32*%
%TO.N,GND*%
X184200000Y-26950000D03*
%TO.P,J1,33*%
%TO.N,/LCD_PCK*%
X183699999Y-26950000D03*
%TO.P,J1,34*%
%TO.N,/LCD_VSYNC*%
X183200000Y-26950000D03*
%TO.P,J1,35*%
%TO.N,/LCD_HSYNC*%
X182700001Y-26950000D03*
%TO.P,J1,36*%
%TO.N,/LCD_EN*%
X182199999Y-26950000D03*
%TO.P,J1,37*%
%TO.N,/SPI0_SPCK_SCK*%
X181700000Y-26950000D03*
%TO.P,J1,38*%
%TO.N,/SPI0_MOSI_SI*%
X181199999Y-26950000D03*
%TO.P,J1,39*%
%TO.N,/SPI0_MISO*%
X180700000Y-26950000D03*
%TO.P,J1,40*%
%TO.N,/SPI0_NPCS0_SCS*%
X180200001Y-26950000D03*
%TO.P,J1,41*%
%TO.N,/LCD_DISP_DISP*%
X179699999Y-26950000D03*
%TO.P,J1,42*%
%TO.N,/TWD_LCD*%
X179200000Y-26950000D03*
%TO.P,J1,43*%
%TO.N,/TWCK_LCD*%
X178699999Y-26950000D03*
%TO.P,J1,44*%
%TO.N,/IRQ1*%
X178200000Y-26950000D03*
%TO.P,J1,45*%
%TO.N,/IRQ2*%
X177700001Y-26950000D03*
%TO.P,J1,46*%
%TO.N,/LCD_PWM*%
X177199999Y-26950000D03*
%TO.P,J1,47*%
%TO.N,/NRST*%
X176700000Y-26950000D03*
%TO.P,J1,48*%
%TO.N,/5V*%
X176200001Y-26950000D03*
%TO.P,J1,49*%
X175700000Y-26950000D03*
%TO.P,J1,50*%
%TO.N,GND*%
X175200001Y-26950000D03*
D16*
%TO.P,J1,51*%
X173543499Y-22936800D03*
%TO.P,J1,52*%
X201356499Y-22936800D03*
%TD*%
D17*
%TO.N,GND*%
X191000000Y-86600000D03*
X198000000Y-86600000D03*
X180450000Y-88150000D03*
X186600000Y-88200000D03*
X191950000Y-100000000D03*
X198000000Y-100000000D03*
%TD*%
D18*
%TO.N,/LCD_DISP_DISP*%
X185950000Y-96450000D02*
X185950000Y-97449800D01*
X185750000Y-96250000D02*
X185950000Y-96450000D01*
X185435000Y-92070000D02*
X185435000Y-92965000D01*
X184650000Y-93750000D02*
X184650000Y-95900000D01*
X185435000Y-92965000D02*
X184650000Y-93750000D01*
X184650000Y-95900000D02*
X185000000Y-96250000D01*
X185000000Y-96250000D02*
X185750000Y-96250000D01*
X179700000Y-28751100D02*
X179700000Y-26951100D01*
X185435000Y-91465000D02*
X184850000Y-90880000D01*
X184850000Y-36050000D02*
X179700000Y-30900000D01*
X185435000Y-92070000D02*
X185435000Y-91465000D01*
X184850000Y-90880000D02*
X184850000Y-36050000D01*
X179700000Y-30900000D02*
X179700000Y-28751100D01*
%TO.N,GND*%
X199200002Y-26974998D02*
X199200002Y-28751100D01*
X196700002Y-28751100D02*
X196700002Y-26975002D01*
X196700002Y-26975002D02*
X196700006Y-26974998D01*
X194200002Y-28751100D02*
X194200002Y-26975002D01*
X191700002Y-28751100D02*
X191700002Y-26975002D01*
X189200002Y-28751100D02*
X189200002Y-26975002D01*
X186700002Y-28751100D02*
X186700002Y-26975002D01*
X186700000Y-26975000D02*
X186700002Y-26975002D01*
X173543500Y-24737900D02*
X173543500Y-25318500D01*
X183800000Y-91850000D02*
X183750000Y-91900000D01*
X191000000Y-91850000D02*
X191000000Y-94850000D01*
X191000000Y-91850000D02*
X191000000Y-90500000D01*
X190950000Y-89100000D02*
X191000000Y-89150000D01*
X196700000Y-29001102D02*
X196700002Y-29001100D01*
X199200000Y-30450000D02*
X196700000Y-30450000D01*
X196700000Y-30450000D02*
X196700000Y-29001102D01*
X199200002Y-29001100D02*
X199200002Y-30449998D01*
X199200002Y-30449998D02*
X199200000Y-30450000D01*
X194200002Y-29001100D02*
X194200002Y-30349998D01*
X194200002Y-30349998D02*
X194200000Y-30350000D01*
X194200000Y-30350000D02*
X191700000Y-30350000D01*
X191700000Y-29001102D02*
X191700002Y-29001100D01*
X191700000Y-30350000D02*
X191700000Y-29001102D01*
X189200002Y-29001100D02*
X189200002Y-30549998D01*
X189200002Y-30549998D02*
X189200000Y-30550000D01*
X189200000Y-30550000D02*
X186700000Y-30550000D01*
X186700000Y-29001102D02*
X186700002Y-29001100D01*
X186700000Y-30550000D02*
X186700000Y-29001102D01*
X184200001Y-29001100D02*
X184200000Y-29657501D01*
X184200000Y-29657501D02*
X184200000Y-30500000D01*
X184250000Y-30550000D02*
X184200000Y-30500000D01*
X186700000Y-30550000D02*
X184250000Y-30550000D01*
X189110000Y-91840000D02*
X189100000Y-91850000D01*
X191000000Y-91850000D02*
X189300000Y-91850000D01*
X189300000Y-89800000D02*
X191000000Y-89800000D01*
X191000000Y-89150000D02*
X191000000Y-89800000D01*
X191000000Y-89800000D02*
X191000000Y-90500000D01*
X191000000Y-94850000D02*
X191000000Y-96000000D01*
X191000000Y-96000000D02*
X188850000Y-96000000D01*
X188450001Y-96399999D02*
X188450001Y-97449800D01*
X188850000Y-96000000D02*
X188450001Y-96399999D01*
X188450001Y-97449800D02*
X187949999Y-97449800D01*
X196700002Y-26294700D02*
X196700000Y-26294698D01*
X196700002Y-26951100D02*
X196700002Y-26294700D01*
X196700000Y-26294698D02*
X196700000Y-25800000D01*
X196700000Y-25800000D02*
X199200000Y-25800000D01*
X199200002Y-25800002D02*
X199200002Y-26951100D01*
X199200000Y-25800000D02*
X199200002Y-25800002D01*
X194200002Y-26951100D02*
X194200002Y-25649998D01*
X196549998Y-25649998D02*
X196700000Y-25800000D01*
X194200002Y-25649998D02*
X196549998Y-25649998D01*
X191700002Y-26951100D02*
X191700002Y-25849998D01*
X191900002Y-25649998D02*
X194200002Y-25649998D01*
X191700002Y-25849998D02*
X191900002Y-25649998D01*
X186700002Y-26951100D02*
X186700002Y-25899998D01*
X186700002Y-25899998D02*
X186800000Y-25800000D01*
X186800000Y-25800000D02*
X189200000Y-25800000D01*
X189200000Y-26951098D02*
X189200002Y-26951100D01*
X189200000Y-25800000D02*
X189200000Y-26951098D01*
X175200002Y-25609998D02*
X175200002Y-28751100D01*
X175370000Y-25440000D02*
X175200002Y-25609998D01*
X184200001Y-28751100D02*
X184200000Y-25495999D01*
X184144001Y-25440000D02*
X175370000Y-25440000D01*
X184200000Y-25495999D02*
X184144001Y-25440000D01*
%TO.N,+5V*%
X185637500Y-94850000D02*
X185637500Y-94612500D01*
X185637500Y-94850000D02*
X185637500Y-94712500D01*
X185637500Y-94850000D02*
X185637500Y-94662500D01*
X185650000Y-94837500D02*
X185637500Y-94850000D01*
X185637500Y-94850000D02*
X185637500Y-95137500D01*
X185637500Y-93762500D02*
X185637500Y-94850000D01*
X186300000Y-93100000D02*
X185637500Y-93762500D01*
X185792500Y-89800000D02*
X185782500Y-89790000D01*
X187390000Y-89790000D02*
X187400000Y-89800000D01*
D19*
X185782500Y-89790000D02*
X187390000Y-89790000D01*
D18*
X186300000Y-93100000D02*
X187050000Y-93100000D01*
X187400000Y-92750000D02*
X187400000Y-91850000D01*
X187050000Y-93100000D02*
X187400000Y-92750000D01*
X185782500Y-89790000D02*
X185782500Y-90232500D01*
D19*
X187400000Y-91850000D02*
X186500000Y-91850000D01*
X186500000Y-91850000D02*
X186500000Y-91550000D01*
X185782500Y-90832500D02*
X185782500Y-89790000D01*
X186500000Y-91550000D02*
X185782500Y-90832500D01*
D18*
X186540000Y-93910000D02*
X186540000Y-95540000D01*
X186850000Y-93600000D02*
X186540000Y-93910000D01*
X188100000Y-89800000D02*
X188350000Y-90050000D01*
X186540000Y-95540000D02*
X186950001Y-95950001D01*
X187400000Y-89800000D02*
X188100000Y-89800000D01*
X188350000Y-92750000D02*
X187500000Y-93600000D01*
X187500000Y-93600000D02*
X186850000Y-93600000D01*
X188350000Y-90050000D02*
X188350000Y-92750000D01*
X185637500Y-95387500D02*
X185637500Y-94850000D01*
X186450000Y-97449800D02*
X186449999Y-96199999D01*
X186449999Y-96199999D02*
X185637500Y-95387500D01*
X186950001Y-97449800D02*
X186950001Y-95950001D01*
%TO.N,/EXTMODE*%
X187462500Y-94850000D02*
X189137500Y-94850000D01*
X187450000Y-94862500D02*
X187462500Y-94850000D01*
X187450000Y-97449800D02*
X187450000Y-94862500D01*
%TO.N,/EXTCOMIN*%
X187387500Y-86625000D02*
X185762500Y-86625000D01*
X187387500Y-85712500D02*
X187387500Y-86625000D01*
X187600000Y-85500000D02*
X187387500Y-85712500D01*
X192500000Y-85500000D02*
X187600000Y-85500000D01*
X193100000Y-86100000D02*
X192500000Y-85500000D01*
X185449999Y-97927177D02*
X185872822Y-98350000D01*
X185449999Y-97449800D02*
X185449999Y-97927177D01*
X192650000Y-98350000D02*
X193100000Y-97900000D01*
X193100000Y-97900000D02*
X193100000Y-86100000D01*
X185872822Y-98350000D02*
X192650000Y-98350000D01*
%TO.N,/SPI0_SPCK_SCK*%
X187850000Y-101250000D02*
X187850000Y-100050000D01*
X188300011Y-101700011D02*
X187850000Y-101250000D01*
X187850000Y-100050000D02*
X187779616Y-99979616D01*
X186850000Y-83500000D02*
X193800044Y-83500000D01*
X186500000Y-83150000D02*
X186850000Y-83500000D01*
X187779616Y-99979616D02*
X185570384Y-99979616D01*
X186500000Y-35050000D02*
X186500000Y-83150000D01*
X194750022Y-84450022D02*
X195000000Y-84700000D01*
X181700001Y-30250001D02*
X186500000Y-35050000D01*
X181700001Y-28751100D02*
X181700001Y-30250001D01*
X194386400Y-101700011D02*
X188300011Y-101700011D01*
X193800044Y-83500000D02*
X194750022Y-84449978D01*
X195000000Y-101086411D02*
X194386400Y-101700011D01*
X194750022Y-84449978D02*
X194750022Y-84450022D01*
X183949999Y-98359232D02*
X183949999Y-97250000D01*
X185570384Y-99979616D02*
X183949999Y-98359232D01*
X195000000Y-84700000D02*
X195000000Y-101086411D01*
X181700001Y-28751100D02*
X181700001Y-26951100D01*
%TO.N,/SPI0_MOSI_SI*%
X194400000Y-100900000D02*
X194050000Y-101250000D01*
X194400000Y-85050000D02*
X194400000Y-100900000D01*
X186618205Y-84118205D02*
X193468205Y-84118205D01*
X193468205Y-84118205D02*
X194400000Y-85050000D01*
X185950000Y-83450000D02*
X186618205Y-84118205D01*
X184450001Y-98222823D02*
X184450001Y-97449800D01*
X185950000Y-35400000D02*
X185950000Y-83450000D01*
X181200000Y-30650000D02*
X185950000Y-35400000D01*
X181200000Y-28751100D02*
X181200000Y-30650000D01*
X185613589Y-99386411D02*
X188086411Y-99386411D01*
X185613589Y-99386411D02*
X184450001Y-98222823D01*
X188086411Y-99386411D02*
X188300000Y-99600000D01*
X188300000Y-100950000D02*
X188600000Y-101250000D01*
X188300000Y-99600000D02*
X188300000Y-100950000D01*
X194050000Y-101250000D02*
X188600000Y-101250000D01*
X181200000Y-28751100D02*
X181200000Y-26951100D01*
%TO.N,/SPI0_NPCS0_SCS*%
X180200002Y-28751100D02*
X180200002Y-29249998D01*
X180200002Y-29249998D02*
X180200002Y-29724998D01*
X185400000Y-35800000D02*
X180200002Y-30600002D01*
X186300020Y-84750020D02*
X185400000Y-83850000D01*
X185400000Y-83850000D02*
X185400000Y-35800000D01*
X193000020Y-84750020D02*
X186300020Y-84750020D01*
X180200002Y-30600002D02*
X180200002Y-29249998D01*
X184950000Y-98086411D02*
X185663600Y-98800011D01*
X193349989Y-98800011D02*
X193800011Y-98349989D01*
X193800011Y-85550011D02*
X193000020Y-84750020D01*
X184950000Y-97250000D02*
X184950000Y-98086411D01*
X185663600Y-98800011D02*
X193349989Y-98800011D01*
X193800011Y-98349989D02*
X193800011Y-85550011D01*
X180200002Y-28751100D02*
X180200002Y-26951100D01*
%TO.N,/LCD_PWM*%
X183937500Y-36337500D02*
X177200000Y-29600000D01*
X183937500Y-86625000D02*
X183937500Y-36337500D01*
X177200000Y-29001100D02*
X177200000Y-29600000D01*
X177200000Y-29001100D02*
X177200000Y-26951100D01*
D19*
%TO.N,/5V*%
X182800000Y-36899996D02*
X176200002Y-30299998D01*
X176200002Y-30299998D02*
X176200002Y-29500002D01*
X183957500Y-89790000D02*
X183957500Y-88657500D01*
X183957500Y-88657500D02*
X183650000Y-88350000D01*
X183150000Y-88350000D02*
X182800000Y-88000000D01*
X183650000Y-88350000D02*
X183150000Y-88350000D01*
X182800000Y-88000000D02*
X182800000Y-36899996D01*
X176200002Y-29500002D02*
X176200002Y-27690002D01*
D18*
X176200002Y-27690002D02*
X176200002Y-26951100D01*
X176200002Y-26951100D02*
X175700001Y-26951100D01*
%TD*%
D20*
%TO.N,GND*%
X214240001Y-103240000D02*
X160760000Y-103240000D01*
X160760000Y-100250324D01*
X160965000Y-100250324D01*
X160965000Y-100749676D01*
X161062418Y-101239432D01*
X161253512Y-101700773D01*
X161530937Y-102115968D01*
X161884032Y-102469063D01*
X162299227Y-102746488D01*
X162760568Y-102937582D01*
X163250324Y-103035000D01*
X163749676Y-103035000D01*
X164239432Y-102937582D01*
X164700773Y-102746488D01*
X165115968Y-102469063D01*
X165469063Y-102115968D01*
X165746488Y-101700773D01*
X165937582Y-101239432D01*
X166035000Y-100749676D01*
X166035000Y-100739300D01*
X181713829Y-100739300D01*
X181726089Y-100863782D01*
X181762399Y-100983480D01*
X181821364Y-101093794D01*
X181900716Y-101190485D01*
X181997407Y-101269837D01*
X182107721Y-101328802D01*
X182227419Y-101365112D01*
X182351901Y-101377372D01*
X182497951Y-101374300D01*
X182656701Y-101215550D01*
X182656701Y-100117000D01*
X182910701Y-100117000D01*
X182910701Y-101215550D01*
X183069451Y-101374300D01*
X183215501Y-101377372D01*
X183339983Y-101365112D01*
X183459681Y-101328802D01*
X183569995Y-101269837D01*
X183666686Y-101190485D01*
X183746038Y-101093794D01*
X183805003Y-100983480D01*
X183841313Y-100863782D01*
X183853573Y-100739300D01*
X183850501Y-100275750D01*
X183691751Y-100117000D01*
X182910701Y-100117000D01*
X182656701Y-100117000D01*
X181875651Y-100117000D01*
X181716901Y-100275750D01*
X181713829Y-100739300D01*
X166035000Y-100739300D01*
X166035000Y-100250324D01*
X165937582Y-99760568D01*
X165746488Y-99299227D01*
X165707382Y-99240700D01*
X181713829Y-99240700D01*
X181716901Y-99704250D01*
X181875651Y-99863000D01*
X182656701Y-99863000D01*
X182656701Y-98764450D01*
X182497951Y-98605700D01*
X182351901Y-98602628D01*
X182227419Y-98614888D01*
X182107721Y-98651198D01*
X181997407Y-98710163D01*
X181900716Y-98789515D01*
X181821364Y-98886206D01*
X181762399Y-98996520D01*
X181726089Y-99116218D01*
X181713829Y-99240700D01*
X165707382Y-99240700D01*
X165469063Y-98884032D01*
X165115968Y-98530937D01*
X164700773Y-98253512D01*
X164239432Y-98062418D01*
X163749676Y-97965000D01*
X163250324Y-97965000D01*
X162760568Y-98062418D01*
X162299227Y-98253512D01*
X161884032Y-98530937D01*
X161530937Y-98884032D01*
X161253512Y-99299227D01*
X161062418Y-99760568D01*
X160965000Y-100250324D01*
X160760000Y-100250324D01*
X160760000Y-92545000D01*
X182796928Y-92545000D01*
X182809188Y-92669482D01*
X182845498Y-92789180D01*
X182904463Y-92899494D01*
X182983815Y-92996185D01*
X183080506Y-93075537D01*
X183190820Y-93134502D01*
X183310518Y-93170812D01*
X183435000Y-93183072D01*
X183599250Y-93180000D01*
X183758000Y-93021250D01*
X183758000Y-92197000D01*
X182958750Y-92197000D01*
X182800000Y-92355750D01*
X182796928Y-92545000D01*
X160760000Y-92545000D01*
X160760000Y-40322143D01*
X163220000Y-40322143D01*
X163220000Y-84177857D01*
X167040000Y-84177857D01*
X167040000Y-40322143D01*
X163220000Y-40322143D01*
X160760000Y-40322143D01*
X160760000Y-26557589D01*
X174435082Y-26557589D01*
X174438001Y-26664250D01*
X174596751Y-26823000D01*
X174934928Y-26823000D01*
X174934928Y-27077000D01*
X174596751Y-27077000D01*
X174438001Y-27235750D01*
X174435082Y-27342411D01*
X174444611Y-27467131D01*
X174478288Y-27587596D01*
X174534819Y-27699177D01*
X174612032Y-27797585D01*
X174706961Y-27879038D01*
X174815956Y-27940406D01*
X174934829Y-27979332D01*
X175041251Y-27991400D01*
X175178525Y-27854126D01*
X175218506Y-27886937D01*
X175295377Y-27928026D01*
X175358751Y-27991400D01*
X175390003Y-27987856D01*
X175390002Y-29460211D01*
X175390002Y-30260210D01*
X175386083Y-30299998D01*
X175390002Y-30339786D01*
X175390002Y-30339788D01*
X175401722Y-30458785D01*
X175448039Y-30611470D01*
X175448040Y-30611471D01*
X175523253Y-30752187D01*
X175554287Y-30790002D01*
X175624474Y-30875526D01*
X175655390Y-30900898D01*
X181990001Y-37235510D01*
X181990000Y-87960212D01*
X181986081Y-88000000D01*
X181990000Y-88039788D01*
X181990000Y-88039790D01*
X182001720Y-88158787D01*
X182048037Y-88311472D01*
X182048038Y-88311473D01*
X182123251Y-88452189D01*
X182124731Y-88453992D01*
X182224472Y-88575528D01*
X182255388Y-88600900D01*
X182549100Y-88894612D01*
X182574472Y-88925528D01*
X182697811Y-89026749D01*
X182838527Y-89101963D01*
X182843212Y-89103384D01*
X182823992Y-89166744D01*
X182806928Y-89339998D01*
X182806928Y-90240002D01*
X182823992Y-90413256D01*
X182874528Y-90579852D01*
X182956595Y-90733387D01*
X183067038Y-90867962D01*
X183201613Y-90978405D01*
X183230041Y-90993600D01*
X183190820Y-91005498D01*
X183080506Y-91064463D01*
X182983815Y-91143815D01*
X182904463Y-91240506D01*
X182845498Y-91350820D01*
X182809188Y-91470518D01*
X182796928Y-91595000D01*
X182800000Y-91784250D01*
X182958750Y-91943000D01*
X183758000Y-91943000D01*
X183758000Y-91923000D01*
X184012000Y-91923000D01*
X184012000Y-91943000D01*
X184032000Y-91943000D01*
X184032000Y-92197000D01*
X184012000Y-92197000D01*
X184012000Y-93021250D01*
X184157974Y-93167224D01*
X184139002Y-93186197D01*
X184109999Y-93209999D01*
X184056633Y-93275026D01*
X184015026Y-93325724D01*
X183975860Y-93398998D01*
X183944454Y-93457754D01*
X183900997Y-93601015D01*
X183890000Y-93712668D01*
X183890000Y-93712678D01*
X183886324Y-93750000D01*
X183890000Y-93787323D01*
X183890001Y-95862668D01*
X183886324Y-95900000D01*
X183900998Y-96048985D01*
X183944454Y-96192246D01*
X184015026Y-96324276D01*
X184076339Y-96398985D01*
X184110000Y-96440001D01*
X184138998Y-96463799D01*
X184162884Y-96487685D01*
X184102400Y-96481728D01*
X183797600Y-96481728D01*
X183673118Y-96493988D01*
X183553420Y-96530298D01*
X183443106Y-96589263D01*
X183346415Y-96668615D01*
X183267063Y-96765306D01*
X183208098Y-96875620D01*
X183171788Y-96995318D01*
X183159528Y-97119800D01*
X183159528Y-97780200D01*
X183171788Y-97904682D01*
X183189999Y-97964717D01*
X183189999Y-98321909D01*
X183186323Y-98359232D01*
X183189999Y-98396555D01*
X183189999Y-98396564D01*
X183200996Y-98508217D01*
X183230070Y-98604063D01*
X183215501Y-98602628D01*
X183069451Y-98605700D01*
X182910701Y-98764450D01*
X182910701Y-99863000D01*
X183691751Y-99863000D01*
X183850501Y-99704250D01*
X183852935Y-99336969D01*
X185006584Y-100490618D01*
X185030383Y-100519617D01*
X185146108Y-100614590D01*
X185278137Y-100685162D01*
X185421398Y-100728619D01*
X185533051Y-100739616D01*
X185533059Y-100739616D01*
X185570384Y-100743292D01*
X185607707Y-100739616D01*
X187090000Y-100739616D01*
X187090000Y-101212677D01*
X187086324Y-101250000D01*
X187090000Y-101287322D01*
X187090000Y-101287332D01*
X187100997Y-101398985D01*
X187128606Y-101490001D01*
X187144454Y-101542246D01*
X187215026Y-101674276D01*
X187236772Y-101700773D01*
X187309999Y-101790001D01*
X187339003Y-101813804D01*
X187736207Y-102211008D01*
X187760010Y-102240012D01*
X187875735Y-102334985D01*
X188007764Y-102405557D01*
X188151025Y-102449014D01*
X188262678Y-102460011D01*
X188262686Y-102460011D01*
X188300011Y-102463687D01*
X188337336Y-102460011D01*
X194349078Y-102460011D01*
X194386400Y-102463687D01*
X194423722Y-102460011D01*
X194423733Y-102460011D01*
X194535386Y-102449014D01*
X194678647Y-102405557D01*
X194810676Y-102334985D01*
X194926401Y-102240012D01*
X194950203Y-102211009D01*
X195511008Y-101650206D01*
X195540001Y-101626412D01*
X195563795Y-101597419D01*
X195563799Y-101597415D01*
X195634973Y-101510688D01*
X195646031Y-101490001D01*
X195705546Y-101378658D01*
X195749003Y-101235397D01*
X195760000Y-101123744D01*
X195760000Y-101123735D01*
X195763676Y-101086412D01*
X195760000Y-101049089D01*
X195760000Y-100250324D01*
X208965000Y-100250324D01*
X208965000Y-100749676D01*
X209062418Y-101239432D01*
X209253512Y-101700773D01*
X209530937Y-102115968D01*
X209884032Y-102469063D01*
X210299227Y-102746488D01*
X210760568Y-102937582D01*
X211250324Y-103035000D01*
X211749676Y-103035000D01*
X212239432Y-102937582D01*
X212700773Y-102746488D01*
X213115968Y-102469063D01*
X213469063Y-102115968D01*
X213746488Y-101700773D01*
X213937582Y-101239432D01*
X214035000Y-100749676D01*
X214035000Y-100250324D01*
X213937582Y-99760568D01*
X213746488Y-99299227D01*
X213469063Y-98884032D01*
X213115968Y-98530937D01*
X212700773Y-98253512D01*
X212239432Y-98062418D01*
X211749676Y-97965000D01*
X211250324Y-97965000D01*
X210760568Y-98062418D01*
X210299227Y-98253512D01*
X209884032Y-98530937D01*
X209530937Y-98884032D01*
X209253512Y-99299227D01*
X209062418Y-99760568D01*
X208965000Y-100250324D01*
X195760000Y-100250324D01*
X195760000Y-84737322D01*
X195763676Y-84699999D01*
X195760000Y-84662676D01*
X195760000Y-84662667D01*
X195749003Y-84551014D01*
X195705546Y-84407753D01*
X195634974Y-84275724D01*
X195540001Y-84159999D01*
X195510998Y-84136197D01*
X195314027Y-83939226D01*
X195290023Y-83909977D01*
X195261026Y-83886180D01*
X194363848Y-82989002D01*
X194340045Y-82959999D01*
X194224320Y-82865026D01*
X194092291Y-82794454D01*
X193949030Y-82750997D01*
X193837377Y-82740000D01*
X193837366Y-82740000D01*
X193800044Y-82736324D01*
X193762722Y-82740000D01*
X187260000Y-82740000D01*
X187260000Y-35087325D01*
X187263676Y-35050000D01*
X187260000Y-35012675D01*
X187260000Y-35012667D01*
X187249003Y-34901014D01*
X187205546Y-34757753D01*
X187134974Y-34625724D01*
X187040001Y-34509999D01*
X187011004Y-34486202D01*
X182460001Y-29935200D01*
X182460001Y-27983343D01*
X182573001Y-27994472D01*
X182827001Y-27994472D01*
X182950001Y-27982358D01*
X183073000Y-27994472D01*
X183327000Y-27994472D01*
X183450000Y-27982358D01*
X183572999Y-27994472D01*
X183826999Y-27994472D01*
X183951481Y-27982212D01*
X183953860Y-27981490D01*
X184041250Y-27991400D01*
X184104626Y-27928024D01*
X184181493Y-27886937D01*
X184199999Y-27871750D01*
X184218505Y-27886937D01*
X184295376Y-27928026D01*
X184358750Y-27991400D01*
X184446138Y-27981490D01*
X184448517Y-27982212D01*
X184572999Y-27994472D01*
X184826999Y-27994472D01*
X184950000Y-27982358D01*
X185073001Y-27994472D01*
X185327001Y-27994472D01*
X185450001Y-27982358D01*
X185573000Y-27994472D01*
X185827000Y-27994472D01*
X185950000Y-27982358D01*
X186072999Y-27994472D01*
X186326999Y-27994472D01*
X186451481Y-27982212D01*
X186453861Y-27981490D01*
X186541251Y-27991400D01*
X186604628Y-27928023D01*
X186681493Y-27886937D01*
X186699999Y-27871750D01*
X186718505Y-27886937D01*
X186795378Y-27928027D01*
X186858751Y-27991400D01*
X186946138Y-27981490D01*
X186948517Y-27982212D01*
X187072999Y-27994472D01*
X187326999Y-27994472D01*
X187450000Y-27982358D01*
X187573001Y-27994472D01*
X187827001Y-27994472D01*
X187950001Y-27982358D01*
X188073000Y-27994472D01*
X188327000Y-27994472D01*
X188450000Y-27982358D01*
X188572999Y-27994472D01*
X188826999Y-27994472D01*
X188951481Y-27982212D01*
X188953861Y-27981490D01*
X189041251Y-27991400D01*
X189104628Y-27928023D01*
X189181493Y-27886937D01*
X189200000Y-27871749D01*
X189218506Y-27886937D01*
X189295377Y-27928026D01*
X189358751Y-27991400D01*
X189446139Y-27981490D01*
X189448518Y-27982212D01*
X189573000Y-27994472D01*
X189827000Y-27994472D01*
X189950001Y-27982358D01*
X190073001Y-27994472D01*
X190327001Y-27994472D01*
X190450001Y-27982358D01*
X190573000Y-27994472D01*
X190827000Y-27994472D01*
X190950000Y-27982358D01*
X191072999Y-27994472D01*
X191326999Y-27994472D01*
X191451481Y-27982212D01*
X191453861Y-27981490D01*
X191541251Y-27991400D01*
X191604628Y-27928023D01*
X191681493Y-27886937D01*
X191700000Y-27871749D01*
X191718506Y-27886937D01*
X191795377Y-27928026D01*
X191858751Y-27991400D01*
X191946139Y-27981490D01*
X191948518Y-27982212D01*
X192073000Y-27994472D01*
X192327000Y-27994472D01*
X192450001Y-27982358D01*
X192573001Y-27994472D01*
X192827001Y-27994472D01*
X192950001Y-27982358D01*
X193073000Y-27994472D01*
X193327000Y-27994472D01*
X193450000Y-27982358D01*
X193572999Y-27994472D01*
X193826999Y-27994472D01*
X193951481Y-27982212D01*
X193953861Y-27981490D01*
X194041251Y-27991400D01*
X194104628Y-27928023D01*
X194181493Y-27886937D01*
X194200000Y-27871749D01*
X194218506Y-27886937D01*
X194295377Y-27928026D01*
X194358751Y-27991400D01*
X194446139Y-27981490D01*
X194448518Y-27982212D01*
X194573000Y-27994472D01*
X194827000Y-27994472D01*
X194950001Y-27982358D01*
X195073001Y-27994472D01*
X195327001Y-27994472D01*
X195450001Y-27982358D01*
X195573000Y-27994472D01*
X195827000Y-27994472D01*
X195950000Y-27982358D01*
X196072999Y-27994472D01*
X196326999Y-27994472D01*
X196451481Y-27982212D01*
X196453861Y-27981490D01*
X196541251Y-27991400D01*
X196604628Y-27928023D01*
X196681493Y-27886937D01*
X196700000Y-27871749D01*
X196718506Y-27886937D01*
X196795377Y-27928026D01*
X196858751Y-27991400D01*
X196946139Y-27981490D01*
X196948518Y-27982212D01*
X197073000Y-27994472D01*
X197327000Y-27994472D01*
X197450001Y-27982358D01*
X197573001Y-27994472D01*
X197827001Y-27994472D01*
X197950001Y-27982358D01*
X198073000Y-27994472D01*
X198327000Y-27994472D01*
X198450000Y-27982358D01*
X198572999Y-27994472D01*
X198826999Y-27994472D01*
X198951481Y-27982212D01*
X198953861Y-27981490D01*
X199041251Y-27991400D01*
X199104628Y-27928023D01*
X199181493Y-27886937D01*
X199200000Y-27871749D01*
X199218506Y-27886937D01*
X199295377Y-27928026D01*
X199358751Y-27991400D01*
X199446139Y-27981490D01*
X199448518Y-27982212D01*
X199573000Y-27994472D01*
X199827000Y-27994472D01*
X199951482Y-27982212D01*
X200071180Y-27945902D01*
X200181494Y-27886937D01*
X200278185Y-27807585D01*
X200357537Y-27710894D01*
X200416502Y-27600580D01*
X200452812Y-27480882D01*
X200465072Y-27356400D01*
X200465072Y-26543600D01*
X200452812Y-26419118D01*
X200416502Y-26299420D01*
X200357537Y-26189106D01*
X200278185Y-26092415D01*
X200181494Y-26013063D01*
X200071180Y-25954098D01*
X199951482Y-25917788D01*
X199827000Y-25905528D01*
X199573000Y-25905528D01*
X199448518Y-25917788D01*
X199446139Y-25918510D01*
X199358751Y-25908600D01*
X199295377Y-25971974D01*
X199218506Y-26013063D01*
X199200000Y-26028251D01*
X199181493Y-26013063D01*
X199104628Y-25971977D01*
X199041251Y-25908600D01*
X198953861Y-25918510D01*
X198951481Y-25917788D01*
X198826999Y-25905528D01*
X198572999Y-25905528D01*
X198449999Y-25917642D01*
X198327000Y-25905528D01*
X198073000Y-25905528D01*
X197950000Y-25917642D01*
X197827001Y-25905528D01*
X197573001Y-25905528D01*
X197450001Y-25917642D01*
X197327000Y-25905528D01*
X197073000Y-25905528D01*
X196948518Y-25917788D01*
X196946139Y-25918510D01*
X196858751Y-25908600D01*
X196795377Y-25971974D01*
X196718506Y-26013063D01*
X196700000Y-26028251D01*
X196681493Y-26013063D01*
X196604628Y-25971977D01*
X196541251Y-25908600D01*
X196453861Y-25918510D01*
X196451481Y-25917788D01*
X196326999Y-25905528D01*
X196072999Y-25905528D01*
X195949999Y-25917642D01*
X195827000Y-25905528D01*
X195573000Y-25905528D01*
X195450000Y-25917642D01*
X195327001Y-25905528D01*
X195073001Y-25905528D01*
X194950001Y-25917642D01*
X194827000Y-25905528D01*
X194573000Y-25905528D01*
X194448518Y-25917788D01*
X194446139Y-25918510D01*
X194358751Y-25908600D01*
X194295377Y-25971974D01*
X194218506Y-26013063D01*
X194200000Y-26028251D01*
X194181493Y-26013063D01*
X194104628Y-25971977D01*
X194041251Y-25908600D01*
X193953861Y-25918510D01*
X193951481Y-25917788D01*
X193826999Y-25905528D01*
X193572999Y-25905528D01*
X193449999Y-25917642D01*
X193327000Y-25905528D01*
X193073000Y-25905528D01*
X192950000Y-25917642D01*
X192827001Y-25905528D01*
X192573001Y-25905528D01*
X192450001Y-25917642D01*
X192327000Y-25905528D01*
X192073000Y-25905528D01*
X191948518Y-25917788D01*
X191946139Y-25918510D01*
X191858751Y-25908600D01*
X191795377Y-25971974D01*
X191718506Y-26013063D01*
X191700000Y-26028251D01*
X191681493Y-26013063D01*
X191604628Y-25971977D01*
X191541251Y-25908600D01*
X191453861Y-25918510D01*
X191451481Y-25917788D01*
X191326999Y-25905528D01*
X191072999Y-25905528D01*
X190949999Y-25917642D01*
X190827000Y-25905528D01*
X190573000Y-25905528D01*
X190450000Y-25917642D01*
X190327001Y-25905528D01*
X190073001Y-25905528D01*
X189950001Y-25917642D01*
X189827000Y-25905528D01*
X189573000Y-25905528D01*
X189448518Y-25917788D01*
X189446139Y-25918510D01*
X189358751Y-25908600D01*
X189295377Y-25971974D01*
X189218506Y-26013063D01*
X189200000Y-26028251D01*
X189181493Y-26013063D01*
X189104628Y-25971977D01*
X189041251Y-25908600D01*
X188953861Y-25918510D01*
X188951481Y-25917788D01*
X188826999Y-25905528D01*
X188572999Y-25905528D01*
X188449999Y-25917642D01*
X188327000Y-25905528D01*
X188073000Y-25905528D01*
X187950000Y-25917642D01*
X187827001Y-25905528D01*
X187573001Y-25905528D01*
X187450000Y-25917642D01*
X187326999Y-25905528D01*
X187072999Y-25905528D01*
X186948517Y-25917788D01*
X186946138Y-25918510D01*
X186858751Y-25908600D01*
X186795378Y-25971973D01*
X186718505Y-26013063D01*
X186699999Y-26028250D01*
X186681493Y-26013063D01*
X186604628Y-25971977D01*
X186541251Y-25908600D01*
X186453861Y-25918510D01*
X186451481Y-25917788D01*
X186326999Y-25905528D01*
X186072999Y-25905528D01*
X185949999Y-25917642D01*
X185827000Y-25905528D01*
X185573000Y-25905528D01*
X185450000Y-25917642D01*
X185327001Y-25905528D01*
X185073001Y-25905528D01*
X184950000Y-25917642D01*
X184826999Y-25905528D01*
X184572999Y-25905528D01*
X184448517Y-25917788D01*
X184446138Y-25918510D01*
X184358750Y-25908600D01*
X184295376Y-25971974D01*
X184218505Y-26013063D01*
X184199999Y-26028250D01*
X184181493Y-26013063D01*
X184104626Y-25971976D01*
X184041250Y-25908600D01*
X183953860Y-25918510D01*
X183951481Y-25917788D01*
X183826999Y-25905528D01*
X183572999Y-25905528D01*
X183449999Y-25917642D01*
X183327000Y-25905528D01*
X183073000Y-25905528D01*
X182950000Y-25917642D01*
X182827001Y-25905528D01*
X182573001Y-25905528D01*
X182450000Y-25917642D01*
X182326999Y-25905528D01*
X182072999Y-25905528D01*
X181949999Y-25917642D01*
X181827000Y-25905528D01*
X181573000Y-25905528D01*
X181450000Y-25917642D01*
X181326999Y-25905528D01*
X181072999Y-25905528D01*
X180949999Y-25917642D01*
X180827000Y-25905528D01*
X180573000Y-25905528D01*
X180450000Y-25917642D01*
X180327001Y-25905528D01*
X180073001Y-25905528D01*
X179950000Y-25917642D01*
X179826999Y-25905528D01*
X179572999Y-25905528D01*
X179449999Y-25917642D01*
X179327000Y-25905528D01*
X179073000Y-25905528D01*
X178950000Y-25917642D01*
X178826999Y-25905528D01*
X178572999Y-25905528D01*
X178449999Y-25917642D01*
X178327000Y-25905528D01*
X178073000Y-25905528D01*
X177950000Y-25917642D01*
X177827001Y-25905528D01*
X177573001Y-25905528D01*
X177450000Y-25917642D01*
X177326999Y-25905528D01*
X177072999Y-25905528D01*
X176949999Y-25917642D01*
X176827000Y-25905528D01*
X176573000Y-25905528D01*
X176450000Y-25917642D01*
X176327001Y-25905528D01*
X176073001Y-25905528D01*
X175950001Y-25917642D01*
X175827000Y-25905528D01*
X175573000Y-25905528D01*
X175448518Y-25917788D01*
X175446139Y-25918510D01*
X175358751Y-25908600D01*
X175295377Y-25971974D01*
X175218506Y-26013063D01*
X175178525Y-26045874D01*
X175041251Y-25908600D01*
X174934829Y-25920668D01*
X174815956Y-25959594D01*
X174706961Y-26020962D01*
X174612032Y-26102415D01*
X174534819Y-26200823D01*
X174478288Y-26312404D01*
X174444611Y-26432869D01*
X174435082Y-26557589D01*
X160760000Y-26557589D01*
X160760000Y-22250324D01*
X160965000Y-22250324D01*
X160965000Y-22749676D01*
X161062418Y-23239432D01*
X161253512Y-23700773D01*
X161530937Y-24115968D01*
X161884032Y-24469063D01*
X162299227Y-24746488D01*
X162760568Y-24937582D01*
X163250324Y-25035000D01*
X163749676Y-25035000D01*
X164239432Y-24937582D01*
X164700773Y-24746488D01*
X165115968Y-24469063D01*
X165469063Y-24115968D01*
X165688405Y-23787700D01*
X172143427Y-23787700D01*
X172155687Y-23912182D01*
X172191997Y-24031880D01*
X172250962Y-24142194D01*
X172330314Y-24238885D01*
X172427005Y-24318237D01*
X172537319Y-24377202D01*
X172657017Y-24413512D01*
X172781499Y-24425772D01*
X173257749Y-24422700D01*
X173416499Y-24263950D01*
X173416499Y-23063800D01*
X173670499Y-23063800D01*
X173670499Y-24263950D01*
X173829249Y-24422700D01*
X174305499Y-24425772D01*
X174429981Y-24413512D01*
X174549679Y-24377202D01*
X174659993Y-24318237D01*
X174756684Y-24238885D01*
X174836036Y-24142194D01*
X174895001Y-24031880D01*
X174931311Y-23912182D01*
X174943571Y-23787700D01*
X199956427Y-23787700D01*
X199968687Y-23912182D01*
X200004997Y-24031880D01*
X200063962Y-24142194D01*
X200143314Y-24238885D01*
X200240005Y-24318237D01*
X200350319Y-24377202D01*
X200470017Y-24413512D01*
X200594499Y-24425772D01*
X201070749Y-24422700D01*
X201229499Y-24263950D01*
X201229499Y-23063800D01*
X201483499Y-23063800D01*
X201483499Y-24263950D01*
X201642249Y-24422700D01*
X202118499Y-24425772D01*
X202242981Y-24413512D01*
X202362679Y-24377202D01*
X202472993Y-24318237D01*
X202569684Y-24238885D01*
X202649036Y-24142194D01*
X202708001Y-24031880D01*
X202744311Y-23912182D01*
X202756571Y-23787700D01*
X202753499Y-23222550D01*
X202594749Y-23063800D01*
X201483499Y-23063800D01*
X201229499Y-23063800D01*
X200118249Y-23063800D01*
X199959499Y-23222550D01*
X199956427Y-23787700D01*
X174943571Y-23787700D01*
X174940499Y-23222550D01*
X174781749Y-23063800D01*
X173670499Y-23063800D01*
X173416499Y-23063800D01*
X172305249Y-23063800D01*
X172146499Y-23222550D01*
X172143427Y-23787700D01*
X165688405Y-23787700D01*
X165746488Y-23700773D01*
X165937582Y-23239432D01*
X166035000Y-22749676D01*
X166035000Y-22250324D01*
X166002295Y-22085900D01*
X172143427Y-22085900D01*
X172146499Y-22651050D01*
X172305249Y-22809800D01*
X173416499Y-22809800D01*
X173416499Y-21609650D01*
X173670499Y-21609650D01*
X173670499Y-22809800D01*
X174781749Y-22809800D01*
X174940499Y-22651050D01*
X174943571Y-22085900D01*
X199956427Y-22085900D01*
X199959499Y-22651050D01*
X200118249Y-22809800D01*
X201229499Y-22809800D01*
X201229499Y-21609650D01*
X201483499Y-21609650D01*
X201483499Y-22809800D01*
X202594749Y-22809800D01*
X202753499Y-22651050D01*
X202755677Y-22250324D01*
X208965000Y-22250324D01*
X208965000Y-22749676D01*
X209062418Y-23239432D01*
X209253512Y-23700773D01*
X209530937Y-24115968D01*
X209884032Y-24469063D01*
X210299227Y-24746488D01*
X210760568Y-24937582D01*
X211250324Y-25035000D01*
X211749676Y-25035000D01*
X212239432Y-24937582D01*
X212700773Y-24746488D01*
X213115968Y-24469063D01*
X213469063Y-24115968D01*
X213746488Y-23700773D01*
X213937582Y-23239432D01*
X214035000Y-22749676D01*
X214035000Y-22250324D01*
X213937582Y-21760568D01*
X213746488Y-21299227D01*
X213469063Y-20884032D01*
X213115968Y-20530937D01*
X212700773Y-20253512D01*
X212239432Y-20062418D01*
X211749676Y-19965000D01*
X211250324Y-19965000D01*
X210760568Y-20062418D01*
X210299227Y-20253512D01*
X209884032Y-20530937D01*
X209530937Y-20884032D01*
X209253512Y-21299227D01*
X209062418Y-21760568D01*
X208965000Y-22250324D01*
X202755677Y-22250324D01*
X202756571Y-22085900D01*
X202744311Y-21961418D01*
X202708001Y-21841720D01*
X202649036Y-21731406D01*
X202569684Y-21634715D01*
X202472993Y-21555363D01*
X202362679Y-21496398D01*
X202242981Y-21460088D01*
X202118499Y-21447828D01*
X201642249Y-21450900D01*
X201483499Y-21609650D01*
X201229499Y-21609650D01*
X201070749Y-21450900D01*
X200594499Y-21447828D01*
X200470017Y-21460088D01*
X200350319Y-21496398D01*
X200240005Y-21555363D01*
X200143314Y-21634715D01*
X200063962Y-21731406D01*
X200004997Y-21841720D01*
X199968687Y-21961418D01*
X199956427Y-22085900D01*
X174943571Y-22085900D01*
X174931311Y-21961418D01*
X174895001Y-21841720D01*
X174836036Y-21731406D01*
X174756684Y-21634715D01*
X174659993Y-21555363D01*
X174549679Y-21496398D01*
X174429981Y-21460088D01*
X174305499Y-21447828D01*
X173829249Y-21450900D01*
X173670499Y-21609650D01*
X173416499Y-21609650D01*
X173257749Y-21450900D01*
X172781499Y-21447828D01*
X172657017Y-21460088D01*
X172537319Y-21496398D01*
X172427005Y-21555363D01*
X172330314Y-21634715D01*
X172250962Y-21731406D01*
X172191997Y-21841720D01*
X172155687Y-21961418D01*
X172143427Y-22085900D01*
X166002295Y-22085900D01*
X165937582Y-21760568D01*
X165746488Y-21299227D01*
X165469063Y-20884032D01*
X165115968Y-20530937D01*
X164700773Y-20253512D01*
X164239432Y-20062418D01*
X163749676Y-19965000D01*
X163250324Y-19965000D01*
X162760568Y-20062418D01*
X162299227Y-20253512D01*
X161884032Y-20530937D01*
X161530937Y-20884032D01*
X161253512Y-21299227D01*
X161062418Y-21760568D01*
X160965000Y-22250324D01*
X160760000Y-22250324D01*
X160760000Y-19760000D01*
X214240000Y-19760000D01*
X214240001Y-103240000D01*
%TA.AperFunction,Conductor*%
D21*
G36*
X214240001Y-103240000D02*
G01*
X160760000Y-103240000D01*
X160760000Y-100250324D01*
X160965000Y-100250324D01*
X160965000Y-100749676D01*
X161062418Y-101239432D01*
X161253512Y-101700773D01*
X161530937Y-102115968D01*
X161884032Y-102469063D01*
X162299227Y-102746488D01*
X162760568Y-102937582D01*
X163250324Y-103035000D01*
X163749676Y-103035000D01*
X164239432Y-102937582D01*
X164700773Y-102746488D01*
X165115968Y-102469063D01*
X165469063Y-102115968D01*
X165746488Y-101700773D01*
X165937582Y-101239432D01*
X166035000Y-100749676D01*
X166035000Y-100739300D01*
X181713829Y-100739300D01*
X181726089Y-100863782D01*
X181762399Y-100983480D01*
X181821364Y-101093794D01*
X181900716Y-101190485D01*
X181997407Y-101269837D01*
X182107721Y-101328802D01*
X182227419Y-101365112D01*
X182351901Y-101377372D01*
X182497951Y-101374300D01*
X182656701Y-101215550D01*
X182656701Y-100117000D01*
X182910701Y-100117000D01*
X182910701Y-101215550D01*
X183069451Y-101374300D01*
X183215501Y-101377372D01*
X183339983Y-101365112D01*
X183459681Y-101328802D01*
X183569995Y-101269837D01*
X183666686Y-101190485D01*
X183746038Y-101093794D01*
X183805003Y-100983480D01*
X183841313Y-100863782D01*
X183853573Y-100739300D01*
X183850501Y-100275750D01*
X183691751Y-100117000D01*
X182910701Y-100117000D01*
X182656701Y-100117000D01*
X181875651Y-100117000D01*
X181716901Y-100275750D01*
X181713829Y-100739300D01*
X166035000Y-100739300D01*
X166035000Y-100250324D01*
X165937582Y-99760568D01*
X165746488Y-99299227D01*
X165707382Y-99240700D01*
X181713829Y-99240700D01*
X181716901Y-99704250D01*
X181875651Y-99863000D01*
X182656701Y-99863000D01*
X182656701Y-98764450D01*
X182497951Y-98605700D01*
X182351901Y-98602628D01*
X182227419Y-98614888D01*
X182107721Y-98651198D01*
X181997407Y-98710163D01*
X181900716Y-98789515D01*
X181821364Y-98886206D01*
X181762399Y-98996520D01*
X181726089Y-99116218D01*
X181713829Y-99240700D01*
X165707382Y-99240700D01*
X165469063Y-98884032D01*
X165115968Y-98530937D01*
X164700773Y-98253512D01*
X164239432Y-98062418D01*
X163749676Y-97965000D01*
X163250324Y-97965000D01*
X162760568Y-98062418D01*
X162299227Y-98253512D01*
X161884032Y-98530937D01*
X161530937Y-98884032D01*
X161253512Y-99299227D01*
X161062418Y-99760568D01*
X160965000Y-100250324D01*
X160760000Y-100250324D01*
X160760000Y-92545000D01*
X182796928Y-92545000D01*
X182809188Y-92669482D01*
X182845498Y-92789180D01*
X182904463Y-92899494D01*
X182983815Y-92996185D01*
X183080506Y-93075537D01*
X183190820Y-93134502D01*
X183310518Y-93170812D01*
X183435000Y-93183072D01*
X183599250Y-93180000D01*
X183758000Y-93021250D01*
X183758000Y-92197000D01*
X182958750Y-92197000D01*
X182800000Y-92355750D01*
X182796928Y-92545000D01*
X160760000Y-92545000D01*
X160760000Y-40322143D01*
X163220000Y-40322143D01*
X163220000Y-84177857D01*
X167040000Y-84177857D01*
X167040000Y-40322143D01*
X163220000Y-40322143D01*
X160760000Y-40322143D01*
X160760000Y-26557589D01*
X174435082Y-26557589D01*
X174438001Y-26664250D01*
X174596751Y-26823000D01*
X174934928Y-26823000D01*
X174934928Y-27077000D01*
X174596751Y-27077000D01*
X174438001Y-27235750D01*
X174435082Y-27342411D01*
X174444611Y-27467131D01*
X174478288Y-27587596D01*
X174534819Y-27699177D01*
X174612032Y-27797585D01*
X174706961Y-27879038D01*
X174815956Y-27940406D01*
X174934829Y-27979332D01*
X175041251Y-27991400D01*
X175178525Y-27854126D01*
X175218506Y-27886937D01*
X175295377Y-27928026D01*
X175358751Y-27991400D01*
X175390003Y-27987856D01*
X175390002Y-29460211D01*
X175390002Y-30260210D01*
X175386083Y-30299998D01*
X175390002Y-30339786D01*
X175390002Y-30339788D01*
X175401722Y-30458785D01*
X175448039Y-30611470D01*
X175448040Y-30611471D01*
X175523253Y-30752187D01*
X175554287Y-30790002D01*
X175624474Y-30875526D01*
X175655390Y-30900898D01*
X181990001Y-37235510D01*
X181990000Y-87960212D01*
X181986081Y-88000000D01*
X181990000Y-88039788D01*
X181990000Y-88039790D01*
X182001720Y-88158787D01*
X182048037Y-88311472D01*
X182048038Y-88311473D01*
X182123251Y-88452189D01*
X182124731Y-88453992D01*
X182224472Y-88575528D01*
X182255388Y-88600900D01*
X182549100Y-88894612D01*
X182574472Y-88925528D01*
X182697811Y-89026749D01*
X182838527Y-89101963D01*
X182843212Y-89103384D01*
X182823992Y-89166744D01*
X182806928Y-89339998D01*
X182806928Y-90240002D01*
X182823992Y-90413256D01*
X182874528Y-90579852D01*
X182956595Y-90733387D01*
X183067038Y-90867962D01*
X183201613Y-90978405D01*
X183230041Y-90993600D01*
X183190820Y-91005498D01*
X183080506Y-91064463D01*
X182983815Y-91143815D01*
X182904463Y-91240506D01*
X182845498Y-91350820D01*
X182809188Y-91470518D01*
X182796928Y-91595000D01*
X182800000Y-91784250D01*
X182958750Y-91943000D01*
X183758000Y-91943000D01*
X183758000Y-91923000D01*
X184012000Y-91923000D01*
X184012000Y-91943000D01*
X184032000Y-91943000D01*
X184032000Y-92197000D01*
X184012000Y-92197000D01*
X184012000Y-93021250D01*
X184157974Y-93167224D01*
X184139002Y-93186197D01*
X184109999Y-93209999D01*
X184056633Y-93275026D01*
X184015026Y-93325724D01*
X183975860Y-93398998D01*
X183944454Y-93457754D01*
X183900997Y-93601015D01*
X183890000Y-93712668D01*
X183890000Y-93712678D01*
X183886324Y-93750000D01*
X183890000Y-93787323D01*
X183890001Y-95862668D01*
X183886324Y-95900000D01*
X183900998Y-96048985D01*
X183944454Y-96192246D01*
X184015026Y-96324276D01*
X184076339Y-96398985D01*
X184110000Y-96440001D01*
X184138998Y-96463799D01*
X184162884Y-96487685D01*
X184102400Y-96481728D01*
X183797600Y-96481728D01*
X183673118Y-96493988D01*
X183553420Y-96530298D01*
X183443106Y-96589263D01*
X183346415Y-96668615D01*
X183267063Y-96765306D01*
X183208098Y-96875620D01*
X183171788Y-96995318D01*
X183159528Y-97119800D01*
X183159528Y-97780200D01*
X183171788Y-97904682D01*
X183189999Y-97964717D01*
X183189999Y-98321909D01*
X183186323Y-98359232D01*
X183189999Y-98396555D01*
X183189999Y-98396564D01*
X183200996Y-98508217D01*
X183230070Y-98604063D01*
X183215501Y-98602628D01*
X183069451Y-98605700D01*
X182910701Y-98764450D01*
X182910701Y-99863000D01*
X183691751Y-99863000D01*
X183850501Y-99704250D01*
X183852935Y-99336969D01*
X185006584Y-100490618D01*
X185030383Y-100519617D01*
X185146108Y-100614590D01*
X185278137Y-100685162D01*
X185421398Y-100728619D01*
X185533051Y-100739616D01*
X185533059Y-100739616D01*
X185570384Y-100743292D01*
X185607707Y-100739616D01*
X187090000Y-100739616D01*
X187090000Y-101212677D01*
X187086324Y-101250000D01*
X187090000Y-101287322D01*
X187090000Y-101287332D01*
X187100997Y-101398985D01*
X187128606Y-101490001D01*
X187144454Y-101542246D01*
X187215026Y-101674276D01*
X187236772Y-101700773D01*
X187309999Y-101790001D01*
X187339003Y-101813804D01*
X187736207Y-102211008D01*
X187760010Y-102240012D01*
X187875735Y-102334985D01*
X188007764Y-102405557D01*
X188151025Y-102449014D01*
X188262678Y-102460011D01*
X188262686Y-102460011D01*
X188300011Y-102463687D01*
X188337336Y-102460011D01*
X194349078Y-102460011D01*
X194386400Y-102463687D01*
X194423722Y-102460011D01*
X194423733Y-102460011D01*
X194535386Y-102449014D01*
X194678647Y-102405557D01*
X194810676Y-102334985D01*
X194926401Y-102240012D01*
X194950203Y-102211009D01*
X195511008Y-101650206D01*
X195540001Y-101626412D01*
X195563795Y-101597419D01*
X195563799Y-101597415D01*
X195634973Y-101510688D01*
X195646031Y-101490001D01*
X195705546Y-101378658D01*
X195749003Y-101235397D01*
X195760000Y-101123744D01*
X195760000Y-101123735D01*
X195763676Y-101086412D01*
X195760000Y-101049089D01*
X195760000Y-100250324D01*
X208965000Y-100250324D01*
X208965000Y-100749676D01*
X209062418Y-101239432D01*
X209253512Y-101700773D01*
X209530937Y-102115968D01*
X209884032Y-102469063D01*
X210299227Y-102746488D01*
X210760568Y-102937582D01*
X211250324Y-103035000D01*
X211749676Y-103035000D01*
X212239432Y-102937582D01*
X212700773Y-102746488D01*
X213115968Y-102469063D01*
X213469063Y-102115968D01*
X213746488Y-101700773D01*
X213937582Y-101239432D01*
X214035000Y-100749676D01*
X214035000Y-100250324D01*
X213937582Y-99760568D01*
X213746488Y-99299227D01*
X213469063Y-98884032D01*
X213115968Y-98530937D01*
X212700773Y-98253512D01*
X212239432Y-98062418D01*
X211749676Y-97965000D01*
X211250324Y-97965000D01*
X210760568Y-98062418D01*
X210299227Y-98253512D01*
X209884032Y-98530937D01*
X209530937Y-98884032D01*
X209253512Y-99299227D01*
X209062418Y-99760568D01*
X208965000Y-100250324D01*
X195760000Y-100250324D01*
X195760000Y-84737322D01*
X195763676Y-84699999D01*
X195760000Y-84662676D01*
X195760000Y-84662667D01*
X195749003Y-84551014D01*
X195705546Y-84407753D01*
X195634974Y-84275724D01*
X195540001Y-84159999D01*
X195510998Y-84136197D01*
X195314027Y-83939226D01*
X195290023Y-83909977D01*
X195261026Y-83886180D01*
X194363848Y-82989002D01*
X194340045Y-82959999D01*
X194224320Y-82865026D01*
X194092291Y-82794454D01*
X193949030Y-82750997D01*
X193837377Y-82740000D01*
X193837366Y-82740000D01*
X193800044Y-82736324D01*
X193762722Y-82740000D01*
X187260000Y-82740000D01*
X187260000Y-35087325D01*
X187263676Y-35050000D01*
X187260000Y-35012675D01*
X187260000Y-35012667D01*
X187249003Y-34901014D01*
X187205546Y-34757753D01*
X187134974Y-34625724D01*
X187040001Y-34509999D01*
X187011004Y-34486202D01*
X182460001Y-29935200D01*
X182460001Y-27983343D01*
X182573001Y-27994472D01*
X182827001Y-27994472D01*
X182950001Y-27982358D01*
X183073000Y-27994472D01*
X183327000Y-27994472D01*
X183450000Y-27982358D01*
X183572999Y-27994472D01*
X183826999Y-27994472D01*
X183951481Y-27982212D01*
X183953860Y-27981490D01*
X184041250Y-27991400D01*
X184104626Y-27928024D01*
X184181493Y-27886937D01*
X184199999Y-27871750D01*
X184218505Y-27886937D01*
X184295376Y-27928026D01*
X184358750Y-27991400D01*
X184446138Y-27981490D01*
X184448517Y-27982212D01*
X184572999Y-27994472D01*
X184826999Y-27994472D01*
X184950000Y-27982358D01*
X185073001Y-27994472D01*
X185327001Y-27994472D01*
X185450001Y-27982358D01*
X185573000Y-27994472D01*
X185827000Y-27994472D01*
X185950000Y-27982358D01*
X186072999Y-27994472D01*
X186326999Y-27994472D01*
X186451481Y-27982212D01*
X186453861Y-27981490D01*
X186541251Y-27991400D01*
X186604628Y-27928023D01*
X186681493Y-27886937D01*
X186699999Y-27871750D01*
X186718505Y-27886937D01*
X186795378Y-27928027D01*
X186858751Y-27991400D01*
X186946138Y-27981490D01*
X186948517Y-27982212D01*
X187072999Y-27994472D01*
X187326999Y-27994472D01*
X187450000Y-27982358D01*
X187573001Y-27994472D01*
X187827001Y-27994472D01*
X187950001Y-27982358D01*
X188073000Y-27994472D01*
X188327000Y-27994472D01*
X188450000Y-27982358D01*
X188572999Y-27994472D01*
X188826999Y-27994472D01*
X188951481Y-27982212D01*
X188953861Y-27981490D01*
X189041251Y-27991400D01*
X189104628Y-27928023D01*
X189181493Y-27886937D01*
X189200000Y-27871749D01*
X189218506Y-27886937D01*
X189295377Y-27928026D01*
X189358751Y-27991400D01*
X189446139Y-27981490D01*
X189448518Y-27982212D01*
X189573000Y-27994472D01*
X189827000Y-27994472D01*
X189950001Y-27982358D01*
X190073001Y-27994472D01*
X190327001Y-27994472D01*
X190450001Y-27982358D01*
X190573000Y-27994472D01*
X190827000Y-27994472D01*
X190950000Y-27982358D01*
X191072999Y-27994472D01*
X191326999Y-27994472D01*
X191451481Y-27982212D01*
X191453861Y-27981490D01*
X191541251Y-27991400D01*
X191604628Y-27928023D01*
X191681493Y-27886937D01*
X191700000Y-27871749D01*
X191718506Y-27886937D01*
X191795377Y-27928026D01*
X191858751Y-27991400D01*
X191946139Y-27981490D01*
X191948518Y-27982212D01*
X192073000Y-27994472D01*
X192327000Y-27994472D01*
X192450001Y-27982358D01*
X192573001Y-27994472D01*
X192827001Y-27994472D01*
X192950001Y-27982358D01*
X193073000Y-27994472D01*
X193327000Y-27994472D01*
X193450000Y-27982358D01*
X193572999Y-27994472D01*
X193826999Y-27994472D01*
X193951481Y-27982212D01*
X193953861Y-27981490D01*
X194041251Y-27991400D01*
X194104628Y-27928023D01*
X194181493Y-27886937D01*
X194200000Y-27871749D01*
X194218506Y-27886937D01*
X194295377Y-27928026D01*
X194358751Y-27991400D01*
X194446139Y-27981490D01*
X194448518Y-27982212D01*
X194573000Y-27994472D01*
X194827000Y-27994472D01*
X194950001Y-27982358D01*
X195073001Y-27994472D01*
X195327001Y-27994472D01*
X195450001Y-27982358D01*
X195573000Y-27994472D01*
X195827000Y-27994472D01*
X195950000Y-27982358D01*
X196072999Y-27994472D01*
X196326999Y-27994472D01*
X196451481Y-27982212D01*
X196453861Y-27981490D01*
X196541251Y-27991400D01*
X196604628Y-27928023D01*
X196681493Y-27886937D01*
X196700000Y-27871749D01*
X196718506Y-27886937D01*
X196795377Y-27928026D01*
X196858751Y-27991400D01*
X196946139Y-27981490D01*
X196948518Y-27982212D01*
X197073000Y-27994472D01*
X197327000Y-27994472D01*
X197450001Y-27982358D01*
X197573001Y-27994472D01*
X197827001Y-27994472D01*
X197950001Y-27982358D01*
X198073000Y-27994472D01*
X198327000Y-27994472D01*
X198450000Y-27982358D01*
X198572999Y-27994472D01*
X198826999Y-27994472D01*
X198951481Y-27982212D01*
X198953861Y-27981490D01*
X199041251Y-27991400D01*
X199104628Y-27928023D01*
X199181493Y-27886937D01*
X199200000Y-27871749D01*
X199218506Y-27886937D01*
X199295377Y-27928026D01*
X199358751Y-27991400D01*
X199446139Y-27981490D01*
X199448518Y-27982212D01*
X199573000Y-27994472D01*
X199827000Y-27994472D01*
X199951482Y-27982212D01*
X200071180Y-27945902D01*
X200181494Y-27886937D01*
X200278185Y-27807585D01*
X200357537Y-27710894D01*
X200416502Y-27600580D01*
X200452812Y-27480882D01*
X200465072Y-27356400D01*
X200465072Y-26543600D01*
X200452812Y-26419118D01*
X200416502Y-26299420D01*
X200357537Y-26189106D01*
X200278185Y-26092415D01*
X200181494Y-26013063D01*
X200071180Y-25954098D01*
X199951482Y-25917788D01*
X199827000Y-25905528D01*
X199573000Y-25905528D01*
X199448518Y-25917788D01*
X199446139Y-25918510D01*
X199358751Y-25908600D01*
X199295377Y-25971974D01*
X199218506Y-26013063D01*
X199200000Y-26028251D01*
X199181493Y-26013063D01*
X199104628Y-25971977D01*
X199041251Y-25908600D01*
X198953861Y-25918510D01*
X198951481Y-25917788D01*
X198826999Y-25905528D01*
X198572999Y-25905528D01*
X198449999Y-25917642D01*
X198327000Y-25905528D01*
X198073000Y-25905528D01*
X197950000Y-25917642D01*
X197827001Y-25905528D01*
X197573001Y-25905528D01*
X197450001Y-25917642D01*
X197327000Y-25905528D01*
X197073000Y-25905528D01*
X196948518Y-25917788D01*
X196946139Y-25918510D01*
X196858751Y-25908600D01*
X196795377Y-25971974D01*
X196718506Y-26013063D01*
X196700000Y-26028251D01*
X196681493Y-26013063D01*
X196604628Y-25971977D01*
X196541251Y-25908600D01*
X196453861Y-25918510D01*
X196451481Y-25917788D01*
X196326999Y-25905528D01*
X196072999Y-25905528D01*
X195949999Y-25917642D01*
X195827000Y-25905528D01*
X195573000Y-25905528D01*
X195450000Y-25917642D01*
X195327001Y-25905528D01*
X195073001Y-25905528D01*
X194950001Y-25917642D01*
X194827000Y-25905528D01*
X194573000Y-25905528D01*
X194448518Y-25917788D01*
X194446139Y-25918510D01*
X194358751Y-25908600D01*
X194295377Y-25971974D01*
X194218506Y-26013063D01*
X194200000Y-26028251D01*
X194181493Y-26013063D01*
X194104628Y-25971977D01*
X194041251Y-25908600D01*
X193953861Y-25918510D01*
X193951481Y-25917788D01*
X193826999Y-25905528D01*
X193572999Y-25905528D01*
X193449999Y-25917642D01*
X193327000Y-25905528D01*
X193073000Y-25905528D01*
X192950000Y-25917642D01*
X192827001Y-25905528D01*
X192573001Y-25905528D01*
X192450001Y-25917642D01*
X192327000Y-25905528D01*
X192073000Y-25905528D01*
X191948518Y-25917788D01*
X191946139Y-25918510D01*
X191858751Y-25908600D01*
X191795377Y-25971974D01*
X191718506Y-26013063D01*
X191700000Y-26028251D01*
X191681493Y-26013063D01*
X191604628Y-25971977D01*
X191541251Y-25908600D01*
X191453861Y-25918510D01*
X191451481Y-25917788D01*
X191326999Y-25905528D01*
X191072999Y-25905528D01*
X190949999Y-25917642D01*
X190827000Y-25905528D01*
X190573000Y-25905528D01*
X190450000Y-25917642D01*
X190327001Y-25905528D01*
X190073001Y-25905528D01*
X189950001Y-25917642D01*
X189827000Y-25905528D01*
X189573000Y-25905528D01*
X189448518Y-25917788D01*
X189446139Y-25918510D01*
X189358751Y-25908600D01*
X189295377Y-25971974D01*
X189218506Y-26013063D01*
X189200000Y-26028251D01*
X189181493Y-26013063D01*
X189104628Y-25971977D01*
X189041251Y-25908600D01*
X188953861Y-25918510D01*
X188951481Y-25917788D01*
X188826999Y-25905528D01*
X188572999Y-25905528D01*
X188449999Y-25917642D01*
X188327000Y-25905528D01*
X188073000Y-25905528D01*
X187950000Y-25917642D01*
X187827001Y-25905528D01*
X187573001Y-25905528D01*
X187450000Y-25917642D01*
X187326999Y-25905528D01*
X187072999Y-25905528D01*
X186948517Y-25917788D01*
X186946138Y-25918510D01*
X186858751Y-25908600D01*
X186795378Y-25971973D01*
X186718505Y-26013063D01*
X186699999Y-26028250D01*
X186681493Y-26013063D01*
X186604628Y-25971977D01*
X186541251Y-25908600D01*
X186453861Y-25918510D01*
X186451481Y-25917788D01*
X186326999Y-25905528D01*
X186072999Y-25905528D01*
X185949999Y-25917642D01*
X185827000Y-25905528D01*
X185573000Y-25905528D01*
X185450000Y-25917642D01*
X185327001Y-25905528D01*
X185073001Y-25905528D01*
X184950000Y-25917642D01*
X184826999Y-25905528D01*
X184572999Y-25905528D01*
X184448517Y-25917788D01*
X184446138Y-25918510D01*
X184358750Y-25908600D01*
X184295376Y-25971974D01*
X184218505Y-26013063D01*
X184199999Y-26028250D01*
X184181493Y-26013063D01*
X184104626Y-25971976D01*
X184041250Y-25908600D01*
X183953860Y-25918510D01*
X183951481Y-25917788D01*
X183826999Y-25905528D01*
X183572999Y-25905528D01*
X183449999Y-25917642D01*
X183327000Y-25905528D01*
X183073000Y-25905528D01*
X182950000Y-25917642D01*
X182827001Y-25905528D01*
X182573001Y-25905528D01*
X182450000Y-25917642D01*
X182326999Y-25905528D01*
X182072999Y-25905528D01*
X181949999Y-25917642D01*
X181827000Y-25905528D01*
X181573000Y-25905528D01*
X181450000Y-25917642D01*
X181326999Y-25905528D01*
X181072999Y-25905528D01*
X180949999Y-25917642D01*
X180827000Y-25905528D01*
X180573000Y-25905528D01*
X180450000Y-25917642D01*
X180327001Y-25905528D01*
X180073001Y-25905528D01*
X179950000Y-25917642D01*
X179826999Y-25905528D01*
X179572999Y-25905528D01*
X179449999Y-25917642D01*
X179327000Y-25905528D01*
X179073000Y-25905528D01*
X178950000Y-25917642D01*
X178826999Y-25905528D01*
X178572999Y-25905528D01*
X178449999Y-25917642D01*
X178327000Y-25905528D01*
X178073000Y-25905528D01*
X177950000Y-25917642D01*
X177827001Y-25905528D01*
X177573001Y-25905528D01*
X177450000Y-25917642D01*
X177326999Y-25905528D01*
X177072999Y-25905528D01*
X176949999Y-25917642D01*
X176827000Y-25905528D01*
X176573000Y-25905528D01*
X176450000Y-25917642D01*
X176327001Y-25905528D01*
X176073001Y-25905528D01*
X175950001Y-25917642D01*
X175827000Y-25905528D01*
X175573000Y-25905528D01*
X175448518Y-25917788D01*
X175446139Y-25918510D01*
X175358751Y-25908600D01*
X175295377Y-25971974D01*
X175218506Y-26013063D01*
X175178525Y-26045874D01*
X175041251Y-25908600D01*
X174934829Y-25920668D01*
X174815956Y-25959594D01*
X174706961Y-26020962D01*
X174612032Y-26102415D01*
X174534819Y-26200823D01*
X174478288Y-26312404D01*
X174444611Y-26432869D01*
X174435082Y-26557589D01*
X160760000Y-26557589D01*
X160760000Y-22250324D01*
X160965000Y-22250324D01*
X160965000Y-22749676D01*
X161062418Y-23239432D01*
X161253512Y-23700773D01*
X161530937Y-24115968D01*
X161884032Y-24469063D01*
X162299227Y-24746488D01*
X162760568Y-24937582D01*
X163250324Y-25035000D01*
X163749676Y-25035000D01*
X164239432Y-24937582D01*
X164700773Y-24746488D01*
X165115968Y-24469063D01*
X165469063Y-24115968D01*
X165688405Y-23787700D01*
X172143427Y-23787700D01*
X172155687Y-23912182D01*
X172191997Y-24031880D01*
X172250962Y-24142194D01*
X172330314Y-24238885D01*
X172427005Y-24318237D01*
X172537319Y-24377202D01*
X172657017Y-24413512D01*
X172781499Y-24425772D01*
X173257749Y-24422700D01*
X173416499Y-24263950D01*
X173416499Y-23063800D01*
X173670499Y-23063800D01*
X173670499Y-24263950D01*
X173829249Y-24422700D01*
X174305499Y-24425772D01*
X174429981Y-24413512D01*
X174549679Y-24377202D01*
X174659993Y-24318237D01*
X174756684Y-24238885D01*
X174836036Y-24142194D01*
X174895001Y-24031880D01*
X174931311Y-23912182D01*
X174943571Y-23787700D01*
X199956427Y-23787700D01*
X199968687Y-23912182D01*
X200004997Y-24031880D01*
X200063962Y-24142194D01*
X200143314Y-24238885D01*
X200240005Y-24318237D01*
X200350319Y-24377202D01*
X200470017Y-24413512D01*
X200594499Y-24425772D01*
X201070749Y-24422700D01*
X201229499Y-24263950D01*
X201229499Y-23063800D01*
X201483499Y-23063800D01*
X201483499Y-24263950D01*
X201642249Y-24422700D01*
X202118499Y-24425772D01*
X202242981Y-24413512D01*
X202362679Y-24377202D01*
X202472993Y-24318237D01*
X202569684Y-24238885D01*
X202649036Y-24142194D01*
X202708001Y-24031880D01*
X202744311Y-23912182D01*
X202756571Y-23787700D01*
X202753499Y-23222550D01*
X202594749Y-23063800D01*
X201483499Y-23063800D01*
X201229499Y-23063800D01*
X200118249Y-23063800D01*
X199959499Y-23222550D01*
X199956427Y-23787700D01*
X174943571Y-23787700D01*
X174940499Y-23222550D01*
X174781749Y-23063800D01*
X173670499Y-23063800D01*
X173416499Y-23063800D01*
X172305249Y-23063800D01*
X172146499Y-23222550D01*
X172143427Y-23787700D01*
X165688405Y-23787700D01*
X165746488Y-23700773D01*
X165937582Y-23239432D01*
X166035000Y-22749676D01*
X166035000Y-22250324D01*
X166002295Y-22085900D01*
X172143427Y-22085900D01*
X172146499Y-22651050D01*
X172305249Y-22809800D01*
X173416499Y-22809800D01*
X173416499Y-21609650D01*
X173670499Y-21609650D01*
X173670499Y-22809800D01*
X174781749Y-22809800D01*
X174940499Y-22651050D01*
X174943571Y-22085900D01*
X199956427Y-22085900D01*
X199959499Y-22651050D01*
X200118249Y-22809800D01*
X201229499Y-22809800D01*
X201229499Y-21609650D01*
X201483499Y-21609650D01*
X201483499Y-22809800D01*
X202594749Y-22809800D01*
X202753499Y-22651050D01*
X202755677Y-22250324D01*
X208965000Y-22250324D01*
X208965000Y-22749676D01*
X209062418Y-23239432D01*
X209253512Y-23700773D01*
X209530937Y-24115968D01*
X209884032Y-24469063D01*
X210299227Y-24746488D01*
X210760568Y-24937582D01*
X211250324Y-25035000D01*
X211749676Y-25035000D01*
X212239432Y-24937582D01*
X212700773Y-24746488D01*
X213115968Y-24469063D01*
X213469063Y-24115968D01*
X213746488Y-23700773D01*
X213937582Y-23239432D01*
X214035000Y-22749676D01*
X214035000Y-22250324D01*
X213937582Y-21760568D01*
X213746488Y-21299227D01*
X213469063Y-20884032D01*
X213115968Y-20530937D01*
X212700773Y-20253512D01*
X212239432Y-20062418D01*
X211749676Y-19965000D01*
X211250324Y-19965000D01*
X210760568Y-20062418D01*
X210299227Y-20253512D01*
X209884032Y-20530937D01*
X209530937Y-20884032D01*
X209253512Y-21299227D01*
X209062418Y-21760568D01*
X208965000Y-22250324D01*
X202755677Y-22250324D01*
X202756571Y-22085900D01*
X202744311Y-21961418D01*
X202708001Y-21841720D01*
X202649036Y-21731406D01*
X202569684Y-21634715D01*
X202472993Y-21555363D01*
X202362679Y-21496398D01*
X202242981Y-21460088D01*
X202118499Y-21447828D01*
X201642249Y-21450900D01*
X201483499Y-21609650D01*
X201229499Y-21609650D01*
X201070749Y-21450900D01*
X200594499Y-21447828D01*
X200470017Y-21460088D01*
X200350319Y-21496398D01*
X200240005Y-21555363D01*
X200143314Y-21634715D01*
X200063962Y-21731406D01*
X200004997Y-21841720D01*
X199968687Y-21961418D01*
X199956427Y-22085900D01*
X174943571Y-22085900D01*
X174931311Y-21961418D01*
X174895001Y-21841720D01*
X174836036Y-21731406D01*
X174756684Y-21634715D01*
X174659993Y-21555363D01*
X174549679Y-21496398D01*
X174429981Y-21460088D01*
X174305499Y-21447828D01*
X173829249Y-21450900D01*
X173670499Y-21609650D01*
X173416499Y-21609650D01*
X173257749Y-21450900D01*
X172781499Y-21447828D01*
X172657017Y-21460088D01*
X172537319Y-21496398D01*
X172427005Y-21555363D01*
X172330314Y-21634715D01*
X172250962Y-21731406D01*
X172191997Y-21841720D01*
X172155687Y-21961418D01*
X172143427Y-22085900D01*
X166002295Y-22085900D01*
X165937582Y-21760568D01*
X165746488Y-21299227D01*
X165469063Y-20884032D01*
X165115968Y-20530937D01*
X164700773Y-20253512D01*
X164239432Y-20062418D01*
X163749676Y-19965000D01*
X163250324Y-19965000D01*
X162760568Y-20062418D01*
X162299227Y-20253512D01*
X161884032Y-20530937D01*
X161530937Y-20884032D01*
X161253512Y-21299227D01*
X161062418Y-21760568D01*
X160965000Y-22250324D01*
X160760000Y-22250324D01*
X160760000Y-19760000D01*
X214240000Y-19760000D01*
X214240001Y-103240000D01*
G37*
%TD.AperFunction*%
D20*
X193640001Y-100490000D02*
X190684521Y-100490000D01*
X190683101Y-100275750D01*
X190524351Y-100117000D01*
X189743301Y-100117000D01*
X189743301Y-100137000D01*
X189489301Y-100137000D01*
X189489301Y-100117000D01*
X189469301Y-100117000D01*
X189469301Y-99863000D01*
X189489301Y-99863000D01*
X189489301Y-99843000D01*
X189743301Y-99843000D01*
X189743301Y-99863000D01*
X190524351Y-99863000D01*
X190683101Y-99704250D01*
X190684057Y-99560011D01*
X193312667Y-99560011D01*
X193349989Y-99563687D01*
X193387311Y-99560011D01*
X193387322Y-99560011D01*
X193498975Y-99549014D01*
X193640001Y-99506235D01*
X193640001Y-100490000D01*
%TA.AperFunction,Conductor*%
D21*
G36*
X193640001Y-100490000D02*
G01*
X190684521Y-100490000D01*
X190683101Y-100275750D01*
X190524351Y-100117000D01*
X189743301Y-100117000D01*
X189743301Y-100137000D01*
X189489301Y-100137000D01*
X189489301Y-100117000D01*
X189469301Y-100117000D01*
X189469301Y-99863000D01*
X189489301Y-99863000D01*
X189489301Y-99843000D01*
X189743301Y-99843000D01*
X189743301Y-99863000D01*
X190524351Y-99863000D01*
X190683101Y-99704250D01*
X190684057Y-99560011D01*
X193312667Y-99560011D01*
X193349989Y-99563687D01*
X193387311Y-99560011D01*
X193387322Y-99560011D01*
X193498975Y-99549014D01*
X193640001Y-99506235D01*
X193640001Y-100490000D01*
G37*
%TD.AperFunction*%
D20*
X192340001Y-86414803D02*
X192340000Y-97585199D01*
X192335199Y-97590000D01*
X189091652Y-97590000D01*
X189078652Y-97577000D01*
X188303002Y-97577000D01*
X188303002Y-97323000D01*
X189078652Y-97323000D01*
X189237402Y-97164250D01*
X189240282Y-97135434D01*
X189231076Y-97010690D01*
X189197710Y-96890138D01*
X189141466Y-96778412D01*
X189064507Y-96679806D01*
X188969789Y-96598108D01*
X188860953Y-96536458D01*
X188742180Y-96497226D01*
X188634152Y-96484800D01*
X188497200Y-96621752D01*
X188469787Y-96598108D01*
X188360951Y-96536458D01*
X188296084Y-96515032D01*
X188265852Y-96484800D01*
X188210000Y-96491224D01*
X188210000Y-96042888D01*
X188218387Y-96038405D01*
X188318750Y-95956039D01*
X188419113Y-96038405D01*
X188572648Y-96120472D01*
X188739244Y-96171008D01*
X188912498Y-96188072D01*
X189437502Y-96188072D01*
X189610756Y-96171008D01*
X189777352Y-96120472D01*
X189930887Y-96038405D01*
X190012137Y-95971724D01*
X190036315Y-96001185D01*
X190133006Y-96080537D01*
X190243320Y-96139502D01*
X190363018Y-96175812D01*
X190487500Y-96188072D01*
X190714250Y-96185000D01*
X190873000Y-96026250D01*
X190873000Y-94977000D01*
X191127000Y-94977000D01*
X191127000Y-96026250D01*
X191285750Y-96185000D01*
X191512500Y-96188072D01*
X191636982Y-96175812D01*
X191756680Y-96139502D01*
X191866994Y-96080537D01*
X191963685Y-96001185D01*
X192043037Y-95904494D01*
X192102002Y-95794180D01*
X192138312Y-95674482D01*
X192150572Y-95550000D01*
X192147500Y-95135750D01*
X191988750Y-94977000D01*
X191127000Y-94977000D01*
X190873000Y-94977000D01*
X190853000Y-94977000D01*
X190853000Y-94723000D01*
X190873000Y-94723000D01*
X190873000Y-93673750D01*
X191127000Y-93673750D01*
X191127000Y-94723000D01*
X191988750Y-94723000D01*
X192147500Y-94564250D01*
X192150572Y-94150000D01*
X192138312Y-94025518D01*
X192102002Y-93905820D01*
X192043037Y-93795506D01*
X191963685Y-93698815D01*
X191866994Y-93619463D01*
X191756680Y-93560498D01*
X191636982Y-93524188D01*
X191512500Y-93511928D01*
X191285750Y-93515000D01*
X191127000Y-93673750D01*
X190873000Y-93673750D01*
X190714250Y-93515000D01*
X190487500Y-93511928D01*
X190363018Y-93524188D01*
X190243320Y-93560498D01*
X190133006Y-93619463D01*
X190036315Y-93698815D01*
X190012137Y-93728276D01*
X189930887Y-93661595D01*
X189777352Y-93579528D01*
X189610756Y-93528992D01*
X189437502Y-93511928D01*
X188912498Y-93511928D01*
X188739244Y-93528992D01*
X188605126Y-93569676D01*
X188861003Y-93313799D01*
X188890001Y-93290001D01*
X188954958Y-93210850D01*
X189014250Y-93210000D01*
X189173000Y-93051250D01*
X189173000Y-91977000D01*
X189427000Y-91977000D01*
X189427000Y-93051250D01*
X189585750Y-93210000D01*
X189800000Y-93213072D01*
X189924482Y-93200812D01*
X190044180Y-93164502D01*
X190154494Y-93105537D01*
X190251185Y-93026185D01*
X190330537Y-92929494D01*
X190389502Y-92819180D01*
X190425812Y-92699482D01*
X190438072Y-92575000D01*
X190435000Y-92135750D01*
X190276250Y-91977000D01*
X189427000Y-91977000D01*
X189173000Y-91977000D01*
X189153000Y-91977000D01*
X189153000Y-91723000D01*
X189173000Y-91723000D01*
X189173000Y-89927000D01*
X189427000Y-89927000D01*
X189427000Y-91723000D01*
X190276250Y-91723000D01*
X190435000Y-91564250D01*
X190438072Y-91125000D01*
X190425812Y-91000518D01*
X190389502Y-90880820D01*
X190359665Y-90825000D01*
X190389502Y-90769180D01*
X190425812Y-90649482D01*
X190438072Y-90525000D01*
X190435000Y-90085750D01*
X190276250Y-89927000D01*
X189427000Y-89927000D01*
X189173000Y-89927000D01*
X189153000Y-89927000D01*
X189153000Y-89673000D01*
X189173000Y-89673000D01*
X189173000Y-88598750D01*
X189427000Y-88598750D01*
X189427000Y-89673000D01*
X190276250Y-89673000D01*
X190435000Y-89514250D01*
X190438072Y-89075000D01*
X190425812Y-88950518D01*
X190389502Y-88830820D01*
X190330537Y-88720506D01*
X190251185Y-88623815D01*
X190154494Y-88544463D01*
X190044180Y-88485498D01*
X189924482Y-88449188D01*
X189800000Y-88436928D01*
X189585750Y-88440000D01*
X189427000Y-88598750D01*
X189173000Y-88598750D01*
X189014250Y-88440000D01*
X188800000Y-88436928D01*
X188675518Y-88449188D01*
X188555820Y-88485498D01*
X188445506Y-88544463D01*
X188348815Y-88623815D01*
X188283342Y-88703594D01*
X188277962Y-88697038D01*
X188143386Y-88586595D01*
X187989850Y-88504528D01*
X187823254Y-88453992D01*
X187650000Y-88436928D01*
X187150000Y-88436928D01*
X186976746Y-88453992D01*
X186810150Y-88504528D01*
X186656614Y-88586595D01*
X186588361Y-88642608D01*
X186538387Y-88601595D01*
X186384852Y-88519528D01*
X186218256Y-88468992D01*
X186045002Y-88451928D01*
X185610000Y-88451928D01*
X185610000Y-87963072D01*
X186025002Y-87963072D01*
X186198256Y-87946008D01*
X186364852Y-87895472D01*
X186518387Y-87813405D01*
X186575000Y-87766944D01*
X186631613Y-87813405D01*
X186785148Y-87895472D01*
X186951744Y-87946008D01*
X187124998Y-87963072D01*
X187650002Y-87963072D01*
X187823256Y-87946008D01*
X187989852Y-87895472D01*
X188143387Y-87813405D01*
X188224637Y-87746724D01*
X188248815Y-87776185D01*
X188345506Y-87855537D01*
X188455820Y-87914502D01*
X188575518Y-87950812D01*
X188700000Y-87963072D01*
X188926750Y-87960000D01*
X189085500Y-87801250D01*
X189085500Y-86752000D01*
X189339500Y-86752000D01*
X189339500Y-87801250D01*
X189498250Y-87960000D01*
X189725000Y-87963072D01*
X189849482Y-87950812D01*
X189969180Y-87914502D01*
X190079494Y-87855537D01*
X190176185Y-87776185D01*
X190255537Y-87679494D01*
X190314502Y-87569180D01*
X190350812Y-87449482D01*
X190363072Y-87325000D01*
X190360000Y-86910750D01*
X190201250Y-86752000D01*
X189339500Y-86752000D01*
X189085500Y-86752000D01*
X189065500Y-86752000D01*
X189065500Y-86498000D01*
X189085500Y-86498000D01*
X189085500Y-86478000D01*
X189339500Y-86478000D01*
X189339500Y-86498000D01*
X190201250Y-86498000D01*
X190360000Y-86339250D01*
X190360588Y-86260000D01*
X192185199Y-86260000D01*
X192340001Y-86414803D01*
%TA.AperFunction,Conductor*%
D21*
G36*
X192340001Y-86414803D02*
G01*
X192340000Y-97585199D01*
X192335199Y-97590000D01*
X189091652Y-97590000D01*
X189078652Y-97577000D01*
X188303002Y-97577000D01*
X188303002Y-97323000D01*
X189078652Y-97323000D01*
X189237402Y-97164250D01*
X189240282Y-97135434D01*
X189231076Y-97010690D01*
X189197710Y-96890138D01*
X189141466Y-96778412D01*
X189064507Y-96679806D01*
X188969789Y-96598108D01*
X188860953Y-96536458D01*
X188742180Y-96497226D01*
X188634152Y-96484800D01*
X188497200Y-96621752D01*
X188469787Y-96598108D01*
X188360951Y-96536458D01*
X188296084Y-96515032D01*
X188265852Y-96484800D01*
X188210000Y-96491224D01*
X188210000Y-96042888D01*
X188218387Y-96038405D01*
X188318750Y-95956039D01*
X188419113Y-96038405D01*
X188572648Y-96120472D01*
X188739244Y-96171008D01*
X188912498Y-96188072D01*
X189437502Y-96188072D01*
X189610756Y-96171008D01*
X189777352Y-96120472D01*
X189930887Y-96038405D01*
X190012137Y-95971724D01*
X190036315Y-96001185D01*
X190133006Y-96080537D01*
X190243320Y-96139502D01*
X190363018Y-96175812D01*
X190487500Y-96188072D01*
X190714250Y-96185000D01*
X190873000Y-96026250D01*
X190873000Y-94977000D01*
X191127000Y-94977000D01*
X191127000Y-96026250D01*
X191285750Y-96185000D01*
X191512500Y-96188072D01*
X191636982Y-96175812D01*
X191756680Y-96139502D01*
X191866994Y-96080537D01*
X191963685Y-96001185D01*
X192043037Y-95904494D01*
X192102002Y-95794180D01*
X192138312Y-95674482D01*
X192150572Y-95550000D01*
X192147500Y-95135750D01*
X191988750Y-94977000D01*
X191127000Y-94977000D01*
X190873000Y-94977000D01*
X190853000Y-94977000D01*
X190853000Y-94723000D01*
X190873000Y-94723000D01*
X190873000Y-93673750D01*
X191127000Y-93673750D01*
X191127000Y-94723000D01*
X191988750Y-94723000D01*
X192147500Y-94564250D01*
X192150572Y-94150000D01*
X192138312Y-94025518D01*
X192102002Y-93905820D01*
X192043037Y-93795506D01*
X191963685Y-93698815D01*
X191866994Y-93619463D01*
X191756680Y-93560498D01*
X191636982Y-93524188D01*
X191512500Y-93511928D01*
X191285750Y-93515000D01*
X191127000Y-93673750D01*
X190873000Y-93673750D01*
X190714250Y-93515000D01*
X190487500Y-93511928D01*
X190363018Y-93524188D01*
X190243320Y-93560498D01*
X190133006Y-93619463D01*
X190036315Y-93698815D01*
X190012137Y-93728276D01*
X189930887Y-93661595D01*
X189777352Y-93579528D01*
X189610756Y-93528992D01*
X189437502Y-93511928D01*
X188912498Y-93511928D01*
X188739244Y-93528992D01*
X188605126Y-93569676D01*
X188861003Y-93313799D01*
X188890001Y-93290001D01*
X188954958Y-93210850D01*
X189014250Y-93210000D01*
X189173000Y-93051250D01*
X189173000Y-91977000D01*
X189427000Y-91977000D01*
X189427000Y-93051250D01*
X189585750Y-93210000D01*
X189800000Y-93213072D01*
X189924482Y-93200812D01*
X190044180Y-93164502D01*
X190154494Y-93105537D01*
X190251185Y-93026185D01*
X190330537Y-92929494D01*
X190389502Y-92819180D01*
X190425812Y-92699482D01*
X190438072Y-92575000D01*
X190435000Y-92135750D01*
X190276250Y-91977000D01*
X189427000Y-91977000D01*
X189173000Y-91977000D01*
X189153000Y-91977000D01*
X189153000Y-91723000D01*
X189173000Y-91723000D01*
X189173000Y-89927000D01*
X189427000Y-89927000D01*
X189427000Y-91723000D01*
X190276250Y-91723000D01*
X190435000Y-91564250D01*
X190438072Y-91125000D01*
X190425812Y-91000518D01*
X190389502Y-90880820D01*
X190359665Y-90825000D01*
X190389502Y-90769180D01*
X190425812Y-90649482D01*
X190438072Y-90525000D01*
X190435000Y-90085750D01*
X190276250Y-89927000D01*
X189427000Y-89927000D01*
X189173000Y-89927000D01*
X189153000Y-89927000D01*
X189153000Y-89673000D01*
X189173000Y-89673000D01*
X189173000Y-88598750D01*
X189427000Y-88598750D01*
X189427000Y-89673000D01*
X190276250Y-89673000D01*
X190435000Y-89514250D01*
X190438072Y-89075000D01*
X190425812Y-88950518D01*
X190389502Y-88830820D01*
X190330537Y-88720506D01*
X190251185Y-88623815D01*
X190154494Y-88544463D01*
X190044180Y-88485498D01*
X189924482Y-88449188D01*
X189800000Y-88436928D01*
X189585750Y-88440000D01*
X189427000Y-88598750D01*
X189173000Y-88598750D01*
X189014250Y-88440000D01*
X188800000Y-88436928D01*
X188675518Y-88449188D01*
X188555820Y-88485498D01*
X188445506Y-88544463D01*
X188348815Y-88623815D01*
X188283342Y-88703594D01*
X188277962Y-88697038D01*
X188143386Y-88586595D01*
X187989850Y-88504528D01*
X187823254Y-88453992D01*
X187650000Y-88436928D01*
X187150000Y-88436928D01*
X186976746Y-88453992D01*
X186810150Y-88504528D01*
X186656614Y-88586595D01*
X186588361Y-88642608D01*
X186538387Y-88601595D01*
X186384852Y-88519528D01*
X186218256Y-88468992D01*
X186045002Y-88451928D01*
X185610000Y-88451928D01*
X185610000Y-87963072D01*
X186025002Y-87963072D01*
X186198256Y-87946008D01*
X186364852Y-87895472D01*
X186518387Y-87813405D01*
X186575000Y-87766944D01*
X186631613Y-87813405D01*
X186785148Y-87895472D01*
X186951744Y-87946008D01*
X187124998Y-87963072D01*
X187650002Y-87963072D01*
X187823256Y-87946008D01*
X187989852Y-87895472D01*
X188143387Y-87813405D01*
X188224637Y-87746724D01*
X188248815Y-87776185D01*
X188345506Y-87855537D01*
X188455820Y-87914502D01*
X188575518Y-87950812D01*
X188700000Y-87963072D01*
X188926750Y-87960000D01*
X189085500Y-87801250D01*
X189085500Y-86752000D01*
X189339500Y-86752000D01*
X189339500Y-87801250D01*
X189498250Y-87960000D01*
X189725000Y-87963072D01*
X189849482Y-87950812D01*
X189969180Y-87914502D01*
X190079494Y-87855537D01*
X190176185Y-87776185D01*
X190255537Y-87679494D01*
X190314502Y-87569180D01*
X190350812Y-87449482D01*
X190363072Y-87325000D01*
X190360000Y-86910750D01*
X190201250Y-86752000D01*
X189339500Y-86752000D01*
X189085500Y-86752000D01*
X189065500Y-86752000D01*
X189065500Y-86498000D01*
X189085500Y-86498000D01*
X189085500Y-86478000D01*
X189339500Y-86478000D01*
X189339500Y-86498000D01*
X190201250Y-86498000D01*
X190360000Y-86339250D01*
X190360588Y-86260000D01*
X192185199Y-86260000D01*
X192340001Y-86414803D01*
G37*
%TD.AperFunction*%
%TD*%
M02*
