%TF.GenerationSoftware,KiCad,Pcbnew,5.1.7-a382d34a8~87~ubuntu16.04.1*%
%TF.CreationDate,2020-11-09T07:45:18+07:00*%
%TF.ProjectId,sama5d27_som1_ek-sharp_ls0xx_lcd-adapter,73616d61-3564-4323-975f-736f6d315f65,rev?*%
%TF.SameCoordinates,Original*%
%TF.FileFunction,Copper,L2,Bot*%
%TF.FilePolarity,Positive*%
%FSLAX46Y46*%
G04 Gerber Fmt 4.6, Leading zero omitted, Abs format (unit mm)*
G04 Created by KiCad (PCBNEW 5.1.7-a382d34a8~87~ubuntu16.04.1) date 2020-11-09 07:45:18*
%MOMM*%
%LPD*%
G01*
G04 APERTURE LIST*
%TA.AperFunction,Profile*%
%ADD10C,0.250000*%
%TD*%
%TA.AperFunction,ComponentPad*%
%ADD11C,3.800000*%
%TD*%
%TA.AperFunction,ViaPad*%
%ADD12C,0.800000*%
%TD*%
%TA.AperFunction,Conductor*%
%ADD13C,0.250000*%
%TD*%
%TA.AperFunction,Conductor*%
%ADD14C,0.254000*%
%TD*%
%TA.AperFunction,Conductor*%
%ADD15C,0.150000*%
%TD*%
G04 APERTURE END LIST*
D10*
X162400000Y-102650000D02*
X162375000Y-22525000D01*
X212450000Y-102675000D02*
X162400000Y-102650000D01*
X212475000Y-22525000D02*
X212450000Y-102675000D01*
X162375000Y-22525000D02*
X212475000Y-22525000D01*
D11*
%TO.P,REF\u002A\u002A,1*%
%TO.N,N/C*%
X209250000Y-99500000D03*
%TD*%
%TO.P,REF\u002A\u002A,1*%
%TO.N,N/C*%
X165500000Y-99500000D03*
%TD*%
%TO.P,REF\u002A\u002A,1*%
%TO.N,N/C*%
X209250000Y-25500000D03*
%TD*%
%TO.P,REF\u002A\u002A,1*%
%TO.N,N/C*%
X165500000Y-25500000D03*
%TD*%
D12*
%TO.N,GND*%
X191000000Y-86600000D03*
X198000000Y-86600000D03*
X190215000Y-97035000D03*
X180450000Y-88150000D03*
X186600000Y-88200000D03*
%TD*%
D13*
%TO.N,GND*%
X198000000Y-89100000D02*
X198100000Y-89200000D01*
X190950000Y-89100000D02*
X198000000Y-89100000D01*
%TD*%
D14*
%TO.N,GND*%
X207634032Y-23530937D02*
X207280937Y-23884032D01*
X207003512Y-24299227D01*
X206812418Y-24760568D01*
X206715000Y-25250324D01*
X206715000Y-25749676D01*
X206812418Y-26239432D01*
X207003512Y-26700773D01*
X207280937Y-27115968D01*
X207634032Y-27469063D01*
X208049227Y-27746488D01*
X208510568Y-27937582D01*
X209000324Y-28035000D01*
X209499676Y-28035000D01*
X209989432Y-27937582D01*
X210450773Y-27746488D01*
X210865968Y-27469063D01*
X211219063Y-27115968D01*
X211496488Y-26700773D01*
X211687582Y-26239432D01*
X211713883Y-26107207D01*
X211691216Y-98778837D01*
X211687582Y-98760568D01*
X211496488Y-98299227D01*
X211219063Y-97884032D01*
X210865968Y-97530937D01*
X210450773Y-97253512D01*
X209989432Y-97062418D01*
X209499676Y-96965000D01*
X209000324Y-96965000D01*
X208510568Y-97062418D01*
X208049227Y-97253512D01*
X207634032Y-97530937D01*
X207280937Y-97884032D01*
X207003512Y-98299227D01*
X206812418Y-98760568D01*
X206715000Y-99250324D01*
X206715000Y-99749676D01*
X206812418Y-100239432D01*
X207003512Y-100700773D01*
X207280937Y-101115968D01*
X207634032Y-101469063D01*
X208049227Y-101746488D01*
X208451229Y-101913003D01*
X166349541Y-101891973D01*
X166700773Y-101746488D01*
X167115968Y-101469063D01*
X167469063Y-101115968D01*
X167746488Y-100700773D01*
X167937582Y-100239432D01*
X168035000Y-99749676D01*
X168035000Y-99250324D01*
X167937582Y-98760568D01*
X167746488Y-98299227D01*
X167469063Y-97884032D01*
X167115968Y-97530937D01*
X166700773Y-97253512D01*
X166239432Y-97062418D01*
X165749676Y-96965000D01*
X165250324Y-96965000D01*
X164760568Y-97062418D01*
X164299227Y-97253512D01*
X163884032Y-97530937D01*
X163530937Y-97884032D01*
X163253512Y-98299227D01*
X163158713Y-98528091D01*
X163136214Y-26417592D01*
X163253512Y-26700773D01*
X163530937Y-27115968D01*
X163884032Y-27469063D01*
X164299227Y-27746488D01*
X164760568Y-27937582D01*
X165250324Y-28035000D01*
X165749676Y-28035000D01*
X166239432Y-27937582D01*
X166700773Y-27746488D01*
X167115968Y-27469063D01*
X167469063Y-27115968D01*
X167746488Y-26700773D01*
X167937582Y-26239432D01*
X168035000Y-25749676D01*
X168035000Y-25250324D01*
X167937582Y-24760568D01*
X167746488Y-24299227D01*
X167469063Y-23884032D01*
X167115968Y-23530937D01*
X166747898Y-23285000D01*
X208002102Y-23285000D01*
X207634032Y-23530937D01*
%TA.AperFunction,Conductor*%
D15*
G36*
X207634032Y-23530937D02*
G01*
X207280937Y-23884032D01*
X207003512Y-24299227D01*
X206812418Y-24760568D01*
X206715000Y-25250324D01*
X206715000Y-25749676D01*
X206812418Y-26239432D01*
X207003512Y-26700773D01*
X207280937Y-27115968D01*
X207634032Y-27469063D01*
X208049227Y-27746488D01*
X208510568Y-27937582D01*
X209000324Y-28035000D01*
X209499676Y-28035000D01*
X209989432Y-27937582D01*
X210450773Y-27746488D01*
X210865968Y-27469063D01*
X211219063Y-27115968D01*
X211496488Y-26700773D01*
X211687582Y-26239432D01*
X211713883Y-26107207D01*
X211691216Y-98778837D01*
X211687582Y-98760568D01*
X211496488Y-98299227D01*
X211219063Y-97884032D01*
X210865968Y-97530937D01*
X210450773Y-97253512D01*
X209989432Y-97062418D01*
X209499676Y-96965000D01*
X209000324Y-96965000D01*
X208510568Y-97062418D01*
X208049227Y-97253512D01*
X207634032Y-97530937D01*
X207280937Y-97884032D01*
X207003512Y-98299227D01*
X206812418Y-98760568D01*
X206715000Y-99250324D01*
X206715000Y-99749676D01*
X206812418Y-100239432D01*
X207003512Y-100700773D01*
X207280937Y-101115968D01*
X207634032Y-101469063D01*
X208049227Y-101746488D01*
X208451229Y-101913003D01*
X166349541Y-101891973D01*
X166700773Y-101746488D01*
X167115968Y-101469063D01*
X167469063Y-101115968D01*
X167746488Y-100700773D01*
X167937582Y-100239432D01*
X168035000Y-99749676D01*
X168035000Y-99250324D01*
X167937582Y-98760568D01*
X167746488Y-98299227D01*
X167469063Y-97884032D01*
X167115968Y-97530937D01*
X166700773Y-97253512D01*
X166239432Y-97062418D01*
X165749676Y-96965000D01*
X165250324Y-96965000D01*
X164760568Y-97062418D01*
X164299227Y-97253512D01*
X163884032Y-97530937D01*
X163530937Y-97884032D01*
X163253512Y-98299227D01*
X163158713Y-98528091D01*
X163136214Y-26417592D01*
X163253512Y-26700773D01*
X163530937Y-27115968D01*
X163884032Y-27469063D01*
X164299227Y-27746488D01*
X164760568Y-27937582D01*
X165250324Y-28035000D01*
X165749676Y-28035000D01*
X166239432Y-27937582D01*
X166700773Y-27746488D01*
X167115968Y-27469063D01*
X167469063Y-27115968D01*
X167746488Y-26700773D01*
X167937582Y-26239432D01*
X168035000Y-25749676D01*
X168035000Y-25250324D01*
X167937582Y-24760568D01*
X167746488Y-24299227D01*
X167469063Y-23884032D01*
X167115968Y-23530937D01*
X166747898Y-23285000D01*
X208002102Y-23285000D01*
X207634032Y-23530937D01*
G37*
%TD.AperFunction*%
%TD*%
M02*
